<?xml version="1.0" encoding="UTF-8" standalone="no"?>
<!DOCTYPE svg PUBLIC "-//W3C//DTD SVG 1.1//EN"
 "http://www.w3.org/Graphics/SVG/1.1/DTD/svg11.dtd">
<!-- Generated by graphviz version 2.40.1 (20161225.0304)
 -->
<!-- Title: %3 Pages: 1 -->
<svg width="1040pt" height="814pt"
 viewBox="0.00 0.00 1040.50 813.80" xmlns="http://www.w3.org/2000/svg" xmlns:xlink="http://www.w3.org/1999/xlink">
<g id="graph0" class="graph" transform="scale(1 1) rotate(0) translate(4 809.8042)">
<title>%3</title>
<polygon fill="#ffffff" stroke="transparent" points="-4,4 -4,-809.8042 1036.498,-809.8042 1036.498,4 -4,4"/>
<g id="clust1" class="cluster">
<title>cluster_0</title>
<polygon fill="#cecdc9" stroke="#cecdc9" points="8,-287.8042 8,-481.8042 123.0293,-481.8042 123.0293,-287.8042 8,-287.8042"/>
<text text-anchor="start" x="35.7334" y="-466.0042" font-family="Helvetica,sans-Serif" font-weight="bold" font-size="16.00" fill="#000000">term: 1F</text>
<text text-anchor="start" x="57.1797" y="-454.8042" font-family="Helvetica,sans-Serif" font-size="10.00" fill="#6e6d6a">9 cr</text>
</g>
<g id="clust2" class="cluster">
<title>cluster_1</title>
<polygon fill="#cecdc9" stroke="#cecdc9" points="143.0293,-287.8042 143.0293,-535.8042 258.0586,-535.8042 258.0586,-287.8042 143.0293,-287.8042"/>
<text text-anchor="start" x="170.3135" y="-520.0042" font-family="Helvetica,sans-Serif" font-weight="bold" font-size="16.00" fill="#000000">term: 1S</text>
<text text-anchor="start" x="189.4282" y="-508.8042" font-family="Helvetica,sans-Serif" font-size="10.00" fill="#6e6d6a">12 cr</text>
</g>
<g id="clust3" class="cluster">
<title>cluster_2</title>
<polygon fill="#cecdc9" stroke="#cecdc9" points="278.0586,-44.8042 278.0586,-346.8042 396.4307,-346.8042 396.4307,-44.8042 278.0586,-44.8042"/>
<text text-anchor="start" x="307.4634" y="-331.0042" font-family="Helvetica,sans-Serif" font-weight="bold" font-size="16.00" fill="#000000">term: 2F</text>
<text text-anchor="start" x="326.1289" y="-319.8042" font-family="Helvetica,sans-Serif" font-size="10.00" fill="#6e6d6a">14 cr</text>
</g>
<g id="clust4" class="cluster">
<title>cluster_3</title>
<polygon fill="#cecdc9" stroke="#cecdc9" points="416.4307,-463.8042 416.4307,-711.8042 525.458,-711.8042 525.458,-463.8042 416.4307,-463.8042"/>
<text text-anchor="start" x="440.7139" y="-696.0042" font-family="Helvetica,sans-Serif" font-weight="bold" font-size="16.00" fill="#000000">term: 2S</text>
<text text-anchor="start" x="459.8286" y="-684.8042" font-family="Helvetica,sans-Serif" font-size="10.00" fill="#6e6d6a">10 cr</text>
</g>
<g id="clust5" class="cluster">
<title>cluster_4</title>
<polygon fill="#cecdc9" stroke="#cecdc9" points="545.458,-93.8042 545.458,-503.8042 652.9473,-503.8042 652.9473,-93.8042 545.458,-93.8042"/>
<text text-anchor="start" x="569.4214" y="-488.0042" font-family="Helvetica,sans-Serif" font-weight="bold" font-size="16.00" fill="#000000">term: 3F</text>
<text text-anchor="start" x="588.0869" y="-476.8042" font-family="Helvetica,sans-Serif" font-size="10.00" fill="#6e6d6a">17 cr</text>
</g>
<g id="clust6" class="cluster">
<title>cluster_5</title>
<polygon fill="#cecdc9" stroke="#cecdc9" points="672.9473,-495.8042 672.9473,-797.8042 772.6504,-797.8042 772.6504,-495.8042 672.9473,-495.8042"/>
<text text-anchor="start" x="692.5684" y="-782.0042" font-family="Helvetica,sans-Serif" font-weight="bold" font-size="16.00" fill="#000000">term: 3S</text>
<text text-anchor="start" x="711.6831" y="-770.8042" font-family="Helvetica,sans-Serif" font-size="10.00" fill="#6e6d6a">13 cr</text>
</g>
<g id="clust7" class="cluster">
<title>cluster_6</title>
<polygon fill="#cecdc9" stroke="#cecdc9" points="792.6504,-387.8042 792.6504,-689.8042 900.1396,-689.8042 900.1396,-387.8042 792.6504,-387.8042"/>
<text text-anchor="start" x="816.6138" y="-674.0042" font-family="Helvetica,sans-Serif" font-weight="bold" font-size="16.00" fill="#000000">term: 4F</text>
<text text-anchor="start" x="835.2793" y="-662.8042" font-family="Helvetica,sans-Serif" font-size="10.00" fill="#6e6d6a">13 cr</text>
</g>
<g id="clust8" class="cluster">
<title>cluster_7</title>
<polygon fill="#cecdc9" stroke="#cecdc9" points="920.1396,-414.8042 920.1396,-662.8042 1024.498,-662.8042 1024.498,-414.8042 920.1396,-414.8042"/>
<text text-anchor="start" x="942.0884" y="-647.0042" font-family="Helvetica,sans-Serif" font-weight="bold" font-size="16.00" fill="#000000">term: 4S</text>
<text text-anchor="start" x="961.2031" y="-635.8042" font-family="Helvetica,sans-Serif" font-size="10.00" fill="#6e6d6a">12 cr</text>
</g>
<!-- PHY 171 -->
<g id="node1" class="node">
<title>PHY 171</title>
<polygon fill="#ffffff" stroke="#ffffff" points="111.2581,-385.8042 19.7712,-385.8042 19.7712,-349.8042 111.2581,-349.8042 111.2581,-385.8042"/>
<text text-anchor="start" x="27.8931" y="-364.6042" font-family="Helvetica,sans-Serif" baseline-shift="sub" font-size="14.00" fill="#6e6d6a">4</text>
<text text-anchor="start" x="35.6792" y="-364.6042" font-family="Helvetica,sans-Serif" font-size="14.00" fill="#5e5d87"> &#160;&#160;PHY 171</text>
</g>
<!-- PHY 171L -->
<g id="node2" class="node">
<title>PHY 171L</title>
<polygon fill="#ffffff" stroke="#ffffff" points="115.0439,-439.8042 15.9853,-439.8042 15.9853,-403.8042 115.0439,-403.8042 115.0439,-439.8042"/>
<text text-anchor="start" x="24" y="-418.6042" font-family="Helvetica,sans-Serif" baseline-shift="sub" font-size="14.00" fill="#6e6d6a">1</text>
<text text-anchor="start" x="31.7861" y="-418.6042" font-family="Helvetica,sans-Serif" font-size="14.00" fill="#5e5d87"> &#160;&#160;PHY 171L</text>
</g>
<!-- PHY 171&#45;&gt;PHY 171L -->
<g id="edge34" class="edge">
<title>PHY 171&#45;&gt;PHY 171L</title>
<path fill="none" stroke="#ff8e00" stroke-width="3" d="M65.5146,-396.1485C65.5146,-396.3036 65.5146,-396.4587 65.5146,-396.6138"/>
<polygon fill="#ff8e00" stroke="#ff8e00" stroke-width="3" points="69.0147,-395.9448 65.5146,-385.9448 62.0147,-395.9449 69.0147,-395.9448"/>
<polygon fill="#ff8e00" stroke="#ff8e00" stroke-width="3" points="62.0148,-393.5943 65.5146,-403.5944 69.0148,-393.5944 62.0148,-393.5943"/>
</g>
<!-- PHY 172L -->
<g id="node4" class="node">
<title>PHY 172L</title>
<polygon fill="#ffffff" stroke="#ffffff" points="250.0732,-385.8042 151.0146,-385.8042 151.0146,-349.8042 250.0732,-349.8042 250.0732,-385.8042"/>
<text text-anchor="start" x="159.0293" y="-364.6042" font-family="Helvetica,sans-Serif" baseline-shift="sub" font-size="14.00" fill="#6e6d6a">1</text>
<text text-anchor="start" x="166.8154" y="-364.6042" font-family="Helvetica,sans-Serif" font-size="14.00" fill="#5e5d87"> &#160;&#160;PHY 172L</text>
</g>
<!-- PHY 171&#45;&gt;PHY 172L -->
<!-- GE 103 -->
<g id="node6" class="node">
<title>GE 103</title>
<polygon fill="#ffffff" stroke="#ffffff" points="241.9746,-493.8042 159.1133,-493.8042 159.1133,-457.8042 241.9746,-457.8042 241.9746,-493.8042"/>
<text text-anchor="start" x="167.0786" y="-472.6042" font-family="Helvetica,sans-Serif" baseline-shift="sub" font-size="14.00" fill="#6e6d6a">3</text>
<text text-anchor="start" x="174.8647" y="-472.6042" font-family="Helvetica,sans-Serif" font-size="14.00" fill="#5e5d87"> &#160;&#160;GE 103</text>
</g>
<!-- PHY 171&#45;&gt;GE 103 -->
<g id="edge37" class="edge">
<title>PHY 171&#45;&gt;GE 103</title>
<path fill="none" stroke="#ff8e00" stroke-width="3" d="M111.1938,-384.9606C115.5388,-387.8034 119.5955,-391.0684 123.0293,-394.8042 140.3487,-413.647 125.7099,-429.9614 143.0293,-448.8042 145.2687,-451.2406 147.7731,-453.4767 150.4496,-455.5261"/>
<polygon fill="#ff8e00" stroke="#ff8e00" stroke-width="3" points="148.6334,-458.5212 158.9027,-461.1274 152.5,-452.686 148.6334,-458.5212"/>
</g>
<!-- GE 204 -->
<g id="node8" class="node">
<title>GE 204</title>
<polygon fill="#ffffff" stroke="#ffffff" points="378.6753,-304.8042 295.8139,-304.8042 295.8139,-268.8042 378.6753,-268.8042 378.6753,-304.8042"/>
<text text-anchor="start" x="303.7793" y="-283.6042" font-family="Helvetica,sans-Serif" baseline-shift="sub" font-size="14.00" fill="#6e6d6a">3</text>
<text text-anchor="start" x="311.5654" y="-283.6042" font-family="Helvetica,sans-Serif" font-size="14.00" fill="#5e5d87"> &#160;&#160;GE 204</text>
</g>
<!-- PHY 171&#45;&gt;GE 204 -->
<g id="edge22" class="edge">
<title>PHY 171&#45;&gt;GE 204</title>
<path fill="none" stroke="#ff8e00" stroke-width="3" d="M111.2591,-350.7073C115.5918,-347.8533 119.6279,-344.5695 123.0293,-340.8042 141.0264,-320.882 121.1268,-299.3307 143.0293,-283.8042 184.1615,-254.6458 243.4951,-260.5699 285.7392,-270.5435"/>
<polygon fill="#ff8e00" stroke="#ff8e00" stroke-width="3" points="285.0005,-273.9665 295.5515,-273.0043 286.7033,-267.1768 285.0005,-273.9665"/>
</g>
<!-- MTH 171 -->
<g id="node3" class="node">
<title>MTH 171</title>
<polygon fill="#ffffff" stroke="#ffffff" points="112.042,-331.8042 18.9873,-331.8042 18.9873,-295.8042 112.042,-295.8042 112.042,-331.8042"/>
<text text-anchor="start" x="27.001" y="-310.6042" font-family="Helvetica,sans-Serif" baseline-shift="sub" font-size="14.00" fill="#6e6d6a">4</text>
<text text-anchor="start" x="34.7871" y="-310.6042" font-family="Helvetica,sans-Serif" font-size="14.00" fill="#5e5d87"> &#160;&#160;MTH 171</text>
</g>
<!-- MTH 171&#45;&gt;PHY 171 -->
<g id="edge28" class="edge">
<title>MTH 171&#45;&gt;PHY 171</title>
<path fill="none" stroke="#53377a" stroke-width="3" stroke-dasharray="5,2" d="M65.5146,-331.9448C65.5146,-334.4268 65.5146,-336.9088 65.5146,-339.3907"/>
<polygon fill="#53377a" stroke="#53377a" stroke-width="3" points="62.0147,-339.5943 65.5146,-349.5944 69.0147,-339.5944 62.0147,-339.5943"/>
</g>
<!-- MTH 171&#45;&gt;GE 103 -->
<g id="edge36" class="edge">
<title>MTH 171&#45;&gt;GE 103</title>
<path fill="none" stroke="#53377a" stroke-width="3" d="M112.1401,-330.5874C116.2515,-333.4933 119.9957,-336.8752 123.0293,-340.8042 152.8628,-379.4433 113.1958,-410.1652 143.0293,-448.8042 145.2192,-451.6404 147.7794,-454.1916 150.5806,-456.4844"/>
<polygon fill="#53377a" stroke="#53377a" stroke-width="3" points="148.7845,-459.4971 159.0062,-462.2841 152.7535,-453.731 148.7845,-459.4971"/>
</g>
<!-- MTH 172 -->
<g id="node7" class="node">
<title>MTH 172</title>
<polygon fill="#ffffff" stroke="#ffffff" points="247.0713,-331.8042 154.0166,-331.8042 154.0166,-295.8042 247.0713,-295.8042 247.0713,-331.8042"/>
<text text-anchor="start" x="162.0303" y="-310.6042" font-family="Helvetica,sans-Serif" baseline-shift="sub" font-size="14.00" fill="#6e6d6a">4</text>
<text text-anchor="start" x="169.8164" y="-310.6042" font-family="Helvetica,sans-Serif" font-size="14.00" fill="#5e5d87"> &#160;&#160;MTH 172</text>
</g>
<!-- MTH 171&#45;&gt;MTH 172 -->
<g id="edge47" class="edge">
<title>MTH 171&#45;&gt;MTH 172</title>
<path fill="none" stroke="#53377a" stroke-width="3" d="M112.3624,-313.8042C122.417,-313.8042 133.1484,-313.8042 143.5393,-313.8042"/>
<polygon fill="#53377a" stroke="#53377a" stroke-width="3" points="143.7791,-317.3043 153.779,-313.8042 143.779,-310.3043 143.7791,-317.3043"/>
</g>
<!-- MTH 171&#45;&gt;GE 204 -->
<g id="edge21" class="edge">
<title>MTH 171&#45;&gt;GE 204</title>
<path fill="none" stroke="#53377a" stroke-width="3" d="M81.9544,-295.709C96.4136,-281.2408 118.8745,-262.0605 143.0293,-253.8042 191.4055,-237.2689 207.9276,-243.7764 258.0586,-253.8042 264.5758,-255.1079 276.1734,-259.5135 288.5169,-264.6998"/>
<polygon fill="#53377a" stroke="#53377a" stroke-width="3" points="287.4597,-268.0546 298.0297,-268.7794 290.2187,-261.6213 287.4597,-268.0546"/>
</g>
<!-- PHY 172L&#45;&gt;GE 204 -->
<!-- PHY 172 -->
<g id="node5" class="node">
<title>PHY 172</title>
<polygon fill="#ffffff" stroke="#ffffff" points="246.2874,-439.8042 154.8005,-439.8042 154.8005,-403.8042 246.2874,-403.8042 246.2874,-439.8042"/>
<text text-anchor="start" x="162.9224" y="-418.6042" font-family="Helvetica,sans-Serif" baseline-shift="sub" font-size="14.00" fill="#6e6d6a">4</text>
<text text-anchor="start" x="170.7085" y="-418.6042" font-family="Helvetica,sans-Serif" font-size="14.00" fill="#5e5d87"> &#160;&#160;PHY 172</text>
</g>
<!-- PHY 172&#45;&gt;PHY 172L -->
<g id="edge26" class="edge">
<title>PHY 172&#45;&gt;PHY 172L</title>
<path fill="none" stroke="#803e75" stroke-width="3" d="M200.5439,-396.6138C200.5439,-396.4587 200.5439,-396.3036 200.5439,-396.1485"/>
<polygon fill="#803e75" stroke="#803e75" stroke-width="3" points="197.0441,-393.5943 200.5439,-403.5944 204.0441,-393.5944 197.0441,-393.5943"/>
<polygon fill="#803e75" stroke="#803e75" stroke-width="3" points="204.044,-395.9448 200.5439,-385.9448 197.044,-395.9449 204.044,-395.9448"/>
</g>
<!-- ME 315 -->
<g id="node17" class="node">
<title>ME 315</title>
<polygon fill="#ffffff" stroke="#ffffff" points="640.9063,-299.8042 557.499,-299.8042 557.499,-263.8042 640.9063,-263.8042 640.9063,-299.8042"/>
<text text-anchor="start" x="565.3511" y="-278.6042" font-family="Helvetica,sans-Serif" baseline-shift="sub" font-size="14.00" fill="#6e6d6a">3</text>
<text text-anchor="start" x="573.1372" y="-278.6042" font-family="Helvetica,sans-Serif" font-size="14.00" fill="#5e5d87"> &#160;&#160;ME 315</text>
</g>
<!-- PHY 172&#45;&gt;ME 315 -->
<g id="edge8" class="edge">
<title>PHY 172&#45;&gt;ME 315</title>
<path fill="none" stroke="#803e75" stroke-width="3" d="M246.2144,-428.1301C286.788,-432.0161 347.128,-433.4889 396.4307,-416.8042 473.9126,-390.5833 475.5663,-351.3029 545.458,-308.8042 547.6439,-307.475 549.9036,-306.153 552.2031,-304.8489"/>
<polygon fill="#803e75" stroke="#803e75" stroke-width="3" points="554.1023,-307.7995 561.1967,-299.9306 550.7436,-301.6579 554.1023,-307.7995"/>
</g>
<!-- ME 340 -->
<g id="node22" class="node">
<title>ME 340</title>
<polygon fill="#ffffff" stroke="#ffffff" points="640.9063,-137.8042 557.499,-137.8042 557.499,-101.8042 640.9063,-101.8042 640.9063,-137.8042"/>
<text text-anchor="start" x="565.3511" y="-116.6042" font-family="Helvetica,sans-Serif" baseline-shift="sub" font-size="14.00" fill="#6e6d6a">3</text>
<text text-anchor="start" x="573.1372" y="-116.6042" font-family="Helvetica,sans-Serif" font-size="14.00" fill="#5e5d87"> &#160;&#160;ME 340</text>
</g>
<!-- PHY 172&#45;&gt;ME 340 -->
<g id="edge41" class="edge">
<title>PHY 172&#45;&gt;ME 340</title>
<path fill="none" stroke="#803e75" stroke-width="3" d="M241.6184,-403.7878C247.2384,-400.9584 252.8587,-397.9297 258.0586,-394.8042 267.5818,-389.0801 268.0147,-384.5558 278.0586,-379.8042 327.0216,-356.6409 351.4242,-380.9429 396.4307,-350.8042 489.7269,-288.3282 459.7758,-219.3713 545.458,-146.8042 546.7728,-145.6907 548.1413,-144.6086 549.5512,-143.5584"/>
<polygon fill="#803e75" stroke="#803e75" stroke-width="3" points="551.6368,-146.374 557.9926,-137.8972 547.7379,-140.5603 551.6368,-146.374"/>
</g>
<!-- ME 345 -->
<g id="node23" class="node">
<title>ME 345</title>
<polygon fill="#ffffff" stroke="#ffffff" points="640.9063,-191.8042 557.499,-191.8042 557.499,-155.8042 640.9063,-155.8042 640.9063,-191.8042"/>
<text text-anchor="start" x="565.3511" y="-170.6042" font-family="Helvetica,sans-Serif" baseline-shift="sub" font-size="14.00" fill="#6e6d6a">3</text>
<text text-anchor="start" x="573.1372" y="-170.6042" font-family="Helvetica,sans-Serif" font-size="14.00" fill="#5e5d87"> &#160;&#160;ME 345</text>
</g>
<!-- PHY 172&#45;&gt;ME 345 -->
<g id="edge46" class="edge">
<title>PHY 172&#45;&gt;ME 345</title>
<path fill="none" stroke="#803e75" stroke-width="3" d="M246.1984,-413.8322C331.2215,-398.5598 506.9264,-364.8298 525.458,-343.8042 567.8908,-295.6609 508.0607,-252.9556 545.458,-200.8042 546.6674,-199.1177 548.013,-197.5303 549.4662,-196.0368"/>
<polygon fill="#803e75" stroke="#803e75" stroke-width="3" points="552.0674,-198.4245 557.4987,-189.3277 547.58,-193.052 552.0674,-198.4245"/>
</g>
<!-- ME 350 -->
<g id="node27" class="node">
<title>ME 350</title>
<polygon fill="#ffffff" stroke="#ffffff" points="764.5025,-755.8042 681.0952,-755.8042 681.0952,-719.8042 764.5025,-719.8042 764.5025,-755.8042"/>
<text text-anchor="start" x="688.9473" y="-734.6042" font-family="Helvetica,sans-Serif" baseline-shift="sub" font-size="14.00" fill="#6e6d6a">3</text>
<text text-anchor="start" x="696.7334" y="-734.6042" font-family="Helvetica,sans-Serif" font-size="14.00" fill="#5e5d87"> &#160;&#160;ME 350</text>
</g>
<!-- GE 103&#45;&gt;ME 350 -->
<g id="edge48" class="edge">
<title>GE 103&#45;&gt;ME 350</title>
<path fill="none" stroke="#ffb300" stroke-width="3" d="M210.1651,-493.8879C236.1291,-540.5817 312.7247,-665.0721 416.4307,-715.8042 498.2197,-755.8148 607.195,-752.2403 670.7076,-745.4219"/>
<polygon fill="#ffb300" stroke="#ffb300" stroke-width="3" points="671.3416,-748.8724 680.8797,-744.26 670.5471,-741.9176 671.3416,-748.8724"/>
</g>
<!-- MTH 172&#45;&gt;PHY 172 -->
<g id="edge27" class="edge">
<title>MTH 172&#45;&gt;PHY 172</title>
<path fill="none" stroke="#f4c800" stroke-width="3" stroke-dasharray="5,2" d="M153.7824,-328.2884C144.9566,-333.481 137.1906,-340.4607 133.0293,-349.8042 126.5199,-364.4202 126.5199,-371.1882 133.0293,-385.8042 135.9341,-392.3265 140.5954,-397.6969 146.1475,-402.1117"/>
<polygon fill="#f4c800" stroke="#f4c800" stroke-width="3" points="144.5622,-405.2624 154.8186,-407.9189 148.4574,-399.4462 144.5622,-405.2624"/>
</g>
<!-- MTH 322 -->
<g id="node11" class="node">
<title>MTH 322</title>
<polygon fill="#ffffff" stroke="#ffffff" points="383.772,-88.8042 290.7173,-88.8042 290.7173,-52.8042 383.772,-52.8042 383.772,-88.8042"/>
<text text-anchor="start" x="298.731" y="-67.6042" font-family="Helvetica,sans-Serif" baseline-shift="sub" font-size="14.00" fill="#6e6d6a">3</text>
<text text-anchor="start" x="306.5171" y="-67.6042" font-family="Helvetica,sans-Serif" font-size="14.00" fill="#5e5d87"> &#160;&#160;MTH 322</text>
</g>
<!-- MTH 172&#45;&gt;MTH 322 -->
<g id="edge39" class="edge">
<title>MTH 172&#45;&gt;MTH 322</title>
<path fill="none" stroke="#f4c800" stroke-width="3" d="M202.3046,-295.7372C207.1463,-255.2975 224.1131,-156.4497 278.0586,-97.8042 279.4062,-96.3392 280.8488,-94.9479 282.3669,-93.6272"/>
<polygon fill="#f4c800" stroke="#f4c800" stroke-width="3" points="284.5505,-96.3653 290.4967,-87.5964 280.38,-90.7433 284.5505,-96.3653"/>
</g>
<!-- MTH 271 -->
<g id="node12" class="node">
<title>MTH 271</title>
<polygon fill="#ffffff" stroke="#ffffff" points="383.772,-250.8042 290.7173,-250.8042 290.7173,-214.8042 383.772,-214.8042 383.772,-250.8042"/>
<text text-anchor="start" x="298.731" y="-229.6042" font-family="Helvetica,sans-Serif" baseline-shift="sub" font-size="14.00" fill="#6e6d6a">3</text>
<text text-anchor="start" x="306.5171" y="-229.6042" font-family="Helvetica,sans-Serif" font-size="14.00" fill="#5e5d87"> &#160;&#160;MTH 271</text>
</g>
<!-- MTH 172&#45;&gt;MTH 271 -->
<g id="edge43" class="edge">
<title>MTH 172&#45;&gt;MTH 271</title>
<path fill="none" stroke="#f4c800" stroke-width="3" d="M224.2479,-295.6175C239.2308,-284.5498 259.2519,-270.528 278.0586,-259.8042 280.588,-258.3619 283.2083,-256.9363 285.8753,-255.5385"/>
<polygon fill="#f4c800" stroke="#f4c800" stroke-width="3" points="287.7047,-258.536 295.0601,-250.9104 284.5547,-252.2848 287.7047,-258.536"/>
</g>
<!-- MTH 353 -->
<g id="node16" class="node">
<title>MTH 353</title>
<polygon fill="#ffffff" stroke="#ffffff" points="517.4717,-669.8042 424.417,-669.8042 424.417,-633.8042 517.4717,-633.8042 517.4717,-669.8042"/>
<text text-anchor="start" x="432.4307" y="-648.6042" font-family="Helvetica,sans-Serif" baseline-shift="sub" font-size="14.00" fill="#6e6d6a">3</text>
<text text-anchor="start" x="440.2168" y="-648.6042" font-family="Helvetica,sans-Serif" font-size="14.00" fill="#5e5d87"> &#160;&#160;MTH 353</text>
</g>
<!-- MTH 172&#45;&gt;MTH 353 -->
<g id="edge44" class="edge">
<title>MTH 172&#45;&gt;MTH 353</title>
<path fill="none" stroke="#f4c800" stroke-width="3" d="M246.2427,-331.8754C250.4805,-334.5242 254.509,-337.4941 258.0586,-340.8042 363.7538,-439.3689 311.7745,-525.137 416.4307,-624.8042 417.5062,-625.8285 418.628,-626.8216 419.7879,-627.7841"/>
<polygon fill="#f4c800" stroke="#f4c800" stroke-width="3" points="417.7612,-630.6379 427.9059,-633.6935 421.8809,-624.9785 417.7612,-630.6379"/>
</g>
<!-- GE 205 -->
<g id="node13" class="node">
<title>GE 205</title>
<polygon fill="#ffffff" stroke="#ffffff" points="512.375,-615.8042 429.5136,-615.8042 429.5136,-579.8042 512.375,-579.8042 512.375,-615.8042"/>
<text text-anchor="start" x="437.479" y="-594.6042" font-family="Helvetica,sans-Serif" baseline-shift="sub" font-size="14.00" fill="#6e6d6a">3</text>
<text text-anchor="start" x="445.2651" y="-594.6042" font-family="Helvetica,sans-Serif" font-size="14.00" fill="#5e5d87"> &#160;&#160;GE 205</text>
</g>
<!-- GE 204&#45;&gt;GE 205 -->
<!-- GE 204&#45;&gt;GE 205 -->
<g id="edge23" class="edge">
<title>GE 204&#45;&gt;GE 205</title>
<path fill="none" stroke="#b32851" stroke-width="3" d="M339.7325,-305.1094C348.7441,-362.7089 381.0184,-537.0217 416.4307,-579.8042 417.908,-581.589 419.5325,-583.2662 421.268,-584.8354"/>
<polygon fill="#b32851" stroke="#b32851" stroke-width="3" points="419.3844,-587.7986 429.4766,-591.0232 423.598,-582.2088 419.3844,-587.7986"/>
</g>
<!-- GE 206 -->
<g id="node14" class="node">
<title>GE 206</title>
<polygon fill="#ffffff" stroke="#ffffff" points="512.375,-507.8042 429.5136,-507.8042 429.5136,-471.8042 512.375,-471.8042 512.375,-507.8042"/>
<text text-anchor="start" x="437.479" y="-486.6042" font-family="Helvetica,sans-Serif" baseline-shift="sub" font-size="14.00" fill="#6e6d6a">3</text>
<text text-anchor="start" x="445.2651" y="-486.6042" font-family="Helvetica,sans-Serif" font-size="14.00" fill="#5e5d87"> &#160;&#160;GE 206</text>
</g>
<!-- GE 204&#45;&gt;GE 206 -->
<g id="edge24" class="edge">
<title>GE 204&#45;&gt;GE 206</title>
<path fill="none" stroke="#b32851" stroke-width="3" d="M347.0623,-304.8832C361.393,-330.8863 389.2961,-380.0854 416.4307,-419.8042 426.6232,-434.7237 438.9209,-450.6681 449.2544,-463.5654"/>
<polygon fill="#b32851" stroke="#b32851" stroke-width="3" points="446.7098,-465.9849 455.7195,-471.5594 452.1526,-461.583 446.7098,-465.9849"/>
</g>
<!-- CHM 145 -->
<g id="node9" class="node">
<title>CHM 145</title>
<polygon fill="#ffffff" stroke="#ffffff" points="384.3315,-142.8042 290.1578,-142.8042 290.1578,-106.8042 384.3315,-106.8042 384.3315,-142.8042"/>
<text text-anchor="start" x="297.9517" y="-121.6042" font-family="Helvetica,sans-Serif" baseline-shift="sub" font-size="14.00" fill="#6e6d6a">4</text>
<text text-anchor="start" x="305.7378" y="-121.6042" font-family="Helvetica,sans-Serif" font-size="14.00" fill="#5e5d87"> &#160;&#160;CHM 145</text>
</g>
<!-- CHM 145L -->
<g id="node10" class="node">
<title>CHM 145L</title>
<polygon fill="#ffffff" stroke="#ffffff" points="388.6174,-196.8042 285.8719,-196.8042 285.8719,-160.8042 388.6174,-160.8042 388.6174,-196.8042"/>
<text text-anchor="start" x="294.0586" y="-175.6042" font-family="Helvetica,sans-Serif" baseline-shift="sub" font-size="14.00" fill="#6e6d6a">1</text>
<text text-anchor="start" x="301.8447" y="-175.6042" font-family="Helvetica,sans-Serif" font-size="14.00" fill="#5e5d87"> &#160;&#160;CHM 145L</text>
</g>
<!-- CHM 145&#45;&gt;CHM 145L -->
<g id="edge30" class="edge">
<title>CHM 145&#45;&gt;CHM 145L</title>
<path fill="none" stroke="#93aa00" stroke-width="3" stroke-dasharray="5,2" d="M337.2446,-142.9448C337.2446,-145.4268 337.2446,-147.9088 337.2446,-150.3907"/>
<polygon fill="#93aa00" stroke="#93aa00" stroke-width="3" points="333.7447,-150.5943 337.2446,-160.5944 340.7447,-150.5944 333.7447,-150.5943"/>
</g>
<!-- CHM 145&#45;&gt;ME 340 -->
<g id="edge40" class="edge">
<title>CHM 145&#45;&gt;ME 340</title>
<path fill="none" stroke="#93aa00" stroke-width="3" d="M384.38,-123.9045C430.2161,-123.0297 499.6853,-121.7037 547.1316,-120.7981"/>
<polygon fill="#93aa00" stroke="#93aa00" stroke-width="3" points="547.2706,-124.2962 557.202,-120.6059 547.137,-117.2974 547.2706,-124.2962"/>
</g>
<!-- MTH 322&#45;&gt;ME 340 -->
<g id="edge42" class="edge">
<title>MTH 322&#45;&gt;ME 340</title>
<path fill="none" stroke="#f6768e" stroke-width="3" stroke-dasharray="5,2" d="M383.7756,-79.508C429.6617,-88.0911 499.6536,-101.1833 547.3128,-110.0981"/>
<polygon fill="#f6768e" stroke="#f6768e" stroke-width="3" points="546.9517,-113.5912 557.4248,-111.9895 548.2388,-106.7105 546.9517,-113.5912"/>
</g>
<!-- MTH 322&#45;&gt;ME 345 -->
<g id="edge45" class="edge">
<title>MTH 322&#45;&gt;ME 345</title>
<path fill="none" stroke="#f6768e" stroke-width="3" d="M379.0223,-88.9192C384.9363,-91.7555 390.8869,-94.7599 396.4307,-97.8042 405.7234,-102.9072 406.9037,-106.1532 416.4307,-110.8042 459.0686,-131.6197 510.3507,-148.6573 547.728,-159.7418"/>
<polygon fill="#f6768e" stroke="#f6768e" stroke-width="3" points="546.8187,-163.1225 557.3991,-162.5693 548.7831,-156.4037 546.8187,-163.1225"/>
</g>
<!-- ME 430 -->
<g id="node29" class="node">
<title>ME 430</title>
<polygon fill="#ffffff" stroke="#ffffff" points="888.0987,-539.8042 804.6914,-539.8042 804.6914,-503.8042 888.0987,-503.8042 888.0987,-539.8042"/>
<text text-anchor="start" x="812.5435" y="-518.6042" font-family="Helvetica,sans-Serif" baseline-shift="sub" font-size="14.00" fill="#6e6d6a">3</text>
<text text-anchor="start" x="820.3296" y="-518.6042" font-family="Helvetica,sans-Serif" font-size="14.00" fill="#5e5d87"> &#160;&#160;ME 430</text>
</g>
<!-- MTH 322&#45;&gt;ME 430 -->
<g id="edge15" class="edge">
<title>MTH 322&#45;&gt;ME 430</title>
<path fill="none" stroke="#f6768e" stroke-width="3" d="M383.998,-63.3293C480.1951,-50.9878 697.5481,-39.5666 772.6504,-172.8042 807.8545,-235.2592 753.1426,-434.9788 792.6504,-494.8042 793.9127,-496.7157 795.3534,-498.4979 796.9325,-500.1588"/>
<polygon fill="#f6768e" stroke="#f6768e" stroke-width="3" points="794.7326,-502.8824 804.6195,-506.6902 799.2651,-497.5479 794.7326,-502.8824"/>
</g>
<!-- ME 410 -->
<g id="node33" class="node">
<title>ME 410</title>
<polygon fill="#ffffff" stroke="#ffffff" points="888.0987,-431.8042 804.6914,-431.8042 804.6914,-395.8042 888.0987,-395.8042 888.0987,-431.8042"/>
<text text-anchor="start" x="812.5435" y="-410.6042" font-family="Helvetica,sans-Serif" baseline-shift="sub" font-size="14.00" fill="#6e6d6a">3</text>
<text text-anchor="start" x="820.3296" y="-410.6042" font-family="Helvetica,sans-Serif" font-size="14.00" fill="#5e5d87"> &#160;&#160;ME 410</text>
</g>
<!-- MTH 322&#45;&gt;ME 410 -->
<g id="edge53" class="edge">
<title>MTH 322&#45;&gt;ME 410</title>
<path fill="none" stroke="#f6768e" stroke-width="3" d="M377.895,-52.8031C462.1104,-18.578 657.3831,44.4523 772.6504,-49.8042 824.7326,-92.3929 840.9066,-307.4284 845.1062,-385.4618"/>
<polygon fill="#f6768e" stroke="#f6768e" stroke-width="3" points="841.6149,-385.7233 845.6218,-395.5312 848.6058,-385.3653 841.6149,-385.7233"/>
</g>
<!-- ME 305 -->
<g id="node19" class="node">
<title>ME 305</title>
<polygon fill="#ffffff" stroke="#ffffff" points="640.9063,-245.8042 557.499,-245.8042 557.499,-209.8042 640.9063,-209.8042 640.9063,-245.8042"/>
<text text-anchor="start" x="565.3511" y="-224.6042" font-family="Helvetica,sans-Serif" baseline-shift="sub" font-size="14.00" fill="#6e6d6a">3</text>
<text text-anchor="start" x="573.1372" y="-224.6042" font-family="Helvetica,sans-Serif" font-size="14.00" fill="#5e5d87"> &#160;&#160;ME 305</text>
</g>
<!-- MTH 271&#45;&gt;ME 305 -->
<g id="edge17" class="edge">
<title>MTH 271&#45;&gt;ME 305</title>
<path fill="none" stroke="#00538a" stroke-width="3" d="M383.7756,-231.9161C429.6617,-231.0402 499.6536,-229.7043 547.3128,-228.7946"/>
<polygon fill="#00538a" stroke="#00538a" stroke-width="3" points="547.4934,-232.2919 557.4248,-228.6016 547.3598,-225.2932 547.4934,-232.2919"/>
</g>
<!-- GE 205&#45;&gt;ME 315 -->
<!-- ME 308 -->
<g id="node24" class="node">
<title>ME 308</title>
<polygon fill="#ffffff" stroke="#ffffff" points="764.5025,-539.8042 681.0952,-539.8042 681.0952,-503.8042 764.5025,-503.8042 764.5025,-539.8042"/>
<text text-anchor="start" x="688.9473" y="-518.6042" font-family="Helvetica,sans-Serif" baseline-shift="sub" font-size="14.00" fill="#6e6d6a">3</text>
<text text-anchor="start" x="696.7334" y="-518.6042" font-family="Helvetica,sans-Serif" font-size="14.00" fill="#5e5d87"> &#160;&#160;ME 308</text>
</g>
<!-- GE 205&#45;&gt;ME 308 -->
<g id="edge11" class="edge">
<title>GE 205&#45;&gt;ME 308</title>
<path fill="none" stroke="#c10020" stroke-width="3" d="M512.3953,-615.2573C552.3012,-629.0315 612.4101,-641.4661 652.9473,-611.8042 676.6553,-594.4565 654.2271,-571.4442 672.9473,-548.8042 673.551,-548.0741 674.1797,-547.3607 674.8308,-546.6639"/>
<polygon fill="#c10020" stroke="#c10020" stroke-width="3" points="677.3848,-549.0767 682.5368,-539.8189 672.736,-543.8432 677.3848,-549.0767"/>
</g>
<!-- ME 370 -->
<g id="node28" class="node">
<title>ME 370</title>
<polygon fill="#ffffff" stroke="#ffffff" points="764.5025,-701.8042 681.0952,-701.8042 681.0952,-665.8042 764.5025,-665.8042 764.5025,-701.8042"/>
<text text-anchor="start" x="688.9473" y="-680.6042" font-family="Helvetica,sans-Serif" baseline-shift="sub" font-size="14.00" fill="#6e6d6a">3</text>
<text text-anchor="start" x="696.7334" y="-680.6042" font-family="Helvetica,sans-Serif" font-size="14.00" fill="#5e5d87"> &#160;&#160;ME 370</text>
</g>
<!-- GE 205&#45;&gt;ME 370 -->
<g id="edge50" class="edge">
<title>GE 205&#45;&gt;ME 370</title>
<path fill="none" stroke="#c10020" stroke-width="3" d="M507.6079,-615.9396C513.576,-618.8985 519.6903,-621.9339 525.458,-624.8042 534.3553,-629.2319 536.1803,-631.2419 545.458,-634.8042 586.752,-650.6599 635.2635,-663.6998 671.1009,-672.3307"/>
<polygon fill="#c10020" stroke="#c10020" stroke-width="3" points="670.3181,-675.7421 680.8562,-674.6468 671.9352,-668.9314 670.3181,-675.7421"/>
</g>
<!-- GE 205&#45;&gt;ME 410 -->
<g id="edge52" class="edge">
<title>GE 205&#45;&gt;ME 410</title>
<path fill="none" stroke="#c10020" stroke-width="3" d="M512.4244,-580.3738C550.2278,-563.7799 607.0081,-537.055 652.9473,-507.8042 662.5494,-501.6903 663.2348,-497.7413 672.9473,-491.8042 711.9584,-467.9574 759.5177,-447.0859 794.9618,-432.9488"/>
<polygon fill="#c10020" stroke="#c10020" stroke-width="3" points="796.5997,-436.0654 804.6204,-429.1431 794.0335,-429.5527 796.5997,-436.0654"/>
</g>
<!-- GE 207 -->
<g id="node15" class="node">
<title>GE 207</title>
<polygon fill="#ffffff" stroke="#ffffff" points="512.375,-561.8042 429.5136,-561.8042 429.5136,-525.8042 512.375,-525.8042 512.375,-561.8042"/>
<text text-anchor="start" x="437.479" y="-540.6042" font-family="Helvetica,sans-Serif" baseline-shift="sub" font-size="14.00" fill="#6e6d6a">1</text>
<text text-anchor="start" x="445.2651" y="-540.6042" font-family="Helvetica,sans-Serif" font-size="14.00" fill="#5e5d87"> &#160;&#160;GE 207</text>
</g>
<!-- GE 206&#45;&gt;GE 207 -->
<g id="edge25" class="edge">
<title>GE 206&#45;&gt;GE 207</title>
<path fill="none" stroke="#cea262" stroke-width="3" stroke-dasharray="5,2" d="M470.9443,-507.9448C470.9443,-510.4268 470.9443,-512.9088 470.9443,-515.3907"/>
<polygon fill="#cea262" stroke="#cea262" stroke-width="3" points="467.4444,-515.5943 470.9443,-525.5944 474.4444,-515.5944 467.4444,-515.5943"/>
</g>
<!-- GE 206&#45;&gt;ME 305 -->
<g id="edge16" class="edge">
<title>GE 206&#45;&gt;ME 305</title>
<path fill="none" stroke="#cea262" stroke-width="3" d="M489.5813,-471.7081C501.9254,-458.5338 517.2954,-439.5977 525.458,-419.8042 553.6205,-351.5132 502.9626,-315.2271 545.458,-254.8042 546.6519,-253.1067 547.9843,-251.51 549.4266,-250.0087"/>
<polygon fill="#cea262" stroke="#cea262" stroke-width="3" points="552.0291,-252.3927 557.4207,-243.2723 547.5183,-247.0398 552.0291,-252.3927"/>
</g>
<!-- ME 300 -->
<g id="node20" class="node">
<title>ME 300</title>
<polygon fill="#ffffff" stroke="#ffffff" points="640.9063,-407.8042 557.499,-407.8042 557.499,-371.8042 640.9063,-371.8042 640.9063,-407.8042"/>
<text text-anchor="start" x="565.3511" y="-386.6042" font-family="Helvetica,sans-Serif" baseline-shift="sub" font-size="14.00" fill="#6e6d6a">3</text>
<text text-anchor="start" x="573.1372" y="-386.6042" font-family="Helvetica,sans-Serif" font-size="14.00" fill="#5e5d87"> &#160;&#160;ME 300</text>
</g>
<!-- GE 206&#45;&gt;ME 300 -->
<g id="edge20" class="edge">
<title>GE 206&#45;&gt;ME 300</title>
<path fill="none" stroke="#cea262" stroke-width="3" d="M508.6065,-471.6867C514.7122,-467.6778 520.6118,-463.0385 525.458,-457.8042 539.2322,-442.9269 531.2058,-431.2242 545.458,-416.8042 546.6691,-415.5788 547.9474,-414.3992 549.2792,-413.2646"/>
<polygon fill="#cea262" stroke="#cea262" stroke-width="3" points="551.4432,-416.0173 557.3956,-407.2526 547.2767,-410.3923 551.4432,-416.0173"/>
</g>
<!-- GE 206&#45;&gt;ME 308 -->
<g id="edge12" class="edge">
<title>GE 206&#45;&gt;ME 308</title>
<path fill="none" stroke="#cea262" stroke-width="3" d="M512.4839,-501.0686C523.1626,-503.6247 534.6808,-506.0882 545.458,-507.8042 587.3751,-514.4786 635.3969,-518.0216 670.8878,-519.8718"/>
<polygon fill="#cea262" stroke="#cea262" stroke-width="3" points="670.8534,-523.3743 681.0138,-520.3716 671.1986,-516.3828 670.8534,-523.3743"/>
</g>
<!-- ME 302 -->
<g id="node25" class="node">
<title>ME 302</title>
<polygon fill="#ffffff" stroke="#ffffff" points="764.5025,-647.8042 681.0952,-647.8042 681.0952,-611.8042 764.5025,-611.8042 764.5025,-647.8042"/>
<text text-anchor="start" x="688.9473" y="-626.6042" font-family="Helvetica,sans-Serif" baseline-shift="sub" font-size="14.00" fill="#6e6d6a">3</text>
<text text-anchor="start" x="696.7334" y="-626.6042" font-family="Helvetica,sans-Serif" font-size="14.00" fill="#5e5d87"> &#160;&#160;ME 302</text>
</g>
<!-- GE 206&#45;&gt;ME 302 -->
<g id="edge18" class="edge">
<title>GE 206&#45;&gt;ME 302</title>
<path fill="none" stroke="#cea262" stroke-width="3" d="M508.3589,-507.9151C514.1183,-510.8238 519.9714,-513.8503 525.458,-516.8042 592.2706,-552.7752 606.8023,-565.6197 672.9473,-602.8042 675.3188,-604.1374 677.7594,-605.4975 680.2264,-606.863"/>
<polygon fill="#cea262" stroke="#cea262" stroke-width="3" points="678.7502,-610.0455 689.1998,-611.794 682.1214,-603.9107 678.7502,-610.0455"/>
</g>
<!-- MTH 353&#45;&gt;ME 370 -->
<g id="edge51" class="edge">
<title>MTH 353&#45;&gt;ME 370</title>
<path fill="none" stroke="#803e75" stroke-width="3" stroke-dasharray="5,2" d="M500.6182,-669.9442C513.8392,-677.005 529.9126,-684.2457 545.458,-687.8042 586.8518,-697.2796 635.104,-695.3871 670.8171,-691.6238"/>
<polygon fill="#803e75" stroke="#803e75" stroke-width="3" points="671.468,-695.0724 681.008,-690.4638 670.6762,-688.1173 671.468,-695.0724"/>
</g>
<!-- ME 316 -->
<g id="node18" class="node">
<title>ME 316</title>
<polygon fill="#ffffff" stroke="#ffffff" points="640.9063,-353.8042 557.499,-353.8042 557.499,-317.8042 640.9063,-317.8042 640.9063,-353.8042"/>
<text text-anchor="start" x="565.3511" y="-332.6042" font-family="Helvetica,sans-Serif" baseline-shift="sub" font-size="14.00" fill="#6e6d6a">1</text>
<text text-anchor="start" x="573.1372" y="-332.6042" font-family="Helvetica,sans-Serif" font-size="14.00" fill="#5e5d87"> &#160;&#160;ME 316</text>
</g>
<!-- ME 315&#45;&gt;ME 316 -->
<g id="edge9" class="edge">
<title>ME 315&#45;&gt;ME 316</title>
<path fill="none" stroke="#ff6800" stroke-width="3" stroke-dasharray="5,2" d="M599.2026,-299.9448C599.2026,-302.4268 599.2026,-304.9088 599.2026,-307.3907"/>
<polygon fill="#ff6800" stroke="#ff6800" stroke-width="3" points="595.7027,-307.5943 599.2026,-317.5944 602.7027,-307.5944 595.7027,-307.5943"/>
</g>
<!-- ME 315&#45;&gt;ME 308 -->
<!-- ME 300L -->
<g id="node21" class="node">
<title>ME 300L</title>
<polygon fill="#ffffff" stroke="#ffffff" points="645.1932,-461.8042 553.2121,-461.8042 553.2121,-425.8042 645.1932,-425.8042 645.1932,-461.8042"/>
<text text-anchor="start" x="561.458" y="-440.6042" font-family="Helvetica,sans-Serif" baseline-shift="sub" font-size="14.00" fill="#6e6d6a">1</text>
<text text-anchor="start" x="569.2441" y="-440.6042" font-family="Helvetica,sans-Serif" font-size="14.00" fill="#5e5d87"> &#160;&#160;ME 300L</text>
</g>
<!-- ME 300&#45;&gt;ME 300L -->
<g id="edge29" class="edge">
<title>ME 300&#45;&gt;ME 300L</title>
<path fill="none" stroke="#7f180d" stroke-width="3" d="M599.2026,-418.1485C599.2026,-418.3036 599.2026,-418.4587 599.2026,-418.6138"/>
<polygon fill="#7f180d" stroke="#7f180d" stroke-width="3" points="602.7027,-417.9448 599.2026,-407.9448 595.7027,-417.9449 602.7027,-417.9448"/>
<polygon fill="#7f180d" stroke="#7f180d" stroke-width="3" points="595.7028,-415.5943 599.2026,-425.5944 602.7028,-415.5944 595.7028,-415.5943"/>
</g>
<!-- ME 340&#45;&gt;ME 430 -->
<g id="edge13" class="edge">
<title>ME 340&#45;&gt;ME 430</title>
<path fill="none" stroke="#817066" stroke-width="3" d="M641.001,-136.8278C645.3776,-139.7242 649.484,-143.0379 652.9473,-146.8042 765.7572,-269.4863 679.8405,-372.1221 792.6504,-494.8042 793.8409,-496.0989 795.1074,-497.3401 796.4347,-498.5292"/>
<polygon fill="#817066" stroke="#817066" stroke-width="3" points="794.5295,-501.4786 804.5967,-504.7806 798.7859,-495.9214 794.5295,-501.4786"/>
</g>
<!-- ME 345&#45;&gt;ME 316 -->
<g id="edge10" class="edge">
<title>ME 345&#45;&gt;ME 316</title>
<path fill="none" stroke="#a6bdd7" stroke-width="3" stroke-dasharray="5,2" d="M557.4256,-187.5124C548.1577,-192.8231 539.8015,-200.0516 535.458,-209.8042 527.3212,-228.0742 527.3212,-281.5342 535.458,-299.8042 538.4441,-306.5092 543.3269,-312.021 549.0987,-316.5369"/>
<polygon fill="#a6bdd7" stroke="#a6bdd7" stroke-width="3" points="547.1653,-319.4545 557.4256,-322.096 551.0521,-313.6326 547.1653,-319.4545"/>
</g>
<!-- ME 345&#45;&gt;ME 370 -->
<g id="edge49" class="edge">
<title>ME 345&#45;&gt;ME 370</title>
<path fill="none" stroke="#a6bdd7" stroke-width="3" d="M641.0584,-188.8658C645.72,-192.1331 649.8829,-196.0709 652.9473,-200.8042 708.0697,-285.9494 619.1438,-570.8194 672.9473,-656.8042 673.2083,-657.2214 673.4782,-657.6326 673.7564,-658.0379"/>
<polygon fill="#a6bdd7" stroke="#a6bdd7" stroke-width="3" points="671.3789,-660.6274 680.6784,-665.7038 676.5744,-655.9362 671.3789,-660.6274"/>
</g>
<!-- ME 309 -->
<g id="node26" class="node">
<title>ME 309</title>
<polygon fill="#ffffff" stroke="#ffffff" points="764.5025,-593.8042 681.0952,-593.8042 681.0952,-557.8042 764.5025,-557.8042 764.5025,-593.8042"/>
<text text-anchor="start" x="688.9473" y="-572.6042" font-family="Helvetica,sans-Serif" baseline-shift="sub" font-size="14.00" fill="#6e6d6a">1</text>
<text text-anchor="start" x="696.7334" y="-572.6042" font-family="Helvetica,sans-Serif" font-size="14.00" fill="#5e5d87"> &#160;&#160;ME 309</text>
</g>
<!-- ME 308&#45;&gt;ME 309 -->
<g id="edge35" class="edge">
<title>ME 308&#45;&gt;ME 309</title>
<path fill="none" stroke="#007d34" stroke-width="3" d="M722.7988,-550.1485C722.7988,-550.3036 722.7988,-550.4587 722.7988,-550.6138"/>
<polygon fill="#007d34" stroke="#007d34" stroke-width="3" points="726.2989,-549.9448 722.7988,-539.9448 719.2989,-549.9449 726.2989,-549.9448"/>
<polygon fill="#007d34" stroke="#007d34" stroke-width="3" points="719.299,-547.5943 722.7988,-557.5944 726.299,-547.5944 719.299,-547.5943"/>
</g>
<!-- ME 308&#45;&gt;ME 430 -->
<!-- ME 308&#45;&gt;ME 430 -->
<g id="edge14" class="edge">
<title>ME 308&#45;&gt;ME 430</title>
<path fill="none" stroke="#007d34" stroke-width="3" d="M764.6429,-528.2312C774.2066,-528.5512 784.4845,-528.6334 794.4153,-528.4779"/>
<polygon fill="#007d34" stroke="#007d34" stroke-width="3" points="794.6824,-531.9725 804.5941,-528.2298 794.5117,-524.9746 794.6824,-531.9725"/>
</g>
<!-- ME 498 -->
<g id="node30" class="node">
<title>ME 498</title>
<polygon fill="#ffffff" stroke="#ffffff" points="888.0987,-647.8042 804.6914,-647.8042 804.6914,-611.8042 888.0987,-611.8042 888.0987,-647.8042"/>
<text text-anchor="start" x="812.5435" y="-626.6042" font-family="Helvetica,sans-Serif" baseline-shift="sub" font-size="14.00" fill="#6e6d6a">3</text>
<text text-anchor="start" x="820.3296" y="-626.6042" font-family="Helvetica,sans-Serif" font-size="14.00" fill="#5e5d87"> &#160;&#160;ME 498</text>
</g>
<!-- ME 302&#45;&gt;ME 498 -->
<g id="edge31" class="edge">
<title>ME 302&#45;&gt;ME 498</title>
<path fill="none" stroke="#593315" stroke-width="3" d="M764.6429,-629.8042C774.2066,-629.8042 784.4845,-629.8042 794.4153,-629.8042"/>
<polygon fill="#593315" stroke="#593315" stroke-width="3" points="794.5941,-633.3043 804.5941,-629.8042 794.594,-626.3043 794.5941,-633.3043"/>
</g>
<!-- ME 370&#45;&gt;ME 498 -->
<g id="edge32" class="edge">
<title>ME 370&#45;&gt;ME 498</title>
<path fill="none" stroke="#f13a13" stroke-width="3" d="M764.2984,-665.6728C774.2852,-661.3095 785.0676,-656.5986 795.4305,-652.071"/>
<polygon fill="#f13a13" stroke="#f13a13" stroke-width="3" points="797.0323,-655.1906 804.7946,-647.9797 794.2297,-648.7761 797.0323,-655.1906"/>
</g>
<!-- ME 430&#45;&gt;ME 498 -->
<g id="edge33" class="edge">
<title>ME 430&#45;&gt;ME 498</title>
<path fill="none" stroke="#232c16" stroke-width="3" stroke-dasharray="5,2" d="M804.618,-535.5124C795.35,-540.8231 786.9939,-548.0516 782.6504,-557.8042 776.141,-572.4202 776.141,-579.1882 782.6504,-593.8042 785.6365,-600.5092 790.5193,-606.021 796.291,-610.5369"/>
<polygon fill="#232c16" stroke="#232c16" stroke-width="3" points="794.3577,-613.4545 804.618,-616.096 798.2444,-607.6326 794.3577,-613.4545"/>
</g>
<!-- ME 430L -->
<g id="node32" class="node">
<title>ME 430L</title>
<polygon fill="#ffffff" stroke="#ffffff" points="892.3856,-593.8042 800.4044,-593.8042 800.4044,-557.8042 892.3856,-557.8042 892.3856,-593.8042"/>
<text text-anchor="start" x="808.6504" y="-572.6042" font-family="Helvetica,sans-Serif" baseline-shift="sub" font-size="14.00" fill="#6e6d6a">1</text>
<text text-anchor="start" x="816.4365" y="-572.6042" font-family="Helvetica,sans-Serif" font-size="14.00" fill="#5e5d87"> &#160;&#160;ME 430L</text>
</g>
<!-- ME 430&#45;&gt;ME 430L -->
<g id="edge38" class="edge">
<title>ME 430&#45;&gt;ME 430L</title>
<path fill="none" stroke="#232c16" stroke-width="3" d="M846.395,-550.1485C846.395,-550.3036 846.395,-550.4587 846.395,-550.6138"/>
<polygon fill="#232c16" stroke="#232c16" stroke-width="3" points="849.8951,-549.9448 846.395,-539.9448 842.8951,-549.9449 849.8951,-549.9448"/>
<polygon fill="#232c16" stroke="#232c16" stroke-width="3" points="842.8952,-547.5943 846.395,-557.5944 849.8952,-547.5944 842.8952,-547.5943"/>
</g>
<!-- GE 359 -->
<g id="node34" class="node">
<title>GE 359</title>
<polygon fill="#ffffff" stroke="#ffffff" points="1013.7495,-566.8042 930.8882,-566.8042 930.8882,-530.8042 1013.7495,-530.8042 1013.7495,-566.8042"/>
<text text-anchor="start" x="938.8535" y="-545.6042" font-family="Helvetica,sans-Serif" baseline-shift="sub" font-size="14.00" fill="#6e6d6a">3</text>
<text text-anchor="start" x="946.6396" y="-545.6042" font-family="Helvetica,sans-Serif" font-size="14.00" fill="#5e5d87"> &#160;&#160;GE 359</text>
</g>
<!-- ME 430&#45;&gt;GE 359 -->
<!-- ME 499 -->
<g id="node35" class="node">
<title>ME 499</title>
<polygon fill="#ffffff" stroke="#ffffff" points="1014.0225,-620.8042 930.6152,-620.8042 930.6152,-584.8042 1014.0225,-584.8042 1014.0225,-620.8042"/>
<text text-anchor="start" x="938.4673" y="-599.6042" font-family="Helvetica,sans-Serif" baseline-shift="sub" font-size="14.00" fill="#6e6d6a">3</text>
<text text-anchor="start" x="946.2534" y="-599.6042" font-family="Helvetica,sans-Serif" font-size="14.00" fill="#5e5d87"> &#160;&#160;ME 499</text>
</g>
<!-- ME 498&#45;&gt;ME 499 -->
<g id="edge19" class="edge">
<title>ME 498&#45;&gt;ME 499</title>
<path fill="none" stroke="#ff7a5c" stroke-width="3" d="M888.3258,-620.8136C898.6273,-618.6048 909.7773,-616.2141 920.484,-613.9184"/>
<polygon fill="#ff7a5c" stroke="#ff7a5c" stroke-width="3" points="921.5272,-617.2744 930.5711,-611.7556 920.0596,-610.4299 921.5272,-617.2744"/>
</g>
<!-- ME El. 1 -->
<g id="node31" class="node">
<title>ME El. 1</title>
<polygon fill="#ffffff" stroke="#ffffff" points="890.7541,-485.8042 802.0359,-485.8042 802.0359,-449.8042 890.7541,-449.8042 890.7541,-485.8042"/>
<text text-anchor="start" x="810.2158" y="-464.6042" font-family="Helvetica,sans-Serif" baseline-shift="sub" font-size="14.00" fill="#6e6d6a">3</text>
<text text-anchor="start" x="818.002" y="-464.6042" font-family="Helvetica,sans-Serif" font-size="14.00" fill="#5e5d87"> &#160;&#160;ME El. 1</text>
</g>
<!-- ME El. 3 -->
<g id="node36" class="node">
<title>ME El. 3</title>
<polygon fill="#ffffff" stroke="#ffffff" points="1016.678,-512.8042 927.9597,-512.8042 927.9597,-476.8042 1016.678,-476.8042 1016.678,-512.8042"/>
<text text-anchor="start" x="936.1396" y="-491.6042" font-family="Helvetica,sans-Serif" baseline-shift="sub" font-size="14.00" fill="#6e6d6a">3</text>
<text text-anchor="start" x="943.9258" y="-491.6042" font-family="Helvetica,sans-Serif" font-size="14.00" fill="#5e5d87"> &#160;&#160;ME El. 3</text>
</g>
<!-- ME El. 2 -->
<g id="node37" class="node">
<title>ME El. 2</title>
<polygon fill="#ffffff" stroke="#ffffff" points="1016.678,-458.8042 927.9597,-458.8042 927.9597,-422.8042 1016.678,-422.8042 1016.678,-458.8042"/>
<text text-anchor="start" x="936.1396" y="-437.6042" font-family="Helvetica,sans-Serif" baseline-shift="sub" font-size="14.00" fill="#6e6d6a">3</text>
<text text-anchor="start" x="943.9258" y="-437.6042" font-family="Helvetica,sans-Serif" font-size="14.00" fill="#5e5d87"> &#160;&#160;ME El. 2</text>
</g>
</g>
</svg>
