<?xml version="1.0" encoding="UTF-8" standalone="no"?>
<!DOCTYPE svg PUBLIC "-//W3C//DTD SVG 1.1//EN"
 "http://www.w3.org/Graphics/SVG/1.1/DTD/svg11.dtd">
<!-- Generated by graphviz version 12.1.0 (20240811.2233)
 -->
<!-- Pages: 1 -->
<svg width="254pt" height="129pt"
 viewBox="0.00 0.00 254.25 129.00" xmlns="http://www.w3.org/2000/svg" xmlns:xlink="http://www.w3.org/1999/xlink">
<g id="graph0" class="graph" transform="scale(1 1) rotate(0) translate(4 125)">
<polygon fill="white" stroke="none" points="-4,4 -4,-125 250.25,-125 250.25,4 -4,4"/>
<g id="clust1" class="cluster">
<title>cluster_01</title>
<polygon fill="none" stroke="black" points="8,-8 8,-113 238.25,-113 238.25,-8 8,-8"/>
<text text-anchor="middle" x="123.12" y="-95.7" font-family="Helvetica,sans-Serif" font-size="14.00">Legend</text>
</g>
<!-- key -->
<g id="node1" class="node">
<title>key</title>
<text text-anchor="start" x="52.25" y="-62.2" font-family="Helvetica,sans-Serif" font-size="14.00">prerequisite &#160;</text>
<text text-anchor="start" x="57.5" y="-43.2" font-family="Helvetica,sans-Serif" font-size="14.00">corequisite &#160;</text>
<text text-anchor="start" x="26" y="-24.2" font-family="Helvetica,sans-Serif" font-size="14.00">con&#45;prerequisite &#160;</text>
</g>
<!-- key2 -->
<g id="node2" class="node">
<title>key2</title>
<text text-anchor="start" x="201.38" y="-62.2" font-family="Helvetica,sans-Serif" font-size="14.00"> </text>
<text text-anchor="start" x="201.38" y="-43.2" font-family="Helvetica,sans-Serif" font-size="14.00"> </text>
<text text-anchor="start" x="201.38" y="-24.2" font-family="Helvetica,sans-Serif" font-size="14.00"> </text>
</g>
<!-- key&#45;&gt;key2 -->
<g id="edge1" class="edge">
<title>key:e&#45;&gt;key2:w</title>
<path fill="none" stroke="black" stroke-width="3" d="M133.25,-68C156.65,-68 165.87,-68 183.84,-68"/>
<polygon fill="black" stroke="black" stroke-width="3" points="183.83,-71.5 193.83,-68 183.83,-64.5 183.83,-71.5"/>
</g>
<!-- key&#45;&gt;key2 -->
<g id="edge2" class="edge">
<title>key:e&#45;&gt;key2:w</title>
<path fill="none" stroke="black" stroke-width="3" d="M147.79,-49C161.55,-49 170.17,-49 183.96,-49"/>
<polygon fill="black" stroke="black" stroke-width="3" points="147.79,-45.5 137.79,-49 147.79,-52.5 147.79,-45.5"/>
<polygon fill="black" stroke="black" stroke-width="3" points="183.83,-52.5 193.83,-49 183.83,-45.5 183.83,-52.5"/>
</g>
<!-- key&#45;&gt;key2 -->
<g id="edge3" class="edge">
<title>key:e&#45;&gt;key2:w</title>
<path fill="none" stroke="black" stroke-width="3" stroke-dasharray="5,2" d="M133.25,-30C156.65,-30 165.87,-30 183.84,-30"/>
<polygon fill="black" stroke="black" stroke-width="3" points="183.83,-33.5 193.83,-30 183.83,-26.5 183.83,-33.5"/>
</g>
</g>
</svg>
