<?xml version="1.0" encoding="UTF-8" standalone="no"?>
<!DOCTYPE svg PUBLIC "-//W3C//DTD SVG 1.1//EN"
 "http://www.w3.org/Graphics/SVG/1.1/DTD/svg11.dtd">
<!-- Generated by graphviz version 2.44.1 (20200629.0846)
 -->
<!-- Pages: 1 -->
<svg width="1040pt" height="706pt"
 viewBox="0.00 0.00 1040.31 706.36" xmlns="http://www.w3.org/2000/svg" xmlns:xlink="http://www.w3.org/1999/xlink">
<g id="graph0" class="graph" transform="scale(1 1) rotate(0) translate(4 702.36)">
<polygon fill="white" stroke="transparent" points="-4,4 -4,-702.36 1036.31,-702.36 1036.31,4 -4,4"/>
<g id="clust1" class="cluster">
<title>cluster_0</title>
<polygon fill="#cecdc9" stroke="#cecdc9" points="24.31,-158.36 24.31,-460.36 136.31,-460.36 136.31,-158.36 24.31,-158.36"/>
<text text-anchor="start" x="48.31" y="-444.56" font-family="Helvetica,sans-Serif" font-weight="bold" font-size="16.00">term: 1F</text>
<text text-anchor="start" x="69.31" y="-433.36" font-family="Helvetica,sans-Serif" font-size="10.00" fill="#6e6d6a">14 cr</text>
</g>
<g id="clust2" class="cluster">
<title>cluster_1</title>
<polygon fill="#cecdc9" stroke="#cecdc9" points="156.31,-158.36 156.31,-460.36 268.31,-460.36 268.31,-158.36 156.31,-158.36"/>
<text text-anchor="start" x="180.31" y="-444.56" font-family="Helvetica,sans-Serif" font-weight="bold" font-size="16.00">term: 1S</text>
<text text-anchor="start" x="201.31" y="-433.36" font-family="Helvetica,sans-Serif" font-size="10.00" fill="#6e6d6a">14 cr</text>
</g>
<g id="clust3" class="cluster">
<title>cluster_2</title>
<polygon fill="#cecdc9" stroke="#cecdc9" points="288.31,-388.36 288.31,-690.36 404.31,-690.36 404.31,-388.36 288.31,-388.36"/>
<text text-anchor="start" x="314.31" y="-674.56" font-family="Helvetica,sans-Serif" font-weight="bold" font-size="16.00">term: 2F</text>
<text text-anchor="start" x="335.31" y="-663.36" font-family="Helvetica,sans-Serif" font-size="10.00" fill="#6e6d6a">14 cr</text>
</g>
<g id="clust4" class="cluster">
<title>cluster_3</title>
<polygon fill="#cecdc9" stroke="#cecdc9" points="424.31,-26.36 424.31,-274.36 531.31,-274.36 531.31,-26.36 424.31,-26.36"/>
<text text-anchor="start" x="445.81" y="-258.56" font-family="Helvetica,sans-Serif" font-weight="bold" font-size="16.00">term: 2S</text>
<text text-anchor="start" x="466.81" y="-247.36" font-family="Helvetica,sans-Serif" font-size="10.00" fill="#6e6d6a">10 cr</text>
</g>
<g id="clust5" class="cluster">
<title>cluster_4</title>
<polygon fill="#cecdc9" stroke="#cecdc9" points="551.31,-202.36 551.31,-558.36 657.31,-558.36 657.31,-202.36 551.31,-202.36"/>
<text text-anchor="start" x="572.31" y="-542.56" font-family="Helvetica,sans-Serif" font-weight="bold" font-size="16.00">term: 3F</text>
<text text-anchor="start" x="593.31" y="-531.36" font-family="Helvetica,sans-Serif" font-size="10.00" fill="#6e6d6a">14 cr</text>
</g>
<g id="clust6" class="cluster">
<title>cluster_5</title>
<polygon fill="#cecdc9" stroke="#cecdc9" points="677.31,-10.36 677.31,-312.36 775.31,-312.36 775.31,-10.36 677.31,-10.36"/>
<text text-anchor="start" x="694.31" y="-296.56" font-family="Helvetica,sans-Serif" font-weight="bold" font-size="16.00">term: 3S</text>
<text text-anchor="start" x="715.31" y="-285.36" font-family="Helvetica,sans-Serif" font-size="10.00" fill="#6e6d6a">13 cr</text>
</g>
<g id="clust7" class="cluster">
<title>cluster_6</title>
<polygon fill="#cecdc9" stroke="#cecdc9" points="795.31,-64.36 795.31,-420.36 901.31,-420.36 901.31,-64.36 795.31,-64.36"/>
<text text-anchor="start" x="816.31" y="-404.56" font-family="Helvetica,sans-Serif" font-weight="bold" font-size="16.00">term: 4F</text>
<text text-anchor="start" x="837.31" y="-393.36" font-family="Helvetica,sans-Serif" font-size="10.00" fill="#6e6d6a">13 cr</text>
</g>
<g id="clust8" class="cluster">
<title>cluster_7</title>
<polygon fill="#cecdc9" stroke="#cecdc9" points="921.31,-64.36 921.31,-366.36 1024.31,-366.36 1024.31,-64.36 921.31,-64.36"/>
<text text-anchor="start" x="940.81" y="-350.56" font-family="Helvetica,sans-Serif" font-weight="bold" font-size="16.00">term: 4S</text>
<text text-anchor="start" x="961.81" y="-339.36" font-family="Helvetica,sans-Serif" font-size="10.00" fill="#6e6d6a">12 cr</text>
</g>
<!-- COR 120 -->
<g id="node1" class="node">
<title>COR 120</title>
<polygon fill="white" stroke="white" points="126.31,-256.36 34.31,-256.36 34.31,-220.36 126.31,-220.36 126.31,-256.36"/>
<text text-anchor="start" x="42.31" y="-235.66" font-family="Helvetica,sans-Serif" baseline-shift="sub" font-size="14.00" fill="#6e6d6a">4</text>
<text text-anchor="start" x="49.31" y="-235.66" font-family="Helvetica,sans-Serif" font-size="14.00" fill="#5e5d87"> &#160;&#160;COR 120</text>
</g>
<!-- MTH 172 -->
<g id="node6" class="node">
<title>MTH 172</title>
<polygon fill="white" stroke="white" points="257.81,-418.36 166.81,-418.36 166.81,-382.36 257.81,-382.36 257.81,-418.36"/>
<text text-anchor="start" x="174.81" y="-397.66" font-family="Helvetica,sans-Serif" baseline-shift="sub" font-size="14.00" fill="#6e6d6a">4</text>
<text text-anchor="start" x="181.81" y="-397.66" font-family="Helvetica,sans-Serif" font-size="14.00" fill="#5e5d87"> &#160;&#160;MTH 172</text>
</g>
<!-- COR 120&#45;&gt;MTH 172 -->
<!-- ME 201 -->
<g id="node10" class="node">
<title>ME 201</title>
<polygon fill="white" stroke="white" points="253.31,-202.36 171.31,-202.36 171.31,-166.36 253.31,-166.36 253.31,-202.36"/>
<text text-anchor="start" x="179.31" y="-181.66" font-family="Helvetica,sans-Serif" baseline-shift="sub" font-size="14.00" fill="#6e6d6a">2</text>
<text text-anchor="start" x="186.31" y="-181.66" font-family="Helvetica,sans-Serif" font-size="14.00" fill="#5e5d87"> &#160;&#160;ME 201</text>
</g>
<!-- COR 120&#45;&gt;ME 201 -->
<g id="edge24" class="edge">
<title>COR 120&#45;&gt;ME 201</title>
<path fill="none" stroke="#f6768e" stroke-width="3" d="M124.96,-220.23C136.72,-215.34 149.52,-210.02 161.58,-205.01"/>
<polygon fill="#f6768e" stroke="#f6768e" stroke-width="3" points="163.17,-208.14 171.06,-201.07 160.48,-201.68 163.17,-208.14"/>
</g>
<!-- MTH 171 -->
<g id="node2" class="node">
<title>MTH 171</title>
<polygon fill="white" stroke="white" points="125.81,-418.36 34.81,-418.36 34.81,-382.36 125.81,-382.36 125.81,-418.36"/>
<text text-anchor="start" x="42.81" y="-397.66" font-family="Helvetica,sans-Serif" baseline-shift="sub" font-size="14.00" fill="#6e6d6a">4</text>
<text text-anchor="start" x="49.81" y="-397.66" font-family="Helvetica,sans-Serif" font-size="14.00" fill="#5e5d87"> &#160;&#160;MTH 171</text>
</g>
<!-- PHY 171 -->
<g id="node3" class="node">
<title>PHY 171</title>
<polygon fill="white" stroke="white" points="124.81,-310.36 35.81,-310.36 35.81,-274.36 124.81,-274.36 124.81,-310.36"/>
<text text-anchor="start" x="43.81" y="-289.66" font-family="Helvetica,sans-Serif" baseline-shift="sub" font-size="14.00" fill="#6e6d6a">4</text>
<text text-anchor="start" x="50.81" y="-289.66" font-family="Helvetica,sans-Serif" font-size="14.00" fill="#5e5d87"> &#160;&#160;PHY 171</text>
</g>
<!-- MTH 171&#45;&gt;PHY 171 -->
<g id="edge8" class="edge">
<title>MTH 171&#45;&gt;PHY 171</title>
<path fill="none" stroke="#803e75" stroke-width="3" stroke-dasharray="5,2" d="M34.68,-387.83C23.48,-382.47 12.84,-374.93 6.31,-364.36 -2.1,-350.75 -2.1,-341.97 6.31,-328.36 11.22,-320.41 18.44,-314.18 26.48,-309.3"/>
<polygon fill="#803e75" stroke="#803e75" stroke-width="3" points="28.28,-312.31 35.46,-304.52 24.98,-306.13 28.28,-312.31"/>
</g>
<!-- MTH 171&#45;&gt;MTH 172 -->
<g id="edge10" class="edge">
<title>MTH 171&#45;&gt;MTH 172</title>
<path fill="none" stroke="#803e75" stroke-width="3" d="M126.05,-400.36C135.75,-400.36 146.12,-400.36 156.17,-400.36"/>
<polygon fill="#803e75" stroke="#803e75" stroke-width="3" points="156.49,-403.86 166.49,-400.36 156.49,-396.86 156.49,-403.86"/>
</g>
<!-- GE 104 -->
<g id="node9" class="node">
<title>GE 104</title>
<polygon fill="white" stroke="white" points="252.81,-256.36 171.81,-256.36 171.81,-220.36 252.81,-220.36 252.81,-256.36"/>
<text text-anchor="start" x="179.81" y="-235.66" font-family="Helvetica,sans-Serif" baseline-shift="sub" font-size="14.00" fill="#6e6d6a">3</text>
<text text-anchor="start" x="186.81" y="-235.66" font-family="Helvetica,sans-Serif" font-size="14.00" fill="#5e5d87"> &#160;&#160;GE 104</text>
</g>
<!-- MTH 171&#45;&gt;GE 104 -->
<g id="edge17" class="edge">
<title>MTH 171&#45;&gt;GE 104</title>
<path fill="none" stroke="#803e75" stroke-width="3" d="M125.91,-383.34C129.84,-380.48 133.42,-377.17 136.31,-373.36 165.8,-334.46 126.81,-304.25 156.31,-265.36 158.33,-262.69 160.69,-260.27 163.27,-258.07"/>
<polygon fill="#803e75" stroke="#803e75" stroke-width="3" points="165.46,-260.81 171.57,-252.15 161.39,-255.11 165.46,-260.81"/>
</g>
<!-- GE 204 -->
<g id="node15" class="node">
<title>GE 204</title>
<polygon fill="white" stroke="white" points="386.81,-486.36 305.81,-486.36 305.81,-450.36 386.81,-450.36 386.81,-486.36"/>
<text text-anchor="start" x="313.81" y="-465.66" font-family="Helvetica,sans-Serif" baseline-shift="sub" font-size="14.00" fill="#6e6d6a">3</text>
<text text-anchor="start" x="320.81" y="-465.66" font-family="Helvetica,sans-Serif" font-size="14.00" fill="#5e5d87"> &#160;&#160;GE 204</text>
</g>
<!-- MTH 171&#45;&gt;GE 204 -->
<g id="edge19" class="edge">
<title>MTH 171&#45;&gt;GE 204</title>
<path fill="none" stroke="#803e75" stroke-width="3" d="M89.89,-418.66C101.44,-440.85 124.29,-477.15 156.31,-492.36 200.38,-513.29 256.41,-502.13 295.98,-488.92"/>
<polygon fill="#803e75" stroke="#803e75" stroke-width="3" points="297.39,-492.13 305.68,-485.53 295.08,-485.52 297.39,-492.13"/>
</g>
<!-- PHY 171L -->
<g id="node4" class="node">
<title>PHY 171L</title>
<polygon fill="white" stroke="white" points="128.31,-364.36 32.31,-364.36 32.31,-328.36 128.31,-328.36 128.31,-364.36"/>
<text text-anchor="start" x="40.31" y="-343.66" font-family="Helvetica,sans-Serif" baseline-shift="sub" font-size="14.00" fill="#6e6d6a">1</text>
<text text-anchor="start" x="47.31" y="-343.66" font-family="Helvetica,sans-Serif" font-size="14.00" fill="#5e5d87"> &#160;&#160;PHY 171L</text>
</g>
<!-- PHY 171&#45;&gt;PHY 171L -->
<g id="edge9" class="edge">
<title>PHY 171&#45;&gt;PHY 171L</title>
<path fill="none" stroke="#ff6800" stroke-width="3" d="M80.31,-320.7C80.31,-320.86 80.31,-321.01 80.31,-321.17"/>
<polygon fill="#ff6800" stroke="#ff6800" stroke-width="3" points="83.81,-320.5 80.31,-310.5 76.81,-320.5 83.81,-320.5"/>
<polygon fill="#ff6800" stroke="#ff6800" stroke-width="3" points="76.81,-318.15 80.31,-328.15 83.81,-318.15 76.81,-318.15"/>
</g>
<!-- PHY 171&#45;&gt;GE 104 -->
<g id="edge18" class="edge">
<title>PHY 171&#45;&gt;GE 104</title>
<path fill="none" stroke="#ff6800" stroke-width="3" d="M124.96,-274.23C136.83,-269.29 149.77,-263.92 161.94,-258.86"/>
<polygon fill="#ff6800" stroke="#ff6800" stroke-width="3" points="163.6,-261.96 171.5,-254.89 160.92,-255.5 163.6,-261.96"/>
</g>
<!-- PHY 171&#45;&gt;GE 204 -->
<g id="edge20" class="edge">
<title>PHY 171&#45;&gt;GE 204</title>
<path fill="none" stroke="#ff6800" stroke-width="3" d="M125.05,-308.48C129.36,-311.54 133.26,-315.13 136.31,-319.36 174.41,-372.08 107.72,-421.1 156.31,-464.36 193.64,-497.59 253.44,-492.7 295.77,-483.28"/>
<polygon fill="#ff6800" stroke="#ff6800" stroke-width="3" points="296.67,-486.67 305.59,-480.95 295.05,-479.86 296.67,-486.67"/>
</g>
<!-- ME 100 -->
<g id="node5" class="node">
<title>ME 100</title>
<polygon fill="white" stroke="white" points="121.31,-202.36 39.31,-202.36 39.31,-166.36 121.31,-166.36 121.31,-202.36"/>
<text text-anchor="start" x="47.31" y="-181.66" font-family="Helvetica,sans-Serif" baseline-shift="sub" font-size="14.00" fill="#6e6d6a">1</text>
<text text-anchor="start" x="54.31" y="-181.66" font-family="Helvetica,sans-Serif" font-size="14.00" fill="#5e5d87"> &#160;&#160;ME 100</text>
</g>
<!-- PHY 172 -->
<g id="node7" class="node">
<title>PHY 172</title>
<polygon fill="white" stroke="white" points="256.81,-310.36 167.81,-310.36 167.81,-274.36 256.81,-274.36 256.81,-310.36"/>
<text text-anchor="start" x="175.81" y="-289.66" font-family="Helvetica,sans-Serif" baseline-shift="sub" font-size="14.00" fill="#6e6d6a">4</text>
<text text-anchor="start" x="182.81" y="-289.66" font-family="Helvetica,sans-Serif" font-size="14.00" fill="#5e5d87"> &#160;&#160;PHY 172</text>
</g>
<!-- MTH 172&#45;&gt;PHY 172 -->
<g id="edge11" class="edge">
<title>MTH 172&#45;&gt;PHY 172</title>
<path fill="none" stroke="#a6bdd7" stroke-width="3" stroke-dasharray="5,2" d="M166.63,-385.63C158,-380.45 150.4,-373.54 146.31,-364.36 139.8,-349.74 139.8,-342.97 146.31,-328.36 149.16,-321.95 153.73,-316.64 159.16,-312.26"/>
<polygon fill="#a6bdd7" stroke="#a6bdd7" stroke-width="3" points="161.35,-315.01 167.64,-306.48 157.41,-309.22 161.35,-315.01"/>
</g>
<!-- MTH 271 -->
<g id="node11" class="node">
<title>MTH 271</title>
<polygon fill="white" stroke="white" points="391.81,-432.36 300.81,-432.36 300.81,-396.36 391.81,-396.36 391.81,-432.36"/>
<text text-anchor="start" x="308.81" y="-411.66" font-family="Helvetica,sans-Serif" baseline-shift="sub" font-size="14.00" fill="#6e6d6a">3</text>
<text text-anchor="start" x="315.81" y="-411.66" font-family="Helvetica,sans-Serif" font-size="14.00" fill="#5e5d87"> &#160;&#160;MTH 271</text>
</g>
<!-- MTH 172&#45;&gt;MTH 271 -->
<!-- MTH 172&#45;&gt;MTH 271 -->
<g id="edge13" class="edge">
<title>MTH 172&#45;&gt;MTH 271</title>
<path fill="none" stroke="#a6bdd7" stroke-width="3" d="M258,-411.52C268.43,-412.96 279.65,-414.23 290.46,-415.2"/>
<polygon fill="#a6bdd7" stroke="#a6bdd7" stroke-width="3" points="290.41,-418.71 300.67,-416.05 290.99,-411.73 290.41,-418.71"/>
</g>
<!-- MTH 322 -->
<g id="node12" class="node">
<title>MTH 322</title>
<polygon fill="white" stroke="white" points="391.81,-648.36 300.81,-648.36 300.81,-612.36 391.81,-612.36 391.81,-648.36"/>
<text text-anchor="start" x="308.81" y="-627.66" font-family="Helvetica,sans-Serif" baseline-shift="sub" font-size="14.00" fill="#6e6d6a">3</text>
<text text-anchor="start" x="315.81" y="-627.66" font-family="Helvetica,sans-Serif" font-size="14.00" fill="#5e5d87"> &#160;&#160;MTH 322</text>
</g>
<!-- MTH 172&#45;&gt;MTH 322 -->
<g id="edge14" class="edge">
<title>MTH 172&#45;&gt;MTH 322</title>
<path fill="none" stroke="#a6bdd7" stroke-width="3" d="M215.38,-418.44C220.69,-457.05 238.08,-548.48 288.31,-603.36 289.64,-604.81 291.06,-606.19 292.56,-607.51"/>
<polygon fill="#a6bdd7" stroke="#a6bdd7" stroke-width="3" points="290.5,-610.33 300.6,-613.53 294.69,-604.73 290.5,-610.33"/>
</g>
<!-- MTH 353 -->
<g id="node16" class="node">
<title>MTH 353</title>
<polygon fill="white" stroke="white" points="523.31,-70.36 432.31,-70.36 432.31,-34.36 523.31,-34.36 523.31,-70.36"/>
<text text-anchor="start" x="440.31" y="-49.66" font-family="Helvetica,sans-Serif" baseline-shift="sub" font-size="14.00" fill="#6e6d6a">3</text>
<text text-anchor="start" x="447.31" y="-49.66" font-family="Helvetica,sans-Serif" font-size="14.00" fill="#5e5d87"> &#160;&#160;MTH 353</text>
</g>
<!-- MTH 172&#45;&gt;MTH 353 -->
<g id="edge16" class="edge">
<title>MTH 172&#45;&gt;MTH 353</title>
<path fill="none" stroke="#a6bdd7" stroke-width="3" d="M256.8,-382.36C260.94,-379.68 264.87,-376.69 268.31,-373.36 374.54,-270.42 319.04,-183.28 424.31,-79.36 425.25,-78.43 426.23,-77.52 427.25,-76.64"/>
<polygon fill="#a6bdd7" stroke="#a6bdd7" stroke-width="3" points="429.68,-79.19 435.56,-70.37 425.47,-73.6 429.68,-79.19"/>
</g>
<!-- PHY 172L -->
<g id="node8" class="node">
<title>PHY 172L</title>
<polygon fill="white" stroke="white" points="260.31,-364.36 164.31,-364.36 164.31,-328.36 260.31,-328.36 260.31,-364.36"/>
<text text-anchor="start" x="172.31" y="-343.66" font-family="Helvetica,sans-Serif" baseline-shift="sub" font-size="14.00" fill="#6e6d6a">1</text>
<text text-anchor="start" x="179.31" y="-343.66" font-family="Helvetica,sans-Serif" font-size="14.00" fill="#5e5d87"> &#160;&#160;PHY 172L</text>
</g>
<!-- PHY 172&#45;&gt;PHY 172L -->
<g id="edge12" class="edge">
<title>PHY 172&#45;&gt;PHY 172L</title>
<path fill="none" stroke="#c10020" stroke-width="3" d="M212.31,-320.7C212.31,-320.86 212.31,-321.01 212.31,-321.17"/>
<polygon fill="#c10020" stroke="#c10020" stroke-width="3" points="215.81,-320.5 212.31,-310.5 208.81,-320.5 215.81,-320.5"/>
<polygon fill="#c10020" stroke="#c10020" stroke-width="3" points="208.81,-318.15 212.31,-328.15 215.81,-318.15 208.81,-318.15"/>
</g>
<!-- ME 340 -->
<g id="node24" class="node">
<title>ME 340</title>
<polygon fill="white" stroke="white" points="645.31,-462.36 563.31,-462.36 563.31,-426.36 645.31,-426.36 645.31,-462.36"/>
<text text-anchor="start" x="571.31" y="-441.66" font-family="Helvetica,sans-Serif" baseline-shift="sub" font-size="14.00" fill="#6e6d6a">3</text>
<text text-anchor="start" x="578.31" y="-441.66" font-family="Helvetica,sans-Serif" font-size="14.00" fill="#5e5d87"> &#160;&#160;ME 340</text>
</g>
<!-- PHY 172&#45;&gt;ME 340 -->
<g id="edge31" class="edge">
<title>PHY 172&#45;&gt;ME 340</title>
<path fill="none" stroke="#c10020" stroke-width="3" d="M256.91,-309.35C330.01,-337.84 476.82,-395.06 553.73,-425.04"/>
<polygon fill="#c10020" stroke="#c10020" stroke-width="3" points="552.62,-428.36 563.21,-428.73 555.16,-421.84 552.62,-428.36"/>
</g>
<!-- ME 345 -->
<g id="node25" class="node">
<title>ME 345</title>
<polygon fill="white" stroke="white" points="645.31,-408.36 563.31,-408.36 563.31,-372.36 645.31,-372.36 645.31,-408.36"/>
<text text-anchor="start" x="571.31" y="-387.66" font-family="Helvetica,sans-Serif" baseline-shift="sub" font-size="14.00" fill="#6e6d6a">3</text>
<text text-anchor="start" x="578.31" y="-387.66" font-family="Helvetica,sans-Serif" font-size="14.00" fill="#5e5d87"> &#160;&#160;ME 345</text>
</g>
<!-- PHY 172&#45;&gt;ME 345 -->
<g id="edge34" class="edge">
<title>PHY 172&#45;&gt;ME 345</title>
<path fill="none" stroke="#c10020" stroke-width="3" d="M256.99,-290.22C333.69,-287.34 488.5,-285.67 531.31,-316.36 549.76,-329.58 535.88,-346.7 551.31,-363.36 552.5,-364.64 553.76,-365.87 555.08,-367.05"/>
<polygon fill="#c10020" stroke="#c10020" stroke-width="3" points="553.14,-369.97 563.2,-373.29 557.4,-364.42 553.14,-369.97"/>
</g>
<!-- ME 350 -->
<g id="node29" class="node">
<title>ME 350</title>
<polygon fill="white" stroke="white" points="767.31,-54.36 685.31,-54.36 685.31,-18.36 767.31,-18.36 767.31,-54.36"/>
<text text-anchor="start" x="693.31" y="-33.66" font-family="Helvetica,sans-Serif" baseline-shift="sub" font-size="14.00" fill="#6e6d6a">3</text>
<text text-anchor="start" x="700.31" y="-33.66" font-family="Helvetica,sans-Serif" font-size="14.00" fill="#5e5d87"> &#160;&#160;ME 350</text>
</g>
<!-- GE 104&#45;&gt;ME 350 -->
<g id="edge41" class="edge">
<title>GE 104&#45;&gt;ME 350</title>
<path fill="none" stroke="#7f180d" stroke-width="3" d="M253.01,-221.43C258.37,-218.42 263.63,-215.05 268.31,-211.36 353.78,-143.84 325.78,-68.79 424.31,-22.36 505.45,15.88 612.92,-3.38 675.05,-20.27"/>
<polygon fill="#7f180d" stroke="#7f180d" stroke-width="3" points="674.42,-23.73 685,-23.06 676.31,-16.99 674.42,-23.73"/>
</g>
<!-- MTH 271&#45;&gt;MTH 353 -->
<!-- ME 430 -->
<g id="node31" class="node">
<title>ME 430</title>
<polygon fill="white" stroke="white" points="889.31,-324.36 807.31,-324.36 807.31,-288.36 889.31,-288.36 889.31,-324.36"/>
<text text-anchor="start" x="815.31" y="-303.66" font-family="Helvetica,sans-Serif" baseline-shift="sub" font-size="14.00" fill="#6e6d6a">3</text>
<text text-anchor="start" x="822.31" y="-303.66" font-family="Helvetica,sans-Serif" font-size="14.00" fill="#5e5d87"> &#160;&#160;ME 430</text>
</g>
<!-- MTH 271&#45;&gt;ME 430 -->
<g id="edge48" class="edge">
<title>MTH 271&#45;&gt;ME 430</title>
<path fill="none" stroke="#f13a13" stroke-width="3" d="M388.75,-432.5C394.09,-435.27 399.41,-438.25 404.31,-441.36 509.55,-508.15 547.1,-620.59 657.31,-562.36 739.6,-518.88 733.09,-472.3 775.31,-389.36 787.3,-365.8 777.93,-353.27 795.31,-333.36 796.48,-332.01 797.74,-330.73 799.06,-329.5"/>
<polygon fill="#f13a13" stroke="#f13a13" stroke-width="3" points="801.55,-331.99 807.24,-323.05 797.22,-326.49 801.55,-331.99"/>
</g>
<!-- MTH 322&#45;&gt;ME 340 -->
<g id="edge32" class="edge">
<title>MTH 322&#45;&gt;ME 340</title>
<path fill="none" stroke="#53377a" stroke-width="3" stroke-dasharray="5,2" d="M392.23,-620.63C440.47,-609.28 512.71,-589.37 531.31,-568.36 560.48,-535.4 524.75,-506.46 551.31,-471.36 552.53,-469.74 553.87,-468.22 555.31,-466.78"/>
<polygon fill="#53377a" stroke="#53377a" stroke-width="3" points="557.73,-469.32 563.21,-460.25 553.27,-463.93 557.73,-469.32"/>
</g>
<!-- MTH 322&#45;&gt;ME 345 -->
<g id="edge33" class="edge">
<title>MTH 322&#45;&gt;ME 345</title>
<path fill="none" stroke="#53377a" stroke-width="3" d="M391.99,-612.57C396.41,-609.84 400.61,-606.78 404.31,-603.36 417.45,-591.18 413.99,-583.01 424.31,-568.36 466.42,-508.57 485.22,-500.14 531.31,-443.36 540.5,-432.04 540.13,-426.72 551.31,-417.36 552.62,-416.26 553.99,-415.19 555.39,-414.14"/>
<polygon fill="#53377a" stroke="#53377a" stroke-width="3" points="557.45,-416.98 563.79,-408.49 553.54,-411.17 557.45,-416.98"/>
</g>
<!-- ME 308 -->
<g id="node27" class="node">
<title>ME 308</title>
<polygon fill="white" stroke="white" points="767.31,-162.36 685.31,-162.36 685.31,-126.36 767.31,-126.36 767.31,-162.36"/>
<text text-anchor="start" x="693.31" y="-141.66" font-family="Helvetica,sans-Serif" baseline-shift="sub" font-size="14.00" fill="#6e6d6a">3</text>
<text text-anchor="start" x="700.31" y="-141.66" font-family="Helvetica,sans-Serif" font-size="14.00" fill="#5e5d87"> &#160;&#160;ME 308</text>
</g>
<!-- MTH 322&#45;&gt;ME 308 -->
<g id="edge39" class="edge">
<title>MTH 322&#45;&gt;ME 308</title>
<path fill="none" stroke="#53377a" stroke-width="3" d="M391.88,-636.29C461.76,-642.76 595.49,-643.06 657.31,-562.36 710.21,-493.29 631.48,-245.31 677.31,-171.36 677.64,-170.82 677.98,-170.3 678.34,-169.79"/>
<polygon fill="#53377a" stroke="#53377a" stroke-width="3" points="681.05,-172.01 685.2,-162.26 675.87,-167.3 681.05,-172.01"/>
</g>
<!-- MTH 322&#45;&gt;ME 430 -->
<g id="edge47" class="edge">
<title>MTH 322&#45;&gt;ME 430</title>
<path fill="none" stroke="#53377a" stroke-width="3" d="M392.2,-642.67C402.66,-645.03 413.81,-647.15 424.31,-648.36 528.69,-660.39 568.44,-664.42 657.31,-608.36 722.2,-567.42 742.42,-551.67 775.31,-482.36 803.95,-421.99 756.89,-388.02 795.31,-333.36 796.49,-331.67 797.82,-330.08 799.25,-328.59"/>
<polygon fill="#53377a" stroke="#53377a" stroke-width="3" points="801.81,-331 807.17,-321.87 797.28,-325.67 801.81,-331"/>
</g>
<!-- CHM 145 -->
<g id="node13" class="node">
<title>CHM 145</title>
<polygon fill="white" stroke="white" points="392.81,-540.36 299.81,-540.36 299.81,-504.36 392.81,-504.36 392.81,-540.36"/>
<text text-anchor="start" x="307.81" y="-519.66" font-family="Helvetica,sans-Serif" baseline-shift="sub" font-size="14.00" fill="#6e6d6a">4</text>
<text text-anchor="start" x="314.81" y="-519.66" font-family="Helvetica,sans-Serif" font-size="14.00" fill="#5e5d87"> &#160;&#160;CHM 145</text>
</g>
<!-- CHM 145L -->
<g id="node14" class="node">
<title>CHM 145L</title>
<polygon fill="white" stroke="white" points="396.31,-594.36 296.31,-594.36 296.31,-558.36 396.31,-558.36 396.31,-594.36"/>
<text text-anchor="start" x="304.31" y="-573.66" font-family="Helvetica,sans-Serif" baseline-shift="sub" font-size="14.00" fill="#6e6d6a">1</text>
<text text-anchor="start" x="311.31" y="-573.66" font-family="Helvetica,sans-Serif" font-size="14.00" fill="#5e5d87"> &#160;&#160;CHM 145L</text>
</g>
<!-- CHM 145&#45;&gt;CHM 145L -->
<g id="edge15" class="edge">
<title>CHM 145&#45;&gt;CHM 145L</title>
<path fill="none" stroke="#cea262" stroke-width="3" stroke-dasharray="5,2" d="M346.31,-540.5C346.31,-542.98 346.31,-545.46 346.31,-547.94"/>
<polygon fill="#cea262" stroke="#cea262" stroke-width="3" points="342.81,-548.15 346.31,-558.15 349.81,-548.15 342.81,-548.15"/>
</g>
<!-- ME 303 -->
<g id="node22" class="node">
<title>ME 303</title>
<polygon fill="white" stroke="white" points="645.31,-354.36 563.31,-354.36 563.31,-318.36 645.31,-318.36 645.31,-354.36"/>
<text text-anchor="start" x="571.31" y="-333.66" font-family="Helvetica,sans-Serif" baseline-shift="sub" font-size="14.00" fill="#6e6d6a">3</text>
<text text-anchor="start" x="578.31" y="-333.66" font-family="Helvetica,sans-Serif" font-size="14.00" fill="#5e5d87"> &#160;&#160;ME 303</text>
</g>
<!-- CHM 145&#45;&gt;ME 303 -->
<g id="edge28" class="edge">
<title>CHM 145&#45;&gt;ME 303</title>
<path fill="none" stroke="#cea262" stroke-width="3" d="M389.18,-504.25C394.4,-501.5 399.57,-498.51 404.31,-495.36 477.42,-446.72 479.1,-413.32 551.31,-363.36 553.14,-362.09 555.05,-360.84 556.99,-359.61"/>
<polygon fill="#cea262" stroke="#cea262" stroke-width="3" points="558.91,-362.54 565.71,-354.42 555.33,-356.53 558.91,-362.54"/>
</g>
<!-- CHM 145&#45;&gt;ME 340 -->
<g id="edge30" class="edge">
<title>CHM 145&#45;&gt;ME 340</title>
<path fill="none" stroke="#cea262" stroke-width="3" d="M392.97,-522.87C431.84,-521.51 488.09,-515.17 531.31,-492.36 542.71,-486.34 541,-479.1 551.31,-471.36 552.89,-470.17 554.54,-469 556.23,-467.86"/>
<polygon fill="#cea262" stroke="#cea262" stroke-width="3" points="558.31,-470.69 564.93,-462.41 554.6,-464.75 558.31,-470.69"/>
</g>
<!-- GE 205 -->
<g id="node17" class="node">
<title>GE 205</title>
<polygon fill="white" stroke="white" points="518.31,-124.36 437.31,-124.36 437.31,-88.36 518.31,-88.36 518.31,-124.36"/>
<text text-anchor="start" x="445.31" y="-103.66" font-family="Helvetica,sans-Serif" baseline-shift="sub" font-size="14.00" fill="#6e6d6a">3</text>
<text text-anchor="start" x="452.31" y="-103.66" font-family="Helvetica,sans-Serif" font-size="14.00" fill="#5e5d87"> &#160;&#160;GE 205</text>
</g>
<!-- GE 204&#45;&gt;GE 205 -->
<g id="edge21" class="edge">
<title>GE 204&#45;&gt;GE 205</title>
<path fill="none" stroke="#817066" stroke-width="3" d="M387.03,-456.35C393.79,-452.59 400,-447.7 404.31,-441.36 442.85,-384.62 386.7,-190.72 424.31,-133.36 425.76,-131.14 427.45,-129.1 429.32,-127.22"/>
<polygon fill="#817066" stroke="#817066" stroke-width="3" points="431.74,-129.76 437.28,-120.73 427.32,-124.34 431.74,-129.76"/>
</g>
<!-- GE 206 -->
<g id="node18" class="node">
<title>GE 206</title>
<polygon fill="white" stroke="white" points="518.31,-178.36 437.31,-178.36 437.31,-142.36 518.31,-142.36 518.31,-178.36"/>
<text text-anchor="start" x="445.31" y="-157.66" font-family="Helvetica,sans-Serif" baseline-shift="sub" font-size="14.00" fill="#6e6d6a">3</text>
<text text-anchor="start" x="452.31" y="-157.66" font-family="Helvetica,sans-Serif" font-size="14.00" fill="#5e5d87"> &#160;&#160;GE 206</text>
</g>
<!-- GE 204&#45;&gt;GE 206 -->
<g id="edge22" class="edge">
<title>GE 204&#45;&gt;GE 206</title>
<path fill="none" stroke="#817066" stroke-width="3" d="M386.96,-456.3C393.73,-452.55 399.96,-447.67 404.31,-441.36 436.44,-394.74 392.94,-234.49 424.31,-187.36 425.75,-185.19 427.42,-183.19 429.26,-181.34"/>
<polygon fill="#817066" stroke="#817066" stroke-width="3" points="431.56,-183.99 437.08,-174.95 427.13,-178.57 431.56,-183.99"/>
</g>
<!-- ME 300 -->
<g id="node20" class="node">
<title>ME 300</title>
<polygon fill="white" stroke="white" points="645.31,-246.36 563.31,-246.36 563.31,-210.36 645.31,-210.36 645.31,-246.36"/>
<text text-anchor="start" x="571.31" y="-225.66" font-family="Helvetica,sans-Serif" baseline-shift="sub" font-size="14.00" fill="#6e6d6a">3</text>
<text text-anchor="start" x="578.31" y="-225.66" font-family="Helvetica,sans-Serif" font-size="14.00" fill="#5e5d87"> &#160;&#160;ME 300</text>
</g>
<!-- MTH 353&#45;&gt;ME 300 -->
<!-- ME 370 -->
<g id="node30" class="node">
<title>ME 370</title>
<polygon fill="white" stroke="white" points="767.31,-108.36 685.31,-108.36 685.31,-72.36 767.31,-72.36 767.31,-108.36"/>
<text text-anchor="start" x="693.31" y="-87.66" font-family="Helvetica,sans-Serif" baseline-shift="sub" font-size="14.00" fill="#6e6d6a">3</text>
<text text-anchor="start" x="700.31" y="-87.66" font-family="Helvetica,sans-Serif" font-size="14.00" fill="#5e5d87"> &#160;&#160;ME 370</text>
</g>
<!-- MTH 353&#45;&gt;ME 370 -->
<g id="edge44" class="edge">
<title>MTH 353&#45;&gt;ME 370</title>
<path fill="none" stroke="#93aa00" stroke-width="3" d="M523.45,-59.24C566.18,-65.83 630.55,-75.75 675.06,-82.61"/>
<polygon fill="#93aa00" stroke="#93aa00" stroke-width="3" points="674.67,-86.09 685.08,-84.16 675.73,-79.17 674.67,-86.09"/>
</g>
<!-- GE 205&#45;&gt;ME 308 -->
<g id="edge37" class="edge">
<title>GE 205&#45;&gt;ME 308</title>
<path fill="none" stroke="#b32851" stroke-width="3" d="M518.41,-112.46C560.93,-119.02 628.58,-129.44 674.87,-136.58"/>
<polygon fill="#b32851" stroke="#b32851" stroke-width="3" points="674.57,-140.08 684.98,-138.14 675.63,-133.16 674.57,-140.08"/>
</g>
<!-- GE 205&#45;&gt;ME 370 -->
<g id="edge43" class="edge">
<title>GE 205&#45;&gt;ME 370</title>
<path fill="none" stroke="#b32851" stroke-width="3" d="M518.51,-97.36C529.11,-95.33 540.6,-93.44 551.31,-92.36 592.71,-88.16 639.94,-87.9 674.73,-88.55"/>
<polygon fill="#b32851" stroke="#b32851" stroke-width="3" points="675.04,-92.06 685.11,-88.78 675.19,-85.06 675.04,-92.06"/>
</g>
<!-- GE 207 -->
<g id="node19" class="node">
<title>GE 207</title>
<polygon fill="white" stroke="white" points="518.31,-232.36 437.31,-232.36 437.31,-196.36 518.31,-196.36 518.31,-232.36"/>
<text text-anchor="start" x="445.31" y="-211.66" font-family="Helvetica,sans-Serif" baseline-shift="sub" font-size="14.00" fill="#6e6d6a">1</text>
<text text-anchor="start" x="452.31" y="-211.66" font-family="Helvetica,sans-Serif" font-size="14.00" fill="#5e5d87"> &#160;&#160;GE 207</text>
</g>
<!-- GE 206&#45;&gt;GE 207 -->
<g id="edge23" class="edge">
<title>GE 206&#45;&gt;GE 207</title>
<path fill="none" stroke="#007d34" stroke-width="3" stroke-dasharray="5,2" d="M477.81,-178.5C477.81,-180.98 477.81,-183.46 477.81,-185.94"/>
<polygon fill="#007d34" stroke="#007d34" stroke-width="3" points="474.31,-186.15 477.81,-196.15 481.31,-186.15 474.31,-186.15"/>
</g>
<!-- GE 206&#45;&gt;ME 300 -->
<g id="edge25" class="edge">
<title>GE 206&#45;&gt;ME 300</title>
<path fill="none" stroke="#007d34" stroke-width="3" d="M514.5,-178.45C520.14,-181.39 525.9,-184.43 531.31,-187.36 541.78,-193.03 553,-199.31 563.4,-205.23"/>
<polygon fill="#007d34" stroke="#007d34" stroke-width="3" points="561.86,-208.38 572.28,-210.31 565.34,-202.31 561.86,-208.38"/>
</g>
<!-- GE 206&#45;&gt;ME 303 -->
<g id="edge27" class="edge">
<title>GE 206&#45;&gt;ME 303</title>
<path fill="none" stroke="#007d34" stroke-width="3" d="M518.43,-175.37C523.36,-178.67 527.87,-182.63 531.31,-187.36 563.64,-231.78 519.06,-264.87 551.31,-309.36 552.52,-311.02 553.86,-312.6 555.31,-314.08"/>
<polygon fill="#007d34" stroke="#007d34" stroke-width="3" points="553.38,-317.03 563.3,-320.76 557.87,-311.66 553.38,-317.03"/>
</g>
<!-- ME 302 -->
<g id="node26" class="node">
<title>ME 302</title>
<polygon fill="white" stroke="white" points="767.31,-270.36 685.31,-270.36 685.31,-234.36 767.31,-234.36 767.31,-270.36"/>
<text text-anchor="start" x="693.31" y="-249.66" font-family="Helvetica,sans-Serif" baseline-shift="sub" font-size="14.00" fill="#6e6d6a">3</text>
<text text-anchor="start" x="700.31" y="-249.66" font-family="Helvetica,sans-Serif" font-size="14.00" fill="#5e5d87"> &#160;&#160;ME 302</text>
</g>
<!-- GE 206&#45;&gt;ME 302 -->
<g id="edge35" class="edge">
<title>GE 206&#45;&gt;ME 302</title>
<path fill="none" stroke="#007d34" stroke-width="3" d="M518.44,-165.47C563.79,-171.88 634.72,-183.83 657.31,-198.36 669.87,-206.43 666.11,-215.48 677.31,-225.36 678.43,-226.35 679.59,-227.31 680.79,-228.26"/>
<polygon fill="#007d34" stroke="#007d34" stroke-width="3" points="678.89,-231.2 689.05,-234.19 682.96,-225.52 678.89,-231.2"/>
</g>
<!-- GE 206&#45;&gt;ME 308 -->
<g id="edge38" class="edge">
<title>GE 206&#45;&gt;ME 308</title>
<path fill="none" stroke="#007d34" stroke-width="3" d="M518.41,-157.79C560.93,-155.03 628.58,-150.64 674.87,-147.63"/>
<polygon fill="#007d34" stroke="#007d34" stroke-width="3" points="675.23,-151.11 684.98,-146.97 674.78,-144.13 675.23,-151.11"/>
</g>
<!-- ME 300L -->
<g id="node21" class="node">
<title>ME 300L</title>
<polygon fill="white" stroke="white" points="649.31,-300.36 559.31,-300.36 559.31,-264.36 649.31,-264.36 649.31,-300.36"/>
<text text-anchor="start" x="567.31" y="-279.66" font-family="Helvetica,sans-Serif" baseline-shift="sub" font-size="14.00" fill="#6e6d6a">1</text>
<text text-anchor="start" x="574.31" y="-279.66" font-family="Helvetica,sans-Serif" font-size="14.00" fill="#5e5d87"> &#160;&#160;ME 300L</text>
</g>
<!-- ME 300&#45;&gt;ME 300L -->
<g id="edge26" class="edge">
<title>ME 300&#45;&gt;ME 300L</title>
<path fill="none" stroke="#00538a" stroke-width="3" d="M604.31,-256.7C604.31,-256.86 604.31,-257.01 604.31,-257.17"/>
<polygon fill="#00538a" stroke="#00538a" stroke-width="3" points="607.81,-256.5 604.31,-246.5 600.81,-256.5 607.81,-256.5"/>
<polygon fill="#00538a" stroke="#00538a" stroke-width="3" points="600.81,-254.15 604.31,-264.15 607.81,-254.15 600.81,-254.15"/>
</g>
<!-- ME 300&#45;&gt;ME 302 -->
<!-- ME 303&#45;&gt;ME 302 -->
<g id="edge36" class="edge">
<title>ME 303&#45;&gt;ME 302</title>
<path fill="none" stroke="#ff8e00" stroke-width="3" d="M642.53,-318.3C647.6,-315.48 652.65,-312.46 657.31,-309.36 671.61,-299.82 686.36,-287.77 698.45,-277.21"/>
<polygon fill="#ff8e00" stroke="#ff8e00" stroke-width="3" points="700.82,-279.78 705.98,-270.53 696.18,-274.54 700.82,-279.78"/>
</g>
<!-- ME 316 -->
<g id="node23" class="node">
<title>ME 316</title>
<polygon fill="white" stroke="white" points="645.31,-516.36 563.31,-516.36 563.31,-480.36 645.31,-480.36 645.31,-516.36"/>
<text text-anchor="start" x="571.31" y="-495.66" font-family="Helvetica,sans-Serif" baseline-shift="sub" font-size="14.00" fill="#6e6d6a">1</text>
<text text-anchor="start" x="578.31" y="-495.66" font-family="Helvetica,sans-Serif" font-size="14.00" fill="#5e5d87"> &#160;&#160;ME 316</text>
</g>
<!-- ME 340&#45;&gt;ME 430 -->
<g id="edge45" class="edge">
<title>ME 340&#45;&gt;ME 430</title>
<path fill="none" stroke="#593315" stroke-width="3" d="M641.01,-426.23C646.5,-423.32 652.08,-420.3 657.31,-417.36 719.87,-382.13 732.74,-368.59 795.31,-333.36 797.68,-332.02 800.12,-330.67 802.59,-329.32"/>
<polygon fill="#593315" stroke="#593315" stroke-width="3" points="804.46,-332.3 811.61,-324.48 801.15,-326.13 804.46,-332.3"/>
</g>
<!-- ME 345&#45;&gt;ME 316 -->
<g id="edge29" class="edge">
<title>ME 345&#45;&gt;ME 316</title>
<path fill="none" stroke="#ff7a5c" stroke-width="3" stroke-dasharray="5,2" d="M563.04,-404.18C553.88,-409.49 545.61,-416.69 541.31,-426.36 534.8,-440.97 534.8,-447.74 541.31,-462.36 544.2,-468.85 548.88,-474.23 554.42,-478.67"/>
<polygon fill="#ff7a5c" stroke="#ff7a5c" stroke-width="3" points="552.8,-481.81 563.04,-484.53 556.73,-476.02 552.8,-481.81"/>
</g>
<!-- ME 345&#45;&gt;ME 370 -->
<g id="edge42" class="edge">
<title>ME 345&#45;&gt;ME 370</title>
<path fill="none" stroke="#ff7a5c" stroke-width="3" d="M645.41,-375.18C650.05,-371.92 654.21,-368.02 657.31,-363.36 687.66,-317.68 647.72,-163.54 677.31,-117.36 677.65,-116.83 678,-116.31 678.37,-115.8"/>
<polygon fill="#ff7a5c" stroke="#ff7a5c" stroke-width="3" points="681.06,-118.04 685.3,-108.33 675.93,-113.28 681.06,-118.04"/>
</g>
<!-- ME 302&#45;&gt;ME 430 -->
<!-- ME 498 -->
<g id="node33" class="node">
<title>ME 498</title>
<polygon fill="white" stroke="white" points="889.31,-270.36 807.31,-270.36 807.31,-234.36 889.31,-234.36 889.31,-270.36"/>
<text text-anchor="start" x="815.31" y="-249.66" font-family="Helvetica,sans-Serif" baseline-shift="sub" font-size="14.00" fill="#6e6d6a">3</text>
<text text-anchor="start" x="822.31" y="-249.66" font-family="Helvetica,sans-Serif" font-size="14.00" fill="#5e5d87"> &#160;&#160;ME 498</text>
</g>
<!-- ME 302&#45;&gt;ME 498 -->
<g id="edge50" class="edge">
<title>ME 302&#45;&gt;ME 498</title>
<path fill="none" stroke="#ffb300" stroke-width="3" d="M767.6,-252.36C777,-252.36 787.13,-252.36 796.9,-252.36"/>
<polygon fill="#ffb300" stroke="#ffb300" stroke-width="3" points="796.92,-255.86 806.92,-252.36 796.92,-248.86 796.92,-255.86"/>
</g>
<!-- ME 309 -->
<g id="node28" class="node">
<title>ME 309</title>
<polygon fill="white" stroke="white" points="767.31,-216.36 685.31,-216.36 685.31,-180.36 767.31,-180.36 767.31,-216.36"/>
<text text-anchor="start" x="693.31" y="-195.66" font-family="Helvetica,sans-Serif" baseline-shift="sub" font-size="14.00" fill="#6e6d6a">1</text>
<text text-anchor="start" x="700.31" y="-195.66" font-family="Helvetica,sans-Serif" font-size="14.00" fill="#5e5d87"> &#160;&#160;ME 309</text>
</g>
<!-- ME 308&#45;&gt;ME 309 -->
<g id="edge40" class="edge">
<title>ME 308&#45;&gt;ME 309</title>
<path fill="none" stroke="#f4c800" stroke-width="3" d="M726.31,-172.7C726.31,-172.86 726.31,-173.01 726.31,-173.17"/>
<polygon fill="#f4c800" stroke="#f4c800" stroke-width="3" points="729.81,-172.5 726.31,-162.5 722.81,-172.5 729.81,-172.5"/>
<polygon fill="#f4c800" stroke="#f4c800" stroke-width="3" points="722.81,-170.15 726.31,-180.15 729.81,-170.15 722.81,-170.15"/>
</g>
<!-- ME 308&#45;&gt;ME 430 -->
<g id="edge46" class="edge">
<title>ME 308&#45;&gt;ME 430</title>
<path fill="none" stroke="#f4c800" stroke-width="3" d="M766.96,-162.57C770.11,-165.17 772.97,-168.09 775.31,-171.36 803.7,-211.07 766.25,-240.13 795.31,-279.36 796.51,-280.98 797.84,-282.52 799.27,-283.97"/>
<polygon fill="#f4c800" stroke="#f4c800" stroke-width="3" points="797.21,-286.8 807.13,-290.52 801.69,-281.43 797.21,-286.8"/>
</g>
<!-- ME 370&#45;&gt;ME 498 -->
<g id="edge51" class="edge">
<title>ME 370&#45;&gt;ME 498</title>
<path fill="none" stroke="#803e75" stroke-width="3" d="M766.96,-108.57C770.11,-111.17 772.97,-114.09 775.31,-117.36 803.7,-157.07 766.25,-186.13 795.31,-225.36 796.51,-226.98 797.84,-228.52 799.27,-229.97"/>
<polygon fill="#803e75" stroke="#803e75" stroke-width="3" points="797.21,-232.8 807.13,-236.52 801.69,-227.43 797.21,-232.8"/>
</g>
<!-- ME 430L -->
<g id="node32" class="node">
<title>ME 430L</title>
<polygon fill="white" stroke="white" points="893.31,-378.36 803.31,-378.36 803.31,-342.36 893.31,-342.36 893.31,-378.36"/>
<text text-anchor="start" x="811.31" y="-357.66" font-family="Helvetica,sans-Serif" baseline-shift="sub" font-size="14.00" fill="#6e6d6a">1</text>
<text text-anchor="start" x="818.31" y="-357.66" font-family="Helvetica,sans-Serif" font-size="14.00" fill="#5e5d87"> &#160;&#160;ME 430L</text>
</g>
<!-- ME 430&#45;&gt;ME 430L -->
<g id="edge49" class="edge">
<title>ME 430&#45;&gt;ME 430L</title>
<path fill="none" stroke="#232c16" stroke-width="3" d="M848.31,-334.7C848.31,-334.86 848.31,-335.01 848.31,-335.17"/>
<polygon fill="#232c16" stroke="#232c16" stroke-width="3" points="851.81,-334.5 848.31,-324.5 844.81,-334.5 851.81,-334.5"/>
<polygon fill="#232c16" stroke="#232c16" stroke-width="3" points="844.81,-332.15 848.31,-342.15 851.81,-332.15 844.81,-332.15"/>
</g>
<!-- ME 430&#45;&gt;ME 498 -->
<g id="edge52" class="edge">
<title>ME 430&#45;&gt;ME 498</title>
<path fill="none" stroke="#232c16" stroke-width="3" stroke-dasharray="5,2" d="M848.31,-288.15C848.31,-285.67 848.31,-283.18 848.31,-280.7"/>
<polygon fill="#232c16" stroke="#232c16" stroke-width="3" points="851.81,-280.5 848.31,-270.5 844.81,-280.5 851.81,-280.5"/>
</g>
<!-- GE 359 -->
<g id="node37" class="node">
<title>GE 359</title>
<polygon fill="white" stroke="white" points="1013.31,-324.36 932.31,-324.36 932.31,-288.36 1013.31,-288.36 1013.31,-324.36"/>
<text text-anchor="start" x="940.31" y="-303.66" font-family="Helvetica,sans-Serif" baseline-shift="sub" font-size="14.00" fill="#6e6d6a">3</text>
<text text-anchor="start" x="947.31" y="-303.66" font-family="Helvetica,sans-Serif" font-size="14.00" fill="#5e5d87"> &#160;&#160;GE 359</text>
</g>
<!-- ME 430&#45;&gt;GE 359 -->
<!-- ME 499 -->
<g id="node38" class="node">
<title>ME 499</title>
<polygon fill="white" stroke="white" points="1013.81,-270.36 931.81,-270.36 931.81,-234.36 1013.81,-234.36 1013.81,-270.36"/>
<text text-anchor="start" x="939.81" y="-249.66" font-family="Helvetica,sans-Serif" baseline-shift="sub" font-size="14.00" fill="#6e6d6a">3</text>
<text text-anchor="start" x="946.81" y="-249.66" font-family="Helvetica,sans-Serif" font-size="14.00" fill="#5e5d87"> &#160;&#160;ME 499</text>
</g>
<!-- ME 498&#45;&gt;ME 499 -->
<g id="edge53" class="edge">
<title>ME 498&#45;&gt;ME 499</title>
<path fill="none" stroke="#ff6800" stroke-width="3" d="M889.42,-252.36C899.68,-252.36 910.84,-252.36 921.54,-252.36"/>
<polygon fill="#ff6800" stroke="#ff6800" stroke-width="3" points="921.61,-255.86 931.61,-252.36 921.61,-248.86 921.61,-255.86"/>
</g>
<!-- ME El. 1 -->
<g id="node34" class="node">
<title>ME El. 1</title>
<polygon fill="white" stroke="white" points="891.81,-216.36 804.81,-216.36 804.81,-180.36 891.81,-180.36 891.81,-216.36"/>
<text text-anchor="start" x="812.81" y="-195.66" font-family="Helvetica,sans-Serif" baseline-shift="sub" font-size="14.00" fill="#6e6d6a">2</text>
<text text-anchor="start" x="819.81" y="-195.66" font-family="Helvetica,sans-Serif" font-size="14.00" fill="#5e5d87"> &#160;&#160;ME El. 1</text>
</g>
<!-- ME El. 2 -->
<g id="node35" class="node">
<title>ME El. 2</title>
<polygon fill="white" stroke="white" points="891.81,-162.36 804.81,-162.36 804.81,-126.36 891.81,-126.36 891.81,-162.36"/>
<text text-anchor="start" x="812.81" y="-141.66" font-family="Helvetica,sans-Serif" baseline-shift="sub" font-size="14.00" fill="#6e6d6a">2</text>
<text text-anchor="start" x="819.81" y="-141.66" font-family="Helvetica,sans-Serif" font-size="14.00" fill="#5e5d87"> &#160;&#160;ME El. 2</text>
</g>
<!-- ME El. 3 -->
<g id="node36" class="node">
<title>ME El. 3</title>
<polygon fill="white" stroke="white" points="891.81,-108.36 804.81,-108.36 804.81,-72.36 891.81,-72.36 891.81,-108.36"/>
<text text-anchor="start" x="812.81" y="-87.66" font-family="Helvetica,sans-Serif" baseline-shift="sub" font-size="14.00" fill="#6e6d6a">2</text>
<text text-anchor="start" x="819.81" y="-87.66" font-family="Helvetica,sans-Serif" font-size="14.00" fill="#5e5d87"> &#160;&#160;ME El. 3</text>
</g>
<!-- ME El. 4 -->
<g id="node39" class="node">
<title>ME El. 4</title>
<polygon fill="white" stroke="white" points="1016.31,-216.36 929.31,-216.36 929.31,-180.36 1016.31,-180.36 1016.31,-216.36"/>
<text text-anchor="start" x="937.31" y="-195.66" font-family="Helvetica,sans-Serif" baseline-shift="sub" font-size="14.00" fill="#6e6d6a">2</text>
<text text-anchor="start" x="944.31" y="-195.66" font-family="Helvetica,sans-Serif" font-size="14.00" fill="#5e5d87"> &#160;&#160;ME El. 4</text>
</g>
<!-- ME El. 5 -->
<g id="node40" class="node">
<title>ME El. 5</title>
<polygon fill="white" stroke="white" points="1016.31,-162.36 929.31,-162.36 929.31,-126.36 1016.31,-126.36 1016.31,-162.36"/>
<text text-anchor="start" x="937.31" y="-141.66" font-family="Helvetica,sans-Serif" baseline-shift="sub" font-size="14.00" fill="#6e6d6a">2</text>
<text text-anchor="start" x="944.31" y="-141.66" font-family="Helvetica,sans-Serif" font-size="14.00" fill="#5e5d87"> &#160;&#160;ME El. 5</text>
</g>
<!-- ME El. 6 -->
<g id="node41" class="node">
<title>ME El. 6</title>
<polygon fill="white" stroke="white" points="1016.31,-108.36 929.31,-108.36 929.31,-72.36 1016.31,-72.36 1016.31,-108.36"/>
<text text-anchor="start" x="937.31" y="-87.66" font-family="Helvetica,sans-Serif" baseline-shift="sub" font-size="14.00" fill="#6e6d6a">2</text>
<text text-anchor="start" x="944.31" y="-87.66" font-family="Helvetica,sans-Serif" font-size="14.00" fill="#5e5d87"> &#160;&#160;ME El. 6</text>
</g>
</g>
</svg>
