<?xml version="1.0" encoding="UTF-8" standalone="no"?>
<!DOCTYPE svg PUBLIC "-//W3C//DTD SVG 1.1//EN"
 "http://www.w3.org/Graphics/SVG/1.1/DTD/svg11.dtd">
<!-- Generated by graphviz version 2.44.1 (20200629.0846)
 -->
<!-- Pages: 1 -->
<svg width="255pt" height="129pt"
 viewBox="0.00 0.00 255.00 129.00" xmlns="http://www.w3.org/2000/svg" xmlns:xlink="http://www.w3.org/1999/xlink">
<g id="graph0" class="graph" transform="scale(1 1) rotate(0) translate(4 125)">
<polygon fill="white" stroke="transparent" points="-4,4 -4,-125 251,-125 251,4 -4,4"/>
<g id="clust1" class="cluster">
<title>cluster_01</title>
<polygon fill="none" stroke="black" points="8,-8 8,-113 239,-113 239,-8 8,-8"/>
<text text-anchor="middle" x="123.5" y="-97.8" font-family="Helvetica,sans-Serif" font-size="14.00">Legend</text>
</g>
<!-- key -->
<g id="node1" class="node">
<title>key</title>
<text text-anchor="start" x="52.5" y="-63.8" font-family="Helvetica,sans-Serif" font-size="14.00">prerequisite &#160;</text>
<text text-anchor="start" x="58.5" y="-44.8" font-family="Helvetica,sans-Serif" font-size="14.00">corequisite &#160;</text>
<text text-anchor="start" x="26.5" y="-25.8" font-family="Helvetica,sans-Serif" font-size="14.00">con&#45;prerequisite &#160;</text>
</g>
<!-- key2 -->
<g id="node2" class="node">
<title>key2</title>
<text text-anchor="start" x="202" y="-63.8" font-family="Helvetica,sans-Serif" font-size="14.00"> </text>
<text text-anchor="start" x="202" y="-44.8" font-family="Helvetica,sans-Serif" font-size="14.00"> </text>
<text text-anchor="start" x="202" y="-25.8" font-family="Helvetica,sans-Serif" font-size="14.00"> </text>
</g>
<!-- key&#45;&gt;key2 -->
<g id="edge1" class="edge">
<title>key:e&#45;&gt;key2:w</title>
<path fill="none" stroke="black" stroke-width="3" d="M134.5,-68C159.47,-68 168.13,-68 188.89,-68"/>
<polygon fill="black" stroke="black" stroke-width="3" points="189,-71.5 199,-68 189,-64.5 189,-71.5"/>
</g>
<!-- key&#45;&gt;key2 -->
<g id="edge2" class="edge">
<title>key:e&#45;&gt;key2:w</title>
<path fill="none" stroke="black" stroke-width="3" d="M144.61,-48C162.29,-48 171.19,-48 188.87,-48"/>
<polygon fill="black" stroke="black" stroke-width="3" points="144.5,-44.5 134.5,-48 144.5,-51.5 144.5,-44.5"/>
<polygon fill="black" stroke="black" stroke-width="3" points="189,-51.5 199,-48 189,-44.5 189,-51.5"/>
</g>
<!-- key&#45;&gt;key2 -->
<g id="edge3" class="edge">
<title>key:e&#45;&gt;key2:w</title>
<path fill="none" stroke="black" stroke-width="3" stroke-dasharray="5,2" d="M134.5,-29C159.47,-29 168.13,-29 188.89,-29"/>
<polygon fill="black" stroke="black" stroke-width="3" points="189,-32.5 199,-29 189,-25.5 189,-32.5"/>
</g>
</g>
</svg>
