<?xml version="1.0" encoding="UTF-8" standalone="no"?>
<!DOCTYPE svg PUBLIC "-//W3C//DTD SVG 1.1//EN"
 "http://www.w3.org/Graphics/SVG/1.1/DTD/svg11.dtd">
<!-- Generated by graphviz version 12.2.1 (20241206.2353)
 -->
<!-- Pages: 1 -->
<svg width="1069pt" height="801pt"
 viewBox="0.00 0.00 1069.15 801.00" xmlns="http://www.w3.org/2000/svg" xmlns:xlink="http://www.w3.org/1999/xlink">
<g id="graph0" class="graph" transform="scale(1 1) rotate(0) translate(4 797)">
<polygon fill="white" stroke="none" points="-4,4 -4,-797 1065.15,-797 1065.15,4 -4,4"/>
<g id="clust1" class="cluster">
<title>cluster_0</title>
<polygon fill="#cecdc9" stroke="#cecdc9" points="8,-273 8,-535 101.5,-535 101.5,-273 8,-273"/>
<text text-anchor="start" x="31.5" y="-520.6" font-family="Palatino" font-weight="bold" font-size="12.00">Term: 1F</text>
<text text-anchor="start" x="44.25" y="-510.5" font-family="Palatino" font-size="10.00" fill="#6e6d6a">10 cr</text>
</g>
<g id="clust2" class="cluster">
<title>cluster_1</title>
<polygon fill="#cecdc9" stroke="#cecdc9" points="122.5,-93 122.5,-409 216,-409 216,-93 122.5,-93"/>
<text text-anchor="start" x="145.63" y="-394.6" font-family="Palatino" font-weight="bold" font-size="12.00">Term: 1S</text>
<text text-anchor="start" x="158.75" y="-384.5" font-family="Palatino" font-size="10.00" fill="#6e6d6a">16 cr</text>
</g>
<g id="clust3" class="cluster">
<title>cluster_2</title>
<polygon fill="#cecdc9" stroke="#cecdc9" points="237,-158 237,-528 328.25,-528 328.25,-158 237,-158"/>
<text text-anchor="start" x="259.38" y="-513.6" font-family="Palatino" font-weight="bold" font-size="12.00">Term: 2F</text>
<text text-anchor="start" x="272.13" y="-503.5" font-family="Palatino" font-size="10.00" fill="#6e6d6a">18 cr</text>
</g>
<g id="clust4" class="cluster">
<title>cluster_3</title>
<polygon fill="#cecdc9" stroke="#cecdc9" points="349.25,-279 349.25,-595 438.25,-595 438.25,-279 349.25,-279"/>
<text text-anchor="start" x="370.13" y="-580.6" font-family="Palatino" font-weight="bold" font-size="12.00">Term: 2S</text>
<text text-anchor="start" x="383.25" y="-570.5" font-family="Palatino" font-size="10.00" fill="#6e6d6a">13 cr</text>
</g>
<g id="clust5" class="cluster">
<title>cluster_4</title>
<polygon fill="#cecdc9" stroke="#cecdc9" points="459.25,-8 459.25,-396 548.25,-396 548.25,-8 459.25,-8"/>
<text text-anchor="start" x="480.5" y="-381.6" font-family="Palatino" font-weight="bold" font-size="12.00">Term: 3F</text>
<text text-anchor="start" x="493.25" y="-371.5" font-family="Palatino" font-size="10.00" fill="#6e6d6a">15 cr</text>
</g>
<g id="clust6" class="cluster">
<title>cluster_5</title>
<polygon fill="#cecdc9" stroke="#cecdc9" points="569.25,-252 569.25,-622 658.25,-622 658.25,-252 569.25,-252"/>
<text text-anchor="start" x="590.13" y="-607.6" font-family="Palatino" font-weight="bold" font-size="12.00">Term: 3S</text>
<text text-anchor="start" x="603.25" y="-597.5" font-family="Palatino" font-size="10.00" fill="#6e6d6a">17 cr</text>
</g>
<g id="clust7" class="cluster">
<title>cluster_6</title>
<polygon fill="#cecdc9" stroke="#cecdc9" points="679.25,-288 679.25,-604 768.25,-604 768.25,-288 679.25,-288"/>
<text text-anchor="start" x="700.5" y="-589.6" font-family="Palatino" font-weight="bold" font-size="12.00">Term: 4F</text>
<text text-anchor="start" x="713.25" y="-579.5" font-family="Palatino" font-size="10.00" fill="#6e6d6a">14 cr</text>
</g>
<g id="clust8" class="cluster">
<title>cluster_7</title>
<polygon fill="#cecdc9" stroke="#cecdc9" points="789.25,-395 789.25,-693 888,-693 888,-395 789.25,-395"/>
<text text-anchor="start" x="815" y="-678.6" font-family="Palatino" font-weight="bold" font-size="12.00">Term: 4S</text>
<text text-anchor="start" x="828.13" y="-668.5" font-family="Palatino" font-size="10.00" fill="#6e6d6a">16 cr</text>
</g>
<g id="clust9" class="cluster">
<title>cluster_legend</title>
<polygon fill="none" stroke="#cecdc9" stroke-dasharray="5,2" points="898,-619 898,-785 1053.15,-785 1053.15,-619 898,-619"/>
<text text-anchor="middle" x="975.58" y="-769.6" font-family="Palatino" font-size="12.00">Legend</text>
</g>
<!-- COR 100 -->
<g id="node1" class="node">
<title>COR 100</title>
<g id="a_node1"><a xlink:title="First&#45;Year Seminar">
<polygon fill="#f6e8c3" stroke="black" points="91.25,-317 18.25,-317 18.25,-281 91.25,-281 91.25,-317"/>
<text text-anchor="start" x="26.25" y="-296.12" font-family="Times,serif" font-size="10.00">COR 100</text>
<text text-anchor="start" x="65.25" y="-296.12" font-family="Times,serif" baseline-shift="sub" font-size="10.00" fill="#6e6d6a"> &#160;4 cr</text>
</a>
</g>
</g>
<!-- COR 120 -->
<g id="node5" class="node">
<title>COR 120</title>
<g id="a_node5"><a xlink:title="Critical Reading and Writing">
<polygon fill="#f6e8c3" stroke="black" points="205.75,-317 132.75,-317 132.75,-281 205.75,-281 205.75,-317"/>
<text text-anchor="start" x="140.75" y="-296.12" font-family="Times,serif" font-size="10.00">COR 120</text>
<text text-anchor="start" x="179.75" y="-296.12" font-family="Times,serif" baseline-shift="sub" font-size="10.00" fill="#6e6d6a"> &#160;4 cr</text>
</a>
</g>
</g>
<!-- COR 100&#45;&gt;COR 120 -->
<!-- PHY 171 -->
<g id="node2" class="node">
<title>PHY 171</title>
<g id="a_node2"><a xlink:title="Physics I">
<polygon fill="#d5e8d4" stroke="red" stroke-width="3" points="90.5,-371 19,-371 19,-335 90.5,-335 90.5,-371"/>
<text text-anchor="start" x="27" y="-350.12" font-family="Times,serif" font-size="10.00">PHY 171</text>
<text text-anchor="start" x="64.5" y="-350.12" font-family="Times,serif" baseline-shift="sub" font-size="10.00" fill="#6e6d6a"> &#160;4 cr</text>
</a>
</g>
</g>
<!-- PHY 171L -->
<g id="node3" class="node">
<title>PHY 171L</title>
<g id="a_node3"><a xlink:title="Physics I Laboratory">
<polygon fill="#d5e8d4" stroke="black" points="93.5,-443 16,-443 16,-407 93.5,-407 93.5,-443"/>
<text text-anchor="start" x="24" y="-422.12" font-family="Times,serif" font-size="10.00">PHY 171L</text>
<text text-anchor="start" x="67.5" y="-422.12" font-family="Times,serif" baseline-shift="sub" font-size="10.00" fill="#6e6d6a"> &#160;1 cr</text>
</a>
</g>
</g>
<!-- PHY 171&#45;&gt;PHY 171L -->
<g id="edge9" class="edge">
<title>PHY 171&#45;&gt;PHY 171L</title>
<path fill="none" stroke="#ff7f0e" stroke-width="2" d="M54.75,-383.86C54.75,-387.64 54.75,-391.41 54.75,-395.19"/>
<polygon fill="#ff7f0e" stroke="#ff7f0e" stroke-width="2" points="58.25,-385.43 54.75,-375.43 51.25,-385.43 58.25,-385.43"/>
<polygon fill="#ff7f0e" stroke="#ff7f0e" stroke-width="2" points="51.25,-393.48 54.75,-403.48 58.25,-393.48 51.25,-393.48"/>
</g>
<!-- PHY 172 -->
<g id="node7" class="node">
<title>PHY 172</title>
<g id="a_node7"><a xlink:title="Physics II">
<polygon fill="#d5e8d4" stroke="black" points="205,-137 133.5,-137 133.5,-101 205,-101 205,-137"/>
<text text-anchor="start" x="141.5" y="-116.12" font-family="Times,serif" font-size="10.00">PHY 172</text>
<text text-anchor="start" x="179" y="-116.12" font-family="Times,serif" baseline-shift="sub" font-size="10.00" fill="#6e6d6a"> &#160;4 cr</text>
</a>
</g>
</g>
<!-- PHY 171&#45;&gt;PHY 172 -->
<g id="edge11" class="edge">
<title>PHY 171&#45;&gt;PHY 172</title>
<path fill="none" stroke="#d62728" d="M91.57,-336.52C95.4,-333.49 98.86,-330 101.5,-326 141.49,-265.4 90.18,-229.01 122.5,-164 125.9,-157.16 130.76,-150.76 136.05,-145.05"/>
<polygon fill="#d62728" stroke="#d62728" points="138.25,-147.79 142.91,-138.28 133.34,-142.81 138.25,-147.79"/>
</g>
<!-- GE 104 -->
<g id="node9" class="node">
<title>GE 104</title>
<g id="a_node9"><a xlink:title="Engineering Computing">
<polygon fill="#dae8fc" stroke="red" stroke-width="3" points="202,-371 136.5,-371 136.5,-335 202,-335 202,-371"/>
<text text-anchor="start" x="144.5" y="-350.12" font-family="Times,serif" font-size="10.00">GE 104</text>
<text text-anchor="start" x="176" y="-350.12" font-family="Times,serif" baseline-shift="sub" font-size="10.00" fill="#6e6d6a"> &#160;3 cr</text>
</a>
</g>
</g>
<!-- PHY 171&#45;&gt;GE 104 -->
<g id="edge16" class="edge">
<title>PHY 171&#45;&gt;GE 104</title>
<path fill="none" stroke="#808000" d="M91.96,-353C102.15,-353 113.35,-353 123.96,-353"/>
<polygon fill="#808000" stroke="#808000" points="123.64,-356.5 133.64,-353 123.64,-349.5 123.64,-356.5"/>
</g>
<!-- GE 204 -->
<g id="node14" class="node">
<title>GE 204</title>
<g id="a_node14"><a xlink:title="Statics">
<polygon fill="#dae8fc" stroke="red" stroke-width="3" points="315.38,-490 249.88,-490 249.88,-454 315.38,-454 315.38,-490"/>
<text text-anchor="start" x="257.88" y="-469.12" font-family="Times,serif" font-size="10.00">GE 204</text>
<text text-anchor="start" x="289.38" y="-469.12" font-family="Times,serif" baseline-shift="sub" font-size="10.00" fill="#6e6d6a"> &#160;3 cr</text>
</a>
</g>
</g>
<!-- PHY 171&#45;&gt;GE 204 -->
<g id="edge18" class="edge">
<title>PHY 171&#45;&gt;GE 204</title>
<path fill="none" stroke="#393b79" d="M78.34,-372.21C86.3,-379.72 94.91,-388.74 101.5,-398 111.59,-412.16 107.59,-422.05 122.5,-431 157.73,-452.14 203.68,-462.47 237.14,-467.46"/>
<polygon fill="#393b79" stroke="#393b79" points="236.54,-470.91 246.92,-468.81 237.49,-463.98 236.54,-470.91"/>
</g>
<!-- ME 100 -->
<g id="node4" class="node">
<title>ME 100</title>
<g id="a_node4"><a xlink:title="Mechanical Engineering Seminar">
<polygon fill="#f8cecc" stroke="black" points="88.25,-497 21.25,-497 21.25,-461 88.25,-461 88.25,-497"/>
<text text-anchor="start" x="29.25" y="-476.12" font-family="Times,serif" font-size="10.00">ME 100</text>
<text text-anchor="start" x="62.25" y="-476.12" font-family="Times,serif" baseline-shift="sub" font-size="10.00" fill="#6e6d6a"> &#160;1 cr</text>
</a>
</g>
</g>
<!-- COR 110 -->
<g id="node10" class="node">
<title>COR 110</title>
<g id="a_node10"><a xlink:title="Religious Studies">
<polygon fill="#f6e8c3" stroke="black" points="318.38,-364 246.88,-364 246.88,-328 318.38,-328 318.38,-364"/>
<text text-anchor="start" x="254.88" y="-343.12" font-family="Times,serif" font-size="10.00">COR 110</text>
<text text-anchor="start" x="292.38" y="-343.12" font-family="Times,serif" baseline-shift="sub" font-size="10.00" fill="#6e6d6a"> &#160;3 cr</text>
</a>
</g>
</g>
<!-- COR 120&#45;&gt;COR 110 -->
<!-- ME 201 -->
<g id="node15" class="node">
<title>ME 201</title>
<g id="a_node15"><a xlink:title="Technical Communication">
<polygon fill="#f8cecc" stroke="black" points="316.13,-310 249.13,-310 249.13,-274 316.13,-274 316.13,-310"/>
<text text-anchor="start" x="257.13" y="-289.12" font-family="Times,serif" font-size="10.00">ME 201</text>
<text text-anchor="start" x="290.13" y="-289.12" font-family="Times,serif" baseline-shift="sub" font-size="10.00" fill="#6e6d6a"> &#160;2 cr</text>
</a>
</g>
</g>
<!-- COR 120&#45;&gt;ME 201 -->
<g id="edge22" class="edge">
<title>COR 120&#45;&gt;ME 201</title>
<path fill="none" stroke="#7b4173" d="M206.1,-296.75C216.08,-296.12 227.04,-295.43 237.44,-294.78"/>
<polygon fill="#7b4173" stroke="#7b4173" points="237.59,-298.27 247.35,-294.15 237.15,-291.29 237.59,-298.27"/>
</g>
<!-- MTH 172 -->
<g id="node6" class="node">
<title>MTH 172</title>
<g id="a_node6"><a xlink:title="Calculus II">
<polygon fill="#d5e8d4" stroke="red" stroke-width="3" points="206.5,-263 132,-263 132,-227 206.5,-227 206.5,-263"/>
<text text-anchor="start" x="140" y="-242.12" font-family="Times,serif" font-size="10.00">MTH 172</text>
<text text-anchor="start" x="180.5" y="-242.12" font-family="Times,serif" baseline-shift="sub" font-size="10.00" fill="#6e6d6a"> &#160;4 cr</text>
</a>
</g>
</g>
<!-- MTH 172&#45;&gt;PHY 172 -->
<g id="edge12" class="edge">
<title>MTH 172&#45;&gt;PHY 172</title>
<path fill="none" stroke="#9467bd" stroke-dasharray="5,2" d="M131.65,-225.83C128.37,-223.42 125.26,-220.81 122.5,-218 108.39,-203.65 112.45,-192.48 117.5,-173 120.2,-162.57 126.59,-153.23 133.99,-145.36"/>
<polygon fill="#9467bd" stroke="#9467bd" points="136.39,-147.91 141.2,-138.47 131.55,-142.85 136.39,-147.91"/>
</g>
<!-- MTH 353 -->
<g id="node13" class="node">
<title>MTH 353</title>
<g id="a_node13"><a xlink:title="Linear Algebra">
<polygon fill="#d5e8d4" stroke="black" points="319.88,-256 245.38,-256 245.38,-220 319.88,-220 319.88,-256"/>
<text text-anchor="start" x="253.38" y="-235.12" font-family="Times,serif" font-size="10.00">MTH 353</text>
<text text-anchor="start" x="293.88" y="-235.12" font-family="Times,serif" baseline-shift="sub" font-size="10.00" fill="#6e6d6a"> &#160;3 cr</text>
</a>
</g>
</g>
<!-- MTH 172&#45;&gt;MTH 353 -->
<g id="edge14" class="edge">
<title>MTH 172&#45;&gt;MTH 353</title>
<path fill="none" stroke="#e377c2" d="M207.96,-242.63C216.2,-242.11 225.03,-241.56 233.62,-241.02"/>
<polygon fill="#e377c2" stroke="#e377c2" points="233.82,-244.51 243.58,-240.39 233.38,-237.53 233.82,-244.51"/>
</g>
<!-- ME 340 -->
<g id="node25" class="node">
<title>ME 340</title>
<g id="a_node25"><a xlink:title="Thermodynamics I">
<polygon fill="#f8cecc" stroke="black" points="537.25,-52 470.25,-52 470.25,-16 537.25,-16 537.25,-52"/>
<text text-anchor="start" x="478.25" y="-31.12" font-family="Times,serif" font-size="10.00">ME 340</text>
<text text-anchor="start" x="511.25" y="-31.12" font-family="Times,serif" baseline-shift="sub" font-size="10.00" fill="#6e6d6a"> &#160;3 cr</text>
</a>
</g>
</g>
<!-- MTH 172&#45;&gt;ME 340 -->
<g id="edge30" class="edge">
<title>MTH 172&#45;&gt;ME 340</title>
<path fill="none" stroke="#2ca02c" stroke-dasharray="5,2" d="M207.99,-226.55C211.01,-224 213.75,-221.15 216,-218 228.91,-199.9 220.44,-190.52 226,-169 230.08,-153.21 227.63,-147.35 237,-134 251.33,-113.59 256.69,-100 281.63,-100 281.63,-100 281.63,-100 339.25,-100 363.42,-100 419.97,-74.89 459.76,-55.65"/>
<polygon fill="#2ca02c" stroke="#2ca02c" points="461.18,-58.85 468.64,-51.32 458.11,-52.56 461.18,-58.85"/>
</g>
<!-- ME 345 -->
<g id="node26" class="node">
<title>ME 345</title>
<g id="a_node26"><a xlink:title="Mechatronics">
<polygon fill="#f8cecc" stroke="black" points="537.25,-106 470.25,-106 470.25,-70 537.25,-70 537.25,-106"/>
<text text-anchor="start" x="478.25" y="-85.12" font-family="Times,serif" font-size="10.00">ME 345</text>
<text text-anchor="start" x="511.25" y="-85.12" font-family="Times,serif" baseline-shift="sub" font-size="10.00" fill="#6e6d6a"> &#160;3 cr</text>
</a>
</g>
</g>
<!-- MTH 172&#45;&gt;ME 345 -->
<g id="edge31" class="edge">
<title>MTH 172&#45;&gt;ME 345</title>
<path fill="none" stroke="#d62728" d="M207.62,-226.27C210.71,-223.77 213.57,-221.02 216,-218 234.76,-194.67 216.12,-175.45 237,-154 251.69,-138.9 260.56,-138 281.63,-138 281.63,-138 281.63,-138 339.25,-138 381.39,-138 427.07,-122.63 459.4,-108.93"/>
<polygon fill="#d62728" stroke="#d62728" points="460.68,-112.19 468.45,-104.98 457.88,-105.77 460.68,-112.19"/>
</g>
<!-- ME 308 -->
<g id="node30" class="node">
<title>ME 308</title>
<g id="a_node30"><a xlink:title="Fluid Mechanics I">
<polygon fill="#f8cecc" stroke="black" points="647.25,-404 580.25,-404 580.25,-368 647.25,-368 647.25,-404"/>
<text text-anchor="start" x="588.25" y="-383.12" font-family="Times,serif" font-size="10.00">ME 308</text>
<text text-anchor="start" x="621.25" y="-383.12" font-family="Times,serif" baseline-shift="sub" font-size="10.00" fill="#6e6d6a"> &#160;3 cr</text>
</a>
</g>
</g>
<!-- MTH 172&#45;&gt;ME 308 -->
<g id="edge36" class="edge">
<title>MTH 172&#45;&gt;ME 308</title>
<path fill="none" stroke="#808000" d="M207.98,-262.8C211.08,-265.5 213.85,-268.56 216,-272 223.69,-284.28 233.84,-517.86 237,-532 249.31,-587.13 225.14,-651 281.63,-651 281.63,-651 281.63,-651 449.25,-651 560.63,-651 503.28,-520.74 569.25,-431 573.92,-424.65 579.44,-418.28 584.95,-412.42"/>
<polygon fill="#808000" stroke="#808000" points="587.38,-414.94 591.86,-405.33 582.37,-410.05 587.38,-414.94"/>
</g>
<!-- PHY 172L -->
<g id="node8" class="node">
<title>PHY 172L</title>
<g id="a_node8"><a xlink:title="Physics II Laboratory">
<polygon fill="#d5e8d4" stroke="black" points="208,-209 130.5,-209 130.5,-173 208,-173 208,-209"/>
<text text-anchor="start" x="138.5" y="-188.12" font-family="Times,serif" font-size="10.00">PHY 172L</text>
<text text-anchor="start" x="182" y="-188.12" font-family="Times,serif" baseline-shift="sub" font-size="10.00" fill="#6e6d6a"> &#160;1 cr</text>
</a>
</g>
</g>
<!-- PHY 172&#45;&gt;PHY 172L -->
<g id="edge13" class="edge">
<title>PHY 172&#45;&gt;PHY 172L</title>
<path fill="none" stroke="#8c564b" stroke-width="2" d="M169.25,-148.57C169.25,-152.82 169.25,-157.06 169.25,-161.3"/>
<polygon fill="#8c564b" stroke="#8c564b" stroke-width="2" points="172.75,-150.31 169.25,-140.31 165.75,-150.31 172.75,-150.31"/>
<polygon fill="#8c564b" stroke="#8c564b" stroke-width="2" points="165.75,-159.51 169.25,-169.51 172.75,-159.51 165.75,-159.51"/>
</g>
<!-- PHY 172&#45;&gt;ME 340 -->
<g id="edge29" class="edge">
<title>PHY 172&#45;&gt;ME 340</title>
<path fill="none" stroke="#ff7f0e" d="M177.88,-100.52C192.67,-68.02 228.54,-4 281.63,-4 281.63,-4 281.63,-4 394.75,-4 416.49,-4 439.82,-9.71 459.21,-16.15"/>
<polygon fill="#ff7f0e" stroke="#ff7f0e" points="457.81,-19.37 468.41,-19.38 460.13,-12.76 457.81,-19.37"/>
</g>
<!-- PHY 172&#45;&gt;ME 345 -->
<g id="edge32" class="edge">
<title>PHY 172&#45;&gt;ME 345</title>
<path fill="none" stroke="#9467bd" d="M191.23,-100.65C212.49,-83.99 247.09,-62 281.63,-62 281.63,-62 281.63,-62 339.25,-62 380.13,-62 426.05,-70.03 458.8,-77.16"/>
<polygon fill="#9467bd" stroke="#9467bd" points="457.8,-80.52 468.32,-79.3 459.33,-73.69 457.8,-80.52"/>
</g>
<!-- COR 210 -->
<g id="node16" class="node">
<title>COR 210</title>
<g id="a_node16"><a xlink:title="Humanities">
<polygon fill="#f6e8c3" stroke="black" points="430.25,-323 357.25,-323 357.25,-287 430.25,-287 430.25,-323"/>
<text text-anchor="start" x="365.25" y="-302.12" font-family="Times,serif" font-size="10.00">COR 210</text>
<text text-anchor="start" x="404.25" y="-302.12" font-family="Times,serif" baseline-shift="sub" font-size="10.00" fill="#6e6d6a"> &#160;3 cr</text>
</a>
</g>
</g>
<!-- COR 110&#45;&gt;COR 210 -->
<!-- MTH 171 -->
<g id="node11" class="node">
<title>MTH 171</title>
<g id="a_node11"><a xlink:title="Calculus I">
<polygon fill="#d5e8d4" stroke="red" stroke-width="3" points="319.88,-418 245.38,-418 245.38,-382 319.88,-382 319.88,-418"/>
<text text-anchor="start" x="253.38" y="-397.12" font-family="Times,serif" font-size="10.00">MTH 171</text>
<text text-anchor="start" x="293.88" y="-397.12" font-family="Times,serif" baseline-shift="sub" font-size="10.00" fill="#6e6d6a"> &#160;4 cr</text>
</a>
</g>
</g>
<!-- MTH 171&#45;&gt;PHY 171 -->
<g id="edge8" class="edge">
<title>MTH 171&#45;&gt;PHY 171</title>
<path fill="none" stroke="red" stroke-dasharray="5,2" d="M243.98,-412.08C210.88,-420.62 161.97,-428.13 122.5,-413 117.67,-411.15 99.88,-395.06 83.88,-380.01"/>
<polygon fill="red" stroke="red" points="86.52,-377.69 76.85,-373.36 81.7,-382.78 86.52,-377.69"/>
</g>
<!-- MTH 171&#45;&gt;MTH 172 -->
<g id="edge10" class="edge">
<title>MTH 171&#45;&gt;MTH 172</title>
<path fill="none" stroke="red" d="M243.98,-380.72C241.37,-378.38 238.99,-375.81 237,-373 210.52,-335.57 242.69,-309.28 216,-272 215.93,-271.9 215.86,-271.8 215.79,-271.71"/>
<polygon fill="red" stroke="red" points="218.44,-269.41 209.02,-264.55 213.35,-274.22 218.44,-269.41"/>
</g>
<!-- MTH 171&#45;&gt;GE 104 -->
<g id="edge15" class="edge">
<title>MTH 171&#45;&gt;GE 104</title>
<path fill="none" stroke="red" d="M244.15,-384.18C234.44,-380.09 223.91,-375.65 213.93,-371.43"/>
<polygon fill="red" stroke="red" points="215.33,-368.23 204.76,-367.56 212.61,-374.68 215.33,-368.23"/>
</g>
<!-- MTH 171&#45;&gt;GE 204 -->
<g id="edge17" class="edge">
<title>MTH 171&#45;&gt;GE 204</title>
<path fill="none" stroke="red" d="M282.63,-419.41C282.63,-426.69 282.63,-433.97 282.63,-441.25"/>
<polygon fill="red" stroke="red" points="279.13,-441.17 282.63,-451.17 286.13,-441.17 279.13,-441.17"/>
</g>
<!-- CHM 145 -->
<g id="node12" class="node">
<title>CHM 145</title>
<g id="a_node12"><a xlink:title="Chemistry for Engineers. Or CHM 141 (more credits).">
<polygon fill="#d5e8d4" stroke="black" points="320.25,-202 245,-202 245,-166 320.25,-166 320.25,-202"/>
<text text-anchor="start" x="253" y="-181.12" font-family="Times,serif" font-size="10.00">CHM 145</text>
<text text-anchor="start" x="294.25" y="-181.12" font-family="Times,serif" baseline-shift="sub" font-size="10.00" fill="#6e6d6a"> &#160;3 cr</text>
</a>
</g>
</g>
<!-- ME 303 -->
<g id="node23" class="node">
<title>ME 303</title>
<g id="a_node23"><a xlink:title="Materials Science">
<polygon fill="#f8cecc" stroke="black" points="537.25,-232 470.25,-232 470.25,-196 537.25,-196 537.25,-232"/>
<text text-anchor="start" x="478.25" y="-211.12" font-family="Times,serif" font-size="10.00">ME 303</text>
<text text-anchor="start" x="511.25" y="-211.12" font-family="Times,serif" baseline-shift="sub" font-size="10.00" fill="#6e6d6a"> &#160;3 cr</text>
</a>
</g>
</g>
<!-- CHM 145&#45;&gt;ME 303 -->
<g id="edge26" class="edge">
<title>CHM 145&#45;&gt;ME 303</title>
<path fill="none" stroke="#3182bd" d="M320.3,-189.02C358.42,-194.24 418.07,-202.41 458.72,-207.97"/>
<polygon fill="#3182bd" stroke="#3182bd" points="458.02,-211.41 468.4,-209.3 458.97,-204.47 458.02,-211.41"/>
</g>
<!-- CHM 145&#45;&gt;ME 340 -->
<g id="edge28" class="edge">
<title>CHM 145&#45;&gt;ME 340</title>
<path fill="none" stroke="#1f77b4" d="M320.46,-175.81C355.08,-166.35 406.23,-147.59 438.25,-114 455.73,-95.66 443,-80.44 459.25,-61 459.92,-60.19 460.63,-59.41 461.36,-58.63"/>
<polygon fill="#1f77b4" stroke="#1f77b4" points="463.67,-61.26 468.85,-52.03 459.04,-56.01 463.67,-61.26"/>
</g>
<!-- ME 370 -->
<g id="node32" class="node">
<title>ME 370</title>
<g id="a_node32"><a xlink:title="System Dynamics and Control">
<polygon fill="#f8cecc" stroke="black" points="647.25,-584 580.25,-584 580.25,-548 647.25,-548 647.25,-584"/>
<text text-anchor="start" x="588.25" y="-563.12" font-family="Times,serif" font-size="10.00">ME 370</text>
<text text-anchor="start" x="621.25" y="-563.12" font-family="Times,serif" baseline-shift="sub" font-size="10.00" fill="#6e6d6a"> &#160;3 cr</text>
</a>
</g>
</g>
<!-- MTH 353&#45;&gt;ME 370 -->
<g id="edge40" class="edge">
<title>MTH 353&#45;&gt;ME 370</title>
<path fill="none" stroke="#614100" stroke-dasharray="5,2" d="M320.09,-255.51C323.27,-258.28 326.09,-261.44 328.25,-265 366.79,-328.61 303.59,-540.3 349.25,-599 361.72,-615.03 372.44,-613 392.75,-613 392.75,-613 392.75,-613 449.25,-613 491.31,-613 537.17,-598.46 569.58,-585.55"/>
<polygon fill="#614100" stroke="#614100" points="570.72,-588.87 578.64,-581.83 568.06,-582.39 570.72,-588.87"/>
</g>
<!-- GE 205 -->
<g id="node17" class="node">
<title>GE 205</title>
<g id="a_node17"><a xlink:title="Dynamics">
<polygon fill="#dae8fc" stroke="black" points="426.5,-503 361,-503 361,-467 426.5,-467 426.5,-503"/>
<text text-anchor="start" x="369" y="-482.12" font-family="Times,serif" font-size="10.00">GE 205</text>
<text text-anchor="start" x="400.5" y="-482.12" font-family="Times,serif" baseline-shift="sub" font-size="10.00" fill="#6e6d6a"> &#160;3 cr</text>
</a>
</g>
</g>
<!-- GE 204&#45;&gt;GE 205 -->
<g id="edge19" class="edge">
<title>GE 204&#45;&gt;GE 205</title>
<path fill="none" stroke="#637939" d="M316.66,-475.94C326.89,-477.15 338.32,-478.52 349.15,-479.81"/>
<polygon fill="#637939" stroke="#637939" points="348.73,-483.28 359.07,-480.99 349.56,-476.33 348.73,-483.28"/>
</g>
<!-- GE 206 -->
<g id="node18" class="node">
<title>GE 206</title>
<g id="a_node18"><a xlink:title="Mechanics of Materials">
<polygon fill="#dae8fc" stroke="black" points="426.5,-377 361,-377 361,-341 426.5,-341 426.5,-377"/>
<text text-anchor="start" x="369" y="-356.12" font-family="Times,serif" font-size="10.00">GE 206</text>
<text text-anchor="start" x="400.5" y="-356.12" font-family="Times,serif" baseline-shift="sub" font-size="10.00" fill="#6e6d6a"> &#160;3 cr</text>
</a>
</g>
</g>
<!-- GE 204&#45;&gt;GE 206 -->
<g id="edge20" class="edge">
<title>GE 204&#45;&gt;GE 206</title>
<path fill="none" stroke="#614100" d="M302.91,-452.9C310.84,-444.96 320.06,-435.61 328.25,-427 337.79,-416.97 339.77,-414.09 349.25,-404 354.98,-397.9 361.2,-391.4 367.09,-385.29"/>
<polygon fill="#614100" stroke="#614100" points="369.36,-387.98 373.8,-378.36 364.33,-383.11 369.36,-387.98"/>
</g>
<!-- ME 300 -->
<g id="node21" class="node">
<title>ME 300</title>
<g id="a_node21"><a xlink:title="Manufacturing">
<polygon fill="#f8cecc" stroke="black" points="537.25,-286 470.25,-286 470.25,-250 537.25,-250 537.25,-286"/>
<text text-anchor="start" x="478.25" y="-265.12" font-family="Times,serif" font-size="10.00">ME 300</text>
<text text-anchor="start" x="511.25" y="-265.12" font-family="Times,serif" baseline-shift="sub" font-size="10.00" fill="#6e6d6a"> &#160;3 cr</text>
</a>
</g>
</g>
<!-- COR 210&#45;&gt;ME 300 -->
<!-- GE 205&#45;&gt;ME 308 -->
<g id="edge34" class="edge">
<title>GE 205&#45;&gt;ME 308</title>
<path fill="none" stroke="#e377c2" d="M426.94,-474.37C434.32,-471.77 442.1,-468.9 449.25,-466 499.2,-445.77 511.09,-439.19 559.25,-415 562.71,-413.26 566.27,-411.43 569.83,-409.57"/>
<polygon fill="#e377c2" stroke="#e377c2" points="571.28,-412.76 578.48,-404.98 568,-406.58 571.28,-412.76"/>
</g>
<!-- GE 205&#45;&gt;ME 370 -->
<g id="edge39" class="edge">
<title>GE 205&#45;&gt;ME 370</title>
<path fill="none" stroke="#637939" d="M426.92,-496.95C464.64,-510.97 527.36,-534.27 569.36,-549.88"/>
<polygon fill="#637939" stroke="#637939" points="568.08,-553.14 578.68,-553.34 570.52,-546.58 568.08,-553.14"/>
</g>
<!-- GE 207 -->
<g id="node19" class="node">
<title>GE 207</title>
<g id="a_node19"><a xlink:title="Mechanics of Materials Laboratory">
<polygon fill="#dae8fc" stroke="black" points="426.5,-449 361,-449 361,-413 426.5,-413 426.5,-449"/>
<text text-anchor="start" x="369" y="-428.12" font-family="Times,serif" font-size="10.00">GE 207</text>
<text text-anchor="start" x="400.5" y="-428.12" font-family="Times,serif" baseline-shift="sub" font-size="10.00" fill="#6e6d6a"> &#160;1 cr</text>
</a>
</g>
</g>
<!-- GE 206&#45;&gt;GE 207 -->
<g id="edge21" class="edge">
<title>GE 206&#45;&gt;GE 207</title>
<path fill="none" stroke="#843c39" stroke-dasharray="5,2" d="M393.75,-377.28C393.75,-385.27 393.75,-393.26 393.75,-401.24"/>
<polygon fill="#843c39" stroke="#843c39" points="390.25,-401.02 393.75,-411.02 397.25,-401.02 390.25,-401.02"/>
</g>
<!-- GE 206&#45;&gt;ME 300 -->
<g id="edge23" class="edge">
<title>GE 206&#45;&gt;ME 300</title>
<path fill="none" stroke="#5254a3" d="M426.22,-340.65C430.37,-337.9 434.48,-334.97 438.25,-332 446.34,-325.61 463,-309.04 477.36,-294.37"/>
<polygon fill="#5254a3" stroke="#5254a3" points="479.51,-297.18 483.98,-287.57 474.49,-292.3 479.51,-297.18"/>
</g>
<!-- GE 206&#45;&gt;ME 303 -->
<g id="edge25" class="edge">
<title>GE 206&#45;&gt;ME 303</title>
<path fill="none" stroke="#9c9ede" d="M426.74,-343.38C431.11,-340.12 435.15,-336.34 438.25,-332 462.4,-298.24 435.1,-274.76 459.25,-241 459.97,-239.99 460.75,-239.01 461.57,-238.05"/>
<polygon fill="#9c9ede" stroke="#9c9ede" points="463.87,-240.7 468.78,-231.31 459.09,-235.58 463.87,-240.7"/>
</g>
<!-- ME 302 -->
<g id="node29" class="node">
<title>ME 302</title>
<g id="a_node29"><a xlink:title="Machine Design">
<polygon fill="#f8cecc" stroke="black" points="647.25,-530 580.25,-530 580.25,-494 647.25,-494 647.25,-530"/>
<text text-anchor="start" x="588.25" y="-509.12" font-family="Times,serif" font-size="10.00">ME 302</text>
<text text-anchor="start" x="621.25" y="-509.12" font-family="Times,serif" baseline-shift="sub" font-size="10.00" fill="#6e6d6a"> &#160;3 cr</text>
</a>
</g>
</g>
<!-- GE 206&#45;&gt;ME 302 -->
<g id="edge33" class="edge">
<title>GE 206&#45;&gt;ME 302</title>
<path fill="none" stroke="#8c564b" d="M412.28,-377.39C422.36,-387.52 435.52,-400.03 448.25,-410 487.27,-440.54 535.91,-469.74 570.15,-489.01"/>
<polygon fill="#8c564b" stroke="#8c564b" points="568.08,-491.86 578.52,-493.68 571.49,-485.75 568.08,-491.86"/>
</g>
<!-- GE 206&#45;&gt;ME 308 -->
<g id="edge35" class="edge">
<title>GE 206&#45;&gt;ME 308</title>
<path fill="none" stroke="#7f7f7f" d="M416.78,-377.44C428.58,-386.11 443.83,-395.52 459.25,-400 495.29,-410.49 537.92,-405.28 569.1,-398.42"/>
<polygon fill="#7f7f7f" stroke="#7f7f7f" points="569.63,-401.9 578.56,-396.2 568.03,-395.08 569.63,-401.9"/>
</g>
<!-- ME 350 -->
<g id="node20" class="node">
<title>ME 350</title>
<g id="a_node20"><a xlink:title="Parametric Solid Modeling">
<polygon fill="#f8cecc" stroke="black" points="427.25,-557 360.25,-557 360.25,-521 427.25,-521 427.25,-557"/>
<text text-anchor="start" x="368.25" y="-536.12" font-family="Times,serif" font-size="10.00">ME 350</text>
<text text-anchor="start" x="401.25" y="-536.12" font-family="Times,serif" baseline-shift="sub" font-size="10.00" fill="#6e6d6a"> &#160;3 cr</text>
</a>
</g>
</g>
<!-- ME 300L -->
<g id="node22" class="node">
<title>ME 300L</title>
<g id="a_node22"><a xlink:title="Manufacturing Laboratory">
<polygon fill="#f8cecc" stroke="black" points="540.25,-358 467.25,-358 467.25,-322 540.25,-322 540.25,-358"/>
<text text-anchor="start" x="475.25" y="-337.12" font-family="Times,serif" font-size="10.00">ME 300L</text>
<text text-anchor="start" x="514.25" y="-337.12" font-family="Times,serif" baseline-shift="sub" font-size="10.00" fill="#6e6d6a"> &#160;1 cr</text>
</a>
</g>
</g>
<!-- ME 300&#45;&gt;ME 300L -->
<g id="edge24" class="edge">
<title>ME 300&#45;&gt;ME 300L</title>
<path fill="none" stroke="#6b6ecf" stroke-dasharray="5,2" d="M503.75,-286.28C503.75,-294.27 503.75,-302.26 503.75,-310.24"/>
<polygon fill="#6b6ecf" stroke="#6b6ecf" points="500.25,-310.02 503.75,-320.02 507.25,-310.02 500.25,-310.02"/>
</g>
<!-- COR 220 -->
<g id="node27" class="node">
<title>COR 220</title>
<g id="a_node27"><a xlink:title="Social Sciences">
<polygon fill="#f6e8c3" stroke="black" points="650.25,-296 577.25,-296 577.25,-260 650.25,-260 650.25,-296"/>
<text text-anchor="start" x="585.25" y="-275.12" font-family="Times,serif" font-size="10.00">COR 220</text>
<text text-anchor="start" x="624.25" y="-275.12" font-family="Times,serif" baseline-shift="sub" font-size="10.00" fill="#6e6d6a"> &#160;3 cr</text>
</a>
</g>
</g>
<!-- ME 300&#45;&gt;COR 220 -->
<!-- ME 316 -->
<g id="node24" class="node">
<title>ME 316</title>
<g id="a_node24"><a xlink:title="Mechatronics and Instrumentation Laboratory">
<polygon fill="#f8cecc" stroke="black" points="537.25,-178 470.25,-178 470.25,-142 537.25,-142 537.25,-178"/>
<text text-anchor="start" x="478.25" y="-157.12" font-family="Times,serif" font-size="10.00">ME 316</text>
<text text-anchor="start" x="511.25" y="-157.12" font-family="Times,serif" baseline-shift="sub" font-size="10.00" fill="#6e6d6a"> &#160;2 cr</text>
</a>
</g>
</g>
<!-- ME 430 -->
<g id="node34" class="node">
<title>ME 430</title>
<g id="a_node34"><a xlink:title="Heat Transfer">
<polygon fill="#f8cecc" stroke="black" points="757.25,-404 690.25,-404 690.25,-368 757.25,-368 757.25,-404"/>
<text text-anchor="start" x="698.25" y="-383.12" font-family="Times,serif" font-size="10.00">ME 430</text>
<text text-anchor="start" x="731.25" y="-383.12" font-family="Times,serif" baseline-shift="sub" font-size="10.00" fill="#6e6d6a"> &#160;3 cr</text>
</a>
</g>
</g>
<!-- ME 340&#45;&gt;ME 430 -->
<g id="edge41" class="edge">
<title>ME 340&#45;&gt;ME 430</title>
<path fill="none" stroke="#843c39" d="M537.44,-51.81C541.31,-54.62 545.02,-57.69 548.25,-61 615.62,-129.99 622.76,-158.34 658.25,-248 673.85,-287.4 659.11,-303.72 679.25,-341 682.86,-347.68 687.74,-354.07 692.93,-359.82"/>
<polygon fill="#843c39" stroke="#843c39" points="690.1,-361.94 699.58,-366.68 695.13,-357.06 690.1,-361.94"/>
</g>
<!-- ME 345&#45;&gt;ME 316 -->
<g id="edge27" class="edge">
<title>ME 345&#45;&gt;ME 316</title>
<path fill="none" stroke="#31a354" stroke-dasharray="5,2" d="M503.75,-106.28C503.75,-114.27 503.75,-122.26 503.75,-130.24"/>
<polygon fill="#31a354" stroke="#31a354" points="500.25,-130.02 503.75,-140.02 507.25,-130.02 500.25,-130.02"/>
</g>
<!-- ME 345&#45;&gt;ME 370 -->
<g id="edge38" class="edge">
<title>ME 345&#45;&gt;ME 370</title>
<path fill="none" stroke="#393b79" d="M528.24,-106.23C536.03,-113.63 543.83,-122.84 548.25,-133 584.27,-215.85 523.31,-461.21 569.25,-539 570.1,-540.44 571.05,-541.8 572.1,-543.11"/>
<polygon fill="#393b79" stroke="#393b79" points="569.36,-545.33 578.98,-549.78 574.23,-540.3 569.36,-545.33"/>
</g>
<!-- COR 250 -->
<g id="node33" class="node">
<title>COR 250</title>
<g id="a_node33"><a xlink:title="Historical and Political Studies">
<polygon fill="#f6e8c3" stroke="black" points="760.25,-458 687.25,-458 687.25,-422 760.25,-422 760.25,-458"/>
<text text-anchor="start" x="695.25" y="-437.12" font-family="Times,serif" font-size="10.00">COR 250</text>
<text text-anchor="start" x="734.25" y="-437.12" font-family="Times,serif" baseline-shift="sub" font-size="10.00" fill="#6e6d6a"> &#160;3 cr</text>
</a>
</g>
</g>
<!-- COR 220&#45;&gt;COR 250 -->
<!-- COR 240 -->
<g id="node28" class="node">
<title>COR 240</title>
<g id="a_node28"><a xlink:title="Artistic and Creative Expression">
<polygon fill="#f6e8c3" stroke="black" points="650.25,-350 577.25,-350 577.25,-314 650.25,-314 650.25,-350"/>
<text text-anchor="start" x="585.25" y="-329.12" font-family="Times,serif" font-size="10.00">COR 240</text>
<text text-anchor="start" x="624.25" y="-329.12" font-family="Times,serif" baseline-shift="sub" font-size="10.00" fill="#6e6d6a"> &#160;3 cr</text>
</a>
</g>
</g>
<!-- ME 498 -->
<g id="node36" class="node">
<title>ME 498</title>
<g id="a_node36"><a xlink:title="Senior Design I">
<polygon fill="#f8cecc" stroke="black" points="757.25,-512 690.25,-512 690.25,-476 757.25,-476 757.25,-512"/>
<text text-anchor="start" x="698.25" y="-491.12" font-family="Times,serif" font-size="10.00">ME 498</text>
<text text-anchor="start" x="731.25" y="-491.12" font-family="Times,serif" baseline-shift="sub" font-size="10.00" fill="#6e6d6a"> &#160;3 cr</text>
</a>
</g>
</g>
<!-- ME 302&#45;&gt;ME 498 -->
<g id="edge44" class="edge">
<title>ME 302&#45;&gt;ME 498</title>
<path fill="none" stroke="#6b6ecf" d="M647.74,-506.5C657.48,-504.88 668.29,-503.08 678.61,-501.36"/>
<polygon fill="#6b6ecf" stroke="#6b6ecf" points="679.18,-504.81 688.47,-499.71 678.03,-497.91 679.18,-504.81"/>
</g>
<!-- ME 309 -->
<g id="node31" class="node">
<title>ME 309</title>
<g id="a_node31"><a xlink:title="Fluid Mechanics Laboratory">
<polygon fill="#f8cecc" stroke="black" points="647.25,-476 580.25,-476 580.25,-440 647.25,-440 647.25,-476"/>
<text text-anchor="start" x="588.25" y="-455.12" font-family="Times,serif" font-size="10.00">ME 309</text>
<text text-anchor="start" x="621.25" y="-455.12" font-family="Times,serif" baseline-shift="sub" font-size="10.00" fill="#6e6d6a"> &#160;2 cr</text>
</a>
</g>
</g>
<!-- ME 308&#45;&gt;ME 309 -->
<g id="edge37" class="edge">
<title>ME 308&#45;&gt;ME 309</title>
<path fill="none" stroke="#17becf" stroke-width="2" d="M613.75,-415.57C613.75,-419.82 613.75,-424.06 613.75,-428.3"/>
<polygon fill="#17becf" stroke="#17becf" stroke-width="2" points="617.25,-417.31 613.75,-407.31 610.25,-417.31 617.25,-417.31"/>
<polygon fill="#17becf" stroke="#17becf" stroke-width="2" points="610.25,-426.51 613.75,-436.51 617.25,-426.51 610.25,-426.51"/>
</g>
<!-- ME 308&#45;&gt;ME 430 -->
<g id="edge42" class="edge">
<title>ME 308&#45;&gt;ME 430</title>
<path fill="none" stroke="#7b4173" d="M647.74,-386C657.48,-386 668.29,-386 678.61,-386"/>
<polygon fill="#7b4173" stroke="#7b4173" points="678.45,-389.5 688.45,-386 678.45,-382.5 678.45,-389.5"/>
</g>
<!-- ME 370&#45;&gt;ME 498 -->
<g id="edge45" class="edge">
<title>ME 370&#45;&gt;ME 498</title>
<path fill="none" stroke="#9c9ede" d="M645.56,-547.7C649.89,-544.89 654.23,-541.94 658.25,-539 668.17,-531.74 669.33,-528.26 679.25,-521 680.38,-520.17 681.53,-519.35 682.71,-518.52"/>
<polygon fill="#9c9ede" stroke="#9c9ede" points="684.34,-521.64 690.68,-513.15 680.43,-515.83 684.34,-521.64"/>
</g>
<!-- COR 310 -->
<g id="node38" class="node">
<title>COR 310</title>
<g id="a_node38"><a xlink:title="Community: The Call to Serve the Common Good">
<polygon fill="#f6e8c3" stroke="black" points="875.13,-547 802.13,-547 802.13,-511 875.13,-511 875.13,-547"/>
<text text-anchor="start" x="810.13" y="-526.12" font-family="Times,serif" font-size="10.00">COR 310</text>
<text text-anchor="start" x="849.13" y="-526.12" font-family="Times,serif" baseline-shift="sub" font-size="10.00" fill="#6e6d6a"> &#160;3 cr</text>
</a>
</g>
</g>
<!-- COR 250&#45;&gt;COR 310 -->
<!-- ME 430&#45;&gt;ME 498 -->
<g id="edge46" class="edge">
<title>ME 430&#45;&gt;ME 498</title>
<path fill="none" stroke="#3182bd" stroke-dasharray="5,2" d="M689.77,-401.21C682.59,-406.51 676.49,-413.36 674.25,-422 669.2,-441.48 665.3,-452.5 679.25,-467 679.84,-467.61 680.44,-468.21 681.06,-468.81"/>
<polygon fill="#3182bd" stroke="#3182bd" points="678.66,-471.37 688.6,-475.05 683.13,-465.97 678.66,-471.37"/>
</g>
<!-- ME 430L -->
<g id="node35" class="node">
<title>ME 430L</title>
<g id="a_node35"><a xlink:title="Heat Transfer Laboratory">
<polygon fill="#f8cecc" stroke="black" points="760.25,-332 687.25,-332 687.25,-296 760.25,-296 760.25,-332"/>
<text text-anchor="start" x="695.25" y="-311.12" font-family="Times,serif" font-size="10.00">ME 430L</text>
<text text-anchor="start" x="734.25" y="-311.12" font-family="Times,serif" baseline-shift="sub" font-size="10.00" fill="#6e6d6a"> &#160;2 cr</text>
</a>
</g>
</g>
<!-- ME 430L&#45;&gt;ME 430 -->
<g id="edge43" class="edge">
<title>ME 430L&#45;&gt;ME 430</title>
<path fill="none" stroke="#5254a3" stroke-width="2" d="M723.75,-343.57C723.75,-347.82 723.75,-352.06 723.75,-356.3"/>
<polygon fill="#5254a3" stroke="#5254a3" stroke-width="2" points="727.25,-345.31 723.75,-335.31 720.25,-345.31 727.25,-345.31"/>
<polygon fill="#5254a3" stroke="#5254a3" stroke-width="2" points="720.25,-354.51 723.75,-364.51 727.25,-354.51 720.25,-354.51"/>
</g>
<!-- ME 499 -->
<g id="node40" class="node">
<title>ME 499</title>
<g id="a_node40"><a xlink:title="Senior Design II">
<polygon fill="#f8cecc" stroke="black" points="872.13,-439 805.13,-439 805.13,-403 872.13,-403 872.13,-439"/>
<text text-anchor="start" x="813.13" y="-418.12" font-family="Times,serif" font-size="10.00">ME 499</text>
<text text-anchor="start" x="846.13" y="-418.12" font-family="Times,serif" baseline-shift="sub" font-size="10.00" fill="#6e6d6a"> &#160;3 cr</text>
</a>
</g>
</g>
<!-- ME 498&#45;&gt;ME 499 -->
<g id="edge47" class="edge">
<title>ME 498&#45;&gt;ME 499</title>
<path fill="none" stroke="#31a354" d="M755.64,-475.79C759.96,-472.97 764.27,-469.99 768.25,-467 778.3,-459.43 779.02,-455.34 789.25,-448 791.22,-446.59 793.27,-445.19 795.36,-443.82"/>
<polygon fill="#31a354" stroke="#31a354" points="796.78,-447.06 803.45,-438.82 793.1,-441.11 796.78,-447.06"/>
</g>
<!-- ME El. 1 -->
<g id="node37" class="node">
<title>ME El. 1</title>
<g id="a_node37"><a xlink:title="Mechanical Engineering Elective 1">
<polygon fill="#f8cecc" stroke="black" points="758.75,-566 688.75,-566 688.75,-530 758.75,-530 758.75,-566"/>
<text text-anchor="start" x="696.75" y="-545.12" font-family="Times,serif" font-size="10.00">ME El. 1</text>
<text text-anchor="start" x="732.75" y="-545.12" font-family="Times,serif" baseline-shift="sub" font-size="10.00" fill="#6e6d6a"> &#160;3 cr</text>
</a>
</g>
</g>
<!-- COR 340W -->
<g id="node39" class="node">
<title>COR 340W</title>
<g id="a_node39"><a xlink:title="Ethics and the Dignity of Work (Writing Intensive)">
<polygon fill="#f6e8c3" stroke="black" points="880,-493 797.25,-493 797.25,-457 880,-457 880,-493"/>
<text text-anchor="start" x="805.25" y="-472.12" font-family="Times,serif" font-size="10.00">COR 340W</text>
<text text-anchor="start" x="854" y="-472.12" font-family="Times,serif" baseline-shift="sub" font-size="10.00" fill="#6e6d6a"> &#160;4 cr</text>
</a>
</g>
</g>
<!-- ME El. 2 -->
<g id="node41" class="node">
<title>ME El. 2</title>
<g id="a_node41"><a xlink:title="Mechanical Engineering Elective 2">
<polygon fill="#f8cecc" stroke="black" points="873.63,-601 803.63,-601 803.63,-565 873.63,-565 873.63,-601"/>
<text text-anchor="start" x="811.63" y="-580.12" font-family="Times,serif" font-size="10.00">ME El. 2</text>
<text text-anchor="start" x="847.63" y="-580.12" font-family="Times,serif" baseline-shift="sub" font-size="10.00" fill="#6e6d6a"> &#160;3 cr</text>
</a>
</g>
</g>
<!-- ME El. 3 -->
<g id="node42" class="node">
<title>ME El. 3</title>
<g id="a_node42"><a xlink:title="Mechanical Engineering Elective 3">
<polygon fill="#f8cecc" stroke="black" points="873.63,-655 803.63,-655 803.63,-619 873.63,-619 873.63,-655"/>
<text text-anchor="start" x="811.63" y="-634.12" font-family="Times,serif" font-size="10.00">ME El. 3</text>
<text text-anchor="start" x="847.63" y="-634.12" font-family="Times,serif" baseline-shift="sub" font-size="10.00" fill="#6e6d6a"> &#160;3 cr</text>
</a>
</g>
</g>
<!-- pr_edge -->
<!-- ME El. 3&#45;&gt;pr_edge -->
<!-- pr_label -->
<g id="node44" class="node">
<title>pr_label</title>
<text text-anchor="middle" x="1001.28" y="-631.95" font-family="Times,serif" font-size="14.00">prerequisite</text>
</g>
<!-- pr_edge&#45;&gt;pr_label -->
<g id="edge49" class="edge">
<title>pr_edge&#45;&gt;pr_label</title>
<path fill="none" stroke="black" d="M912.67,-637C920.74,-637 935.31,-637 950.29,-637"/>
<polygon fill="black" stroke="black" points="950.2,-640.5 960.2,-637 950.2,-633.5 950.2,-640.5"/>
</g>
<!-- copr_edge -->
<!-- copr_label -->
<g id="node46" class="node">
<title>copr_label</title>
<text text-anchor="middle" x="1001.28" y="-685.95" font-family="Times,serif" font-size="14.00">con&#45;prerequisite</text>
</g>
<!-- copr_edge&#45;&gt;copr_label -->
<g id="edge50" class="edge">
<title>copr_edge&#45;&gt;copr_label</title>
<path fill="none" stroke="black" stroke-dasharray="5,2" d="M912.67,-691C918.58,-691 927.99,-691 938.49,-691"/>
<polygon fill="black" stroke="black" points="938.21,-694.5 948.21,-691 938.21,-687.5 938.21,-694.5"/>
</g>
<!-- cr_edge -->
<!-- cr_label -->
<g id="node48" class="node">
<title>cr_label</title>
<text text-anchor="middle" x="1001.28" y="-739.95" font-family="Times,serif" font-size="14.00">corequisite</text>
</g>
<!-- cr_edge&#45;&gt;cr_label -->
<g id="edge51" class="edge">
<title>cr_edge&#45;&gt;cr_label</title>
<path fill="none" stroke="black" stroke-width="2" d="M923.89,-745C932.1,-745 942.29,-745 952.52,-745"/>
<polygon fill="black" stroke="black" stroke-width="2" points="925.69,-741.5 915.69,-745 925.69,-748.5 925.69,-741.5"/>
<polygon fill="black" stroke="black" stroke-width="2" points="950.96,-748.5 960.96,-745 950.96,-741.5 950.96,-748.5"/>
</g>
</g>
</svg>
