<?xml version="1.0" encoding="UTF-8" standalone="no"?>
<!DOCTYPE svg PUBLIC "-//W3C//DTD SVG 1.1//EN"
 "http://www.w3.org/Graphics/SVG/1.1/DTD/svg11.dtd">
<!-- Generated by graphviz version 12.2.1 (20241206.2353)
 -->
<!-- Pages: 1 -->
<svg width="1068pt" height="656pt"
 viewBox="0.00 0.00 1067.99 656.00" xmlns="http://www.w3.org/2000/svg" xmlns:xlink="http://www.w3.org/1999/xlink">
<g id="graph0" class="graph" transform="scale(1 1) rotate(0) translate(4 652)">
<polygon fill="white" stroke="none" points="-4,4 -4,-652 1063.99,-652 1063.99,4 -4,4"/>
<g id="clust1" class="cluster">
<title>cluster_0</title>
<polygon fill="#cecdc9" stroke="#cecdc9" points="13.59,-145 13.59,-461 109.34,-461 109.34,-145 13.59,-145"/>
<text text-anchor="start" x="38.22" y="-446.6" font-family="Palatino" font-weight="bold" font-size="12.00">Term: 1F</text>
<text text-anchor="start" x="50.97" y="-436.5" font-family="Palatino" font-size="10.00" fill="#6e6d6a">14 cr</text>
</g>
<g id="clust2" class="cluster">
<title>cluster_1</title>
<polygon fill="#cecdc9" stroke="#cecdc9" points="130.34,-38 130.34,-354 226.09,-354 226.09,-38 130.34,-38"/>
<text text-anchor="start" x="154.59" y="-339.6" font-family="Palatino" font-weight="bold" font-size="12.00">Term: 1S</text>
<text text-anchor="start" x="167.72" y="-329.5" font-family="Palatino" font-size="10.00" fill="#6e6d6a">14 cr</text>
</g>
<g id="clust3" class="cluster">
<title>cluster_2</title>
<polygon fill="#cecdc9" stroke="#cecdc9" points="247.09,-238 247.09,-428 340.59,-428 340.59,-238 247.09,-238"/>
<text text-anchor="start" x="270.59" y="-413.6" font-family="Palatino" font-weight="bold" font-size="12.00">Term: 2F</text>
<text text-anchor="start" x="285.97" y="-403.5" font-family="Palatino" font-size="10.00" fill="#6e6d6a">9 cr</text>
</g>
<g id="clust4" class="cluster">
<title>cluster_3</title>
<polygon fill="#cecdc9" stroke="#cecdc9" points="361.59,-227 361.59,-489 446.84,-489 446.84,-227 361.59,-227"/>
<text text-anchor="start" x="380.59" y="-474.6" font-family="Palatino" font-weight="bold" font-size="12.00">Term: 2S</text>
<text text-anchor="start" x="393.72" y="-464.5" font-family="Palatino" font-size="10.00" fill="#6e6d6a">10 cr</text>
</g>
<g id="clust5" class="cluster">
<title>cluster_4</title>
<polygon fill="#cecdc9" stroke="#cecdc9" points="467.84,-23 467.84,-411 559.09,-411 559.09,-23 467.84,-23"/>
<text text-anchor="start" x="490.22" y="-396.6" font-family="Palatino" font-weight="bold" font-size="12.00">Term: 3F</text>
<text text-anchor="start" x="502.97" y="-386.5" font-family="Palatino" font-size="10.00" fill="#6e6d6a">15 cr</text>
</g>
<g id="clust6" class="cluster">
<title>cluster_5</title>
<polygon fill="#cecdc9" stroke="#cecdc9" points="580.09,-378 580.09,-640 665.34,-640 665.34,-378 580.09,-378"/>
<text text-anchor="start" x="599.09" y="-625.6" font-family="Palatino" font-weight="bold" font-size="12.00">Term: 3S</text>
<text text-anchor="start" x="612.97" y="-615.5" font-family="Palatino" font-size="10.00" fill="#6e6d6a">11 cr</text>
</g>
<g id="clust7" class="cluster">
<title>cluster_6</title>
<polygon fill="#cecdc9" stroke="#cecdc9" points="686.34,-279 686.34,-541 777.59,-541 777.59,-279 686.34,-279"/>
<text text-anchor="start" x="708.72" y="-526.6" font-family="Palatino" font-weight="bold" font-size="12.00">Term: 4F</text>
<text text-anchor="start" x="722.22" y="-516.5" font-family="Palatino" font-size="10.00" fill="#6e6d6a">11 cr</text>
</g>
<g id="clust8" class="cluster">
<title>cluster_7</title>
<polygon fill="#cecdc9" stroke="#cecdc9" points="798.59,-338 798.59,-528 886.84,-528 886.84,-338 798.59,-338"/>
<text text-anchor="start" x="819.09" y="-513.6" font-family="Palatino" font-weight="bold" font-size="12.00">Term: 4S</text>
<text text-anchor="start" x="834.84" y="-503.5" font-family="Palatino" font-size="10.00" fill="#6e6d6a">9 cr</text>
</g>
<g id="clust9" class="cluster">
<title>cluster_legend</title>
<polygon fill="none" stroke="#cecdc9" stroke-dasharray="5,2" points="896.84,-454 896.84,-620 1051.99,-620 1051.99,-454 896.84,-454"/>
<text text-anchor="middle" x="974.42" y="-604.6" font-family="Palatino" font-size="12.00">Legend</text>
</g>
<!-- COR 120 -->
<g id="node1" class="node">
<title>COR 120</title>
<g id="a_node1"><a xlink:title="Critical Reading and Writing">
<polygon fill="#f6e8c3" stroke="black" points="99.09,-369 23.84,-369 23.84,-333 99.09,-333 99.09,-369"/>
<text text-anchor="start" x="31.84" y="-348.12" font-family="Times,serif" font-size="10.00">COR 120</text>
<text text-anchor="start" x="70.84" y="-348.12" font-family="Times,serif" baseline-shift="sub" font-size="10.00" fill="#6e6d6a"> &#160;4 cr</text>
<text text-anchor="start" x="88.84" y="-348.12" font-family="Times,serif" font-size="10.00"> </text>
</a>
</g>
</g>
<!-- MTH 172 -->
<g id="node6" class="node">
<title>MTH 172</title>
<g id="a_node6"><a xlink:title="Calculus II">
<polygon fill="#d5e8d4" stroke="black" points="216.59,-262 139.84,-262 139.84,-226 216.59,-226 216.59,-262"/>
<text text-anchor="start" x="147.84" y="-241.12" font-family="Times,serif" font-size="10.00">MTH 172</text>
<text text-anchor="start" x="188.34" y="-241.12" font-family="Times,serif" baseline-shift="sub" font-size="10.00" fill="#6e6d6a"> &#160;4 cr</text>
<text text-anchor="start" x="206.34" y="-241.12" font-family="Times,serif" font-size="10.00"> </text>
</a>
</g>
</g>
<!-- COR 120&#45;&gt;MTH 172 -->
<!-- ME 201 -->
<g id="node10" class="node">
<title>ME 201</title>
<g id="a_node10"><a xlink:title="Technical Communication">
<polygon fill="#f8cecc" stroke="black" points="212.84,-316 143.59,-316 143.59,-280 212.84,-280 212.84,-316"/>
<text text-anchor="start" x="151.59" y="-295.12" font-family="Times,serif" font-size="10.00">ME 201</text>
<text text-anchor="start" x="184.59" y="-295.12" font-family="Times,serif" baseline-shift="sub" font-size="10.00" fill="#6e6d6a"> &#160;2 cr</text>
<text text-anchor="start" x="202.59" y="-295.12" font-family="Times,serif" font-size="10.00"> </text>
</a>
</g>
</g>
<!-- COR 120&#45;&gt;ME 201 -->
<g id="edge22" class="edge">
<title>COR 120&#45;&gt;ME 201</title>
<path fill="none" stroke="#7b4173" d="M99.4,-352.75C106.54,-352.08 113.82,-350.65 120.34,-348 132.93,-342.88 144.62,-333.74 154.09,-324.67"/>
<polygon fill="#7b4173" stroke="#7b4173" points="156.57,-327.14 161.07,-317.55 151.57,-322.24 156.57,-327.14"/>
</g>
<!-- MTH 171 -->
<g id="node2" class="node">
<title>MTH 171</title>
<g id="a_node2"><a xlink:title="Calculus I">
<polygon fill="#d5e8d4" stroke="black" points="99.84,-315 23.09,-315 23.09,-279 99.84,-279 99.84,-315"/>
<text text-anchor="start" x="31.09" y="-294.12" font-family="Times,serif" font-size="10.00">MTH 171</text>
<text text-anchor="start" x="71.59" y="-294.12" font-family="Times,serif" baseline-shift="sub" font-size="10.00" fill="#6e6d6a"> &#160;4 cr</text>
<text text-anchor="start" x="89.59" y="-294.12" font-family="Times,serif" font-size="10.00"> </text>
</a>
</g>
</g>
<!-- PHY 171 -->
<g id="node3" class="node">
<title>PHY 171</title>
<g id="a_node3"><a xlink:title="Physics I">
<polygon fill="#d5e8d4" stroke="black" points="98.34,-189 24.59,-189 24.59,-153 98.34,-153 98.34,-189"/>
<text text-anchor="start" x="32.59" y="-168.12" font-family="Times,serif" font-size="10.00">PHY 171</text>
<text text-anchor="start" x="70.09" y="-168.12" font-family="Times,serif" baseline-shift="sub" font-size="10.00" fill="#6e6d6a"> &#160;4 cr</text>
<text text-anchor="start" x="88.09" y="-168.12" font-family="Times,serif" font-size="10.00"> </text>
</a>
</g>
</g>
<!-- MTH 171&#45;&gt;PHY 171 -->
<g id="edge8" class="edge">
<title>MTH 171&#45;&gt;PHY 171</title>
<path fill="none" stroke="#1f77b4" stroke-dasharray="5,2" d="M22.86,-281.6C15.07,-276.39 8.17,-269.64 4.59,-261 -1.53,-246.22 -1.53,-239.78 4.59,-225 9.01,-214.34 16.73,-204.82 25.09,-196.85"/>
<polygon fill="#1f77b4" stroke="#1f77b4" points="27.22,-199.64 32.43,-190.42 22.6,-194.38 27.22,-199.64"/>
</g>
<!-- MTH 171&#45;&gt;MTH 172 -->
<g id="edge10" class="edge">
<title>MTH 171&#45;&gt;MTH 172</title>
<path fill="none" stroke="#2ca02c" d="M100.04,-279.65C109.35,-275.34 119.46,-270.68 129.19,-266.18"/>
<polygon fill="#2ca02c" stroke="#2ca02c" points="130.57,-269.4 138.19,-262.03 127.64,-263.04 130.57,-269.4"/>
</g>
<!-- GE 104 -->
<g id="node9" class="node">
<title>GE 104</title>
<g id="a_node9"><a xlink:title="Engineering Computing">
<polygon fill="#dae8fc" stroke="black" points="212.09,-208 144.34,-208 144.34,-172 212.09,-172 212.09,-208"/>
<text text-anchor="start" x="152.34" y="-187.12" font-family="Times,serif" font-size="10.00">GE 104</text>
<text text-anchor="start" x="183.84" y="-187.12" font-family="Times,serif" baseline-shift="sub" font-size="10.00" fill="#6e6d6a"> &#160;3 cr</text>
<text text-anchor="start" x="201.84" y="-187.12" font-family="Times,serif" font-size="10.00"> </text>
</a>
</g>
</g>
<!-- MTH 171&#45;&gt;GE 104 -->
<g id="edge15" class="edge">
<title>MTH 171&#45;&gt;GE 104</title>
<path fill="none" stroke="#7f7f7f" d="M100.1,-278.55C103.48,-275.98 106.64,-273.13 109.34,-270 125.91,-250.83 113.77,-236.17 130.34,-217 131.94,-215.15 133.69,-213.4 135.56,-211.75"/>
<polygon fill="#7f7f7f" stroke="#7f7f7f" points="137.25,-214.86 143.09,-206.02 133.01,-209.29 137.25,-214.86"/>
</g>
<!-- GE 204 -->
<g id="node13" class="node">
<title>GE 204</title>
<g id="a_node13"><a xlink:title="Statics">
<polygon fill="#dae8fc" stroke="black" points="327.72,-390 259.97,-390 259.97,-354 327.72,-354 327.72,-390"/>
<text text-anchor="start" x="267.97" y="-369.12" font-family="Times,serif" font-size="10.00">GE 204</text>
<text text-anchor="start" x="299.47" y="-369.12" font-family="Times,serif" baseline-shift="sub" font-size="10.00" fill="#6e6d6a"> &#160;3 cr</text>
<text text-anchor="start" x="317.47" y="-369.12" font-family="Times,serif" font-size="10.00"> </text>
</a>
</g>
</g>
<!-- MTH 171&#45;&gt;GE 204 -->
<g id="edge17" class="edge">
<title>MTH 171&#45;&gt;GE 204</title>
<path fill="none" stroke="#17becf" d="M100.27,-315.31C103.61,-317.91 106.72,-320.81 109.34,-324 127.8,-346.49 106.7,-369.05 130.34,-386 164.54,-410.53 213.8,-401.85 249.11,-390.27"/>
<polygon fill="#17becf" stroke="#17becf" points="249.87,-393.71 258.16,-387.11 247.56,-387.1 249.87,-393.71"/>
</g>
<!-- PHY 171L -->
<g id="node4" class="node">
<title>PHY 171L</title>
<g id="a_node4"><a xlink:title="Physics I Laboratory">
<polygon fill="#d5e8d4" stroke="black" points="101.34,-261 21.59,-261 21.59,-225 101.34,-225 101.34,-261"/>
<text text-anchor="start" x="29.59" y="-240.12" font-family="Times,serif" font-size="10.00">PHY 171L</text>
<text text-anchor="start" x="73.09" y="-240.12" font-family="Times,serif" baseline-shift="sub" font-size="10.00" fill="#6e6d6a"> &#160;1 cr</text>
<text text-anchor="start" x="91.09" y="-240.12" font-family="Times,serif" font-size="10.00"> </text>
</a>
</g>
</g>
<!-- PHY 171&#45;&gt;PHY 171L -->
<g id="edge9" class="edge">
<title>PHY 171&#45;&gt;PHY 171L</title>
<path fill="none" stroke="#ff7f0e" stroke-width="2" d="M61.47,-200.57C61.47,-204.82 61.47,-209.06 61.47,-213.3"/>
<polygon fill="#ff7f0e" stroke="#ff7f0e" stroke-width="2" points="64.97,-202.31 61.47,-192.31 57.97,-202.31 64.97,-202.31"/>
<polygon fill="#ff7f0e" stroke="#ff7f0e" stroke-width="2" points="57.97,-211.51 61.47,-221.51 64.97,-211.51 57.97,-211.51"/>
</g>
<!-- PHY 172 -->
<g id="node7" class="node">
<title>PHY 172</title>
<g id="a_node7"><a xlink:title="Physics II">
<polygon fill="#d5e8d4" stroke="black" points="215.09,-82 141.34,-82 141.34,-46 215.09,-46 215.09,-82"/>
<text text-anchor="start" x="149.34" y="-61.12" font-family="Times,serif" font-size="10.00">PHY 172</text>
<text text-anchor="start" x="186.84" y="-61.12" font-family="Times,serif" baseline-shift="sub" font-size="10.00" fill="#6e6d6a"> &#160;4 cr</text>
<text text-anchor="start" x="204.84" y="-61.12" font-family="Times,serif" font-size="10.00"> </text>
</a>
</g>
</g>
<!-- PHY 171&#45;&gt;PHY 172 -->
<g id="edge11" class="edge">
<title>PHY 171&#45;&gt;PHY 172</title>
<path fill="none" stroke="#d62728" d="M82.19,-152.61C100.78,-135.28 128.8,-109.15 149.6,-89.75"/>
<polygon fill="#d62728" stroke="#d62728" points="151.71,-92.57 156.64,-83.19 146.94,-87.45 151.71,-92.57"/>
</g>
<!-- PHY 171&#45;&gt;GE 104 -->
<g id="edge16" class="edge">
<title>PHY 171&#45;&gt;GE 104</title>
<path fill="none" stroke="#808000" d="M98.77,-177.01C109.5,-178.79 121.36,-180.75 132.54,-182.6"/>
<polygon fill="#808000" stroke="#808000" points="131.94,-186.05 142.38,-184.23 133.09,-179.15 131.94,-186.05"/>
</g>
<!-- PHY 171&#45;&gt;GE 204 -->
<g id="edge18" class="edge">
<title>PHY 171&#45;&gt;GE 204</title>
<path fill="none" stroke="#393b79" d="M87.22,-189.16C95.55,-196.55 104.07,-205.77 109.34,-216 138.59,-272.7 83.88,-314.28 130.34,-358 161.33,-387.15 211.91,-386.91 248.42,-381.73"/>
<polygon fill="#393b79" stroke="#393b79" points="248.92,-385.2 258.24,-380.15 247.81,-378.29 248.92,-385.2"/>
</g>
<!-- ME 100 -->
<g id="node5" class="node">
<title>ME 100</title>
<g id="a_node5"><a xlink:title="Mechanical Engineering Seminar">
<polygon fill="#f8cecc" stroke="black" points="96.09,-423 26.84,-423 26.84,-387 96.09,-387 96.09,-423"/>
<text text-anchor="start" x="34.84" y="-402.12" font-family="Times,serif" font-size="10.00">ME 100</text>
<text text-anchor="start" x="67.84" y="-402.12" font-family="Times,serif" baseline-shift="sub" font-size="10.00" fill="#6e6d6a"> &#160;1 cr</text>
<text text-anchor="start" x="85.84" y="-402.12" font-family="Times,serif" font-size="10.00"> </text>
</a>
</g>
</g>
<!-- MTH 172&#45;&gt;PHY 172 -->
<g id="edge12" class="edge">
<title>MTH 172&#45;&gt;PHY 172</title>
<path fill="none" stroke="#9467bd" stroke-dasharray="5,2" d="M139.43,-227.55C132.83,-222.49 127.43,-216.06 125.34,-208 120.33,-188.64 120.33,-137.36 125.34,-118 128.1,-107.35 134.73,-97.88 142.39,-89.96"/>
<polygon fill="#9467bd" stroke="#9467bd" points="144.59,-92.7 149.53,-83.32 139.82,-87.57 144.59,-92.7"/>
</g>
<!-- CHM 145 -->
<g id="node11" class="node">
<title>CHM 145</title>
<g id="a_node11"><a xlink:title="Chemistry for Engineers. Or CHM 141 (more credits).">
<polygon fill="#d5e8d4" stroke="black" points="332.59,-282 255.09,-282 255.09,-246 332.59,-246 332.59,-282"/>
<text text-anchor="start" x="263.09" y="-261.12" font-family="Times,serif" font-size="10.00">CHM 145</text>
<text text-anchor="start" x="304.34" y="-261.12" font-family="Times,serif" baseline-shift="sub" font-size="10.00" fill="#6e6d6a"> &#160;3 cr</text>
<text text-anchor="start" x="322.34" y="-261.12" font-family="Times,serif" font-size="10.00"> </text>
</a>
</g>
</g>
<!-- MTH 172&#45;&gt;CHM 145 -->
<!-- MTH 353 -->
<g id="node12" class="node">
<title>MTH 353</title>
<g id="a_node12"><a xlink:title="Linear Algebra">
<polygon fill="#d5e8d4" stroke="black" points="332.22,-336 255.47,-336 255.47,-300 332.22,-300 332.22,-336"/>
<text text-anchor="start" x="263.47" y="-315.12" font-family="Times,serif" font-size="10.00">MTH 353</text>
<text text-anchor="start" x="303.97" y="-315.12" font-family="Times,serif" baseline-shift="sub" font-size="10.00" fill="#6e6d6a"> &#160;3 cr</text>
<text text-anchor="start" x="321.97" y="-315.12" font-family="Times,serif" font-size="10.00"> </text>
</a>
</g>
</g>
<!-- MTH 172&#45;&gt;MTH 353 -->
<g id="edge14" class="edge">
<title>MTH 172&#45;&gt;MTH 353</title>
<path fill="none" stroke="#e377c2" d="M213.13,-262.23C217.6,-265.01 222.03,-267.96 226.09,-271 236.42,-278.72 236.81,-283.23 247.09,-291 248.21,-291.84 249.36,-292.68 250.52,-293.52"/>
<polygon fill="#e377c2" stroke="#e377c2" points="248.25,-296.2 258.5,-298.86 252.14,-290.39 248.25,-296.2"/>
</g>
<!-- ME 340 -->
<g id="node22" class="node">
<title>ME 340</title>
<g id="a_node22"><a xlink:title="Thermodynamics I">
<polygon fill="#f8cecc" stroke="black" points="548.09,-67 478.84,-67 478.84,-31 548.09,-31 548.09,-67"/>
<text text-anchor="start" x="486.84" y="-46.12" font-family="Times,serif" font-size="10.00">ME 340</text>
<text text-anchor="start" x="519.84" y="-46.12" font-family="Times,serif" baseline-shift="sub" font-size="10.00" fill="#6e6d6a"> &#160;3 cr</text>
<text text-anchor="start" x="537.84" y="-46.12" font-family="Times,serif" font-size="10.00"> </text>
</a>
</g>
</g>
<!-- MTH 172&#45;&gt;ME 340 -->
<g id="edge30" class="edge">
<title>MTH 172&#45;&gt;ME 340</title>
<path fill="none" stroke="#2ca02c" stroke-dasharray="5,2" d="M216.92,-225.61C220.28,-223.02 223.42,-220.15 226.09,-217 280.96,-152.2 207.94,-38 292.84,-38 292.84,-38 292.84,-38 405.22,-38 425.68,-38 448.22,-40.01 467.34,-42.3"/>
<polygon fill="#2ca02c" stroke="#2ca02c" points="466.88,-45.77 477.24,-43.57 467.77,-38.83 466.88,-45.77"/>
</g>
<!-- ME 345 -->
<g id="node23" class="node">
<title>ME 345</title>
<g id="a_node23"><a xlink:title="Mechatronics">
<polygon fill="#f8cecc" stroke="black" points="548.09,-121 478.84,-121 478.84,-85 548.09,-85 548.09,-121"/>
<text text-anchor="start" x="486.84" y="-100.12" font-family="Times,serif" font-size="10.00">ME 345</text>
<text text-anchor="start" x="519.84" y="-100.12" font-family="Times,serif" baseline-shift="sub" font-size="10.00" fill="#6e6d6a"> &#160;3 cr</text>
<text text-anchor="start" x="537.84" y="-100.12" font-family="Times,serif" font-size="10.00"> </text>
</a>
</g>
</g>
<!-- MTH 172&#45;&gt;ME 345 -->
<g id="edge31" class="edge">
<title>MTH 172&#45;&gt;ME 345</title>
<path fill="none" stroke="#d62728" d="M216.8,-228.1C278.72,-201.9 401.89,-149.79 468.03,-121.8"/>
<polygon fill="#d62728" stroke="#d62728" points="469.29,-125.07 477.13,-117.95 466.56,-118.62 469.29,-125.07"/>
</g>
<!-- ME 308 -->
<g id="node25" class="node">
<title>ME 308</title>
<g id="a_node25"><a xlink:title="Fluid Mechanics I">
<polygon fill="#f8cecc" stroke="black" points="657.34,-530 588.09,-530 588.09,-494 657.34,-494 657.34,-530"/>
<text text-anchor="start" x="596.09" y="-509.12" font-family="Times,serif" font-size="10.00">ME 308</text>
<text text-anchor="start" x="629.09" y="-509.12" font-family="Times,serif" baseline-shift="sub" font-size="10.00" fill="#6e6d6a"> &#160;3 cr</text>
<text text-anchor="start" x="647.09" y="-509.12" font-family="Times,serif" font-size="10.00"> </text>
</a>
</g>
</g>
<!-- MTH 172&#45;&gt;ME 308 -->
<g id="edge36" class="edge">
<title>MTH 172&#45;&gt;ME 308</title>
<path fill="none" stroke="#808000" d="M216.81,-261.08C220.38,-263.96 223.59,-267.25 226.09,-271 270.08,-336.84 213.66,-621 292.84,-621 292.84,-621 292.84,-621 514.47,-621 547.12,-621 550.32,-598.99 570.09,-573 575.17,-566.33 575,-563.66 580.09,-557 584.87,-550.75 590.36,-544.36 595.75,-538.43"/>
<polygon fill="#808000" stroke="#808000" points="598.18,-540.95 602.45,-531.25 593.07,-536.17 598.18,-540.95"/>
</g>
<!-- PHY 172L -->
<g id="node8" class="node">
<title>PHY 172L</title>
<g id="a_node8"><a xlink:title="Physics II Laboratory">
<polygon fill="#d5e8d4" stroke="black" points="218.09,-154 138.34,-154 138.34,-118 218.09,-118 218.09,-154"/>
<text text-anchor="start" x="146.34" y="-133.12" font-family="Times,serif" font-size="10.00">PHY 172L</text>
<text text-anchor="start" x="189.84" y="-133.12" font-family="Times,serif" baseline-shift="sub" font-size="10.00" fill="#6e6d6a"> &#160;1 cr</text>
<text text-anchor="start" x="207.84" y="-133.12" font-family="Times,serif" font-size="10.00"> </text>
</a>
</g>
</g>
<!-- PHY 172&#45;&gt;PHY 172L -->
<g id="edge13" class="edge">
<title>PHY 172&#45;&gt;PHY 172L</title>
<path fill="none" stroke="#8c564b" stroke-width="2" d="M178.22,-93.57C178.22,-97.82 178.22,-102.06 178.22,-106.3"/>
<polygon fill="#8c564b" stroke="#8c564b" stroke-width="2" points="181.72,-95.31 178.22,-85.31 174.72,-95.31 181.72,-95.31"/>
<polygon fill="#8c564b" stroke="#8c564b" stroke-width="2" points="174.72,-104.51 178.22,-114.51 181.72,-104.51 174.72,-104.51"/>
</g>
<!-- PHY 172&#45;&gt;ME 340 -->
<g id="edge29" class="edge">
<title>PHY 172&#45;&gt;ME 340</title>
<path fill="none" stroke="#ff7f0e" d="M197.54,-45.83C218.64,-26.91 255.26,0 292.84,0 292.84,0 292.84,0 405.22,0 431.49,0 458.37,-12.31 478.65,-24.59"/>
<polygon fill="#ff7f0e" stroke="#ff7f0e" points="476.73,-27.52 487.05,-29.94 480.49,-21.62 476.73,-27.52"/>
</g>
<!-- PHY 172&#45;&gt;ME 345 -->
<g id="edge32" class="edge">
<title>PHY 172&#45;&gt;ME 345</title>
<path fill="none" stroke="#9467bd" d="M215.45,-69.79C237.71,-72.86 266.86,-76 292.84,-76 292.84,-76 292.84,-76 351.59,-76 391.24,-76 435.63,-84.07 467.73,-91.39"/>
<polygon fill="#9467bd" stroke="#9467bd" points="466.53,-94.71 477.06,-93.59 468.13,-87.89 466.53,-94.71"/>
</g>
<!-- GE 205 -->
<g id="node14" class="node">
<title>GE 205</title>
<g id="a_node14"><a xlink:title="Dynamics">
<polygon fill="#dae8fc" stroke="black" points="438.09,-397 370.34,-397 370.34,-361 438.09,-361 438.09,-397"/>
<text text-anchor="start" x="378.34" y="-376.12" font-family="Times,serif" font-size="10.00">GE 205</text>
<text text-anchor="start" x="409.84" y="-376.12" font-family="Times,serif" baseline-shift="sub" font-size="10.00" fill="#6e6d6a"> &#160;3 cr</text>
<text text-anchor="start" x="427.84" y="-376.12" font-family="Times,serif" font-size="10.00"> </text>
</a>
</g>
</g>
<!-- CHM 145&#45;&gt;GE 205 -->
<!-- ME 303 -->
<g id="node20" class="node">
<title>ME 303</title>
<g id="a_node20"><a xlink:title="Materials Science">
<polygon fill="#f8cecc" stroke="black" points="548.09,-247 478.84,-247 478.84,-211 548.09,-211 548.09,-247"/>
<text text-anchor="start" x="486.84" y="-226.12" font-family="Times,serif" font-size="10.00">ME 303</text>
<text text-anchor="start" x="519.84" y="-226.12" font-family="Times,serif" baseline-shift="sub" font-size="10.00" fill="#6e6d6a"> &#160;3 cr</text>
<text text-anchor="start" x="537.84" y="-226.12" font-family="Times,serif" font-size="10.00"> </text>
</a>
</g>
</g>
<!-- CHM 145&#45;&gt;ME 303 -->
<g id="edge26" class="edge">
<title>CHM 145&#45;&gt;ME 303</title>
<path fill="none" stroke="#3182bd" d="M317.74,-245.55C329.98,-236.88 345.76,-227.48 361.59,-223 396.15,-213.23 436.93,-215.64 467.37,-219.98"/>
<polygon fill="#3182bd" stroke="#3182bd" points="466.59,-223.4 477.01,-221.49 467.67,-216.49 466.59,-223.4"/>
</g>
<!-- CHM 145&#45;&gt;ME 340 -->
<g id="edge28" class="edge">
<title>CHM 145&#45;&gt;ME 340</title>
<path fill="none" stroke="#1f77b4" d="M308.86,-245.57C336.56,-209.94 401.4,-130.34 467.84,-76 468.64,-75.35 469.45,-74.7 470.28,-74.06"/>
<polygon fill="#1f77b4" stroke="#1f77b4" points="472.23,-76.97 478.33,-68.31 468.16,-71.28 472.23,-76.97"/>
</g>
<!-- ME 370 -->
<g id="node27" class="node">
<title>ME 370</title>
<g id="a_node27"><a xlink:title="System Dynamics and Control">
<polygon fill="#f8cecc" stroke="black" points="657.34,-422 588.09,-422 588.09,-386 657.34,-386 657.34,-422"/>
<text text-anchor="start" x="596.09" y="-401.12" font-family="Times,serif" font-size="10.00">ME 370</text>
<text text-anchor="start" x="629.09" y="-401.12" font-family="Times,serif" baseline-shift="sub" font-size="10.00" fill="#6e6d6a"> &#160;3 cr</text>
<text text-anchor="start" x="647.09" y="-401.12" font-family="Times,serif" font-size="10.00"> </text>
</a>
</g>
</g>
<!-- MTH 353&#45;&gt;ME 370 -->
<g id="edge40" class="edge">
<title>MTH 353&#45;&gt;ME 370</title>
<path fill="none" stroke="#614100" stroke-dasharray="5,2" d="M332.36,-335.94C335.51,-338.61 338.34,-341.63 340.59,-345 377.52,-400.23 311.42,-449.45 361.59,-493 390.2,-517.84 410,-501.84 446.84,-493 473.91,-486.51 537.67,-452.05 580.25,-427.96"/>
<polygon fill="#614100" stroke="#614100" points="581.78,-431.12 588.74,-423.14 578.32,-425.04 581.78,-431.12"/>
</g>
<!-- GE 204&#45;&gt;GE 205 -->
<g id="edge19" class="edge">
<title>GE 204&#45;&gt;GE 205</title>
<path fill="none" stroke="#637939" d="M328.2,-381.79C335.51,-383.54 343.26,-385.09 350.59,-386 353.25,-386.33 355.99,-386.49 358.75,-386.52"/>
<polygon fill="#637939" stroke="#637939" points="358.76,-390.03 368.59,-386.07 358.44,-383.04 358.76,-390.03"/>
</g>
<!-- GE 206 -->
<g id="node15" class="node">
<title>GE 206</title>
<g id="a_node15"><a xlink:title="Mechanics of Materials">
<polygon fill="#dae8fc" stroke="black" points="438.09,-271 370.34,-271 370.34,-235 438.09,-235 438.09,-271"/>
<text text-anchor="start" x="378.34" y="-250.12" font-family="Times,serif" font-size="10.00">GE 206</text>
<text text-anchor="start" x="409.84" y="-250.12" font-family="Times,serif" baseline-shift="sub" font-size="10.00" fill="#6e6d6a"> &#160;3 cr</text>
<text text-anchor="start" x="427.84" y="-250.12" font-family="Times,serif" font-size="10.00"> </text>
</a>
</g>
</g>
<!-- GE 204&#45;&gt;GE 206 -->
<g id="edge20" class="edge">
<title>GE 204&#45;&gt;GE 206</title>
<path fill="none" stroke="#614100" d="M328.22,-355.69C332.73,-352.56 337.03,-348.99 340.59,-345 355.83,-327.93 348.99,-317.1 361.59,-298 365.85,-291.55 371.03,-285.15 376.28,-279.28"/>
<polygon fill="#614100" stroke="#614100" points="378.61,-281.91 382.88,-272.22 373.49,-277.13 378.61,-281.91"/>
</g>
<!-- ME 300 -->
<g id="node18" class="node">
<title>ME 300</title>
<g id="a_node18"><a xlink:title="Manufacturing">
<polygon fill="#f8cecc" stroke="black" points="548.09,-301 478.84,-301 478.84,-265 548.09,-265 548.09,-301"/>
<text text-anchor="start" x="486.84" y="-280.12" font-family="Times,serif" font-size="10.00">ME 300</text>
<text text-anchor="start" x="519.84" y="-280.12" font-family="Times,serif" baseline-shift="sub" font-size="10.00" fill="#6e6d6a"> &#160;3 cr</text>
<text text-anchor="start" x="537.84" y="-280.12" font-family="Times,serif" font-size="10.00"> </text>
</a>
</g>
</g>
<!-- GE 205&#45;&gt;ME 300 -->
<!-- GE 205&#45;&gt;ME 308 -->
<g id="edge34" class="edge">
<title>GE 205&#45;&gt;ME 308</title>
<path fill="none" stroke="#e377c2" d="M438.47,-396.1C441.75,-398.99 444.66,-402.28 446.84,-406 464.08,-435.39 431.98,-535.71 456.84,-559 493.58,-593.41 523.15,-577.17 570.09,-559 581.28,-554.67 591.54,-546.66 599.91,-538.46"/>
<polygon fill="#e377c2" stroke="#e377c2" points="602.23,-541.1 606.58,-531.43 597.15,-536.28 602.23,-541.1"/>
</g>
<!-- GE 205&#45;&gt;ME 370 -->
<g id="edge39" class="edge">
<title>GE 205&#45;&gt;ME 370</title>
<path fill="none" stroke="#637939" d="M433.96,-397.44C446.83,-405.29 460.69,-413.09 467.84,-415 503.68,-424.57 545.78,-420.56 576.87,-414.87"/>
<polygon fill="#637939" stroke="#637939" points="577.18,-418.38 586.31,-413.01 575.82,-411.51 577.18,-418.38"/>
</g>
<!-- GE 207 -->
<g id="node16" class="node">
<title>GE 207</title>
<g id="a_node16"><a xlink:title="Mechanics of Materials Laboratory">
<polygon fill="#dae8fc" stroke="black" points="438.09,-343 370.34,-343 370.34,-307 438.09,-307 438.09,-343"/>
<text text-anchor="start" x="378.34" y="-322.12" font-family="Times,serif" font-size="10.00">GE 207</text>
<text text-anchor="start" x="409.84" y="-322.12" font-family="Times,serif" baseline-shift="sub" font-size="10.00" fill="#6e6d6a"> &#160;1 cr</text>
<text text-anchor="start" x="427.84" y="-322.12" font-family="Times,serif" font-size="10.00"> </text>
</a>
</g>
</g>
<!-- GE 206&#45;&gt;GE 207 -->
<g id="edge21" class="edge">
<title>GE 206&#45;&gt;GE 207</title>
<path fill="none" stroke="#843c39" stroke-dasharray="5,2" d="M404.22,-271.28C404.22,-279.27 404.22,-287.26 404.22,-295.24"/>
<polygon fill="#843c39" stroke="#843c39" points="400.72,-295.02 404.22,-305.02 407.72,-295.02 400.72,-295.02"/>
</g>
<!-- GE 206&#45;&gt;ME 300 -->
<g id="edge23" class="edge">
<title>GE 206&#45;&gt;ME 300</title>
<path fill="none" stroke="#5254a3" d="M438.56,-262.33C447.67,-264.87 457.69,-267.68 467.33,-270.37"/>
<polygon fill="#5254a3" stroke="#5254a3" points="466.37,-273.74 476.94,-273.06 468.26,-267 466.37,-273.74"/>
</g>
<!-- GE 206&#45;&gt;ME 303 -->
<g id="edge25" class="edge">
<title>GE 206&#45;&gt;ME 303</title>
<path fill="none" stroke="#9c9ede" d="M438.56,-245.54C447.67,-243.5 457.69,-241.26 467.33,-239.1"/>
<polygon fill="#9c9ede" stroke="#9c9ede" points="467.93,-242.55 476.92,-236.95 466.4,-235.72 467.93,-242.55"/>
</g>
<!-- ME 302 -->
<g id="node24" class="node">
<title>ME 302</title>
<g id="a_node24"><a xlink:title="Machine Design">
<polygon fill="#f8cecc" stroke="black" points="657.34,-476 588.09,-476 588.09,-440 657.34,-440 657.34,-476"/>
<text text-anchor="start" x="596.09" y="-455.12" font-family="Times,serif" font-size="10.00">ME 302</text>
<text text-anchor="start" x="629.09" y="-455.12" font-family="Times,serif" baseline-shift="sub" font-size="10.00" fill="#6e6d6a"> &#160;3 cr</text>
<text text-anchor="start" x="647.09" y="-455.12" font-family="Times,serif" font-size="10.00"> </text>
</a>
</g>
</g>
<!-- GE 206&#45;&gt;ME 302 -->
<g id="edge33" class="edge">
<title>GE 206&#45;&gt;ME 302</title>
<path fill="none" stroke="#8c564b" d="M426.6,-271.28C434.11,-278.81 441.91,-288.09 446.84,-298 470.39,-345.29 432.3,-375.91 467.84,-415 495.17,-445.05 541.59,-454.79 576.31,-457.63"/>
<polygon fill="#8c564b" stroke="#8c564b" points="575.88,-461.11 586.08,-458.25 576.32,-454.12 575.88,-461.11"/>
</g>
<!-- GE 206&#45;&gt;ME 308 -->
<g id="edge35" class="edge">
<title>GE 206&#45;&gt;ME 308</title>
<path fill="none" stroke="#7f7f7f" d="M427.52,-271.48C434.95,-278.91 442.45,-288.07 446.84,-298 474.24,-359.97 421.99,-399.12 467.84,-449 496.36,-480.03 542.4,-496.15 576.7,-504.29"/>
<polygon fill="#7f7f7f" stroke="#7f7f7f" points="575.84,-507.68 586.36,-506.42 577.35,-500.85 575.84,-507.68"/>
</g>
<!-- ME 350 -->
<g id="node17" class="node">
<title>ME 350</title>
<g id="a_node17"><a xlink:title="Parametric Solid Modeling">
<polygon fill="#f8cecc" stroke="black" points="438.84,-451 369.59,-451 369.59,-415 438.84,-415 438.84,-451"/>
<text text-anchor="start" x="377.59" y="-430.12" font-family="Times,serif" font-size="10.00">ME 350</text>
<text text-anchor="start" x="410.59" y="-430.12" font-family="Times,serif" baseline-shift="sub" font-size="10.00" fill="#6e6d6a"> &#160;3 cr</text>
<text text-anchor="start" x="428.59" y="-430.12" font-family="Times,serif" font-size="10.00"> </text>
</a>
</g>
</g>
<!-- ME 300L -->
<g id="node19" class="node">
<title>ME 300L</title>
<g id="a_node19"><a xlink:title="Manufacturing Laboratory">
<polygon fill="#f8cecc" stroke="black" points="551.09,-373 475.84,-373 475.84,-337 551.09,-337 551.09,-373"/>
<text text-anchor="start" x="483.84" y="-352.12" font-family="Times,serif" font-size="10.00">ME 300L</text>
<text text-anchor="start" x="522.84" y="-352.12" font-family="Times,serif" baseline-shift="sub" font-size="10.00" fill="#6e6d6a"> &#160;1 cr</text>
<text text-anchor="start" x="540.84" y="-352.12" font-family="Times,serif" font-size="10.00"> </text>
</a>
</g>
</g>
<!-- ME 300&#45;&gt;ME 300L -->
<g id="edge24" class="edge">
<title>ME 300&#45;&gt;ME 300L</title>
<path fill="none" stroke="#6b6ecf" stroke-dasharray="5,2" d="M513.47,-301.28C513.47,-309.27 513.47,-317.26 513.47,-325.24"/>
<polygon fill="#6b6ecf" stroke="#6b6ecf" points="509.97,-325.02 513.47,-335.02 516.97,-325.02 509.97,-325.02"/>
</g>
<!-- ME 300&#45;&gt;ME 302 -->
<!-- ME 316 -->
<g id="node21" class="node">
<title>ME 316</title>
<g id="a_node21"><a xlink:title="Numerical Methods">
<polygon fill="#f8cecc" stroke="black" points="548.09,-193 478.84,-193 478.84,-157 548.09,-157 548.09,-193"/>
<text text-anchor="start" x="486.84" y="-172.12" font-family="Times,serif" font-size="10.00">ME 316</text>
<text text-anchor="start" x="519.84" y="-172.12" font-family="Times,serif" baseline-shift="sub" font-size="10.00" fill="#6e6d6a"> &#160;2 cr</text>
<text text-anchor="start" x="537.84" y="-172.12" font-family="Times,serif" font-size="10.00"> </text>
</a>
</g>
</g>
<!-- ME 430 -->
<g id="node28" class="node">
<title>ME 430</title>
<g id="a_node28"><a xlink:title="Heat Transfer">
<polygon fill="#f8cecc" stroke="black" points="766.59,-449 697.34,-449 697.34,-413 766.59,-413 766.59,-449"/>
<text text-anchor="start" x="705.34" y="-428.12" font-family="Times,serif" font-size="10.00">ME 430</text>
<text text-anchor="start" x="738.34" y="-428.12" font-family="Times,serif" baseline-shift="sub" font-size="10.00" fill="#6e6d6a"> &#160;3 cr</text>
<text text-anchor="start" x="756.34" y="-428.12" font-family="Times,serif" font-size="10.00"> </text>
</a>
</g>
</g>
<!-- ME 340&#45;&gt;ME 430 -->
<g id="edge41" class="edge">
<title>ME 340&#45;&gt;ME 430</title>
<path fill="none" stroke="#843c39" d="M548.48,-66.3C552.37,-69.19 556.03,-72.42 559.09,-76 655.96,-189.13 604.06,-261.86 686.34,-386 690.67,-392.53 696.05,-398.91 701.55,-404.72"/>
<polygon fill="#843c39" stroke="#843c39" points="698.98,-407.1 708.53,-411.7 703.93,-402.15 698.98,-407.1"/>
</g>
<!-- ME 345&#45;&gt;ME 316 -->
<g id="edge27" class="edge">
<title>ME 345&#45;&gt;ME 316</title>
<path fill="none" stroke="#31a354" stroke-dasharray="5,2" d="M513.47,-121.28C513.47,-129.27 513.47,-137.26 513.47,-145.24"/>
<polygon fill="#31a354" stroke="#31a354" points="509.97,-145.02 513.47,-155.02 516.97,-145.02 509.97,-145.02"/>
</g>
<!-- ME 345&#45;&gt;ME 370 -->
<g id="edge38" class="edge">
<title>ME 345&#45;&gt;ME 370</title>
<path fill="none" stroke="#393b79" d="M538.54,-121.13C546.53,-128.52 554.54,-137.74 559.09,-148 575.62,-185.22 555.53,-292.6 569.09,-331 575,-347.71 586.01,-363.95 596.43,-376.85"/>
<polygon fill="#393b79" stroke="#393b79" points="593.74,-379.08 602.86,-384.46 599.08,-374.56 593.74,-379.08"/>
</g>
<!-- ME 302&#45;&gt;ME 430 -->
<!-- ME 498 -->
<g id="node30" class="node">
<title>ME 498</title>
<g id="a_node30"><a xlink:title="Senior Design I">
<polygon fill="#f8cecc" stroke="black" points="766.59,-323 697.34,-323 697.34,-287 766.59,-287 766.59,-323"/>
<text text-anchor="start" x="705.34" y="-302.12" font-family="Times,serif" font-size="10.00">ME 498</text>
<text text-anchor="start" x="738.34" y="-302.12" font-family="Times,serif" baseline-shift="sub" font-size="10.00" fill="#6e6d6a"> &#160;3 cr</text>
<text text-anchor="start" x="756.34" y="-302.12" font-family="Times,serif" font-size="10.00"> </text>
</a>
</g>
</g>
<!-- ME 302&#45;&gt;ME 498 -->
<g id="edge44" class="edge">
<title>ME 302&#45;&gt;ME 498</title>
<path fill="none" stroke="#6b6ecf" d="M657.66,-439.54C660.56,-436.97 663.2,-434.12 665.34,-431 690.82,-393.93 660.29,-368.66 686.34,-332 687.17,-330.84 688.06,-329.72 689.01,-328.63"/>
<polygon fill="#6b6ecf" stroke="#6b6ecf" points="691.08,-331.49 696.08,-322.14 686.35,-326.33 691.08,-331.49"/>
</g>
<!-- ME 309 -->
<g id="node26" class="node">
<title>ME 309</title>
<g id="a_node26"><a xlink:title="Fluid Mechanics Laboratory">
<polygon fill="#f8cecc" stroke="black" points="657.34,-602 588.09,-602 588.09,-566 657.34,-566 657.34,-602"/>
<text text-anchor="start" x="596.09" y="-581.12" font-family="Times,serif" font-size="10.00">ME 309</text>
<text text-anchor="start" x="629.09" y="-581.12" font-family="Times,serif" baseline-shift="sub" font-size="10.00" fill="#6e6d6a"> &#160;2 cr</text>
<text text-anchor="start" x="647.09" y="-581.12" font-family="Times,serif" font-size="10.00"> </text>
</a>
</g>
</g>
<!-- ME 308&#45;&gt;ME 309 -->
<g id="edge37" class="edge">
<title>ME 308&#45;&gt;ME 309</title>
<path fill="none" stroke="#17becf" stroke-width="2" d="M622.72,-541.57C622.72,-545.82 622.72,-550.06 622.72,-554.3"/>
<polygon fill="#17becf" stroke="#17becf" stroke-width="2" points="626.22,-543.31 622.72,-533.31 619.22,-543.31 626.22,-543.31"/>
<polygon fill="#17becf" stroke="#17becf" stroke-width="2" points="619.22,-552.51 622.72,-562.51 626.22,-552.51 619.22,-552.51"/>
</g>
<!-- ME 308&#45;&gt;ME 430 -->
<g id="edge42" class="edge">
<title>ME 308&#45;&gt;ME 430</title>
<path fill="none" stroke="#7b4173" d="M654.6,-493.66C658.37,-490.94 662.04,-488.03 665.34,-485 676.54,-474.72 674.98,-468.1 686.34,-458 686.98,-457.44 687.62,-456.88 688.28,-456.32"/>
<polygon fill="#7b4173" stroke="#7b4173" points="690.28,-459.2 696.15,-450.38 686.06,-453.62 690.28,-459.2"/>
</g>
<!-- ME 370&#45;&gt;ME 498 -->
<g id="edge45" class="edge">
<title>ME 370&#45;&gt;ME 498</title>
<path fill="none" stroke="#9c9ede" d="M626.03,-385.58C630.43,-359.33 642.68,-311.99 675.34,-291 678.47,-288.99 681.86,-287.87 685.38,-287.41"/>
<polygon fill="#9c9ede" stroke="#9c9ede" points="685.21,-290.9 695.36,-287.89 685.54,-283.91 685.21,-290.9"/>
</g>
<!-- ME 430&#45;&gt;ME 498 -->
<g id="edge46" class="edge">
<title>ME 430&#45;&gt;ME 498</title>
<path fill="none" stroke="#3182bd" stroke-dasharray="5,2" d="M705.91,-412.68C695.46,-403.44 685.02,-391.18 681.34,-377 676.29,-357.52 672.31,-346.42 686.34,-332 686.94,-331.38 687.56,-330.77 688.2,-330.17"/>
<polygon fill="#3182bd" stroke="#3182bd" points="690.4,-332.89 695.94,-323.86 685.98,-327.46 690.4,-332.89"/>
</g>
<!-- ME 499 -->
<g id="node32" class="node">
<title>ME 499</title>
<g id="a_node32"><a xlink:title="Senior Design II">
<polygon fill="#f8cecc" stroke="black" points="877.34,-382 808.09,-382 808.09,-346 877.34,-346 877.34,-382"/>
<text text-anchor="start" x="816.09" y="-361.12" font-family="Times,serif" font-size="10.00">ME 499</text>
<text text-anchor="start" x="849.09" y="-361.12" font-family="Times,serif" baseline-shift="sub" font-size="10.00" fill="#6e6d6a"> &#160;3 cr</text>
<text text-anchor="start" x="867.09" y="-361.12" font-family="Times,serif" font-size="10.00"> </text>
</a>
</g>
</g>
<!-- ME 430&#45;&gt;ME 499 -->
<!-- ME 430L -->
<g id="node29" class="node">
<title>ME 430L</title>
<g id="a_node29"><a xlink:title="Heat Transfer Laboratory">
<polygon fill="#f8cecc" stroke="black" points="769.59,-377 694.34,-377 694.34,-341 769.59,-341 769.59,-377"/>
<text text-anchor="start" x="702.34" y="-356.12" font-family="Times,serif" font-size="10.00">ME 430L</text>
<text text-anchor="start" x="741.34" y="-356.12" font-family="Times,serif" baseline-shift="sub" font-size="10.00" fill="#6e6d6a"> &#160;2 cr</text>
<text text-anchor="start" x="759.34" y="-356.12" font-family="Times,serif" font-size="10.00"> </text>
</a>
</g>
</g>
<!-- ME 430L&#45;&gt;ME 430 -->
<g id="edge43" class="edge">
<title>ME 430L&#45;&gt;ME 430</title>
<path fill="none" stroke="#5254a3" stroke-width="2" d="M731.97,-388.57C731.97,-392.82 731.97,-397.06 731.97,-401.3"/>
<polygon fill="#5254a3" stroke="#5254a3" stroke-width="2" points="735.47,-390.31 731.97,-380.31 728.47,-390.31 735.47,-390.31"/>
<polygon fill="#5254a3" stroke="#5254a3" stroke-width="2" points="728.47,-399.51 731.97,-409.51 735.47,-399.51 728.47,-399.51"/>
</g>
<!-- ME 498&#45;&gt;ME 499 -->
<g id="edge47" class="edge">
<title>ME 498&#45;&gt;ME 499</title>
<path fill="none" stroke="#31a354" d="M766.78,-323.34C776.6,-328.67 787.47,-334.57 797.81,-340.18"/>
<polygon fill="#31a354" stroke="#31a354" points="796.14,-343.25 806.59,-344.95 799.47,-337.1 796.14,-343.25"/>
</g>
<!-- ME El. 1 -->
<g id="node31" class="node">
<title>ME El. 1</title>
<g id="a_node31"><a xlink:title="Mechanical Engineering Elective 1">
<polygon fill="#f8cecc" stroke="black" points="768.09,-503 695.84,-503 695.84,-467 768.09,-467 768.09,-503"/>
<text text-anchor="start" x="703.84" y="-482.12" font-family="Times,serif" font-size="10.00">ME El. 1</text>
<text text-anchor="start" x="739.84" y="-482.12" font-family="Times,serif" baseline-shift="sub" font-size="10.00" fill="#6e6d6a"> &#160;3 cr</text>
<text text-anchor="start" x="757.84" y="-482.12" font-family="Times,serif" font-size="10.00"> </text>
</a>
</g>
</g>
<!-- ME El. 2 -->
<g id="node33" class="node">
<title>ME El. 2</title>
<g id="a_node33"><a xlink:title="Mechanical Engineering Elective 2">
<polygon fill="#f8cecc" stroke="black" points="878.84,-436 806.59,-436 806.59,-400 878.84,-400 878.84,-436"/>
<text text-anchor="start" x="814.59" y="-415.12" font-family="Times,serif" font-size="10.00">ME El. 2</text>
<text text-anchor="start" x="850.59" y="-415.12" font-family="Times,serif" baseline-shift="sub" font-size="10.00" fill="#6e6d6a"> &#160;3 cr</text>
<text text-anchor="start" x="868.59" y="-415.12" font-family="Times,serif" font-size="10.00"> </text>
</a>
</g>
</g>
<!-- ME El. 3 -->
<g id="node34" class="node">
<title>ME El. 3</title>
<g id="a_node34"><a xlink:title="Mechanical Engineering Elective 3">
<polygon fill="#f8cecc" stroke="black" points="878.84,-490 806.59,-490 806.59,-454 878.84,-454 878.84,-490"/>
<text text-anchor="start" x="814.59" y="-469.12" font-family="Times,serif" font-size="10.00">ME El. 3</text>
<text text-anchor="start" x="850.59" y="-469.12" font-family="Times,serif" baseline-shift="sub" font-size="10.00" fill="#6e6d6a"> &#160;3 cr</text>
<text text-anchor="start" x="868.59" y="-469.12" font-family="Times,serif" font-size="10.00"> </text>
</a>
</g>
</g>
<!-- pr_edge -->
<!-- ME El. 3&#45;&gt;pr_edge -->
<!-- pr_label -->
<g id="node36" class="node">
<title>pr_label</title>
<text text-anchor="middle" x="1000.12" y="-466.95" font-family="Times,serif" font-size="14.00">prerequisite</text>
</g>
<!-- pr_edge&#45;&gt;pr_label -->
<g id="edge49" class="edge">
<title>pr_edge&#45;&gt;pr_label</title>
<path fill="none" stroke="black" d="M911.51,-472C919.58,-472 934.16,-472 949.13,-472"/>
<polygon fill="black" stroke="black" points="949.05,-475.5 959.05,-472 949.05,-468.5 949.05,-475.5"/>
</g>
<!-- copr_edge -->
<!-- copr_label -->
<g id="node38" class="node">
<title>copr_label</title>
<text text-anchor="middle" x="1000.12" y="-520.95" font-family="Times,serif" font-size="14.00">con&#45;prerequisite</text>
</g>
<!-- copr_edge&#45;&gt;copr_label -->
<g id="edge50" class="edge">
<title>copr_edge&#45;&gt;copr_label</title>
<path fill="none" stroke="black" stroke-dasharray="5,2" d="M911.51,-526C917.42,-526 926.83,-526 937.33,-526"/>
<polygon fill="black" stroke="black" points="937.06,-529.5 947.06,-526 937.05,-522.5 937.06,-529.5"/>
</g>
<!-- cr_edge -->
<!-- cr_label -->
<g id="node40" class="node">
<title>cr_label</title>
<text text-anchor="middle" x="1000.12" y="-574.95" font-family="Times,serif" font-size="14.00">corequisite</text>
</g>
<!-- cr_edge&#45;&gt;cr_label -->
<g id="edge51" class="edge">
<title>cr_edge&#45;&gt;cr_label</title>
<path fill="none" stroke="black" stroke-width="2" d="M922.74,-580C930.94,-580 941.13,-580 951.36,-580"/>
<polygon fill="black" stroke="black" stroke-width="2" points="924.54,-576.5 914.54,-580 924.54,-583.5 924.54,-576.5"/>
<polygon fill="black" stroke="black" stroke-width="2" points="949.8,-583.5 959.8,-580 949.8,-576.5 949.8,-583.5"/>
</g>
</g>
</svg>
