<?xml version="1.0" encoding="UTF-8" standalone="no"?>
<!DOCTYPE svg PUBLIC "-//W3C//DTD SVG 1.1//EN"
 "http://www.w3.org/Graphics/SVG/1.1/DTD/svg11.dtd">
<!-- Generated by graphviz version 12.2.1 (20241206.2353)
 -->
<!-- Pages: 1 -->
<svg width="1079pt" height="681pt"
 viewBox="0.00 0.00 1078.90 681.00" xmlns="http://www.w3.org/2000/svg" xmlns:xlink="http://www.w3.org/1999/xlink">
<g id="graph0" class="graph" transform="scale(1 1) rotate(0) translate(4 677)">
<polygon fill="white" stroke="none" points="-4,4 -4,-677 1074.9,-677 1074.9,4 -4,4"/>
<g id="clust1" class="cluster">
<title>cluster_0</title>
<polygon fill="#cecdc9" stroke="#cecdc9" points="8,-146 8,-480 101.5,-480 101.5,-146 8,-146"/>
<text text-anchor="start" x="31.5" y="-465.6" font-family="Palatino" font-weight="bold" font-size="12.00">Term: 1F</text>
<text text-anchor="start" x="44.25" y="-455.5" font-family="Palatino" font-size="10.00" fill="#6e6d6a">14 cr</text>
</g>
<g id="clust2" class="cluster">
<title>cluster_1</title>
<polygon fill="#cecdc9" stroke="#cecdc9" points="122.5,-32 122.5,-330 216,-330 216,-32 122.5,-32"/>
<text text-anchor="start" x="145.63" y="-315.6" font-family="Palatino" font-weight="bold" font-size="12.00">Term: 1S</text>
<text text-anchor="start" x="158.75" y="-305.5" font-family="Palatino" font-size="10.00" fill="#6e6d6a">16 cr</text>
</g>
<g id="clust3" class="cluster">
<title>cluster_2</title>
<polygon fill="#cecdc9" stroke="#cecdc9" points="237,-147 237,-445 328.25,-445 328.25,-147 237,-147"/>
<text text-anchor="start" x="259.38" y="-430.6" font-family="Palatino" font-weight="bold" font-size="12.00">Term: 2F</text>
<text text-anchor="start" x="272.13" y="-420.5" font-family="Palatino" font-size="10.00" fill="#6e6d6a">14 cr</text>
</g>
<g id="clust4" class="cluster">
<title>cluster_3</title>
<polygon fill="#cecdc9" stroke="#cecdc9" points="349.25,-223 349.25,-539 438.25,-539 438.25,-223 349.25,-223"/>
<text text-anchor="start" x="370.13" y="-524.6" font-family="Palatino" font-weight="bold" font-size="12.00">Term: 2S</text>
<text text-anchor="start" x="383.25" y="-514.5" font-family="Palatino" font-size="10.00" fill="#6e6d6a">13 cr</text>
</g>
<g id="clust5" class="cluster">
<title>cluster_4</title>
<polygon fill="#cecdc9" stroke="#cecdc9" points="459.25,-23 459.25,-411 548.25,-411 548.25,-23 459.25,-23"/>
<text text-anchor="start" x="480.5" y="-396.6" font-family="Palatino" font-weight="bold" font-size="12.00">Term: 3F</text>
<text text-anchor="start" x="493.25" y="-386.5" font-family="Palatino" font-size="10.00" fill="#6e6d6a">15 cr</text>
</g>
<g id="clust6" class="cluster">
<title>cluster_5</title>
<polygon fill="#cecdc9" stroke="#cecdc9" points="569.25,-295 569.25,-665 658.25,-665 658.25,-295 569.25,-295"/>
<text text-anchor="start" x="590.13" y="-650.6" font-family="Palatino" font-weight="bold" font-size="12.00">Term: 3S</text>
<text text-anchor="start" x="603.25" y="-640.5" font-family="Palatino" font-size="10.00" fill="#6e6d6a">17 cr</text>
</g>
<g id="clust7" class="cluster">
<title>cluster_6</title>
<polygon fill="#cecdc9" stroke="#cecdc9" points="679.25,-295 679.25,-629 778,-629 778,-295 679.25,-295"/>
<text text-anchor="start" x="705.38" y="-614.6" font-family="Palatino" font-weight="bold" font-size="12.00">Term: 4F</text>
<text text-anchor="start" x="718.13" y="-604.5" font-family="Palatino" font-size="10.00" fill="#6e6d6a">15 cr</text>
</g>
<g id="clust8" class="cluster">
<title>cluster_7</title>
<polygon fill="#cecdc9" stroke="#cecdc9" points="799,-253 799,-551 897.75,-551 897.75,-253 799,-253"/>
<text text-anchor="start" x="824.75" y="-536.6" font-family="Palatino" font-weight="bold" font-size="12.00">Term: 4S</text>
<text text-anchor="start" x="837.88" y="-526.5" font-family="Palatino" font-size="10.00" fill="#6e6d6a">16 cr</text>
</g>
<g id="clust9" class="cluster">
<title>cluster_legend</title>
<polygon fill="none" stroke="#cecdc9" stroke-dasharray="5,2" points="907.75,-477 907.75,-643 1062.9,-643 1062.9,-477 907.75,-477"/>
<text text-anchor="middle" x="985.33" y="-627.6" font-family="Palatino" font-size="12.00">Legend</text>
</g>
<!-- COR 100 -->
<g id="node1" class="node">
<title>COR 100</title>
<g id="a_node1"><a xlink:title="First&#45;Year Seminar">
<polygon fill="#f6e8c3" stroke="black" points="91.25,-190 18.25,-190 18.25,-154 91.25,-154 91.25,-190"/>
<text text-anchor="start" x="26.25" y="-169.12" font-family="Times,serif" font-size="10.00">COR 100</text>
<text text-anchor="start" x="65.25" y="-169.12" font-family="Times,serif" baseline-shift="sub" font-size="10.00" fill="#6e6d6a"> &#160;4 cr</text>
</a>
</g>
</g>
<!-- COR 120 -->
<g id="node6" class="node">
<title>COR 120</title>
<g id="a_node6"><a xlink:title="Critical Reading and Writing">
<polygon fill="#f6e8c3" stroke="black" points="205.75,-130 132.75,-130 132.75,-94 205.75,-94 205.75,-130"/>
<text text-anchor="start" x="140.75" y="-109.12" font-family="Times,serif" font-size="10.00">COR 120</text>
<text text-anchor="start" x="179.75" y="-109.12" font-family="Times,serif" baseline-shift="sub" font-size="10.00" fill="#6e6d6a"> &#160;4 cr</text>
</a>
</g>
</g>
<!-- COR 100&#45;&gt;COR 120 -->
<!-- MTH 171 -->
<g id="node2" class="node">
<title>MTH 171</title>
<g id="a_node2"><a xlink:title="Calculus I">
<polygon fill="#d5e8d4" stroke="black" points="92,-244 17.5,-244 17.5,-208 92,-208 92,-244"/>
<text text-anchor="start" x="25.5" y="-223.12" font-family="Times,serif" font-size="10.00">MTH 171</text>
<text text-anchor="start" x="66" y="-223.12" font-family="Times,serif" baseline-shift="sub" font-size="10.00" fill="#6e6d6a"> &#160;4 cr</text>
</a>
</g>
</g>
<!-- PHY 171 -->
<g id="node3" class="node">
<title>PHY 171</title>
<g id="a_node3"><a xlink:title="Physics I">
<polygon fill="#d5e8d4" stroke="black" points="90.5,-316 19,-316 19,-280 90.5,-280 90.5,-316"/>
<text text-anchor="start" x="27" y="-295.12" font-family="Times,serif" font-size="10.00">PHY 171</text>
<text text-anchor="start" x="64.5" y="-295.12" font-family="Times,serif" baseline-shift="sub" font-size="10.00" fill="#6e6d6a"> &#160;4 cr</text>
</a>
</g>
</g>
<!-- MTH 171&#45;&gt;PHY 171 -->
<g id="edge8" class="edge">
<title>MTH 171&#45;&gt;PHY 171</title>
<path fill="none" stroke="#1f77b4" stroke-dasharray="5,2" d="M54.75,-244.28C54.75,-252.27 54.75,-260.26 54.75,-268.24"/>
<polygon fill="#1f77b4" stroke="#1f77b4" points="51.25,-268.02 54.75,-278.02 58.25,-268.02 51.25,-268.02"/>
</g>
<!-- MTH 172 -->
<g id="node7" class="node">
<title>MTH 172</title>
<g id="a_node7"><a xlink:title="Calculus II">
<polygon fill="#d5e8d4" stroke="black" points="206.5,-184 132,-184 132,-148 206.5,-148 206.5,-184"/>
<text text-anchor="start" x="140" y="-163.12" font-family="Times,serif" font-size="10.00">MTH 172</text>
<text text-anchor="start" x="180.5" y="-163.12" font-family="Times,serif" baseline-shift="sub" font-size="10.00" fill="#6e6d6a"> &#160;4 cr</text>
</a>
</g>
</g>
<!-- MTH 171&#45;&gt;MTH 172 -->
<g id="edge10" class="edge">
<title>MTH 171&#45;&gt;MTH 172</title>
<path fill="none" stroke="#2ca02c" d="M90.42,-207.51C101,-201.87 112.78,-195.59 123.9,-189.65"/>
<polygon fill="#2ca02c" stroke="#2ca02c" points="125.37,-192.83 132.55,-185.04 122.08,-186.66 125.37,-192.83"/>
</g>
<!-- GE 104 -->
<g id="node10" class="node">
<title>GE 104</title>
<g id="a_node10"><a xlink:title="Engineering Computing">
<polygon fill="#dae8fc" stroke="black" points="202,-238 136.5,-238 136.5,-202 202,-202 202,-238"/>
<text text-anchor="start" x="144.5" y="-217.12" font-family="Times,serif" font-size="10.00">GE 104</text>
<text text-anchor="start" x="176" y="-217.12" font-family="Times,serif" baseline-shift="sub" font-size="10.00" fill="#6e6d6a"> &#160;3 cr</text>
</a>
</g>
</g>
<!-- MTH 171&#45;&gt;GE 104 -->
<g id="edge15" class="edge">
<title>MTH 171&#45;&gt;GE 104</title>
<path fill="none" stroke="#7f7f7f" d="M92.28,-224.05C102.64,-223.5 114.03,-222.89 124.76,-222.32"/>
<polygon fill="#7f7f7f" stroke="#7f7f7f" points="124.76,-225.82 134.56,-221.8 124.39,-218.83 124.76,-225.82"/>
</g>
<!-- GE 204 -->
<g id="node14" class="node">
<title>GE 204</title>
<g id="a_node14"><a xlink:title="Statics">
<polygon fill="#dae8fc" stroke="black" points="315.38,-407 249.88,-407 249.88,-371 315.38,-371 315.38,-407"/>
<text text-anchor="start" x="257.88" y="-386.12" font-family="Times,serif" font-size="10.00">GE 204</text>
<text text-anchor="start" x="289.38" y="-386.12" font-family="Times,serif" baseline-shift="sub" font-size="10.00" fill="#6e6d6a"> &#160;3 cr</text>
</a>
</g>
</g>
<!-- MTH 171&#45;&gt;GE 204 -->
<g id="edge17" class="edge">
<title>MTH 171&#45;&gt;GE 204</title>
<path fill="none" stroke="#17becf" d="M78.5,-244.36C86.67,-251.9 95.37,-261.17 101.5,-271 117.12,-296.04 101.31,-313.45 122.5,-334 153.64,-364.2 175.11,-347.51 216,-362 223.5,-364.66 231.39,-367.69 239,-370.74"/>
<polygon fill="#17becf" stroke="#17becf" points="237.51,-373.92 248.09,-374.46 240.16,-367.44 237.51,-373.92"/>
</g>
<!-- PHY 171L -->
<g id="node4" class="node">
<title>PHY 171L</title>
<g id="a_node4"><a xlink:title="Physics I Laboratory">
<polygon fill="#d5e8d4" stroke="black" points="93.5,-388 16,-388 16,-352 93.5,-352 93.5,-388"/>
<text text-anchor="start" x="24" y="-367.12" font-family="Times,serif" font-size="10.00">PHY 171L</text>
<text text-anchor="start" x="67.5" y="-367.12" font-family="Times,serif" baseline-shift="sub" font-size="10.00" fill="#6e6d6a"> &#160;1 cr</text>
</a>
</g>
</g>
<!-- PHY 171&#45;&gt;PHY 171L -->
<g id="edge9" class="edge">
<title>PHY 171&#45;&gt;PHY 171L</title>
<path fill="none" stroke="#ff7f0e" stroke-width="2" d="M54.75,-327.57C54.75,-331.82 54.75,-336.06 54.75,-340.3"/>
<polygon fill="#ff7f0e" stroke="#ff7f0e" stroke-width="2" points="58.25,-329.31 54.75,-319.31 51.25,-329.31 58.25,-329.31"/>
<polygon fill="#ff7f0e" stroke="#ff7f0e" stroke-width="2" points="51.25,-338.51 54.75,-348.51 58.25,-338.51 51.25,-338.51"/>
</g>
<!-- PHY 172 -->
<g id="node8" class="node">
<title>PHY 172</title>
<g id="a_node8"><a xlink:title="Physics II">
<polygon fill="#d5e8d4" stroke="black" points="205,-76 133.5,-76 133.5,-40 205,-40 205,-76"/>
<text text-anchor="start" x="141.5" y="-55.12" font-family="Times,serif" font-size="10.00">PHY 172</text>
<text text-anchor="start" x="179" y="-55.12" font-family="Times,serif" baseline-shift="sub" font-size="10.00" fill="#6e6d6a"> &#160;4 cr</text>
</a>
</g>
</g>
<!-- PHY 171&#45;&gt;PHY 172 -->
<g id="edge11" class="edge">
<title>PHY 171&#45;&gt;PHY 172</title>
<path fill="none" stroke="#d62728" d="M80.03,-279.8C88.18,-272.4 96.47,-263.19 101.5,-253 134.84,-185.54 81.2,-147.9 122.5,-85 123.3,-83.79 124.17,-82.62 125.1,-81.5"/>
<polygon fill="#d62728" stroke="#d62728" points="127.32,-84.22 132.2,-74.82 122.52,-79.13 127.32,-84.22"/>
</g>
<!-- PHY 171&#45;&gt;GE 104 -->
<g id="edge16" class="edge">
<title>PHY 171&#45;&gt;GE 104</title>
<path fill="none" stroke="#808000" d="M78.42,-279.6C91.11,-269.58 107.38,-257.18 122.5,-247 123.89,-246.07 125.31,-245.13 126.75,-244.19"/>
<polygon fill="#808000" stroke="#808000" points="128.55,-247.19 135.16,-238.91 124.83,-241.26 128.55,-247.19"/>
</g>
<!-- PHY 171&#45;&gt;GE 204 -->
<g id="edge18" class="edge">
<title>PHY 171&#45;&gt;GE 204</title>
<path fill="none" stroke="#393b79" d="M74.28,-316.28C92.99,-334.67 119.56,-360.52 122.5,-362 158.77,-380.25 204.97,-386.49 238.23,-388.47"/>
<polygon fill="#393b79" stroke="#393b79" points="237.75,-391.95 247.91,-388.93 238.09,-384.96 237.75,-391.95"/>
</g>
<!-- ME 100 -->
<g id="node5" class="node">
<title>ME 100</title>
<g id="a_node5"><a xlink:title="Mechanical Engineering Seminar">
<polygon fill="#f8cecc" stroke="black" points="88.25,-442 21.25,-442 21.25,-406 88.25,-406 88.25,-442"/>
<text text-anchor="start" x="29.25" y="-421.12" font-family="Times,serif" font-size="10.00">ME 100</text>
<text text-anchor="start" x="62.25" y="-421.12" font-family="Times,serif" baseline-shift="sub" font-size="10.00" fill="#6e6d6a"> &#160;1 cr</text>
</a>
</g>
</g>
<!-- COR 110 -->
<g id="node11" class="node">
<title>COR 110</title>
<g id="a_node11"><a xlink:title="Religious Studies">
<polygon fill="#f6e8c3" stroke="black" points="318.38,-299 246.88,-299 246.88,-263 318.38,-263 318.38,-299"/>
<text text-anchor="start" x="254.88" y="-278.12" font-family="Times,serif" font-size="10.00">COR 110</text>
<text text-anchor="start" x="292.38" y="-278.12" font-family="Times,serif" baseline-shift="sub" font-size="10.00" fill="#6e6d6a"> &#160;3 cr</text>
</a>
</g>
</g>
<!-- COR 120&#45;&gt;COR 110 -->
<!-- ME 201 -->
<g id="node15" class="node">
<title>ME 201</title>
<g id="a_node15"><a xlink:title="Technical Communication">
<polygon fill="#f8cecc" stroke="black" points="316.13,-191 249.13,-191 249.13,-155 316.13,-155 316.13,-191"/>
<text text-anchor="start" x="257.13" y="-170.12" font-family="Times,serif" font-size="10.00">ME 201</text>
<text text-anchor="start" x="290.13" y="-170.12" font-family="Times,serif" baseline-shift="sub" font-size="10.00" fill="#6e6d6a"> &#160;2 cr</text>
</a>
</g>
</g>
<!-- COR 120&#45;&gt;ME 201 -->
<g id="edge22" class="edge">
<title>COR 120&#45;&gt;ME 201</title>
<path fill="none" stroke="#7b4173" d="M203.97,-130.47C214.96,-136.49 227.32,-143.25 238.88,-149.59"/>
<polygon fill="#7b4173" stroke="#7b4173" points="237.01,-152.55 247.46,-154.29 240.37,-146.41 237.01,-152.55"/>
</g>
<!-- MTH 172&#45;&gt;PHY 172 -->
<g id="edge12" class="edge">
<title>MTH 172&#45;&gt;PHY 172</title>
<path fill="none" stroke="#9467bd" stroke-dasharray="5,2" d="M132.59,-147.51C128.97,-144.91 125.52,-142.07 122.5,-139 108.39,-124.65 112.45,-113.48 117.5,-94 118.8,-88.98 121.4,-84.58 124.76,-80.75"/>
<polygon fill="#9467bd" stroke="#9467bd" points="126.9,-83.53 132.02,-74.25 122.23,-78.31 126.9,-83.53"/>
</g>
<!-- MTH 353 -->
<g id="node13" class="node">
<title>MTH 353</title>
<g id="a_node13"><a xlink:title="Linear Algebra">
<polygon fill="#d5e8d4" stroke="black" points="319.88,-353 245.38,-353 245.38,-317 319.88,-317 319.88,-353"/>
<text text-anchor="start" x="253.38" y="-332.12" font-family="Times,serif" font-size="10.00">MTH 353</text>
<text text-anchor="start" x="293.88" y="-332.12" font-family="Times,serif" baseline-shift="sub" font-size="10.00" fill="#6e6d6a"> &#160;3 cr</text>
</a>
</g>
</g>
<!-- MTH 172&#45;&gt;MTH 353 -->
<g id="edge14" class="edge">
<title>MTH 172&#45;&gt;MTH 353</title>
<path fill="none" stroke="#e377c2" d="M206.76,-183.32C210.28,-186.15 213.47,-189.37 216,-193 245.73,-235.61 207.51,-265.23 237,-308 237.14,-308.21 237.28,-308.41 237.43,-308.61"/>
<polygon fill="#e377c2" stroke="#e377c2" points="234.73,-310.85 244.12,-315.76 239.84,-306.07 234.73,-310.85"/>
</g>
<!-- ME 340 -->
<g id="node25" class="node">
<title>ME 340</title>
<g id="a_node25"><a xlink:title="Thermodynamics I">
<polygon fill="#f8cecc" stroke="black" points="537.25,-67 470.25,-67 470.25,-31 537.25,-31 537.25,-67"/>
<text text-anchor="start" x="478.25" y="-46.12" font-family="Times,serif" font-size="10.00">ME 340</text>
<text text-anchor="start" x="511.25" y="-46.12" font-family="Times,serif" baseline-shift="sub" font-size="10.00" fill="#6e6d6a"> &#160;3 cr</text>
</a>
</g>
</g>
<!-- MTH 172&#45;&gt;ME 340 -->
<g id="edge30" class="edge">
<title>MTH 172&#45;&gt;ME 340</title>
<path fill="none" stroke="#2ca02c" stroke-dasharray="5,2" d="M202.65,-147.74C207.2,-144.93 211.77,-141.97 216,-139 273.69,-98.52 267.77,-38 338.25,-38 338.25,-38 338.25,-38 394.75,-38 415.76,-38 438.96,-40.09 458.45,-42.44"/>
<polygon fill="#2ca02c" stroke="#2ca02c" points="457.89,-45.9 468.25,-43.69 458.77,-38.96 457.89,-45.9"/>
</g>
<!-- ME 345 -->
<g id="node26" class="node">
<title>ME 345</title>
<g id="a_node26"><a xlink:title="Mechatronics">
<polygon fill="#f8cecc" stroke="black" points="537.25,-121 470.25,-121 470.25,-85 537.25,-85 537.25,-121"/>
<text text-anchor="start" x="478.25" y="-100.12" font-family="Times,serif" font-size="10.00">ME 345</text>
<text text-anchor="start" x="511.25" y="-100.12" font-family="Times,serif" baseline-shift="sub" font-size="10.00" fill="#6e6d6a"> &#160;3 cr</text>
</a>
</g>
</g>
<!-- MTH 172&#45;&gt;ME 345 -->
<g id="edge31" class="edge">
<title>MTH 172&#45;&gt;ME 345</title>
<path fill="none" stroke="#d62728" d="M206.96,-152.01C216.63,-148.69 227.12,-145.42 237,-143 258.09,-137.83 389,-119.03 458.89,-109.16"/>
<polygon fill="#d62728" stroke="#d62728" points="459.05,-112.67 468.46,-107.8 458.07,-105.74 459.05,-112.67"/>
</g>
<!-- ME 308 -->
<g id="node30" class="node">
<title>ME 308</title>
<g id="a_node30"><a xlink:title="Fluid Mechanics I">
<polygon fill="#f8cecc" stroke="black" points="647.25,-501 580.25,-501 580.25,-465 647.25,-465 647.25,-501"/>
<text text-anchor="start" x="588.25" y="-480.12" font-family="Times,serif" font-size="10.00">ME 308</text>
<text text-anchor="start" x="621.25" y="-480.12" font-family="Times,serif" baseline-shift="sub" font-size="10.00" fill="#6e6d6a"> &#160;3 cr</text>
</a>
</g>
</g>
<!-- MTH 172&#45;&gt;ME 308 -->
<g id="edge36" class="edge">
<title>MTH 172&#45;&gt;ME 308</title>
<path fill="none" stroke="#808000" d="M206.69,-182.72C210.31,-185.68 213.55,-189.09 216,-193 223.58,-205.09 234.73,-434.91 237,-449 250.4,-532.08 197.48,-633 281.63,-633 281.63,-633 281.63,-633 504.75,-633 559.52,-633 535.69,-571.28 569.25,-528 574.08,-521.77 579.67,-515.46 585.2,-509.61"/>
<polygon fill="#808000" stroke="#808000" points="587.63,-512.12 592.1,-502.52 582.62,-507.24 587.63,-512.12"/>
</g>
<!-- PHY 172L -->
<g id="node9" class="node">
<title>PHY 172L</title>
<g id="a_node9"><a xlink:title="Physics II Laboratory">
<polygon fill="#d5e8d4" stroke="black" points="208,-292 130.5,-292 130.5,-256 208,-256 208,-292"/>
<text text-anchor="start" x="138.5" y="-271.12" font-family="Times,serif" font-size="10.00">PHY 172L</text>
<text text-anchor="start" x="182" y="-271.12" font-family="Times,serif" baseline-shift="sub" font-size="10.00" fill="#6e6d6a"> &#160;1 cr</text>
</a>
</g>
</g>
<!-- PHY 172&#45;&gt;PHY 172L -->
<g id="edge13" class="edge">
<title>PHY 172&#45;&gt;PHY 172L</title>
<path fill="none" stroke="#8c564b" stroke-width="2" d="M124.76,-80.75C121.4,-84.58 118.8,-88.98 117.5,-94 113.49,-109.49 113.49,-222.51 117.5,-238 118.46,-241.71 120.13,-245.08 122.29,-248.13"/>
<polygon fill="#8c564b" stroke="#8c564b" stroke-width="2" points="125.77,-84.54 130.89,-75.26 121.1,-79.32 125.77,-84.54"/>
<polygon fill="#8c564b" stroke="#8c564b" stroke-width="2" points="118.55,-249.27 127.96,-254.14 123.65,-244.47 118.55,-249.27"/>
</g>
<!-- PHY 172&#45;&gt;ME 340 -->
<g id="edge29" class="edge">
<title>PHY 172&#45;&gt;ME 340</title>
<path fill="none" stroke="#ff7f0e" d="M190.77,-39.65C211.96,-22.66 246.74,0 281.63,0 281.63,0 281.63,0 394.75,0 421.29,0 448.49,-12.42 468.95,-24.76"/>
<polygon fill="#ff7f0e" stroke="#ff7f0e" points="466.82,-27.55 477.14,-29.94 470.56,-21.64 466.82,-27.55"/>
</g>
<!-- PHY 172&#45;&gt;ME 345 -->
<g id="edge32" class="edge">
<title>PHY 172&#45;&gt;ME 345</title>
<path fill="none" stroke="#9467bd" d="M205.2,-62.73C266.23,-70.99 392.07,-88.02 458.86,-97.06"/>
<polygon fill="#9467bd" stroke="#9467bd" points="458.35,-100.52 468.73,-98.4 459.29,-93.59 458.35,-100.52"/>
</g>
<!-- COR 210 -->
<g id="node16" class="node">
<title>COR 210</title>
<g id="a_node16"><a xlink:title="Humanities">
<polygon fill="#f6e8c3" stroke="black" points="430.25,-267 357.25,-267 357.25,-231 430.25,-231 430.25,-267"/>
<text text-anchor="start" x="365.25" y="-246.12" font-family="Times,serif" font-size="10.00">COR 210</text>
<text text-anchor="start" x="404.25" y="-246.12" font-family="Times,serif" baseline-shift="sub" font-size="10.00" fill="#6e6d6a"> &#160;3 cr</text>
</a>
</g>
</g>
<!-- COR 110&#45;&gt;COR 210 -->
<!-- CHM 145 -->
<g id="node12" class="node">
<title>CHM 145</title>
<g id="a_node12"><a xlink:title="Chemistry for Engineers. Or CHM 141 (more credits).">
<polygon fill="#d5e8d4" stroke="black" points="320.25,-245 245,-245 245,-209 320.25,-209 320.25,-245"/>
<text text-anchor="start" x="253" y="-224.12" font-family="Times,serif" font-size="10.00">CHM 145</text>
<text text-anchor="start" x="294.25" y="-224.12" font-family="Times,serif" baseline-shift="sub" font-size="10.00" fill="#6e6d6a"> &#160;3 cr</text>
</a>
</g>
</g>
<!-- ME 303 -->
<g id="node23" class="node">
<title>ME 303</title>
<g id="a_node23"><a xlink:title="Materials Science">
<polygon fill="#f8cecc" stroke="black" points="537.25,-247 470.25,-247 470.25,-211 537.25,-211 537.25,-247"/>
<text text-anchor="start" x="478.25" y="-226.12" font-family="Times,serif" font-size="10.00">ME 303</text>
<text text-anchor="start" x="511.25" y="-226.12" font-family="Times,serif" baseline-shift="sub" font-size="10.00" fill="#6e6d6a"> &#160;3 cr</text>
</a>
</g>
</g>
<!-- CHM 145&#45;&gt;ME 303 -->
<g id="edge26" class="edge">
<title>CHM 145&#45;&gt;ME 303</title>
<path fill="none" stroke="#3182bd" d="M320.69,-221.69C329.99,-220.57 339.97,-219.56 349.25,-219 388.73,-216.6 398.81,-215.96 438.25,-219 444.91,-219.51 451.92,-220.32 458.77,-221.26"/>
<polygon fill="#3182bd" stroke="#3182bd" points="458.15,-224.7 468.55,-222.71 459.18,-217.78 458.15,-224.7"/>
</g>
<!-- CHM 145&#45;&gt;ME 340 -->
<g id="edge28" class="edge">
<title>CHM 145&#45;&gt;ME 340</title>
<path fill="none" stroke="#1f77b4" d="M315.87,-208.63C320.13,-205.88 324.36,-202.96 328.25,-200 392.02,-151.42 395.76,-124.95 459.25,-76 460.2,-75.27 461.17,-74.54 462.16,-73.81"/>
<polygon fill="#1f77b4" stroke="#1f77b4" points="463.88,-76.87 470.1,-68.29 459.89,-71.13 463.88,-76.87"/>
</g>
<!-- ME 370 -->
<g id="node32" class="node">
<title>ME 370</title>
<g id="a_node32"><a xlink:title="System Dynamics and Control">
<polygon fill="#f8cecc" stroke="black" points="647.25,-447 580.25,-447 580.25,-411 647.25,-411 647.25,-447"/>
<text text-anchor="start" x="588.25" y="-426.12" font-family="Times,serif" font-size="10.00">ME 370</text>
<text text-anchor="start" x="621.25" y="-426.12" font-family="Times,serif" baseline-shift="sub" font-size="10.00" fill="#6e6d6a"> &#160;3 cr</text>
</a>
</g>
</g>
<!-- MTH 353&#45;&gt;ME 370 -->
<g id="edge40" class="edge">
<title>MTH 353&#45;&gt;ME 370</title>
<path fill="none" stroke="#614100" stroke-dasharray="5,2" d="M320.32,-352.99C323.36,-355.65 326.1,-358.65 328.25,-362 350.14,-396.07 319.01,-516.07 349.25,-543 427.77,-612.93 480.78,-512.82 569.25,-456 570.61,-455.13 571.99,-454.25 573.38,-453.36"/>
<polygon fill="#614100" stroke="#614100" points="574.85,-456.57 581.44,-448.28 571.12,-450.65 574.85,-456.57"/>
</g>
<!-- GE 205 -->
<g id="node17" class="node">
<title>GE 205</title>
<g id="a_node17"><a xlink:title="Dynamics">
<polygon fill="#dae8fc" stroke="black" points="426.5,-447 361,-447 361,-411 426.5,-411 426.5,-447"/>
<text text-anchor="start" x="369" y="-426.12" font-family="Times,serif" font-size="10.00">GE 205</text>
<text text-anchor="start" x="400.5" y="-426.12" font-family="Times,serif" baseline-shift="sub" font-size="10.00" fill="#6e6d6a"> &#160;3 cr</text>
</a>
</g>
</g>
<!-- GE 204&#45;&gt;GE 205 -->
<g id="edge19" class="edge">
<title>GE 204&#45;&gt;GE 205</title>
<path fill="none" stroke="#637939" d="M315.78,-400.78C326.54,-404.73 338.72,-409.2 350.16,-413.39"/>
<polygon fill="#637939" stroke="#637939" points="348.81,-416.62 359.41,-416.78 351.22,-410.05 348.81,-416.62"/>
</g>
<!-- GE 206 -->
<g id="node18" class="node">
<title>GE 206</title>
<g id="a_node18"><a xlink:title="Mechanics of Materials">
<polygon fill="#dae8fc" stroke="black" points="426.5,-321 361,-321 361,-285 426.5,-285 426.5,-321"/>
<text text-anchor="start" x="369" y="-300.12" font-family="Times,serif" font-size="10.00">GE 206</text>
<text text-anchor="start" x="400.5" y="-300.12" font-family="Times,serif" baseline-shift="sub" font-size="10.00" fill="#6e6d6a"> &#160;3 cr</text>
</a>
</g>
</g>
<!-- GE 204&#45;&gt;GE 206 -->
<g id="edge20" class="edge">
<title>GE 204&#45;&gt;GE 206</title>
<path fill="none" stroke="#614100" d="M315.82,-370.57C320.09,-367.83 324.34,-364.93 328.25,-362 341.51,-352.07 355.2,-339.88 366.53,-329.16"/>
<polygon fill="#614100" stroke="#614100" points="368.81,-331.82 373.59,-322.37 363.96,-326.78 368.81,-331.82"/>
</g>
<!-- ME 300 -->
<g id="node21" class="node">
<title>ME 300</title>
<g id="a_node21"><a xlink:title="Manufacturing">
<polygon fill="#f8cecc" stroke="black" points="537.25,-301 470.25,-301 470.25,-265 537.25,-265 537.25,-301"/>
<text text-anchor="start" x="478.25" y="-280.12" font-family="Times,serif" font-size="10.00">ME 300</text>
<text text-anchor="start" x="511.25" y="-280.12" font-family="Times,serif" baseline-shift="sub" font-size="10.00" fill="#6e6d6a"> &#160;3 cr</text>
</a>
</g>
</g>
<!-- COR 210&#45;&gt;ME 300 -->
<!-- GE 205&#45;&gt;ME 308 -->
<g id="edge34" class="edge">
<title>GE 205&#45;&gt;ME 308</title>
<path fill="none" stroke="#e377c2" d="M426.62,-445.38C430.89,-448.5 434.94,-452.05 438.25,-456 445.94,-465.17 439.59,-472.74 448.25,-481 485.69,-516.69 507.24,-510.44 558.25,-519 569.37,-520.87 580.08,-515.85 589.01,-509.02"/>
<polygon fill="#e377c2" stroke="#e377c2" points="591.29,-511.68 596.49,-502.45 586.67,-506.42 591.29,-511.68"/>
</g>
<!-- GE 205&#45;&gt;ME 370 -->
<g id="edge39" class="edge">
<title>GE 205&#45;&gt;ME 370</title>
<path fill="none" stroke="#637939" d="M426.92,-429C464.48,-429 526.82,-429 568.82,-429"/>
<polygon fill="#637939" stroke="#637939" points="568.58,-432.5 578.58,-429 568.58,-425.5 568.58,-432.5"/>
</g>
<!-- GE 207 -->
<g id="node19" class="node">
<title>GE 207</title>
<g id="a_node19"><a xlink:title="Mechanics of Materials Laboratory">
<polygon fill="#dae8fc" stroke="black" points="426.5,-393 361,-393 361,-357 426.5,-357 426.5,-393"/>
<text text-anchor="start" x="369" y="-372.12" font-family="Times,serif" font-size="10.00">GE 207</text>
<text text-anchor="start" x="400.5" y="-372.12" font-family="Times,serif" baseline-shift="sub" font-size="10.00" fill="#6e6d6a"> &#160;1 cr</text>
</a>
</g>
</g>
<!-- GE 206&#45;&gt;GE 207 -->
<g id="edge21" class="edge">
<title>GE 206&#45;&gt;GE 207</title>
<path fill="none" stroke="#843c39" stroke-dasharray="5,2" d="M393.75,-321.28C393.75,-329.27 393.75,-337.26 393.75,-345.24"/>
<polygon fill="#843c39" stroke="#843c39" points="390.25,-345.02 393.75,-355.02 397.25,-345.02 390.25,-345.02"/>
</g>
<!-- GE 206&#45;&gt;ME 300 -->
<g id="edge23" class="edge">
<title>GE 206&#45;&gt;ME 300</title>
<path fill="none" stroke="#5254a3" d="M426.74,-297.15C434.13,-295.79 441.97,-294.35 449.25,-293 452.39,-292.42 455.62,-291.82 458.88,-291.21"/>
<polygon fill="#5254a3" stroke="#5254a3" points="459.26,-294.7 468.44,-289.43 457.97,-287.82 459.26,-294.7"/>
</g>
<!-- GE 206&#45;&gt;ME 303 -->
<g id="edge25" class="edge">
<title>GE 206&#45;&gt;ME 303</title>
<path fill="none" stroke="#9c9ede" d="M426.17,-284.58C430.32,-281.84 434.45,-278.94 438.25,-276 448.45,-268.12 449.05,-263.88 459.25,-256 460.2,-255.27 461.17,-254.53 462.16,-253.81"/>
<polygon fill="#9c9ede" stroke="#9c9ede" points="463.88,-256.87 470.09,-248.28 459.88,-251.12 463.88,-256.87"/>
</g>
<!-- ME 302 -->
<g id="node29" class="node">
<title>ME 302</title>
<g id="a_node29"><a xlink:title="Machine Design">
<polygon fill="#f8cecc" stroke="black" points="647.25,-627 580.25,-627 580.25,-591 647.25,-591 647.25,-627"/>
<text text-anchor="start" x="588.25" y="-606.12" font-family="Times,serif" font-size="10.00">ME 302</text>
<text text-anchor="start" x="621.25" y="-606.12" font-family="Times,serif" baseline-shift="sub" font-size="10.00" fill="#6e6d6a"> &#160;3 cr</text>
</a>
</g>
</g>
<!-- GE 206&#45;&gt;ME 302 -->
<g id="edge33" class="edge">
<title>GE 206&#45;&gt;ME 302</title>
<path fill="none" stroke="#8c564b" d="M417.19,-321.07C425.06,-328.57 433.19,-337.9 438.25,-348 450.75,-372.96 442.71,-382.64 448.25,-410 452.34,-430.18 449.8,-436.71 459.25,-455 493.52,-521.35 512.44,-533.54 569.25,-582 570.02,-582.66 570.81,-583.31 571.61,-583.95"/>
<polygon fill="#8c564b" stroke="#8c564b" points="569.27,-586.57 579.39,-589.7 573.43,-580.95 569.27,-586.57"/>
</g>
<!-- GE 206&#45;&gt;ME 308 -->
<g id="edge35" class="edge">
<title>GE 206&#45;&gt;ME 308</title>
<path fill="none" stroke="#7f7f7f" d="M416.44,-321.48C424.22,-329.04 432.48,-338.28 438.25,-348 454.19,-374.83 438.47,-391.72 459.25,-415 487.85,-447.04 534.38,-464.72 568.72,-473.96"/>
<polygon fill="#7f7f7f" stroke="#7f7f7f" points="567.84,-477.35 578.39,-476.41 569.56,-470.56 567.84,-477.35"/>
</g>
<!-- ME 350 -->
<g id="node20" class="node">
<title>ME 350</title>
<g id="a_node20"><a xlink:title="Parametric Solid Modeling">
<polygon fill="#f8cecc" stroke="black" points="427.25,-501 360.25,-501 360.25,-465 427.25,-465 427.25,-501"/>
<text text-anchor="start" x="368.25" y="-480.12" font-family="Times,serif" font-size="10.00">ME 350</text>
<text text-anchor="start" x="401.25" y="-480.12" font-family="Times,serif" baseline-shift="sub" font-size="10.00" fill="#6e6d6a"> &#160;3 cr</text>
</a>
</g>
</g>
<!-- ME 300L -->
<g id="node22" class="node">
<title>ME 300L</title>
<g id="a_node22"><a xlink:title="Manufacturing Laboratory">
<polygon fill="#f8cecc" stroke="black" points="540.25,-373 467.25,-373 467.25,-337 540.25,-337 540.25,-373"/>
<text text-anchor="start" x="475.25" y="-352.12" font-family="Times,serif" font-size="10.00">ME 300L</text>
<text text-anchor="start" x="514.25" y="-352.12" font-family="Times,serif" baseline-shift="sub" font-size="10.00" fill="#6e6d6a"> &#160;1 cr</text>
</a>
</g>
</g>
<!-- ME 300&#45;&gt;ME 300L -->
<g id="edge24" class="edge">
<title>ME 300&#45;&gt;ME 300L</title>
<path fill="none" stroke="#6b6ecf" stroke-dasharray="5,2" d="M503.75,-301.28C503.75,-309.27 503.75,-317.26 503.75,-325.24"/>
<polygon fill="#6b6ecf" stroke="#6b6ecf" points="500.25,-325.02 503.75,-335.02 507.25,-325.02 500.25,-325.02"/>
</g>
<!-- COR 220 -->
<g id="node27" class="node">
<title>COR 220</title>
<g id="a_node27"><a xlink:title="Social Sciences">
<polygon fill="#f6e8c3" stroke="black" points="650.25,-339 577.25,-339 577.25,-303 650.25,-303 650.25,-339"/>
<text text-anchor="start" x="585.25" y="-318.12" font-family="Times,serif" font-size="10.00">COR 220</text>
<text text-anchor="start" x="624.25" y="-318.12" font-family="Times,serif" baseline-shift="sub" font-size="10.00" fill="#6e6d6a"> &#160;3 cr</text>
</a>
</g>
</g>
<!-- ME 300&#45;&gt;COR 220 -->
<!-- ME 316 -->
<g id="node24" class="node">
<title>ME 316</title>
<g id="a_node24"><a xlink:title="Mechatronics and Instrumentation Laboratory">
<polygon fill="#f8cecc" stroke="black" points="537.25,-193 470.25,-193 470.25,-157 537.25,-157 537.25,-193"/>
<text text-anchor="start" x="478.25" y="-172.12" font-family="Times,serif" font-size="10.00">ME 316</text>
<text text-anchor="start" x="511.25" y="-172.12" font-family="Times,serif" baseline-shift="sub" font-size="10.00" fill="#6e6d6a"> &#160;2 cr</text>
</a>
</g>
</g>
<!-- ME 430 -->
<g id="node34" class="node">
<title>ME 430</title>
<g id="a_node34"><a xlink:title="Heat Transfer">
<polygon fill="#f8cecc" stroke="black" points="762.13,-465 695.13,-465 695.13,-429 762.13,-429 762.13,-465"/>
<text text-anchor="start" x="703.13" y="-444.12" font-family="Times,serif" font-size="10.00">ME 430</text>
<text text-anchor="start" x="736.13" y="-444.12" font-family="Times,serif" baseline-shift="sub" font-size="10.00" fill="#6e6d6a"> &#160;3 cr</text>
</a>
</g>
</g>
<!-- ME 340&#45;&gt;ME 430 -->
<g id="edge41" class="edge">
<title>ME 340&#45;&gt;ME 430</title>
<path fill="none" stroke="#843c39" d="M537.63,-66.63C541.47,-69.47 545.12,-72.6 548.25,-76 620.95,-154.97 623.47,-189.45 658.25,-291 674.52,-338.5 654.99,-358.04 679.25,-402 683.01,-408.81 688.18,-415.18 693.74,-420.85"/>
<polygon fill="#843c39" stroke="#843c39" points="691.26,-423.32 700.95,-427.61 696.04,-418.22 691.26,-423.32"/>
</g>
<!-- ME 345&#45;&gt;ME 316 -->
<g id="edge27" class="edge">
<title>ME 345&#45;&gt;ME 316</title>
<path fill="none" stroke="#31a354" stroke-dasharray="5,2" d="M503.75,-121.28C503.75,-129.27 503.75,-137.26 503.75,-145.24"/>
<polygon fill="#31a354" stroke="#31a354" points="500.25,-145.02 503.75,-155.02 507.25,-145.02 500.25,-145.02"/>
</g>
<!-- ME 345&#45;&gt;ME 370 -->
<g id="edge38" class="edge">
<title>ME 345&#45;&gt;ME 370</title>
<path fill="none" stroke="#393b79" d="M528.07,-121.3C535.84,-128.71 543.68,-137.9 548.25,-148 571.63,-199.59 539.7,-353.68 569.25,-402 570.01,-403.24 570.84,-404.43 571.75,-405.57"/>
<polygon fill="#393b79" stroke="#393b79" points="569.09,-407.87 578.68,-412.36 573.99,-402.86 569.09,-407.87"/>
</g>
<!-- COR 250W -->
<g id="node33" class="node">
<title>COR 250W</title>
<g id="a_node33"><a xlink:title="Historical and Political Studies (Writing Intensive)">
<polygon fill="#f6e8c3" stroke="black" points="770,-339 687.25,-339 687.25,-303 770,-303 770,-339"/>
<text text-anchor="start" x="695.25" y="-318.12" font-family="Times,serif" font-size="10.00">COR 250W</text>
<text text-anchor="start" x="744" y="-318.12" font-family="Times,serif" baseline-shift="sub" font-size="10.00" fill="#6e6d6a"> &#160;4 cr</text>
</a>
</g>
</g>
<!-- COR 220&#45;&gt;COR 250W -->
<!-- COR 240 -->
<g id="node28" class="node">
<title>COR 240</title>
<g id="a_node28"><a xlink:title="Artistic and Creative Expression">
<polygon fill="#f6e8c3" stroke="black" points="650.25,-393 577.25,-393 577.25,-357 650.25,-357 650.25,-393"/>
<text text-anchor="start" x="585.25" y="-372.12" font-family="Times,serif" font-size="10.00">COR 240</text>
<text text-anchor="start" x="624.25" y="-372.12" font-family="Times,serif" baseline-shift="sub" font-size="10.00" fill="#6e6d6a"> &#160;3 cr</text>
</a>
</g>
</g>
<!-- ME 498 -->
<g id="node36" class="node">
<title>ME 498</title>
<g id="a_node36"><a xlink:title="Senior Design I">
<polygon fill="#f8cecc" stroke="black" points="762.13,-537 695.13,-537 695.13,-501 762.13,-501 762.13,-537"/>
<text text-anchor="start" x="703.13" y="-516.12" font-family="Times,serif" font-size="10.00">ME 498</text>
<text text-anchor="start" x="736.13" y="-516.12" font-family="Times,serif" baseline-shift="sub" font-size="10.00" fill="#6e6d6a"> &#160;3 cr</text>
</a>
</g>
</g>
<!-- ME 302&#45;&gt;ME 498 -->
<g id="edge44" class="edge">
<title>ME 302&#45;&gt;ME 498</title>
<path fill="none" stroke="#6b6ecf" d="M647.45,-591.2C651.32,-588.39 655.03,-585.31 658.25,-582 671.17,-568.72 666.03,-558.97 679.25,-546 681.23,-544.05 683.38,-542.21 685.64,-540.45"/>
<polygon fill="#6b6ecf" stroke="#6b6ecf" points="687.23,-543.61 693.48,-535.05 683.26,-537.84 687.23,-543.61"/>
</g>
<!-- ME 309 -->
<g id="node31" class="node">
<title>ME 309</title>
<g id="a_node31"><a xlink:title="Fluid Mechanics Laboratory">
<polygon fill="#f8cecc" stroke="black" points="647.25,-573 580.25,-573 580.25,-537 647.25,-537 647.25,-573"/>
<text text-anchor="start" x="588.25" y="-552.12" font-family="Times,serif" font-size="10.00">ME 309</text>
<text text-anchor="start" x="621.25" y="-552.12" font-family="Times,serif" baseline-shift="sub" font-size="10.00" fill="#6e6d6a"> &#160;2 cr</text>
</a>
</g>
</g>
<!-- ME 308&#45;&gt;ME 309 -->
<g id="edge37" class="edge">
<title>ME 308&#45;&gt;ME 309</title>
<path fill="none" stroke="#17becf" stroke-width="2" d="M613.75,-512.57C613.75,-516.82 613.75,-521.06 613.75,-525.3"/>
<polygon fill="#17becf" stroke="#17becf" stroke-width="2" points="617.25,-514.31 613.75,-504.31 610.25,-514.31 617.25,-514.31"/>
<polygon fill="#17becf" stroke="#17becf" stroke-width="2" points="610.25,-523.51 613.75,-533.51 617.25,-523.51 610.25,-523.51"/>
</g>
<!-- ME 308&#45;&gt;ME 430 -->
<g id="edge42" class="edge">
<title>ME 308&#45;&gt;ME 430</title>
<path fill="none" stroke="#7b4173" d="M647.7,-472.49C659.06,-468.87 671.96,-464.75 684.04,-460.9"/>
<polygon fill="#7b4173" stroke="#7b4173" points="684.92,-464.29 693.39,-457.92 682.79,-457.62 684.92,-464.29"/>
</g>
<!-- ME 370&#45;&gt;ME 498 -->
<g id="edge45" class="edge">
<title>ME 370&#45;&gt;ME 498</title>
<path fill="none" stroke="#9c9ede" d="M645.64,-447.2C649.96,-450.02 654.28,-453 658.25,-456 662.71,-459.37 682.4,-477.29 699.66,-493.17"/>
<polygon fill="#9c9ede" stroke="#9c9ede" points="697.03,-495.5 706.75,-499.69 701.77,-490.35 697.03,-495.5"/>
</g>
<!-- COR 310 -->
<g id="node38" class="node">
<title>COR 310</title>
<g id="a_node38"><a xlink:title="Community: The Call to Serve the Common Good">
<polygon fill="#f6e8c3" stroke="black" points="884.88,-405 811.88,-405 811.88,-369 884.88,-369 884.88,-405"/>
<text text-anchor="start" x="819.88" y="-384.12" font-family="Times,serif" font-size="10.00">COR 310</text>
<text text-anchor="start" x="858.88" y="-384.12" font-family="Times,serif" baseline-shift="sub" font-size="10.00" fill="#6e6d6a"> &#160;3 cr</text>
</a>
</g>
</g>
<!-- COR 250W&#45;&gt;COR 310 -->
<!-- ME 430&#45;&gt;ME 498 -->
<g id="edge46" class="edge">
<title>ME 430&#45;&gt;ME 498</title>
<path fill="none" stroke="#3182bd" stroke-dasharray="5,2" d="M728.63,-465.28C728.63,-473.27 728.63,-481.26 728.63,-489.24"/>
<polygon fill="#3182bd" stroke="#3182bd" points="725.13,-489.02 728.63,-499.02 732.13,-489.02 725.13,-489.02"/>
</g>
<!-- ME 430L -->
<g id="node35" class="node">
<title>ME 430L</title>
<g id="a_node35"><a xlink:title="Heat Transfer Laboratory">
<polygon fill="#f8cecc" stroke="black" points="765.13,-393 692.13,-393 692.13,-357 765.13,-357 765.13,-393"/>
<text text-anchor="start" x="700.13" y="-372.12" font-family="Times,serif" font-size="10.00">ME 430L</text>
<text text-anchor="start" x="739.13" y="-372.12" font-family="Times,serif" baseline-shift="sub" font-size="10.00" fill="#6e6d6a"> &#160;2 cr</text>
</a>
</g>
</g>
<!-- ME 430L&#45;&gt;ME 430 -->
<g id="edge43" class="edge">
<title>ME 430L&#45;&gt;ME 430</title>
<path fill="none" stroke="#5254a3" stroke-width="2" d="M728.63,-404.57C728.63,-408.82 728.63,-413.06 728.63,-417.3"/>
<polygon fill="#5254a3" stroke="#5254a3" stroke-width="2" points="732.13,-406.31 728.63,-396.31 725.13,-406.31 732.13,-406.31"/>
<polygon fill="#5254a3" stroke="#5254a3" stroke-width="2" points="725.13,-415.51 728.63,-425.51 732.13,-415.51 725.13,-415.51"/>
</g>
<!-- ME 499 -->
<g id="node40" class="node">
<title>ME 499</title>
<g id="a_node40"><a xlink:title="Senior Design II">
<polygon fill="#f8cecc" stroke="black" points="881.88,-297 814.88,-297 814.88,-261 881.88,-261 881.88,-297"/>
<text text-anchor="start" x="822.88" y="-276.12" font-family="Times,serif" font-size="10.00">ME 499</text>
<text text-anchor="start" x="855.88" y="-276.12" font-family="Times,serif" baseline-shift="sub" font-size="10.00" fill="#6e6d6a"> &#160;3 cr</text>
</a>
</g>
</g>
<!-- ME 498&#45;&gt;ME 499 -->
<g id="edge47" class="edge">
<title>ME 498&#45;&gt;ME 499</title>
<path fill="none" stroke="#31a354" d="M755.8,-500.61C764.25,-493.31 772.78,-484.21 778,-474 812.28,-407.01 756.95,-368.4 799,-306 800.86,-303.23 803.11,-300.72 805.6,-298.44"/>
<polygon fill="#31a354" stroke="#31a354" points="807.67,-301.27 813.61,-292.49 803.49,-295.65 807.67,-301.27"/>
</g>
<!-- ME El. 1 -->
<g id="node37" class="node">
<title>ME El. 1</title>
<g id="a_node37"><a xlink:title="Mechanical Engineering Elective 1">
<polygon fill="#f8cecc" stroke="black" points="763.63,-591 693.63,-591 693.63,-555 763.63,-555 763.63,-591"/>
<text text-anchor="start" x="701.63" y="-570.12" font-family="Times,serif" font-size="10.00">ME El. 1</text>
<text text-anchor="start" x="737.63" y="-570.12" font-family="Times,serif" baseline-shift="sub" font-size="10.00" fill="#6e6d6a"> &#160;3 cr</text>
</a>
</g>
</g>
<!-- COR 340W -->
<g id="node39" class="node">
<title>COR 340W</title>
<g id="a_node39"><a xlink:title="Ethics and the Dignity of Work (Writing Intensive)">
<polygon fill="#f6e8c3" stroke="black" points="889.75,-351 807,-351 807,-315 889.75,-315 889.75,-351"/>
<text text-anchor="start" x="815" y="-330.12" font-family="Times,serif" font-size="10.00">COR 340W</text>
<text text-anchor="start" x="863.75" y="-330.12" font-family="Times,serif" baseline-shift="sub" font-size="10.00" fill="#6e6d6a"> &#160;4 cr</text>
</a>
</g>
</g>
<!-- ME El. 2 -->
<g id="node41" class="node">
<title>ME El. 2</title>
<g id="a_node41"><a xlink:title="Mechanical Engineering Elective 2">
<polygon fill="#f8cecc" stroke="black" points="883.38,-459 813.38,-459 813.38,-423 883.38,-423 883.38,-459"/>
<text text-anchor="start" x="821.38" y="-438.12" font-family="Times,serif" font-size="10.00">ME El. 2</text>
<text text-anchor="start" x="857.38" y="-438.12" font-family="Times,serif" baseline-shift="sub" font-size="10.00" fill="#6e6d6a"> &#160;3 cr</text>
</a>
</g>
</g>
<!-- ME El. 3 -->
<g id="node42" class="node">
<title>ME El. 3</title>
<g id="a_node42"><a xlink:title="Mechanical Engineering Elective 3">
<polygon fill="#f8cecc" stroke="black" points="883.38,-513 813.38,-513 813.38,-477 883.38,-477 883.38,-513"/>
<text text-anchor="start" x="821.38" y="-492.12" font-family="Times,serif" font-size="10.00">ME El. 3</text>
<text text-anchor="start" x="857.38" y="-492.12" font-family="Times,serif" baseline-shift="sub" font-size="10.00" fill="#6e6d6a"> &#160;3 cr</text>
</a>
</g>
</g>
<!-- pr_edge -->
<!-- ME El. 3&#45;&gt;pr_edge -->
<!-- pr_label -->
<g id="node44" class="node">
<title>pr_label</title>
<text text-anchor="middle" x="1011.03" y="-489.95" font-family="Times,serif" font-size="14.00">prerequisite</text>
</g>
<!-- pr_edge&#45;&gt;pr_label -->
<g id="edge49" class="edge">
<title>pr_edge&#45;&gt;pr_label</title>
<path fill="none" stroke="black" d="M922.42,-495C930.49,-495 945.06,-495 960.04,-495"/>
<polygon fill="black" stroke="black" points="959.95,-498.5 969.95,-495 959.95,-491.5 959.95,-498.5"/>
</g>
<!-- copr_edge -->
<!-- copr_label -->
<g id="node46" class="node">
<title>copr_label</title>
<text text-anchor="middle" x="1011.03" y="-543.95" font-family="Times,serif" font-size="14.00">con&#45;prerequisite</text>
</g>
<!-- copr_edge&#45;&gt;copr_label -->
<g id="edge50" class="edge">
<title>copr_edge&#45;&gt;copr_label</title>
<path fill="none" stroke="black" stroke-dasharray="5,2" d="M922.42,-549C928.33,-549 937.74,-549 948.24,-549"/>
<polygon fill="black" stroke="black" points="947.96,-552.5 957.96,-549 947.96,-545.5 947.96,-552.5"/>
</g>
<!-- cr_edge -->
<!-- cr_label -->
<g id="node48" class="node">
<title>cr_label</title>
<text text-anchor="middle" x="1011.03" y="-597.95" font-family="Times,serif" font-size="14.00">corequisite</text>
</g>
<!-- cr_edge&#45;&gt;cr_label -->
<g id="edge51" class="edge">
<title>cr_edge&#45;&gt;cr_label</title>
<path fill="none" stroke="black" stroke-width="2" d="M933.64,-603C941.85,-603 952.04,-603 962.27,-603"/>
<polygon fill="black" stroke="black" stroke-width="2" points="935.44,-599.5 925.44,-603 935.44,-606.5 935.44,-599.5"/>
<polygon fill="black" stroke="black" stroke-width="2" points="960.71,-606.5 970.71,-603 960.71,-599.5 960.71,-606.5"/>
</g>
</g>
</svg>
