<?xml version="1.0" encoding="UTF-8" standalone="no"?>
<!DOCTYPE svg PUBLIC "-//W3C//DTD SVG 1.1//EN"
 "http://www.w3.org/Graphics/SVG/1.1/DTD/svg11.dtd">
<!-- Generated by graphviz version 12.1.0 (20240811.2233)
 -->
<!-- Pages: 1 -->
<svg width="1026pt" height="642pt"
 viewBox="0.00 0.00 1025.81 642.00" xmlns="http://www.w3.org/2000/svg" xmlns:xlink="http://www.w3.org/1999/xlink">
<g id="graph0" class="graph" transform="scale(1 1) rotate(0) translate(4 638)">
<polygon fill="white" stroke="none" points="-4,4 -4,-638 1021.81,-638 1021.81,4 -4,4"/>
<g id="clust1" class="cluster">
<title>cluster_0</title>
<polygon fill="#cecdc9" stroke="#cecdc9" points="24.31,-270 24.31,-572 135.81,-572 135.81,-270 24.31,-270"/>
<text text-anchor="start" x="48.56" y="-553.8" font-family="Helvetica,sans-Serif" font-weight="bold" font-size="16.00">term: 1F</text>
<text text-anchor="start" x="69.18" y="-543.5" font-family="Helvetica,sans-Serif" font-size="10.00" fill="#6e6d6a">14 cr</text>
</g>
<g id="clust2" class="cluster">
<title>cluster_1</title>
<polygon fill="#cecdc9" stroke="#cecdc9" points="155.81,-324 155.81,-626 267.31,-626 267.31,-324 155.81,-324"/>
<text text-anchor="start" x="179.68" y="-607.8" font-family="Helvetica,sans-Serif" font-weight="bold" font-size="16.00">term: 1S</text>
<text text-anchor="start" x="200.68" y="-597.5" font-family="Helvetica,sans-Serif" font-size="10.00" fill="#6e6d6a">14 cr</text>
</g>
<g id="clust3" class="cluster">
<title>cluster_2</title>
<polygon fill="#cecdc9" stroke="#cecdc9" points="287.31,-154 287.31,-294 395.06,-294 395.06,-154 287.31,-154"/>
<text text-anchor="start" x="309.68" y="-275.8" font-family="Helvetica,sans-Serif" font-weight="bold" font-size="16.00">term: 2F</text>
<text text-anchor="start" x="332.93" y="-265.5" font-family="Helvetica,sans-Serif" font-size="10.00" fill="#6e6d6a">6 cr</text>
</g>
<g id="clust4" class="cluster">
<title>cluster_3</title>
<polygon fill="#cecdc9" stroke="#cecdc9" points="415.06,-8 415.06,-256 521.31,-256 521.31,-8 415.06,-8"/>
<text text-anchor="start" x="436.31" y="-237.8" font-family="Helvetica,sans-Serif" font-weight="bold" font-size="16.00">term: 2S</text>
<text text-anchor="start" x="457.31" y="-227.5" font-family="Helvetica,sans-Serif" font-size="10.00" fill="#6e6d6a">10 cr</text>
</g>
<g id="clust5" class="cluster">
<title>cluster_4</title>
<polygon fill="#cecdc9" stroke="#cecdc9" points="541.31,-166 541.31,-522 646.06,-522 646.06,-166 541.31,-166"/>
<text text-anchor="start" x="562.18" y="-503.8" font-family="Helvetica,sans-Serif" font-weight="bold" font-size="16.00">term: 3F</text>
<text text-anchor="start" x="582.81" y="-493.5" font-family="Helvetica,sans-Serif" font-size="10.00" fill="#6e6d6a">15 cr</text>
</g>
<g id="clust6" class="cluster">
<title>cluster_5</title>
<polygon fill="#cecdc9" stroke="#cecdc9" points="666.06,-12 666.06,-314 763.31,-314 763.31,-12 666.06,-12"/>
<text text-anchor="start" x="682.81" y="-295.8" font-family="Helvetica,sans-Serif" font-weight="bold" font-size="16.00">term: 3S</text>
<text text-anchor="start" x="703.81" y="-285.5" font-family="Helvetica,sans-Serif" font-size="10.00" fill="#6e6d6a">14 cr</text>
</g>
<g id="clust7" class="cluster">
<title>cluster_6</title>
<polygon fill="#cecdc9" stroke="#cecdc9" points="783.31,-12 783.31,-260 888.06,-260 888.06,-12 783.31,-12"/>
<text text-anchor="start" x="804.18" y="-241.8" font-family="Helvetica,sans-Serif" font-weight="bold" font-size="16.00">term: 4F</text>
<text text-anchor="start" x="824.81" y="-231.5" font-family="Helvetica,sans-Serif" font-size="10.00" fill="#6e6d6a">11 cr</text>
</g>
<g id="clust8" class="cluster">
<title>cluster_7</title>
<polygon fill="#cecdc9" stroke="#cecdc9" points="908.06,-93 908.06,-287 1009.81,-287 1009.81,-93 908.06,-93"/>
<text text-anchor="start" x="927.06" y="-268.8" font-family="Helvetica,sans-Serif" font-weight="bold" font-size="16.00">term: 4S</text>
<text text-anchor="start" x="950.68" y="-258.5" font-family="Helvetica,sans-Serif" font-size="10.00" fill="#6e6d6a">9 cr</text>
</g>
<!-- COR 120 -->
<g id="node1" class="node">
<title>COR 120</title>
<polygon fill="white" stroke="white" points="125.56,-476 34.56,-476 34.56,-440 125.56,-440 125.56,-476"/>
<text text-anchor="start" x="42.56" y="-453.2" font-family="Helvetica,sans-Serif" baseline-shift="sub" font-size="14.00" fill="#6e6d6a">4</text>
<text text-anchor="start" x="49.31" y="-453.2" font-family="Helvetica,sans-Serif" font-size="14.00" fill="#5e5d87"> &#160;&#160;COR 120</text>
</g>
<!-- MTH 172 -->
<g id="node6" class="node">
<title>MTH 172</title>
<polygon fill="white" stroke="white" points="256.68,-368 166.43,-368 166.43,-332 256.68,-332 256.68,-368"/>
<text text-anchor="start" x="174.43" y="-345.2" font-family="Helvetica,sans-Serif" baseline-shift="sub" font-size="14.00" fill="#6e6d6a">4</text>
<text text-anchor="start" x="181.18" y="-345.2" font-family="Helvetica,sans-Serif" font-size="14.00" fill="#5e5d87"> &#160;&#160;MTH 172</text>
</g>
<!-- COR 120&#45;&gt;MTH 172 -->
<!-- ME 201 -->
<g id="node10" class="node">
<title>ME 201</title>
<polygon fill="white" stroke="white" points="252.18,-584 170.93,-584 170.93,-548 252.18,-548 252.18,-584"/>
<text text-anchor="start" x="178.93" y="-561.2" font-family="Helvetica,sans-Serif" baseline-shift="sub" font-size="14.00" fill="#6e6d6a">2</text>
<text text-anchor="start" x="185.68" y="-561.2" font-family="Helvetica,sans-Serif" font-size="14.00" fill="#5e5d87"> &#160;&#160;ME 201</text>
</g>
<!-- COR 120&#45;&gt;ME 201 -->
<g id="edge21" class="edge">
<title>COR 120&#45;&gt;ME 201</title>
<path fill="none" stroke="#007d34" stroke-width="3" d="M125.89,-476.32C129.52,-478.89 132.9,-481.77 135.81,-485 152.95,-504.01 138.67,-519.99 155.81,-539 156.86,-540.16 157.96,-541.28 159.12,-542.35"/>
<polygon fill="#007d34" stroke="#007d34" stroke-width="3" points="156.87,-545.04 166.98,-548.19 161.04,-539.42 156.87,-545.04"/>
</g>
<!-- MTH 171 -->
<g id="node2" class="node">
<title>MTH 171</title>
<polygon fill="white" stroke="white" points="125.18,-368 34.93,-368 34.93,-332 125.18,-332 125.18,-368"/>
<text text-anchor="start" x="42.93" y="-345.2" font-family="Helvetica,sans-Serif" baseline-shift="sub" font-size="14.00" fill="#6e6d6a">4</text>
<text text-anchor="start" x="49.68" y="-345.2" font-family="Helvetica,sans-Serif" font-size="14.00" fill="#5e5d87"> &#160;&#160;MTH 171</text>
</g>
<!-- PHY 171 -->
<g id="node3" class="node">
<title>PHY 171</title>
<polygon fill="white" stroke="white" points="124.06,-314 36.06,-314 36.06,-278 124.06,-278 124.06,-314"/>
<text text-anchor="start" x="44.06" y="-291.2" font-family="Helvetica,sans-Serif" baseline-shift="sub" font-size="14.00" fill="#6e6d6a">4</text>
<text text-anchor="start" x="50.81" y="-291.2" font-family="Helvetica,sans-Serif" font-size="14.00" fill="#5e5d87"> &#160;&#160;PHY 171</text>
</g>
<!-- MTH 171&#45;&gt;PHY 171 -->
<g id="edge8" class="edge">
<title>MTH 171&#45;&gt;PHY 171</title>
<path fill="none" stroke="#803e75" stroke-width="3" stroke-dasharray="5,2" d="M80.06,-331.51C80.06,-330.51 80.06,-329.52 80.06,-328.52"/>
<polygon fill="#803e75" stroke="#803e75" stroke-width="3" points="83.56,-328.68 80.06,-318.68 76.56,-328.68 83.56,-328.68"/>
</g>
<!-- MTH 171&#45;&gt;MTH 172 -->
<g id="edge10" class="edge">
<title>MTH 171&#45;&gt;MTH 172</title>
<path fill="none" stroke="#803e75" stroke-width="3" d="M125.63,-350C134.16,-350 143.22,-350 152.12,-350"/>
<polygon fill="#803e75" stroke="#803e75" stroke-width="3" points="151.81,-353.5 161.81,-350 151.81,-346.5 151.81,-353.5"/>
</g>
<!-- GE 104 -->
<g id="node9" class="node">
<title>GE 104</title>
<polygon fill="white" stroke="white" points="251.81,-530 171.31,-530 171.31,-494 251.81,-494 251.81,-530"/>
<text text-anchor="start" x="179.31" y="-507.2" font-family="Helvetica,sans-Serif" baseline-shift="sub" font-size="14.00" fill="#6e6d6a">3</text>
<text text-anchor="start" x="186.06" y="-507.2" font-family="Helvetica,sans-Serif" font-size="14.00" fill="#5e5d87"> &#160;&#160;GE 104</text>
</g>
<!-- MTH 171&#45;&gt;GE 104 -->
<g id="edge14" class="edge">
<title>MTH 171&#45;&gt;GE 104</title>
<path fill="none" stroke="#803e75" stroke-width="3" d="M125.46,-367.04C129.37,-369.9 132.93,-373.2 135.81,-377 165.27,-415.92 126.35,-446.08 155.81,-485 157.07,-486.66 158.46,-488.23 159.95,-489.71"/>
<polygon fill="#803e75" stroke="#803e75" stroke-width="3" points="157.33,-492.11 167.39,-495.42 161.59,-486.55 157.33,-492.11"/>
</g>
<!-- GE 204 -->
<g id="node12" class="node">
<title>GE 204</title>
<polygon fill="white" stroke="white" points="381.43,-198 300.93,-198 300.93,-162 381.43,-162 381.43,-198"/>
<text text-anchor="start" x="308.93" y="-175.2" font-family="Helvetica,sans-Serif" baseline-shift="sub" font-size="14.00" fill="#6e6d6a">3</text>
<text text-anchor="start" x="315.68" y="-175.2" font-family="Helvetica,sans-Serif" font-size="14.00" fill="#5e5d87"> &#160;&#160;GE 204</text>
</g>
<!-- MTH 171&#45;&gt;GE 204 -->
<g id="edge16" class="edge">
<title>MTH 171&#45;&gt;GE 204</title>
<path fill="none" stroke="#803e75" stroke-width="3" d="M118.85,-331.59C124.55,-328.75 130.35,-325.82 135.81,-323 194.83,-292.53 222.18,-300.73 267.31,-252 282.18,-235.94 272.26,-222.89 287.31,-207 287.91,-206.37 288.52,-205.75 289.16,-205.14"/>
<polygon fill="#803e75" stroke="#803e75" stroke-width="3" points="291.16,-208.02 296.93,-199.13 286.88,-202.48 291.16,-208.02"/>
</g>
<!-- PHY 171L -->
<g id="node4" class="node">
<title>PHY 171L</title>
<polygon fill="white" stroke="white" points="127.81,-422 32.31,-422 32.31,-386 127.81,-386 127.81,-422"/>
<text text-anchor="start" x="40.31" y="-399.2" font-family="Helvetica,sans-Serif" baseline-shift="sub" font-size="14.00" fill="#6e6d6a">1</text>
<text text-anchor="start" x="47.06" y="-399.2" font-family="Helvetica,sans-Serif" font-size="14.00" fill="#5e5d87"> &#160;&#160;PHY 171L</text>
</g>
<!-- PHY 171&#45;&gt;PHY 171L -->
<g id="edge9" class="edge">
<title>PHY 171&#45;&gt;PHY 171L</title>
<path fill="none" stroke="#ff6800" stroke-width="3" d="M23.12,-315.1C16.44,-319.62 10.52,-325.18 6.31,-332 -2.1,-345.61 -2.1,-354.39 6.31,-368 9.77,-373.61 14.39,-378.36 19.64,-382.39"/>
<polygon fill="#ff6800" stroke="#ff6800" stroke-width="3" points="24.78,-318.18 31.79,-310.24 21.35,-312.08 24.78,-318.18"/>
<polygon fill="#ff6800" stroke="#ff6800" stroke-width="3" points="17.74,-385.33 28.07,-387.68 21.46,-379.4 17.74,-385.33"/>
</g>
<!-- PHY 171&#45;&gt;GE 104 -->
<g id="edge15" class="edge">
<title>PHY 171&#45;&gt;GE 104</title>
<path fill="none" stroke="#ff6800" stroke-width="3" d="M124.4,-311.92C128.78,-315.02 132.74,-318.68 135.81,-323 177.83,-382.14 113.79,-425.86 155.81,-485 157.04,-486.73 158.41,-488.35 159.89,-489.87"/>
<polygon fill="#ff6800" stroke="#ff6800" stroke-width="3" points="157.38,-492.36 167.41,-495.75 161.69,-486.84 157.38,-492.36"/>
</g>
<!-- PHY 171&#45;&gt;GE 204 -->
<g id="edge17" class="edge">
<title>PHY 171&#45;&gt;GE 204</title>
<path fill="none" stroke="#ff6800" stroke-width="3" d="M122.12,-277.62C166.86,-257.59 238.58,-225.49 287.45,-203.61"/>
<polygon fill="#ff6800" stroke="#ff6800" stroke-width="3" points="288.75,-206.86 296.45,-199.58 285.89,-200.47 288.75,-206.86"/>
</g>
<!-- ME 100 -->
<g id="node5" class="node">
<title>ME 100</title>
<polygon fill="white" stroke="white" points="120.68,-530 39.43,-530 39.43,-494 120.68,-494 120.68,-530"/>
<text text-anchor="start" x="47.43" y="-507.2" font-family="Helvetica,sans-Serif" baseline-shift="sub" font-size="14.00" fill="#6e6d6a">1</text>
<text text-anchor="start" x="54.18" y="-507.2" font-family="Helvetica,sans-Serif" font-size="14.00" fill="#5e5d87"> &#160;&#160;ME 100</text>
</g>
<!-- PHY 172 -->
<g id="node7" class="node">
<title>PHY 172</title>
<polygon fill="white" stroke="white" points="255.56,-422 167.56,-422 167.56,-386 255.56,-386 255.56,-422"/>
<text text-anchor="start" x="175.56" y="-399.2" font-family="Helvetica,sans-Serif" baseline-shift="sub" font-size="14.00" fill="#6e6d6a">4</text>
<text text-anchor="start" x="182.31" y="-399.2" font-family="Helvetica,sans-Serif" font-size="14.00" fill="#5e5d87"> &#160;&#160;PHY 172</text>
</g>
<!-- MTH 172&#45;&gt;PHY 172 -->
<g id="edge11" class="edge">
<title>MTH 172&#45;&gt;PHY 172</title>
<path fill="none" stroke="#a6bdd7" stroke-width="3" stroke-dasharray="5,2" d="M211.56,-368.14C211.56,-369.14 211.56,-370.13 211.56,-371.13"/>
<polygon fill="#a6bdd7" stroke="#a6bdd7" stroke-width="3" points="208.06,-370.97 211.56,-380.97 215.06,-370.97 208.06,-370.97"/>
</g>
<!-- CHM 145 -->
<g id="node11" class="node">
<title>CHM 145</title>
<polygon fill="white" stroke="white" points="387.06,-252 295.31,-252 295.31,-216 387.06,-216 387.06,-252"/>
<text text-anchor="start" x="303.31" y="-229.2" font-family="Helvetica,sans-Serif" baseline-shift="sub" font-size="14.00" fill="#6e6d6a">3</text>
<text text-anchor="start" x="310.06" y="-229.2" font-family="Helvetica,sans-Serif" font-size="14.00" fill="#5e5d87"> &#160;&#160;CHM 145</text>
</g>
<!-- MTH 172&#45;&gt;CHM 145 -->
<!-- MTH 353 -->
<g id="node13" class="node">
<title>MTH 353</title>
<polygon fill="white" stroke="white" points="513.31,-214 423.06,-214 423.06,-178 513.31,-178 513.31,-214"/>
<text text-anchor="start" x="431.06" y="-191.2" font-family="Helvetica,sans-Serif" baseline-shift="sub" font-size="14.00" fill="#6e6d6a">3</text>
<text text-anchor="start" x="437.81" y="-191.2" font-family="Helvetica,sans-Serif" font-size="14.00" fill="#5e5d87"> &#160;&#160;MTH 353</text>
</g>
<!-- MTH 172&#45;&gt;MTH 353 -->
<g id="edge13" class="edge">
<title>MTH 172&#45;&gt;MTH 353</title>
<path fill="none" stroke="#a6bdd7" stroke-width="3" d="M256.94,-340.92C303.48,-330.77 372.88,-313.71 395.06,-298 420.53,-279.95 440.16,-249.95 452.47,-227.15"/>
<polygon fill="#a6bdd7" stroke="#a6bdd7" stroke-width="3" points="455.49,-228.91 456.94,-218.41 449.26,-225.72 455.49,-228.91"/>
</g>
<!-- ME 340 -->
<g id="node21" class="node">
<title>ME 340</title>
<polygon fill="white" stroke="white" points="634.31,-372 553.06,-372 553.06,-336 634.31,-336 634.31,-372"/>
<text text-anchor="start" x="561.06" y="-349.2" font-family="Helvetica,sans-Serif" baseline-shift="sub" font-size="14.00" fill="#6e6d6a">3</text>
<text text-anchor="start" x="567.81" y="-349.2" font-family="Helvetica,sans-Serif" font-size="14.00" fill="#5e5d87"> &#160;&#160;ME 340</text>
</g>
<!-- MTH 172&#45;&gt;ME 340 -->
<g id="edge29" class="edge">
<title>MTH 172&#45;&gt;ME 340</title>
<path fill="none" stroke="#a6bdd7" stroke-width="3" stroke-dasharray="5,2" d="M256.91,-350.47C326.86,-351.2 462.63,-352.63 538.34,-353.43"/>
<polygon fill="#a6bdd7" stroke="#a6bdd7" stroke-width="3" points="538.07,-356.93 548.1,-353.53 538.14,-349.93 538.07,-356.93"/>
</g>
<!-- ME 345 -->
<g id="node22" class="node">
<title>ME 345</title>
<polygon fill="white" stroke="white" points="634.31,-426 553.06,-426 553.06,-390 634.31,-390 634.31,-426"/>
<text text-anchor="start" x="561.06" y="-403.2" font-family="Helvetica,sans-Serif" baseline-shift="sub" font-size="14.00" fill="#6e6d6a">3</text>
<text text-anchor="start" x="567.81" y="-403.2" font-family="Helvetica,sans-Serif" font-size="14.00" fill="#5e5d87"> &#160;&#160;ME 345</text>
</g>
<!-- MTH 172&#45;&gt;ME 345 -->
<g id="edge30" class="edge">
<title>MTH 172&#45;&gt;ME 345</title>
<path fill="none" stroke="#a6bdd7" stroke-width="3" d="M257.15,-359.39C267.06,-361.35 277.52,-363.33 287.31,-365 375.07,-379.97 477.67,-393.64 538.8,-401.37"/>
<polygon fill="#a6bdd7" stroke="#a6bdd7" stroke-width="3" points="538.18,-404.82 548.53,-402.6 539.05,-397.88 538.18,-404.82"/>
</g>
<!-- ME 308 -->
<g id="node24" class="node">
<title>ME 308</title>
<polygon fill="white" stroke="white" points="755.31,-56 674.06,-56 674.06,-20 755.31,-20 755.31,-56"/>
<text text-anchor="start" x="682.06" y="-33.2" font-family="Helvetica,sans-Serif" baseline-shift="sub" font-size="14.00" fill="#6e6d6a">3</text>
<text text-anchor="start" x="688.81" y="-33.2" font-family="Helvetica,sans-Serif" font-size="14.00" fill="#5e5d87"> &#160;&#160;ME 308</text>
</g>
<!-- MTH 172&#45;&gt;ME 308 -->
<g id="edge35" class="edge">
<title>MTH 172&#45;&gt;ME 308</title>
<path fill="none" stroke="#a6bdd7" stroke-width="3" d="M250.36,-368.39C256.06,-371.24 261.85,-374.17 267.31,-377 427.92,-460.23 515.41,-651.11 646.06,-526 680.81,-492.72 644.38,-154.4 668.33,-69.25"/>
<polygon fill="#a6bdd7" stroke="#a6bdd7" stroke-width="3" points="671.52,-70.69 672.11,-60.11 665.05,-68.01 671.52,-70.69"/>
</g>
<!-- PHY 172L -->
<g id="node8" class="node">
<title>PHY 172L</title>
<polygon fill="white" stroke="white" points="259.31,-476 163.81,-476 163.81,-440 259.31,-440 259.31,-476"/>
<text text-anchor="start" x="171.81" y="-453.2" font-family="Helvetica,sans-Serif" baseline-shift="sub" font-size="14.00" fill="#6e6d6a">1</text>
<text text-anchor="start" x="178.56" y="-453.2" font-family="Helvetica,sans-Serif" font-size="14.00" fill="#5e5d87"> &#160;&#160;PHY 172L</text>
</g>
<!-- PHY 172&#45;&gt;PHY 172L -->
<g id="edge12" class="edge">
<title>PHY 172&#45;&gt;PHY 172L</title>
<path fill="none" stroke="#c10020" stroke-width="3" d="M211.56,-436.52C211.56,-436.65 211.56,-436.77 211.56,-436.9"/>
<polygon fill="#c10020" stroke="#c10020" stroke-width="3" points="215.06,-436.68 211.56,-426.68 208.06,-436.68 215.06,-436.68"/>
<polygon fill="#c10020" stroke="#c10020" stroke-width="3" points="208.06,-424.97 211.56,-434.97 215.06,-424.97 208.06,-424.97"/>
</g>
<!-- PHY 172&#45;&gt;ME 340 -->
<g id="edge28" class="edge">
<title>PHY 172&#45;&gt;ME 340</title>
<path fill="none" stroke="#c10020" stroke-width="3" d="M255.88,-399.65C315.71,-393.45 426.96,-381.23 521.31,-367 526.89,-366.16 532.71,-365.21 538.51,-364.22"/>
<polygon fill="#c10020" stroke="#c10020" stroke-width="3" points="539.03,-367.69 548.27,-362.51 537.81,-360.79 539.03,-367.69"/>
</g>
<!-- PHY 172&#45;&gt;ME 345 -->
<g id="edge31" class="edge">
<title>PHY 172&#45;&gt;ME 345</title>
<path fill="none" stroke="#c10020" stroke-width="3" d="M255.88,-421.55C260.05,-424.32 263.96,-427.46 267.31,-431 282.91,-447.49 268.37,-465.48 287.31,-478 374.06,-535.36 433.62,-533.92 521.31,-478 539.08,-466.67 526.77,-450.26 541.31,-435 541.41,-434.89 541.52,-434.78 541.62,-434.67"/>
<polygon fill="#c10020" stroke="#c10020" stroke-width="3" points="543.67,-437.52 549.15,-428.46 539.21,-432.12 543.67,-437.52"/>
</g>
<!-- CHM 145&#45;&gt;MTH 353 -->
<!-- ME 303 -->
<g id="node19" class="node">
<title>ME 303</title>
<polygon fill="white" stroke="white" points="634.31,-318 553.06,-318 553.06,-282 634.31,-282 634.31,-318"/>
<text text-anchor="start" x="561.06" y="-295.2" font-family="Helvetica,sans-Serif" baseline-shift="sub" font-size="14.00" fill="#6e6d6a">3</text>
<text text-anchor="start" x="567.81" y="-295.2" font-family="Helvetica,sans-Serif" font-size="14.00" fill="#5e5d87"> &#160;&#160;ME 303</text>
</g>
<!-- CHM 145&#45;&gt;ME 303 -->
<g id="edge25" class="edge">
<title>CHM 145&#45;&gt;ME 303</title>
<path fill="none" stroke="#00538a" stroke-width="3" d="M387.39,-251.09C396.49,-254.25 406.03,-257.38 415.06,-260 456.15,-271.91 503.45,-282.41 538.9,-289.66"/>
<polygon fill="#00538a" stroke="#00538a" stroke-width="3" points="537.88,-293.02 548.38,-291.57 539.26,-286.16 537.88,-293.02"/>
</g>
<!-- CHM 145&#45;&gt;ME 340 -->
<g id="edge27" class="edge">
<title>CHM 145&#45;&gt;ME 340</title>
<path fill="none" stroke="#00538a" stroke-width="3" d="M364.12,-252.36C378.08,-263.41 396.88,-277.2 415.06,-287 454.88,-308.48 503.07,-326.19 539.2,-338"/>
<polygon fill="#00538a" stroke="#00538a" stroke-width="3" points="537.99,-341.28 548.58,-341 540.12,-334.62 537.99,-341.28"/>
</g>
<!-- GE 205 -->
<g id="node14" class="node">
<title>GE 205</title>
<polygon fill="white" stroke="white" points="508.43,-52 427.93,-52 427.93,-16 508.43,-16 508.43,-52"/>
<text text-anchor="start" x="435.93" y="-29.2" font-family="Helvetica,sans-Serif" baseline-shift="sub" font-size="14.00" fill="#6e6d6a">3</text>
<text text-anchor="start" x="442.68" y="-29.2" font-family="Helvetica,sans-Serif" font-size="14.00" fill="#5e5d87"> &#160;&#160;GE 205</text>
</g>
<!-- GE 204&#45;&gt;GE 205 -->
<g id="edge18" class="edge">
<title>GE 204&#45;&gt;GE 205</title>
<path fill="none" stroke="#cea262" stroke-width="3" d="M349.57,-161.77C360.59,-136.44 383.5,-90.38 415.06,-61 415.41,-60.67 415.76,-60.35 416.12,-60.03"/>
<polygon fill="#cea262" stroke="#cea262" stroke-width="3" points="417.92,-63.06 423.85,-54.28 413.74,-57.44 417.92,-63.06"/>
</g>
<!-- GE 206 -->
<g id="node15" class="node">
<title>GE 206</title>
<polygon fill="white" stroke="white" points="508.43,-106 427.93,-106 427.93,-70 508.43,-70 508.43,-106"/>
<text text-anchor="start" x="435.93" y="-83.2" font-family="Helvetica,sans-Serif" baseline-shift="sub" font-size="14.00" fill="#6e6d6a">3</text>
<text text-anchor="start" x="442.68" y="-83.2" font-family="Helvetica,sans-Serif" font-size="14.00" fill="#5e5d87"> &#160;&#160;GE 206</text>
</g>
<!-- GE 204&#45;&gt;GE 206 -->
<g id="edge19" class="edge">
<title>GE 204&#45;&gt;GE 206</title>
<path fill="none" stroke="#cea262" stroke-width="3" d="M360.28,-161.51C374.41,-147.68 394.95,-128.85 415.06,-115 415.6,-114.62 416.16,-114.25 416.71,-113.88"/>
<polygon fill="#cea262" stroke="#cea262" stroke-width="3" points="418.38,-116.96 425.08,-108.75 414.72,-110.99 418.38,-116.96"/>
</g>
<!-- ME 300 -->
<g id="node17" class="node">
<title>ME 300</title>
<polygon fill="white" stroke="white" points="634.31,-210 553.06,-210 553.06,-174 634.31,-174 634.31,-210"/>
<text text-anchor="start" x="561.06" y="-187.2" font-family="Helvetica,sans-Serif" baseline-shift="sub" font-size="14.00" fill="#6e6d6a">3</text>
<text text-anchor="start" x="567.81" y="-187.2" font-family="Helvetica,sans-Serif" font-size="14.00" fill="#5e5d87"> &#160;&#160;ME 300</text>
</g>
<!-- MTH 353&#45;&gt;ME 300 -->
<!-- ME 370 -->
<g id="node27" class="node">
<title>ME 370</title>
<polygon fill="white" stroke="white" points="755.31,-164 674.06,-164 674.06,-128 755.31,-128 755.31,-164"/>
<text text-anchor="start" x="682.06" y="-141.2" font-family="Helvetica,sans-Serif" baseline-shift="sub" font-size="14.00" fill="#6e6d6a">3</text>
<text text-anchor="start" x="688.81" y="-141.2" font-family="Helvetica,sans-Serif" font-size="14.00" fill="#5e5d87"> &#160;&#160;ME 370</text>
</g>
<!-- MTH 353&#45;&gt;ME 370 -->
<g id="edge39" class="edge">
<title>MTH 353&#45;&gt;ME 370</title>
<path fill="none" stroke="#b32851" stroke-width="3" stroke-dasharray="5,2" d="M505.25,-177.58C519.35,-170.68 533.9,-164.02 541.31,-162 579.82,-151.48 624.78,-147.57 659.13,-146.24"/>
<polygon fill="#b32851" stroke="#b32851" stroke-width="3" points="659.19,-149.74 669.08,-145.95 658.98,-142.75 659.19,-149.74"/>
</g>
<!-- GE 205&#45;&gt;ME 308 -->
<g id="edge33" class="edge">
<title>GE 205&#45;&gt;ME 308</title>
<path fill="none" stroke="#53377a" stroke-width="3" d="M508.6,-23.63C519.15,-21.3 530.6,-19.17 541.31,-18 587.59,-12.93 599.98,-11.33 646.06,-18 650.6,-18.66 655.27,-19.55 659.92,-20.6"/>
<polygon fill="#53377a" stroke="#53377a" stroke-width="3" points="658.74,-23.91 669.3,-22.99 660.48,-17.13 658.74,-23.91"/>
</g>
<!-- GE 205&#45;&gt;ME 370 -->
<g id="edge38" class="edge">
<title>GE 205&#45;&gt;ME 370</title>
<path fill="none" stroke="#53377a" stroke-width="3" d="M508.74,-52.12C550.07,-71.05 615.14,-100.86 660.85,-121.8"/>
<polygon fill="#53377a" stroke="#53377a" stroke-width="3" points="659.1,-124.85 669.65,-125.83 662.02,-118.48 659.1,-124.85"/>
</g>
<!-- GE 207 -->
<g id="node16" class="node">
<title>GE 207</title>
<polygon fill="white" stroke="white" points="508.43,-160 427.93,-160 427.93,-124 508.43,-124 508.43,-160"/>
<text text-anchor="start" x="435.93" y="-137.2" font-family="Helvetica,sans-Serif" baseline-shift="sub" font-size="14.00" fill="#6e6d6a">1</text>
<text text-anchor="start" x="442.68" y="-137.2" font-family="Helvetica,sans-Serif" font-size="14.00" fill="#5e5d87"> &#160;&#160;GE 207</text>
</g>
<!-- GE 206&#45;&gt;GE 207 -->
<g id="edge20" class="edge">
<title>GE 206&#45;&gt;GE 207</title>
<path fill="none" stroke="#817066" stroke-width="3" stroke-dasharray="5,2" d="M468.18,-106.14C468.18,-107.14 468.18,-108.13 468.18,-109.13"/>
<polygon fill="#817066" stroke="#817066" stroke-width="3" points="464.68,-108.97 468.18,-118.97 471.68,-108.97 464.68,-108.97"/>
</g>
<!-- GE 206&#45;&gt;ME 300 -->
<g id="edge22" class="edge">
<title>GE 206&#45;&gt;ME 300</title>
<path fill="none" stroke="#817066" stroke-width="3" d="M508.52,-106.48C512.97,-109.12 517.34,-111.98 521.31,-115 539.34,-128.72 556.69,-147.28 569.77,-162.73"/>
<polygon fill="#817066" stroke="#817066" stroke-width="3" points="566.94,-164.8 575.99,-170.31 572.35,-160.36 566.94,-164.8"/>
</g>
<!-- GE 206&#45;&gt;ME 303 -->
<g id="edge24" class="edge">
<title>GE 206&#45;&gt;ME 303</title>
<path fill="none" stroke="#817066" stroke-width="3" d="M508.68,-102.95C513.56,-106.26 517.98,-110.24 521.31,-115 561.82,-173.04 500.97,-214.84 541.31,-273 541.7,-273.56 542.1,-274.11 542.52,-274.64"/>
<polygon fill="#817066" stroke="#817066" stroke-width="3" points="539.99,-277.07 549.68,-281.35 544.77,-271.96 539.99,-277.07"/>
</g>
<!-- ME 302 -->
<g id="node23" class="node">
<title>ME 302</title>
<polygon fill="white" stroke="white" points="755.31,-110 674.06,-110 674.06,-74 755.31,-74 755.31,-110"/>
<text text-anchor="start" x="682.06" y="-87.2" font-family="Helvetica,sans-Serif" baseline-shift="sub" font-size="14.00" fill="#6e6d6a">3</text>
<text text-anchor="start" x="688.81" y="-87.2" font-family="Helvetica,sans-Serif" font-size="14.00" fill="#5e5d87"> &#160;&#160;ME 302</text>
</g>
<!-- GE 206&#45;&gt;ME 302 -->
<g id="edge32" class="edge">
<title>GE 206&#45;&gt;ME 302</title>
<path fill="none" stroke="#817066" stroke-width="3" d="M508.74,-88.65C549.63,-89.32 613.75,-90.37 659.37,-91.11"/>
<polygon fill="#817066" stroke="#817066" stroke-width="3" points="659.18,-94.61 669.24,-91.27 659.3,-87.61 659.18,-94.61"/>
</g>
<!-- GE 206&#45;&gt;ME 308 -->
<g id="edge34" class="edge">
<title>GE 206&#45;&gt;ME 308</title>
<path fill="none" stroke="#817066" stroke-width="3" d="M508.74,-79.91C549.72,-71.53 614.03,-58.38 659.67,-49.05"/>
<polygon fill="#817066" stroke="#817066" stroke-width="3" points="660.24,-52.5 669.33,-47.07 658.83,-45.64 660.24,-52.5"/>
</g>
<!-- ME 300L -->
<g id="node18" class="node">
<title>ME 300L</title>
<polygon fill="white" stroke="white" points="638.06,-264 549.31,-264 549.31,-228 638.06,-228 638.06,-264"/>
<text text-anchor="start" x="557.31" y="-241.2" font-family="Helvetica,sans-Serif" baseline-shift="sub" font-size="14.00" fill="#6e6d6a">1</text>
<text text-anchor="start" x="564.06" y="-241.2" font-family="Helvetica,sans-Serif" font-size="14.00" fill="#5e5d87"> &#160;&#160;ME 300L</text>
</g>
<!-- ME 300&#45;&gt;ME 300L -->
<g id="edge23" class="edge">
<title>ME 300&#45;&gt;ME 300L</title>
<path fill="none" stroke="#f6768e" stroke-width="3" stroke-dasharray="5,2" d="M593.68,-210.14C593.68,-211.14 593.68,-212.13 593.68,-213.13"/>
<polygon fill="#f6768e" stroke="#f6768e" stroke-width="3" points="590.18,-212.97 593.68,-222.97 597.18,-212.97 590.18,-212.97"/>
</g>
<!-- ME 300&#45;&gt;ME 302 -->
<!-- ME 316 -->
<g id="node20" class="node">
<title>ME 316</title>
<polygon fill="white" stroke="white" points="634.31,-480 553.06,-480 553.06,-444 634.31,-444 634.31,-480"/>
<text text-anchor="start" x="561.06" y="-457.2" font-family="Helvetica,sans-Serif" baseline-shift="sub" font-size="14.00" fill="#6e6d6a">2</text>
<text text-anchor="start" x="567.81" y="-457.2" font-family="Helvetica,sans-Serif" font-size="14.00" fill="#5e5d87"> &#160;&#160;ME 316</text>
</g>
<!-- ME 430 -->
<g id="node28" class="node">
<title>ME 430</title>
<polygon fill="white" stroke="white" points="876.31,-110 795.06,-110 795.06,-74 876.31,-74 876.31,-110"/>
<text text-anchor="start" x="803.06" y="-87.2" font-family="Helvetica,sans-Serif" baseline-shift="sub" font-size="14.00" fill="#6e6d6a">3</text>
<text text-anchor="start" x="809.81" y="-87.2" font-family="Helvetica,sans-Serif" font-size="14.00" fill="#5e5d87"> &#160;&#160;ME 430</text>
</g>
<!-- ME 340&#45;&gt;ME 430 -->
<g id="edge40" class="edge">
<title>ME 340&#45;&gt;ME 430</title>
<path fill="none" stroke="#f4c800" stroke-width="3" d="M634.56,-357.66C673.48,-358.82 731.36,-353.68 763.31,-318 792.96,-284.89 758.45,-155.84 783.31,-119 783.69,-118.44 784.09,-117.88 784.5,-117.34"/>
<polygon fill="#f4c800" stroke="#f4c800" stroke-width="3" points="786.75,-120.03 791.59,-110.6 781.93,-114.95 786.75,-120.03"/>
</g>
<!-- ME 345&#45;&gt;ME 316 -->
<g id="edge26" class="edge">
<title>ME 345&#45;&gt;ME 316</title>
<path fill="none" stroke="#ff7a5c" stroke-width="3" stroke-dasharray="5,2" d="M593.68,-426.14C593.68,-427.14 593.68,-428.13 593.68,-429.13"/>
<polygon fill="#ff7a5c" stroke="#ff7a5c" stroke-width="3" points="590.18,-428.97 593.68,-438.97 597.18,-428.97 590.18,-428.97"/>
</g>
<!-- ME 345&#45;&gt;ME 370 -->
<g id="edge37" class="edge">
<title>ME 345&#45;&gt;ME 370</title>
<path fill="none" stroke="#ff7a5c" stroke-width="3" d="M634.5,-392.53C638.99,-389.33 643.03,-385.52 646.06,-381 695.41,-307.52 622.94,-255.93 666.33,-176.37"/>
<polygon fill="#ff7a5c" stroke="#ff7a5c" stroke-width="3" points="669.03,-178.66 671.24,-168.3 663.05,-175.02 669.03,-178.66"/>
</g>
<!-- ME 302&#45;&gt;ME 430 -->
<!-- ME 498 -->
<g id="node30" class="node">
<title>ME 498</title>
<polygon fill="white" stroke="white" points="876.31,-164 795.06,-164 795.06,-128 876.31,-128 876.31,-164"/>
<text text-anchor="start" x="803.06" y="-141.2" font-family="Helvetica,sans-Serif" baseline-shift="sub" font-size="14.00" fill="#6e6d6a">3</text>
<text text-anchor="start" x="809.81" y="-141.2" font-family="Helvetica,sans-Serif" font-size="14.00" fill="#5e5d87"> &#160;&#160;ME 498</text>
</g>
<!-- ME 302&#45;&gt;ME 498 -->
<g id="edge43" class="edge">
<title>ME 302&#45;&gt;ME 498</title>
<path fill="none" stroke="#93aa00" stroke-width="3" d="M755.64,-110.13C763.98,-113.92 772.9,-117.96 781.63,-121.92"/>
<polygon fill="#93aa00" stroke="#93aa00" stroke-width="3" points="779.94,-125 790.5,-125.95 782.84,-118.63 779.94,-125"/>
</g>
<!-- ME 309 -->
<g id="node25" class="node">
<title>ME 309</title>
<polygon fill="white" stroke="white" points="755.31,-272 674.06,-272 674.06,-236 755.31,-236 755.31,-272"/>
<text text-anchor="start" x="682.06" y="-249.2" font-family="Helvetica,sans-Serif" baseline-shift="sub" font-size="14.00" fill="#6e6d6a">2</text>
<text text-anchor="start" x="688.81" y="-249.2" font-family="Helvetica,sans-Serif" font-size="14.00" fill="#5e5d87"> &#160;&#160;ME 309</text>
</g>
<!-- ME 308&#45;&gt;ME 309 -->
<g id="edge36" class="edge">
<title>ME 308&#45;&gt;ME 309</title>
<path fill="none" stroke="#ff8e00" stroke-width="3" d="M662.89,-63.59C660.11,-66.7 657.77,-70.16 656.06,-74 643.04,-103.23 643.04,-188.77 656.06,-218 657.77,-221.84 660.11,-225.3 662.89,-228.41"/>
<polygon fill="#ff8e00" stroke="#ff8e00" stroke-width="3" points="664.96,-66.42 670.24,-57.24 660.38,-61.13 664.96,-66.42"/>
<polygon fill="#ff8e00" stroke="#ff8e00" stroke-width="3" points="660.38,-230.87 670.24,-234.76 664.96,-225.58 660.38,-230.87"/>
</g>
<!-- ME 308&#45;&gt;ME 430 -->
<g id="edge41" class="edge">
<title>ME 308&#45;&gt;ME 430</title>
<path fill="none" stroke="#ff8e00" stroke-width="3" d="M755.64,-56.13C763.98,-59.92 772.9,-63.96 781.63,-67.92"/>
<polygon fill="#ff8e00" stroke="#ff8e00" stroke-width="3" points="779.94,-71 790.5,-71.95 782.84,-64.63 779.94,-71"/>
</g>
<!-- ME 350 -->
<g id="node26" class="node">
<title>ME 350</title>
<polygon fill="white" stroke="white" points="755.31,-218 674.06,-218 674.06,-182 755.31,-182 755.31,-218"/>
<text text-anchor="start" x="682.06" y="-195.2" font-family="Helvetica,sans-Serif" baseline-shift="sub" font-size="14.00" fill="#6e6d6a">3</text>
<text text-anchor="start" x="688.81" y="-195.2" font-family="Helvetica,sans-Serif" font-size="14.00" fill="#5e5d87"> &#160;&#160;ME 350</text>
</g>
<!-- ME 370&#45;&gt;ME 498 -->
<g id="edge44" class="edge">
<title>ME 370&#45;&gt;ME 498</title>
<path fill="none" stroke="#593315" stroke-width="3" d="M755.64,-146C763.59,-146 772.06,-146 780.39,-146"/>
<polygon fill="#593315" stroke="#593315" stroke-width="3" points="780.09,-149.5 790.09,-146 780.09,-142.5 780.09,-149.5"/>
</g>
<!-- ME 430&#45;&gt;ME 498 -->
<g id="edge45" class="edge">
<title>ME 430&#45;&gt;ME 498</title>
<path fill="none" stroke="#f13a13" stroke-width="3" stroke-dasharray="5,2" d="M835.68,-110.14C835.68,-111.14 835.68,-112.13 835.68,-113.13"/>
<polygon fill="#f13a13" stroke="#f13a13" stroke-width="3" points="832.18,-112.97 835.68,-122.97 839.18,-112.97 832.18,-112.97"/>
</g>
<!-- ME 499 -->
<g id="node32" class="node">
<title>ME 499</title>
<polygon fill="white" stroke="white" points="999.56,-137 918.31,-137 918.31,-101 999.56,-101 999.56,-137"/>
<text text-anchor="start" x="926.31" y="-114.2" font-family="Helvetica,sans-Serif" baseline-shift="sub" font-size="14.00" fill="#6e6d6a">3</text>
<text text-anchor="start" x="933.06" y="-114.2" font-family="Helvetica,sans-Serif" font-size="14.00" fill="#5e5d87"> &#160;&#160;ME 499</text>
</g>
<!-- ME 430&#45;&gt;ME 499 -->
<!-- ME 430L -->
<g id="node29" class="node">
<title>ME 430L</title>
<polygon fill="white" stroke="white" points="880.06,-56 791.31,-56 791.31,-20 880.06,-20 880.06,-56"/>
<text text-anchor="start" x="799.31" y="-33.2" font-family="Helvetica,sans-Serif" baseline-shift="sub" font-size="14.00" fill="#6e6d6a">2</text>
<text text-anchor="start" x="806.06" y="-33.2" font-family="Helvetica,sans-Serif" font-size="14.00" fill="#5e5d87"> &#160;&#160;ME 430L</text>
</g>
<!-- ME 430L&#45;&gt;ME 430 -->
<g id="edge42" class="edge">
<title>ME 430L&#45;&gt;ME 430</title>
<path fill="none" stroke="#7f180d" stroke-width="3" d="M835.68,-70.52C835.68,-70.65 835.68,-70.77 835.68,-70.9"/>
<polygon fill="#7f180d" stroke="#7f180d" stroke-width="3" points="839.18,-70.68 835.68,-60.68 832.18,-70.68 839.18,-70.68"/>
<polygon fill="#7f180d" stroke="#7f180d" stroke-width="3" points="832.18,-58.97 835.68,-68.97 839.18,-58.97 832.18,-58.97"/>
</g>
<!-- ME 498&#45;&gt;ME 499 -->
<g id="edge46" class="edge">
<title>ME 498&#45;&gt;ME 499</title>
<path fill="none" stroke="#232c16" stroke-width="3" d="M876.72,-137.08C885.41,-135.15 894.74,-133.07 903.88,-131.04"/>
<polygon fill="#232c16" stroke="#232c16" stroke-width="3" points="904.51,-134.48 913.51,-128.89 902.98,-127.65 904.51,-134.48"/>
</g>
<!-- ME El. 1 -->
<g id="node31" class="node">
<title>ME El. 1</title>
<polygon fill="white" stroke="white" points="878.56,-218 792.81,-218 792.81,-182 878.56,-182 878.56,-218"/>
<text text-anchor="start" x="800.81" y="-195.2" font-family="Helvetica,sans-Serif" baseline-shift="sub" font-size="14.00" fill="#6e6d6a">3</text>
<text text-anchor="start" x="807.56" y="-195.2" font-family="Helvetica,sans-Serif" font-size="14.00" fill="#5e5d87"> &#160;&#160;ME El. 1</text>
</g>
<!-- ME El. 2 -->
<g id="node33" class="node">
<title>ME El. 2</title>
<polygon fill="white" stroke="white" points="1001.81,-191 916.06,-191 916.06,-155 1001.81,-155 1001.81,-191"/>
<text text-anchor="start" x="924.06" y="-168.2" font-family="Helvetica,sans-Serif" baseline-shift="sub" font-size="14.00" fill="#6e6d6a">3</text>
<text text-anchor="start" x="930.81" y="-168.2" font-family="Helvetica,sans-Serif" font-size="14.00" fill="#5e5d87"> &#160;&#160;ME El. 2</text>
</g>
<!-- ME El. 3 -->
<g id="node34" class="node">
<title>ME El. 3</title>
<polygon fill="white" stroke="white" points="1001.81,-245 916.06,-245 916.06,-209 1001.81,-209 1001.81,-245"/>
<text text-anchor="start" x="924.06" y="-222.2" font-family="Helvetica,sans-Serif" baseline-shift="sub" font-size="14.00" fill="#6e6d6a">3</text>
<text text-anchor="start" x="930.81" y="-222.2" font-family="Helvetica,sans-Serif" font-size="14.00" fill="#5e5d87"> &#160;&#160;ME El. 3</text>
</g>
</g>
</svg>
