<?xml version="1.0" encoding="UTF-8" standalone="no"?>
<!DOCTYPE svg PUBLIC "-//W3C//DTD SVG 1.1//EN"
 "http://www.w3.org/Graphics/SVG/1.1/DTD/svg11.dtd">
<!-- Generated by graphviz version 2.40.1 (20161225.0304)
 -->
<!-- Title: %3 Pages: 1 -->
<svg width="1057pt" height="762pt"
 viewBox="0.00 0.00 1056.81 761.80" xmlns="http://www.w3.org/2000/svg" xmlns:xlink="http://www.w3.org/1999/xlink">
<g id="graph0" class="graph" transform="scale(1 1) rotate(0) translate(4 757.8002)">
<title>%3</title>
<polygon fill="#ffffff" stroke="transparent" points="-4,4 -4,-757.8002 1052.8068,-757.8002 1052.8068,4 -4,4"/>
<g id="clust1" class="cluster">
<title>cluster_0</title>
<polygon fill="#cecdc9" stroke="#cecdc9" points="24.3088,-225.8002 24.3088,-419.8002 139.3381,-419.8002 139.3381,-225.8002 24.3088,-225.8002"/>
<text text-anchor="start" x="52.0422" y="-404.0002" font-family="Helvetica,sans-Serif" font-weight="bold" font-size="16.00" fill="#000000">term: 1F</text>
<text text-anchor="start" x="73.4885" y="-392.8002" font-family="Helvetica,sans-Serif" font-size="10.00" fill="#6e6d6a">9 cr</text>
</g>
<g id="clust2" class="cluster">
<title>cluster_1</title>
<polygon fill="#cecdc9" stroke="#cecdc9" points="159.3381,-252.8002 159.3381,-500.8002 274.3674,-500.8002 274.3674,-252.8002 159.3381,-252.8002"/>
<text text-anchor="start" x="186.6222" y="-485.0002" font-family="Helvetica,sans-Serif" font-weight="bold" font-size="16.00" fill="#000000">term: 1S</text>
<text text-anchor="start" x="205.737" y="-473.8002" font-family="Helvetica,sans-Serif" font-size="10.00" fill="#6e6d6a">12 cr</text>
</g>
<g id="clust3" class="cluster">
<title>cluster_2</title>
<polygon fill="#cecdc9" stroke="#cecdc9" points="294.3674,-36.8002 294.3674,-338.8002 412.7394,-338.8002 412.7394,-36.8002 294.3674,-36.8002"/>
<text text-anchor="start" x="323.7722" y="-323.0002" font-family="Helvetica,sans-Serif" font-weight="bold" font-size="16.00" fill="#000000">term: 2F</text>
<text text-anchor="start" x="342.4377" y="-311.8002" font-family="Helvetica,sans-Serif" font-size="10.00" fill="#6e6d6a">14 cr</text>
</g>
<g id="clust4" class="cluster">
<title>cluster_3</title>
<polygon fill="#cecdc9" stroke="#cecdc9" points="432.7394,-452.8002 432.7394,-700.8002 541.7668,-700.8002 541.7668,-452.8002 432.7394,-452.8002"/>
<text text-anchor="start" x="457.0226" y="-685.0002" font-family="Helvetica,sans-Serif" font-weight="bold" font-size="16.00" fill="#000000">term: 2S</text>
<text text-anchor="start" x="476.1374" y="-673.8002" font-family="Helvetica,sans-Serif" font-size="10.00" fill="#6e6d6a">10 cr</text>
</g>
<g id="clust5" class="cluster">
<title>cluster_4</title>
<polygon fill="#cecdc9" stroke="#cecdc9" points="561.7668,-62.8002 561.7668,-472.8002 669.256,-472.8002 669.256,-62.8002 561.7668,-62.8002"/>
<text text-anchor="start" x="585.7302" y="-457.0002" font-family="Helvetica,sans-Serif" font-weight="bold" font-size="16.00" fill="#000000">term: 3F</text>
<text text-anchor="start" x="604.3957" y="-445.8002" font-family="Helvetica,sans-Serif" font-size="10.00" fill="#6e6d6a">17 cr</text>
</g>
<g id="clust6" class="cluster">
<title>cluster_5</title>
<polygon fill="#cecdc9" stroke="#cecdc9" points="689.256,-443.8002 689.256,-745.8002 788.9592,-745.8002 788.9592,-443.8002 689.256,-443.8002"/>
<text text-anchor="start" x="708.8771" y="-730.0002" font-family="Helvetica,sans-Serif" font-weight="bold" font-size="16.00" fill="#000000">term: 3S</text>
<text text-anchor="start" x="727.9919" y="-718.8002" font-family="Helvetica,sans-Serif" font-size="10.00" fill="#6e6d6a">13 cr</text>
</g>
<g id="clust7" class="cluster">
<title>cluster_6</title>
<polygon fill="#cecdc9" stroke="#cecdc9" points="808.9592,-328.8002 808.9592,-630.8002 916.4484,-630.8002 916.4484,-328.8002 808.9592,-328.8002"/>
<text text-anchor="start" x="832.9225" y="-615.0002" font-family="Helvetica,sans-Serif" font-weight="bold" font-size="16.00" fill="#000000">term: 4F</text>
<text text-anchor="start" x="851.5881" y="-603.8002" font-family="Helvetica,sans-Serif" font-size="10.00" fill="#6e6d6a">13 cr</text>
</g>
<g id="clust8" class="cluster">
<title>cluster_7</title>
<polygon fill="#cecdc9" stroke="#cecdc9" points="936.4484,-355.8002 936.4484,-603.8002 1040.8068,-603.8002 1040.8068,-355.8002 936.4484,-355.8002"/>
<text text-anchor="start" x="958.3972" y="-588.0002" font-family="Helvetica,sans-Serif" font-weight="bold" font-size="16.00" fill="#000000">term: 4S</text>
<text text-anchor="start" x="977.5119" y="-576.8002" font-family="Helvetica,sans-Serif" font-size="10.00" fill="#6e6d6a">12 cr</text>
</g>
<!-- PHY 171 -->
<g id="node1" class="node">
<title>PHY 171</title>
<polygon fill="#ffffff" stroke="#ffffff" points="127.5669,-269.8002 36.0799,-269.8002 36.0799,-233.8002 127.5669,-233.8002 127.5669,-269.8002"/>
<text text-anchor="start" x="44.2018" y="-248.6002" font-family="Helvetica,sans-Serif" baseline-shift="sub" font-size="14.00" fill="#6e6d6a">4</text>
<text text-anchor="start" x="51.988" y="-248.6002" font-family="Helvetica,sans-Serif" font-size="14.00" fill="#5e5d87"> &#160;&#160;PHY 171</text>
</g>
<!-- PHY 171L -->
<g id="node2" class="node">
<title>PHY 171L</title>
<polygon fill="#ffffff" stroke="#ffffff" points="131.3527,-323.8002 32.2941,-323.8002 32.2941,-287.8002 131.3527,-287.8002 131.3527,-323.8002"/>
<text text-anchor="start" x="40.3088" y="-302.6002" font-family="Helvetica,sans-Serif" baseline-shift="sub" font-size="14.00" fill="#6e6d6a">1</text>
<text text-anchor="start" x="48.0949" y="-302.6002" font-family="Helvetica,sans-Serif" font-size="14.00" fill="#5e5d87"> &#160;&#160;PHY 171L</text>
</g>
<!-- PHY 171&#45;&gt;PHY 171L -->
<g id="edge37" class="edge">
<title>PHY 171&#45;&gt;PHY 171L</title>
<path fill="none" stroke="#b32851" stroke-width="3" d="M81.8234,-280.1445C81.8234,-280.2996 81.8234,-280.4548 81.8234,-280.6099"/>
<polygon fill="#b32851" stroke="#b32851" stroke-width="3" points="85.3235,-279.9408 81.8234,-269.9409 78.3235,-279.9409 85.3235,-279.9408"/>
<polygon fill="#b32851" stroke="#b32851" stroke-width="3" points="78.3236,-277.5904 81.8234,-287.5904 85.3236,-277.5905 78.3236,-277.5904"/>
</g>
<!-- PHY 172L -->
<g id="node4" class="node">
<title>PHY 172L</title>
<polygon fill="#ffffff" stroke="#ffffff" points="266.382,-296.8002 167.3234,-296.8002 167.3234,-260.8002 266.382,-260.8002 266.382,-296.8002"/>
<text text-anchor="start" x="175.3381" y="-275.6002" font-family="Helvetica,sans-Serif" baseline-shift="sub" font-size="14.00" fill="#6e6d6a">1</text>
<text text-anchor="start" x="183.1242" y="-275.6002" font-family="Helvetica,sans-Serif" font-size="14.00" fill="#5e5d87"> &#160;&#160;PHY 172L</text>
</g>
<!-- PHY 171&#45;&gt;PHY 172L -->
<!-- GE 104 -->
<g id="node6" class="node">
<title>GE 104</title>
<polygon fill="#ffffff" stroke="#ffffff" points="258.2834,-458.8002 175.422,-458.8002 175.422,-422.8002 258.2834,-422.8002 258.2834,-458.8002"/>
<text text-anchor="start" x="183.3874" y="-437.6002" font-family="Helvetica,sans-Serif" baseline-shift="sub" font-size="14.00" fill="#6e6d6a">3</text>
<text text-anchor="start" x="191.1735" y="-437.6002" font-family="Helvetica,sans-Serif" font-size="14.00" fill="#5e5d87"> &#160;&#160;GE 104</text>
</g>
<!-- PHY 171&#45;&gt;GE 104 -->
<g id="edge40" class="edge">
<title>PHY 171&#45;&gt;GE 104</title>
<path fill="none" stroke="#b32851" stroke-width="3" d="M127.4963,-267.7044C132.0145,-270.7973 136.1124,-274.4632 139.3381,-278.8002 175.5358,-327.4699 123.1404,-365.1305 159.3381,-413.8002 161.4765,-416.6755 163.9983,-419.2557 166.7717,-421.5696"/>
<polygon fill="#b32851" stroke="#b32851" stroke-width="3" points="164.9404,-424.5595 175.1449,-427.409 168.9446,-418.8179 164.9404,-424.5595"/>
</g>
<!-- GE 204 -->
<g id="node8" class="node">
<title>GE 204</title>
<polygon fill="#ffffff" stroke="#ffffff" points="394.9841,-242.8002 312.1227,-242.8002 312.1227,-206.8002 394.9841,-206.8002 394.9841,-242.8002"/>
<text text-anchor="start" x="320.0881" y="-221.6002" font-family="Helvetica,sans-Serif" baseline-shift="sub" font-size="14.00" fill="#6e6d6a">3</text>
<text text-anchor="start" x="327.8742" y="-221.6002" font-family="Helvetica,sans-Serif" font-size="14.00" fill="#5e5d87"> &#160;&#160;GE 204</text>
</g>
<!-- PHY 171&#45;&gt;GE 204 -->
<g id="edge25" class="edge">
<title>PHY 171&#45;&gt;GE 204</title>
<path fill="none" stroke="#b32851" stroke-width="3" d="M115.9735,-233.7546C129.146,-227.7417 144.5771,-221.8115 159.3381,-218.8002 206.823,-209.1131 262.1757,-212.188 301.6115,-216.752"/>
<polygon fill="#b32851" stroke="#b32851" stroke-width="3" points="301.4329,-220.2563 311.7854,-218.0031 302.2874,-213.3086 301.4329,-220.2563"/>
</g>
<!-- MTH 171 -->
<g id="node3" class="node">
<title>MTH 171</title>
<polygon fill="#ffffff" stroke="#ffffff" points="128.3508,-377.8002 35.2961,-377.8002 35.2961,-341.8002 128.3508,-341.8002 128.3508,-377.8002"/>
<text text-anchor="start" x="43.3097" y="-356.6002" font-family="Helvetica,sans-Serif" baseline-shift="sub" font-size="14.00" fill="#6e6d6a">4</text>
<text text-anchor="start" x="51.0959" y="-356.6002" font-family="Helvetica,sans-Serif" font-size="14.00" fill="#5e5d87"> &#160;&#160;MTH 171</text>
</g>
<!-- MTH 171&#45;&gt;PHY 171 -->
<g id="edge31" class="edge">
<title>MTH 171&#45;&gt;PHY 171</title>
<path fill="none" stroke="#ff8e00" stroke-width="3" stroke-dasharray="5,2" d="M35.2304,-347.5004C23.801,-342.1494 12.9517,-334.5488 6.3088,-323.8002 -2.1029,-310.1898 -2.1029,-301.4107 6.3088,-287.8002 11.3524,-279.6394 18.8209,-273.2932 27.127,-268.3685"/>
<polygon fill="#ff8e00" stroke="#ff8e00" stroke-width="3" points="28.7688,-271.4597 36.0196,-263.7346 25.5339,-265.252 28.7688,-271.4597"/>
</g>
<!-- MTH 171&#45;&gt;GE 104 -->
<g id="edge39" class="edge">
<title>MTH 171&#45;&gt;GE 104</title>
<path fill="none" stroke="#ff8e00" stroke-width="3" d="M105.5688,-377.9148C120.5673,-388.9553 140.5902,-402.9739 159.3381,-413.8002 161.8456,-415.2482 164.4436,-416.6832 167.0871,-418.0925"/>
<polygon fill="#ff8e00" stroke="#ff8e00" stroke-width="3" points="165.6912,-421.3102 176.1854,-422.7672 168.8903,-415.084 165.6912,-421.3102"/>
</g>
<!-- MTH 172 -->
<g id="node7" class="node">
<title>MTH 172</title>
<polygon fill="#ffffff" stroke="#ffffff" points="263.3801,-350.8002 170.3254,-350.8002 170.3254,-314.8002 263.3801,-314.8002 263.3801,-350.8002"/>
<text text-anchor="start" x="178.339" y="-329.6002" font-family="Helvetica,sans-Serif" baseline-shift="sub" font-size="14.00" fill="#6e6d6a">4</text>
<text text-anchor="start" x="186.1252" y="-329.6002" font-family="Helvetica,sans-Serif" font-size="14.00" fill="#5e5d87"> &#160;&#160;MTH 172</text>
</g>
<!-- MTH 171&#45;&gt;MTH 172 -->
<g id="edge50" class="edge">
<title>MTH 171&#45;&gt;MTH 172</title>
<path fill="none" stroke="#ff8e00" stroke-width="3" d="M128.6712,-350.4327C138.8305,-348.4013 149.6808,-346.2317 160.1727,-344.1338"/>
<polygon fill="#ff8e00" stroke="#ff8e00" stroke-width="3" points="160.9682,-347.5441 170.0878,-342.1512 159.5956,-340.68 160.9682,-347.5441"/>
</g>
<!-- MTH 171&#45;&gt;GE 204 -->
<g id="edge24" class="edge">
<title>MTH 171&#45;&gt;GE 204</title>
<path fill="none" stroke="#ff8e00" stroke-width="3" d="M128.5243,-342.6656C132.5668,-339.8342 136.2756,-336.5656 139.3381,-332.8002 163.5532,-303.0275 130.7406,-274.3927 159.3381,-248.8002 179.7664,-230.5185 251.6203,-225.7486 301.9443,-224.7202"/>
<polygon fill="#ff8e00" stroke="#ff8e00" stroke-width="3" points="302.0727,-228.2186 312.0149,-224.5577 301.9597,-221.2195 302.0727,-228.2186"/>
</g>
<!-- PHY 172L&#45;&gt;GE 204 -->
<!-- PHY 172 -->
<g id="node5" class="node">
<title>PHY 172</title>
<polygon fill="#ffffff" stroke="#ffffff" points="262.5962,-404.8002 171.1092,-404.8002 171.1092,-368.8002 262.5962,-368.8002 262.5962,-404.8002"/>
<text text-anchor="start" x="179.2311" y="-383.6002" font-family="Helvetica,sans-Serif" baseline-shift="sub" font-size="14.00" fill="#6e6d6a">4</text>
<text text-anchor="start" x="187.0173" y="-383.6002" font-family="Helvetica,sans-Serif" font-size="14.00" fill="#5e5d87"> &#160;&#160;PHY 172</text>
</g>
<!-- PHY 172&#45;&gt;PHY 172L -->
<g id="edge29" class="edge">
<title>PHY 172&#45;&gt;PHY 172L</title>
<path fill="none" stroke="#803e75" stroke-width="3" d="M162.4563,-367.1077C156.9041,-362.693 152.2428,-357.3225 149.3381,-350.8002 142.8287,-336.1842 142.8287,-329.4162 149.3381,-314.8002 151.6349,-309.6431 155.0298,-305.2061 159.0951,-301.3922"/>
<polygon fill="#803e75" stroke="#803e75" stroke-width="3" points="160.871,-370.2584 171.1274,-372.9149 164.7662,-364.4423 160.871,-370.2584"/>
<polygon fill="#803e75" stroke="#803e75" stroke-width="3" points="161.3204,-304.0952 167.0439,-295.1793 157.0096,-298.58 161.3204,-304.0952"/>
</g>
<!-- ME 315 -->
<g id="node17" class="node">
<title>ME 315</title>
<polygon fill="#ffffff" stroke="#ffffff" points="657.2151,-268.8002 573.8078,-268.8002 573.8078,-232.8002 657.2151,-232.8002 657.2151,-268.8002"/>
<text text-anchor="start" x="581.6598" y="-247.6002" font-family="Helvetica,sans-Serif" baseline-shift="sub" font-size="14.00" fill="#6e6d6a">3</text>
<text text-anchor="start" x="589.446" y="-247.6002" font-family="Helvetica,sans-Serif" font-size="14.00" fill="#5e5d87"> &#160;&#160;ME 315</text>
</g>
<!-- PHY 172&#45;&gt;ME 315 -->
<g id="edge8" class="edge">
<title>PHY 172&#45;&gt;ME 315</title>
<path fill="none" stroke="#803e75" stroke-width="3" d="M262.6798,-400.1712C331.8908,-417.2998 463.3136,-437.4303 541.7668,-370.8002 573.9915,-343.4319 535.8941,-311.2376 561.7668,-277.8002 562.9889,-276.2208 564.3283,-274.7267 565.7608,-273.3139"/>
<polygon fill="#803e75" stroke="#803e75" stroke-width="3" points="568.0635,-275.9522 573.5854,-266.91 563.63,-270.5351 568.0635,-275.9522"/>
</g>
<!-- ME 340 -->
<g id="node22" class="node">
<title>ME 340</title>
<polygon fill="#ffffff" stroke="#ffffff" points="657.2151,-106.8002 573.8078,-106.8002 573.8078,-70.8002 657.2151,-70.8002 657.2151,-106.8002"/>
<text text-anchor="start" x="581.6598" y="-85.6002" font-family="Helvetica,sans-Serif" baseline-shift="sub" font-size="14.00" fill="#6e6d6a">3</text>
<text text-anchor="start" x="589.446" y="-85.6002" font-family="Helvetica,sans-Serif" font-size="14.00" fill="#5e5d87"> &#160;&#160;ME 340</text>
</g>
<!-- PHY 172&#45;&gt;ME 340 -->
<g id="edge44" class="edge">
<title>PHY 172&#45;&gt;ME 340</title>
<path fill="none" stroke="#803e75" stroke-width="3" d="M262.7041,-386.069C305.0691,-383.3144 368.0288,-373.7446 412.7394,-342.8002 511.9776,-274.1173 471.6486,-196.0765 561.7668,-115.8002 562.912,-114.7801 564.1027,-113.7882 565.3299,-112.8245"/>
<polygon fill="#803e75" stroke="#803e75" stroke-width="3" points="567.661,-115.4661 573.8639,-106.8768 563.6585,-109.7232 567.661,-115.4661"/>
</g>
<!-- ME 345 -->
<g id="node23" class="node">
<title>ME 345</title>
<polygon fill="#ffffff" stroke="#ffffff" points="657.2151,-160.8002 573.8078,-160.8002 573.8078,-124.8002 657.2151,-124.8002 657.2151,-160.8002"/>
<text text-anchor="start" x="581.6598" y="-139.6002" font-family="Helvetica,sans-Serif" baseline-shift="sub" font-size="14.00" fill="#6e6d6a">3</text>
<text text-anchor="start" x="589.446" y="-139.6002" font-family="Helvetica,sans-Serif" font-size="14.00" fill="#5e5d87"> &#160;&#160;ME 345</text>
</g>
<!-- PHY 172&#45;&gt;ME 345 -->
<g id="edge49" class="edge">
<title>PHY 172&#45;&gt;ME 345</title>
<path fill="none" stroke="#803e75" stroke-width="3" d="M262.4902,-400.9397C332.6617,-419.5399 466.7799,-442.1305 541.7668,-370.8002 574.2899,-339.8631 536.3396,-206.7911 561.7668,-169.8002 562.9424,-168.09 564.2594,-166.4826 565.6888,-164.9723"/>
<polygon fill="#803e75" stroke="#803e75" stroke-width="3" points="568.2925,-167.3522 573.6375,-158.2044 563.7545,-162.0224 568.2925,-167.3522"/>
</g>
<!-- ME 350 -->
<g id="node28" class="node">
<title>ME 350</title>
<polygon fill="#ffffff" stroke="#ffffff" points="780.8113,-703.8002 697.404,-703.8002 697.404,-667.8002 780.8113,-667.8002 780.8113,-703.8002"/>
<text text-anchor="start" x="705.256" y="-682.6002" font-family="Helvetica,sans-Serif" baseline-shift="sub" font-size="14.00" fill="#6e6d6a">3</text>
<text text-anchor="start" x="713.0422" y="-682.6002" font-family="Helvetica,sans-Serif" font-size="14.00" fill="#5e5d87"> &#160;&#160;ME 350</text>
</g>
<!-- GE 104&#45;&gt;ME 350 -->
<g id="edge51" class="edge">
<title>GE 104&#45;&gt;ME 350</title>
<path fill="none" stroke="#ffb300" stroke-width="3" d="M224.7044,-458.8686C247.7895,-509.3765 320.9238,-651.7955 432.7394,-704.8002 515.1304,-743.8566 624.2406,-722.2195 687.5517,-703.5716"/>
<polygon fill="#ffb300" stroke="#ffb300" stroke-width="3" points="688.7537,-706.8645 697.3084,-700.6141 686.723,-700.1655 688.7537,-706.8645"/>
</g>
<!-- MTH 172&#45;&gt;PHY 172 -->
<g id="edge30" class="edge">
<title>MTH 172&#45;&gt;PHY 172</title>
<path fill="none" stroke="#7f180d" stroke-width="3" stroke-dasharray="5,2" d="M216.8527,-350.9409C216.8527,-353.4228 216.8527,-355.9048 216.8527,-358.3868"/>
<polygon fill="#7f180d" stroke="#7f180d" stroke-width="3" points="213.3528,-358.5904 216.8527,-368.5904 220.3528,-358.5904 213.3528,-358.5904"/>
</g>
<!-- MTH 322 -->
<g id="node11" class="node">
<title>MTH 322</title>
<polygon fill="#ffffff" stroke="#ffffff" points="400.0808,-80.8002 307.0261,-80.8002 307.0261,-44.8002 400.0808,-44.8002 400.0808,-80.8002"/>
<text text-anchor="start" x="315.0397" y="-59.6002" font-family="Helvetica,sans-Serif" baseline-shift="sub" font-size="14.00" fill="#6e6d6a">3</text>
<text text-anchor="start" x="322.8259" y="-59.6002" font-family="Helvetica,sans-Serif" font-size="14.00" fill="#5e5d87"> &#160;&#160;MTH 322</text>
</g>
<!-- MTH 172&#45;&gt;MTH 322 -->
<g id="edge42" class="edge">
<title>MTH 172&#45;&gt;MTH 322</title>
<path fill="none" stroke="#7f180d" stroke-width="3" d="M263.5779,-316.4858C267.727,-313.4853 271.4518,-309.9531 274.3674,-305.8002 329.7645,-226.8941 238.5403,-168.4028 294.3674,-89.8002 295.7223,-87.8925 297.2457,-86.1167 298.9012,-84.4639"/>
<polygon fill="#7f180d" stroke="#7f180d" stroke-width="3" points="301.3344,-86.9969 306.8947,-77.9785 296.924,-81.5611 301.3344,-86.9969"/>
</g>
<!-- MTH 271 -->
<g id="node12" class="node">
<title>MTH 271</title>
<polygon fill="#ffffff" stroke="#ffffff" points="400.0808,-296.8002 307.0261,-296.8002 307.0261,-260.8002 400.0808,-260.8002 400.0808,-296.8002"/>
<text text-anchor="start" x="315.0397" y="-275.6002" font-family="Helvetica,sans-Serif" baseline-shift="sub" font-size="14.00" fill="#6e6d6a">3</text>
<text text-anchor="start" x="322.8259" y="-275.6002" font-family="Helvetica,sans-Serif" font-size="14.00" fill="#5e5d87"> &#160;&#160;MTH 271</text>
</g>
<!-- MTH 172&#45;&gt;MTH 271 -->
<g id="edge46" class="edge">
<title>MTH 172&#45;&gt;MTH 271</title>
<path fill="none" stroke="#7f180d" stroke-width="3" d="M262.7524,-314.6688C274.1361,-310.1719 286.4546,-305.3058 298.2365,-300.6517"/>
<polygon fill="#7f180d" stroke="#7f180d" stroke-width="3" points="299.5275,-303.905 307.5422,-296.9757 296.9557,-297.3946 299.5275,-303.905"/>
</g>
<!-- MTH 353 -->
<g id="node16" class="node">
<title>MTH 353</title>
<polygon fill="#ffffff" stroke="#ffffff" points="533.7805,-658.8002 440.7258,-658.8002 440.7258,-622.8002 533.7805,-622.8002 533.7805,-658.8002"/>
<text text-anchor="start" x="448.7394" y="-637.6002" font-family="Helvetica,sans-Serif" baseline-shift="sub" font-size="14.00" fill="#6e6d6a">3</text>
<text text-anchor="start" x="456.5256" y="-637.6002" font-family="Helvetica,sans-Serif" font-size="14.00" fill="#5e5d87"> &#160;&#160;MTH 353</text>
</g>
<!-- MTH 172&#45;&gt;MTH 353 -->
<g id="edge47" class="edge">
<title>MTH 172&#45;&gt;MTH 353</title>
<path fill="none" stroke="#7f180d" stroke-width="3" d="M262.0959,-350.874C266.4715,-353.5332 270.6555,-356.5045 274.3674,-359.8002 373.848,-448.1287 334.1901,-524.4339 432.7394,-613.8002 433.8641,-614.8201 435.0343,-615.8105 436.2415,-616.7717"/>
<polygon fill="#7f180d" stroke="#7f180d" stroke-width="3" points="434.4601,-619.7979 444.6524,-622.6905 438.4886,-614.0732 434.4601,-619.7979"/>
</g>
<!-- GE 205 -->
<g id="node13" class="node">
<title>GE 205</title>
<polygon fill="#ffffff" stroke="#ffffff" points="528.6838,-604.8002 445.8224,-604.8002 445.8224,-568.8002 528.6838,-568.8002 528.6838,-604.8002"/>
<text text-anchor="start" x="453.7878" y="-583.6002" font-family="Helvetica,sans-Serif" baseline-shift="sub" font-size="14.00" fill="#6e6d6a">3</text>
<text text-anchor="start" x="461.5739" y="-583.6002" font-family="Helvetica,sans-Serif" font-size="14.00" fill="#5e5d87"> &#160;&#160;GE 205</text>
</g>
<!-- GE 204&#45;&gt;GE 205 -->
<!-- GE 204&#45;&gt;GE 205 -->
<g id="edge26" class="edge">
<title>GE 204&#45;&gt;GE 205</title>
<path fill="none" stroke="#f4c800" stroke-width="3" d="M390.2014,-242.9399C398.9325,-247.2666 407.2886,-252.8979 412.7394,-260.8002 451.6838,-317.2603 394.7001,-511.7266 432.7394,-568.8002 434.2001,-570.9918 435.8935,-573.0126 437.7604,-574.8669"/>
<polygon fill="#f4c800" stroke="#f4c800" stroke-width="3" points="435.6971,-577.6981 445.696,-581.2013 440.0641,-572.2274 435.6971,-577.6981"/>
</g>
<!-- GE 206 -->
<g id="node14" class="node">
<title>GE 206</title>
<polygon fill="#ffffff" stroke="#ffffff" points="528.6838,-496.8002 445.8224,-496.8002 445.8224,-460.8002 528.6838,-460.8002 528.6838,-496.8002"/>
<text text-anchor="start" x="453.7878" y="-475.6002" font-family="Helvetica,sans-Serif" baseline-shift="sub" font-size="14.00" fill="#6e6d6a">3</text>
<text text-anchor="start" x="461.5739" y="-475.6002" font-family="Helvetica,sans-Serif" font-size="14.00" fill="#5e5d87"> &#160;&#160;GE 206</text>
</g>
<!-- GE 204&#45;&gt;GE 206 -->
<g id="edge27" class="edge">
<title>GE 204&#45;&gt;GE 206</title>
<path fill="none" stroke="#f4c800" stroke-width="3" d="M395.0548,-238.3267C401.6188,-241.8966 407.8439,-246.3298 412.7394,-251.8002 464.4476,-309.5812 480.3714,-404.0196 485.1998,-450.7681"/>
<polygon fill="#f4c800" stroke="#f4c800" stroke-width="3" points="481.7206,-451.1544 486.1379,-460.7845 488.6901,-450.5017 481.7206,-451.1544"/>
</g>
<!-- CHM 145 -->
<g id="node9" class="node">
<title>CHM 145</title>
<polygon fill="#ffffff" stroke="#ffffff" points="400.6402,-134.8002 306.4666,-134.8002 306.4666,-98.8002 400.6402,-98.8002 400.6402,-134.8002"/>
<text text-anchor="start" x="314.2604" y="-113.6002" font-family="Helvetica,sans-Serif" baseline-shift="sub" font-size="14.00" fill="#6e6d6a">4</text>
<text text-anchor="start" x="322.0466" y="-113.6002" font-family="Helvetica,sans-Serif" font-size="14.00" fill="#5e5d87"> &#160;&#160;CHM 145</text>
</g>
<!-- CHM 145L -->
<g id="node10" class="node">
<title>CHM 145L</title>
<polygon fill="#ffffff" stroke="#ffffff" points="404.9262,-188.8002 302.1807,-188.8002 302.1807,-152.8002 404.9262,-152.8002 404.9262,-188.8002"/>
<text text-anchor="start" x="310.3674" y="-167.6002" font-family="Helvetica,sans-Serif" baseline-shift="sub" font-size="14.00" fill="#6e6d6a">1</text>
<text text-anchor="start" x="318.1535" y="-167.6002" font-family="Helvetica,sans-Serif" font-size="14.00" fill="#5e5d87"> &#160;&#160;CHM 145L</text>
</g>
<!-- CHM 145&#45;&gt;CHM 145L -->
<g id="edge33" class="edge">
<title>CHM 145&#45;&gt;CHM 145L</title>
<path fill="none" stroke="#ff7a5c" stroke-width="3" stroke-dasharray="5,2" d="M353.5534,-134.9409C353.5534,-137.4228 353.5534,-139.9048 353.5534,-142.3868"/>
<polygon fill="#ff7a5c" stroke="#ff7a5c" stroke-width="3" points="350.0535,-142.5904 353.5534,-152.5904 357.0535,-142.5904 350.0535,-142.5904"/>
</g>
<!-- ME 303 -->
<g id="node19" class="node">
<title>ME 303</title>
<polygon fill="#ffffff" stroke="#ffffff" points="657.2151,-214.8002 573.8078,-214.8002 573.8078,-178.8002 657.2151,-178.8002 657.2151,-214.8002"/>
<text text-anchor="start" x="581.6598" y="-193.6002" font-family="Helvetica,sans-Serif" baseline-shift="sub" font-size="14.00" fill="#6e6d6a">3</text>
<text text-anchor="start" x="589.446" y="-193.6002" font-family="Helvetica,sans-Serif" font-size="14.00" fill="#5e5d87"> &#160;&#160;ME 303</text>
</g>
<!-- CHM 145&#45;&gt;ME 303 -->
<g id="edge20" class="edge">
<title>CHM 145&#45;&gt;ME 303</title>
<path fill="none" stroke="#ff7a5c" stroke-width="3" d="M400.6888,-131.195C446.621,-145.2224 516.2855,-166.4974 563.7385,-180.9892"/>
<polygon fill="#ff7a5c" stroke="#ff7a5c" stroke-width="3" points="562.9245,-184.4001 573.5107,-183.9736 564.9691,-177.7053 562.9245,-184.4001"/>
</g>
<!-- CHM 145&#45;&gt;ME 340 -->
<g id="edge43" class="edge">
<title>CHM 145&#45;&gt;ME 340</title>
<path fill="none" stroke="#ff7a5c" stroke-width="3" d="M400.6888,-111.7621C446.5249,-106.8628 515.9941,-99.4374 563.4404,-94.366"/>
<polygon fill="#ff7a5c" stroke="#ff7a5c" stroke-width="3" points="563.9394,-97.8327 573.5107,-93.2896 563.1954,-90.8723 563.9394,-97.8327"/>
</g>
<!-- MTH 322&#45;&gt;ME 340 -->
<g id="edge45" class="edge">
<title>MTH 322&#45;&gt;ME 340</title>
<path fill="none" stroke="#f6768e" stroke-width="3" stroke-dasharray="5,2" d="M400.0844,-67.4186C445.9705,-71.9729 515.9624,-78.9197 563.6216,-83.65"/>
<polygon fill="#f6768e" stroke="#f6768e" stroke-width="3" points="563.4367,-87.1488 573.7335,-84.6537 564.1282,-80.183 563.4367,-87.1488"/>
</g>
<!-- MTH 322&#45;&gt;ME 345 -->
<g id="edge48" class="edge">
<title>MTH 322&#45;&gt;ME 345</title>
<path fill="none" stroke="#f6768e" stroke-width="3" d="M400.2858,-79.8711C410.9121,-83.6002 422.1806,-87.4351 432.7394,-90.8002 476.5549,-104.7646 526.8447,-118.939 563.5673,-128.9544"/>
<polygon fill="#f6768e" stroke="#f6768e" stroke-width="3" points="562.9807,-132.4218 573.5485,-131.6654 564.8155,-125.6666 562.9807,-132.4218"/>
</g>
<!-- ME 430 -->
<g id="node29" class="node">
<title>ME 430</title>
<polygon fill="#ffffff" stroke="#ffffff" points="904.4074,-480.8002 821.0001,-480.8002 821.0001,-444.8002 904.4074,-444.8002 904.4074,-480.8002"/>
<text text-anchor="start" x="828.8522" y="-459.6002" font-family="Helvetica,sans-Serif" baseline-shift="sub" font-size="14.00" fill="#6e6d6a">3</text>
<text text-anchor="start" x="836.6384" y="-459.6002" font-family="Helvetica,sans-Serif" font-size="14.00" fill="#5e5d87"> &#160;&#160;ME 430</text>
</g>
<!-- MTH 322&#45;&gt;ME 430 -->
<g id="edge15" class="edge">
<title>MTH 322&#45;&gt;ME 430</title>
<path fill="none" stroke="#f6768e" stroke-width="3" d="M400.2272,-55.7619C477.3751,-45.169 627.1658,-29.3191 669.256,-58.8002 690.5603,-73.7224 680.2799,-89.3877 689.256,-113.8002 702.4285,-149.6253 783.4882,-407.3718 808.9592,-435.8002 810.1328,-437.1102 811.3847,-438.3646 812.6994,-439.5652"/>
<polygon fill="#f6768e" stroke="#f6768e" stroke-width="3" points="810.7647,-442.4942 820.8095,-445.8637 815.0584,-436.9657 810.7647,-442.4942"/>
</g>
<!-- ME 410 -->
<g id="node33" class="node">
<title>ME 410</title>
<polygon fill="#ffffff" stroke="#ffffff" points="904.4074,-372.8002 821.0001,-372.8002 821.0001,-336.8002 904.4074,-336.8002 904.4074,-372.8002"/>
<text text-anchor="start" x="828.8522" y="-351.6002" font-family="Helvetica,sans-Serif" baseline-shift="sub" font-size="14.00" fill="#6e6d6a">3</text>
<text text-anchor="start" x="836.6384" y="-351.6002" font-family="Helvetica,sans-Serif" font-size="14.00" fill="#5e5d87"> &#160;&#160;ME 410</text>
</g>
<!-- MTH 322&#45;&gt;ME 410 -->
<g id="edge53" class="edge">
<title>MTH 322&#45;&gt;ME 410</title>
<path fill="none" stroke="#f6768e" stroke-width="3" d="M387.254,-44.7502C400.9593,-38.3723 417.2055,-31.9942 432.7394,-28.8002 535.704,-7.6298 577.9083,23.214 669.256,-28.8002 785.1567,-94.7952 838.7862,-260.6014 856.1034,-326.833"/>
<polygon fill="#f6768e" stroke="#f6768e" stroke-width="3" points="852.7237,-327.7447 858.5749,-336.5773 859.5089,-326.0237 852.7237,-327.7447"/>
</g>
<!-- GE 205&#45;&gt;ME 315 -->
<!-- ME 308 -->
<g id="node24" class="node">
<title>ME 308</title>
<polygon fill="#ffffff" stroke="#ffffff" points="780.8113,-487.8002 697.404,-487.8002 697.404,-451.8002 780.8113,-451.8002 780.8113,-487.8002"/>
<text text-anchor="start" x="705.256" y="-466.6002" font-family="Helvetica,sans-Serif" baseline-shift="sub" font-size="14.00" fill="#6e6d6a">3</text>
<text text-anchor="start" x="713.0422" y="-466.6002" font-family="Helvetica,sans-Serif" font-size="14.00" fill="#5e5d87"> &#160;&#160;ME 308</text>
</g>
<!-- GE 205&#45;&gt;ME 308 -->
<g id="edge11" class="edge">
<title>GE 205&#45;&gt;ME 308</title>
<path fill="none" stroke="#c10020" stroke-width="3" d="M526.0534,-568.7754C570.4235,-548.1631 643.0992,-514.4013 691.024,-492.1377"/>
<polygon fill="#c10020" stroke="#c10020" stroke-width="3" points="692.6686,-495.2329 700.2632,-487.8456 689.7194,-488.8845 692.6686,-495.2329"/>
</g>
<!-- ME 370 -->
<g id="node25" class="node">
<title>ME 370</title>
<polygon fill="#ffffff" stroke="#ffffff" points="780.8113,-649.8002 697.404,-649.8002 697.404,-613.8002 780.8113,-613.8002 780.8113,-649.8002"/>
<text text-anchor="start" x="705.256" y="-628.6002" font-family="Helvetica,sans-Serif" baseline-shift="sub" font-size="14.00" fill="#6e6d6a">3</text>
<text text-anchor="start" x="713.0422" y="-628.6002" font-family="Helvetica,sans-Serif" font-size="14.00" fill="#5e5d87"> &#160;&#160;ME 370</text>
</g>
<!-- GE 205&#45;&gt;ME 370 -->
<g id="edge17" class="edge">
<title>GE 205&#45;&gt;ME 370</title>
<path fill="none" stroke="#c10020" stroke-width="3" d="M522.8032,-604.9195C534.8755,-610.2941 548.6365,-615.5953 561.7668,-618.8002 603.1203,-628.894 651.3756,-631.8858 687.1002,-632.4978"/>
<polygon fill="#c10020" stroke="#c10020" stroke-width="3" points="687.2553,-635.9997 697.2946,-632.614 687.3352,-629.0002 687.2553,-635.9997"/>
</g>
<!-- GE 205&#45;&gt;ME 410 -->
<g id="edge52" class="edge">
<title>GE 205&#45;&gt;ME 410</title>
<path fill="none" stroke="#c10020" stroke-width="3" d="M528.6842,-570.6624C533.5112,-567.5736 538.0346,-563.972 541.7668,-559.8002 559.1094,-540.4153 542.5313,-522.3085 561.7668,-504.8002 598.2753,-471.5699 630.4092,-507.2642 669.256,-476.8002 683.9655,-465.265 675.7771,-452.752 689.256,-439.8002 723.7719,-406.6343 773.723,-384.0272 811.1647,-370.5155"/>
<polygon fill="#c10020" stroke="#c10020" stroke-width="3" points="812.6028,-373.7203 820.8826,-367.11 810.2878,-367.1141 812.6028,-373.7203"/>
</g>
<!-- GE 207 -->
<g id="node15" class="node">
<title>GE 207</title>
<polygon fill="#ffffff" stroke="#ffffff" points="528.6838,-550.8002 445.8224,-550.8002 445.8224,-514.8002 528.6838,-514.8002 528.6838,-550.8002"/>
<text text-anchor="start" x="453.7878" y="-529.6002" font-family="Helvetica,sans-Serif" baseline-shift="sub" font-size="14.00" fill="#6e6d6a">1</text>
<text text-anchor="start" x="461.5739" y="-529.6002" font-family="Helvetica,sans-Serif" font-size="14.00" fill="#5e5d87"> &#160;&#160;GE 207</text>
</g>
<!-- GE 206&#45;&gt;GE 207 -->
<g id="edge28" class="edge">
<title>GE 206&#45;&gt;GE 207</title>
<path fill="none" stroke="#cea262" stroke-width="3" stroke-dasharray="5,2" d="M487.2531,-496.9409C487.2531,-499.4228 487.2531,-501.9048 487.2531,-504.3868"/>
<polygon fill="#cea262" stroke="#cea262" stroke-width="3" points="483.7532,-504.5904 487.2531,-514.5904 490.7532,-504.5904 483.7532,-504.5904"/>
</g>
<!-- GE 206&#45;&gt;ME 303 -->
<g id="edge19" class="edge">
<title>GE 206&#45;&gt;ME 303</title>
<path fill="none" stroke="#cea262" stroke-width="3" d="M528.5268,-460.6331C533.6992,-456.7601 538.3603,-452.1771 541.7668,-446.8002 595.0215,-362.741 505.7978,-306.0772 561.7668,-223.8002 562.9341,-222.0843 564.244,-220.472 565.6675,-218.9577"/>
<polygon fill="#cea262" stroke="#cea262" stroke-width="3" points="568.2718,-221.3358 573.5956,-212.1757 563.7215,-216.0166 568.2718,-221.3358"/>
</g>
<!-- ME 300 -->
<g id="node20" class="node">
<title>ME 300</title>
<polygon fill="#ffffff" stroke="#ffffff" points="657.2151,-376.8002 573.8078,-376.8002 573.8078,-340.8002 657.2151,-340.8002 657.2151,-376.8002"/>
<text text-anchor="start" x="581.6598" y="-355.6002" font-family="Helvetica,sans-Serif" baseline-shift="sub" font-size="14.00" fill="#6e6d6a">3</text>
<text text-anchor="start" x="589.446" y="-355.6002" font-family="Helvetica,sans-Serif" font-size="14.00" fill="#5e5d87"> &#160;&#160;ME 300</text>
</g>
<!-- GE 206&#45;&gt;ME 300 -->
<g id="edge23" class="edge">
<title>GE 206&#45;&gt;ME 300</title>
<path fill="none" stroke="#cea262" stroke-width="3" d="M526.3668,-460.6486C532.0977,-456.7062 537.4969,-452.0977 541.7668,-446.8002 559.6715,-424.5866 543.1468,-407.4179 561.7668,-385.8002 562.938,-384.4404 564.1943,-383.1415 565.5188,-381.9014"/>
<polygon fill="#cea262" stroke="#cea262" stroke-width="3" points="568.0462,-384.366 573.7354,-375.4282 563.7143,-378.8674 568.0462,-384.366"/>
</g>
<!-- GE 206&#45;&gt;ME 308 -->
<g id="edge12" class="edge">
<title>GE 206&#45;&gt;ME 308</title>
<path fill="none" stroke="#cea262" stroke-width="3" d="M528.852,-479.3931C565.7642,-479.6689 621.1406,-479.4702 669.256,-476.8002 675.0249,-476.4801 681.0526,-476.0385 687.0453,-475.5314"/>
<polygon fill="#cea262" stroke="#cea262" stroke-width="3" points="687.4023,-479.0135 697.0459,-474.626 686.771,-472.042 687.4023,-479.0135"/>
</g>
<!-- ME 302 -->
<g id="node26" class="node">
<title>ME 302</title>
<polygon fill="#ffffff" stroke="#ffffff" points="780.8113,-595.8002 697.404,-595.8002 697.404,-559.8002 780.8113,-559.8002 780.8113,-595.8002"/>
<text text-anchor="start" x="705.256" y="-574.6002" font-family="Helvetica,sans-Serif" baseline-shift="sub" font-size="14.00" fill="#6e6d6a">3</text>
<text text-anchor="start" x="713.0422" y="-574.6002" font-family="Helvetica,sans-Serif" font-size="14.00" fill="#5e5d87"> &#160;&#160;ME 302</text>
</g>
<!-- GE 206&#45;&gt;ME 302 -->
<g id="edge21" class="edge">
<title>GE 206&#45;&gt;ME 302</title>
<path fill="none" stroke="#cea262" stroke-width="3" d="M528.8418,-495.1481C572.368,-512.2575 640.7735,-539.1467 687.6666,-557.5796"/>
<polygon fill="#cea262" stroke="#cea262" stroke-width="3" points="686.4498,-560.8619 697.037,-561.263 689.0107,-554.3472 686.4498,-560.8619"/>
</g>
<!-- MTH 353&#45;&gt;ME 370 -->
<g id="edge18" class="edge">
<title>MTH 353&#45;&gt;ME 370</title>
<path fill="none" stroke="#00538a" stroke-width="3" stroke-dasharray="5,2" d="M533.9127,-652.3971C543.0904,-654.23 552.6882,-655.8365 561.7668,-656.8002 609.2729,-661.8432 622.1867,-664.9696 669.256,-656.8002 675.1909,-655.7702 681.2884,-654.2822 687.2912,-652.5379"/>
<polygon fill="#00538a" stroke="#00538a" stroke-width="3" points="688.7732,-655.7406 697.2584,-649.3962 686.6688,-649.0644 688.7732,-655.7406"/>
</g>
<!-- ME 316 -->
<g id="node18" class="node">
<title>ME 316</title>
<polygon fill="#ffffff" stroke="#ffffff" points="657.2151,-322.8002 573.8078,-322.8002 573.8078,-286.8002 657.2151,-286.8002 657.2151,-322.8002"/>
<text text-anchor="start" x="581.6598" y="-301.6002" font-family="Helvetica,sans-Serif" baseline-shift="sub" font-size="14.00" fill="#6e6d6a">1</text>
<text text-anchor="start" x="589.446" y="-301.6002" font-family="Helvetica,sans-Serif" font-size="14.00" fill="#5e5d87"> &#160;&#160;ME 316</text>
</g>
<!-- ME 315&#45;&gt;ME 316 -->
<g id="edge9" class="edge">
<title>ME 315&#45;&gt;ME 316</title>
<path fill="none" stroke="#ff6800" stroke-width="3" stroke-dasharray="5,2" d="M615.5114,-268.9409C615.5114,-271.4228 615.5114,-273.9048 615.5114,-276.3868"/>
<polygon fill="#ff6800" stroke="#ff6800" stroke-width="3" points="612.0115,-276.5904 615.5114,-286.5904 619.0115,-276.5904 612.0115,-276.5904"/>
</g>
<!-- ME 315&#45;&gt;ME 308 -->
<!-- ME 300L -->
<g id="node21" class="node">
<title>ME 300L</title>
<polygon fill="#ffffff" stroke="#ffffff" points="661.502,-430.8002 569.5208,-430.8002 569.5208,-394.8002 661.502,-394.8002 661.502,-430.8002"/>
<text text-anchor="start" x="577.7668" y="-409.6002" font-family="Helvetica,sans-Serif" baseline-shift="sub" font-size="14.00" fill="#6e6d6a">1</text>
<text text-anchor="start" x="585.5529" y="-409.6002" font-family="Helvetica,sans-Serif" font-size="14.00" fill="#5e5d87"> &#160;&#160;ME 300L</text>
</g>
<!-- ME 300&#45;&gt;ME 300L -->
<g id="edge32" class="edge">
<title>ME 300&#45;&gt;ME 300L</title>
<path fill="none" stroke="#93aa00" stroke-width="3" d="M615.5114,-387.1445C615.5114,-387.2996 615.5114,-387.4548 615.5114,-387.6099"/>
<polygon fill="#93aa00" stroke="#93aa00" stroke-width="3" points="619.0115,-386.9408 615.5114,-376.9409 612.0115,-386.9409 619.0115,-386.9408"/>
<polygon fill="#93aa00" stroke="#93aa00" stroke-width="3" points="612.0116,-384.5904 615.5114,-394.5904 619.0116,-384.5905 612.0116,-384.5904"/>
</g>
<!-- ME 340&#45;&gt;ME 430 -->
<g id="edge13" class="edge">
<title>ME 340&#45;&gt;ME 430</title>
<path fill="none" stroke="#817066" stroke-width="3" d="M657.2506,-103.9384C661.9304,-107.1938 666.1293,-111.1079 669.256,-115.8002 704.3387,-168.4498 651.1516,-349.2946 689.256,-399.8002 693.1566,-404.9702 761.3455,-428.7492 811.0426,-445.563"/>
<polygon fill="#817066" stroke="#817066" stroke-width="3" points="810.1167,-448.9444 820.7109,-448.8253 812.3548,-442.3118 810.1167,-448.9444"/>
</g>
<!-- ME 345&#45;&gt;ME 316 -->
<g id="edge10" class="edge">
<title>ME 345&#45;&gt;ME 316</title>
<path fill="none" stroke="#a6bdd7" stroke-width="3" stroke-dasharray="5,2" d="M573.7344,-156.5084C564.4664,-161.8191 556.1102,-169.0476 551.7668,-178.8002 543.63,-197.0702 543.63,-250.5302 551.7668,-268.8002 554.7529,-275.5052 559.6357,-281.0171 565.4074,-285.5329"/>
<polygon fill="#a6bdd7" stroke="#a6bdd7" stroke-width="3" points="563.4741,-288.4505 573.7344,-291.0921 567.3608,-282.6287 563.4741,-288.4505"/>
</g>
<!-- ME 345&#45;&gt;ME 370 -->
<g id="edge16" class="edge">
<title>ME 345&#45;&gt;ME 370</title>
<path fill="none" stroke="#a6bdd7" stroke-width="3" d="M657.3578,-157.8679C662.0209,-161.1342 666.1867,-165.0702 669.256,-169.8002 721.9308,-250.9764 637.8389,-522.8217 689.256,-604.8002 689.5175,-605.2172 689.7878,-605.6281 690.0665,-606.0331"/>
<polygon fill="#a6bdd7" stroke="#a6bdd7" stroke-width="3" points="687.6917,-608.6253 696.9947,-613.6952 692.8838,-603.9304 687.6917,-608.6253"/>
</g>
<!-- ME 309 -->
<g id="node27" class="node">
<title>ME 309</title>
<polygon fill="#ffffff" stroke="#ffffff" points="780.8113,-541.8002 697.404,-541.8002 697.404,-505.8002 780.8113,-505.8002 780.8113,-541.8002"/>
<text text-anchor="start" x="705.256" y="-520.6002" font-family="Helvetica,sans-Serif" baseline-shift="sub" font-size="14.00" fill="#6e6d6a">1</text>
<text text-anchor="start" x="713.0422" y="-520.6002" font-family="Helvetica,sans-Serif" font-size="14.00" fill="#5e5d87"> &#160;&#160;ME 309</text>
</g>
<!-- ME 308&#45;&gt;ME 309 -->
<g id="edge38" class="edge">
<title>ME 308&#45;&gt;ME 309</title>
<path fill="none" stroke="#007d34" stroke-width="3" d="M739.1076,-498.1445C739.1076,-498.2996 739.1076,-498.4548 739.1076,-498.6099"/>
<polygon fill="#007d34" stroke="#007d34" stroke-width="3" points="742.6077,-497.9408 739.1076,-487.9409 735.6077,-497.9409 742.6077,-497.9408"/>
<polygon fill="#007d34" stroke="#007d34" stroke-width="3" points="735.6077,-495.5904 739.1076,-505.5904 742.6077,-495.5905 735.6077,-495.5904"/>
</g>
<!-- ME 308&#45;&gt;ME 430 -->
<!-- ME 308&#45;&gt;ME 430 -->
<g id="edge14" class="edge">
<title>ME 308&#45;&gt;ME 430</title>
<path fill="none" stroke="#007d34" stroke-width="3" d="M780.9516,-473.8574C790.5153,-473.6357 800.7933,-473.1358 810.7241,-472.4179"/>
<polygon fill="#007d34" stroke="#007d34" stroke-width="3" points="811.2182,-475.8894 820.9029,-471.5932 810.6529,-468.9123 811.2182,-475.8894"/>
</g>
<!-- ME 498 -->
<g id="node30" class="node">
<title>ME 498</title>
<polygon fill="#ffffff" stroke="#ffffff" points="904.4074,-588.8002 821.0001,-588.8002 821.0001,-552.8002 904.4074,-552.8002 904.4074,-588.8002"/>
<text text-anchor="start" x="828.8522" y="-567.6002" font-family="Helvetica,sans-Serif" baseline-shift="sub" font-size="14.00" fill="#6e6d6a">3</text>
<text text-anchor="start" x="836.6384" y="-567.6002" font-family="Helvetica,sans-Serif" font-size="14.00" fill="#5e5d87"> &#160;&#160;ME 498</text>
</g>
<!-- ME 370&#45;&gt;ME 498 -->
<g id="edge35" class="edge">
<title>ME 370&#45;&gt;ME 498</title>
<path fill="none" stroke="#f13a13" stroke-width="3" d="M775.8559,-613.6634C788.691,-607.3287 803.2614,-600.1376 816.7516,-593.4796"/>
<polygon fill="#f13a13" stroke="#f13a13" stroke-width="3" points="818.4654,-596.5369 825.8837,-588.9725 815.3673,-590.2598 818.4654,-596.5369"/>
</g>
<!-- ME 302&#45;&gt;ME 498 -->
<g id="edge34" class="edge">
<title>ME 302&#45;&gt;ME 498</title>
<path fill="none" stroke="#593315" stroke-width="3" d="M780.9516,-575.4304C790.5153,-574.8887 800.7933,-574.3066 810.7241,-573.7442"/>
<polygon fill="#593315" stroke="#593315" stroke-width="3" points="811.1168,-577.2276 820.9029,-573.1677 810.7209,-570.2388 811.1168,-577.2276"/>
</g>
<!-- ME 430&#45;&gt;ME 498 -->
<g id="edge36" class="edge">
<title>ME 430&#45;&gt;ME 498</title>
<path fill="none" stroke="#232c16" stroke-width="3" stroke-dasharray="5,2" d="M820.9268,-476.5084C811.6588,-481.8191 803.3026,-489.0476 798.9592,-498.8002 792.4497,-513.4162 792.4497,-520.1842 798.9592,-534.8002 801.9453,-541.5052 806.8281,-547.0171 812.5998,-551.5329"/>
<polygon fill="#232c16" stroke="#232c16" stroke-width="3" points="810.6665,-554.4505 820.9268,-557.0921 814.5532,-548.6287 810.6665,-554.4505"/>
</g>
<!-- ME 430L -->
<g id="node32" class="node">
<title>ME 430L</title>
<polygon fill="#ffffff" stroke="#ffffff" points="908.6944,-534.8002 816.7132,-534.8002 816.7132,-498.8002 908.6944,-498.8002 908.6944,-534.8002"/>
<text text-anchor="start" x="824.9592" y="-513.6002" font-family="Helvetica,sans-Serif" baseline-shift="sub" font-size="14.00" fill="#6e6d6a">1</text>
<text text-anchor="start" x="832.7453" y="-513.6002" font-family="Helvetica,sans-Serif" font-size="14.00" fill="#5e5d87"> &#160;&#160;ME 430L</text>
</g>
<!-- ME 430&#45;&gt;ME 430L -->
<g id="edge41" class="edge">
<title>ME 430&#45;&gt;ME 430L</title>
<path fill="none" stroke="#232c16" stroke-width="3" d="M862.7038,-491.1445C862.7038,-491.2996 862.7038,-491.4548 862.7038,-491.6099"/>
<polygon fill="#232c16" stroke="#232c16" stroke-width="3" points="866.2039,-490.9408 862.7038,-480.9409 859.2039,-490.9409 866.2039,-490.9408"/>
<polygon fill="#232c16" stroke="#232c16" stroke-width="3" points="859.2039,-488.5904 862.7038,-498.5904 866.2039,-488.5905 859.2039,-488.5904"/>
</g>
<!-- GE 359 -->
<g id="node34" class="node">
<title>GE 359</title>
<polygon fill="#ffffff" stroke="#ffffff" points="1030.0583,-507.8002 947.1969,-507.8002 947.1969,-471.8002 1030.0583,-471.8002 1030.0583,-507.8002"/>
<text text-anchor="start" x="955.1623" y="-486.6002" font-family="Helvetica,sans-Serif" baseline-shift="sub" font-size="14.00" fill="#6e6d6a">3</text>
<text text-anchor="start" x="962.9484" y="-486.6002" font-family="Helvetica,sans-Serif" font-size="14.00" fill="#5e5d87"> &#160;&#160;GE 359</text>
</g>
<!-- ME 430&#45;&gt;GE 359 -->
<!-- ME 499 -->
<g id="node35" class="node">
<title>ME 499</title>
<polygon fill="#ffffff" stroke="#ffffff" points="1030.3313,-561.8002 946.924,-561.8002 946.924,-525.8002 1030.3313,-525.8002 1030.3313,-561.8002"/>
<text text-anchor="start" x="954.7761" y="-540.6002" font-family="Helvetica,sans-Serif" baseline-shift="sub" font-size="14.00" fill="#6e6d6a">3</text>
<text text-anchor="start" x="962.5622" y="-540.6002" font-family="Helvetica,sans-Serif" font-size="14.00" fill="#5e5d87"> &#160;&#160;ME 499</text>
</g>
<!-- ME 498&#45;&gt;ME 499 -->
<g id="edge22" class="edge">
<title>ME 498&#45;&gt;ME 499</title>
<path fill="none" stroke="#53377a" stroke-width="3" d="M904.6346,-561.8096C914.936,-559.6008 926.0861,-557.2101 936.7928,-554.9144"/>
<polygon fill="#53377a" stroke="#53377a" stroke-width="3" points="937.8359,-558.2704 946.8799,-552.7516 936.3683,-551.426 937.8359,-558.2704"/>
</g>
<!-- ME El. 1 -->
<g id="node31" class="node">
<title>ME El. 1</title>
<polygon fill="#ffffff" stroke="#ffffff" points="907.0629,-426.8002 818.3447,-426.8002 818.3447,-390.8002 907.0629,-390.8002 907.0629,-426.8002"/>
<text text-anchor="start" x="826.5246" y="-405.6002" font-family="Helvetica,sans-Serif" baseline-shift="sub" font-size="14.00" fill="#6e6d6a">3</text>
<text text-anchor="start" x="834.3107" y="-405.6002" font-family="Helvetica,sans-Serif" font-size="14.00" fill="#5e5d87"> &#160;&#160;ME El. 1</text>
</g>
<!-- ME El. 3 -->
<g id="node36" class="node">
<title>ME El. 3</title>
<polygon fill="#ffffff" stroke="#ffffff" points="1032.9867,-453.8002 944.2685,-453.8002 944.2685,-417.8002 1032.9867,-417.8002 1032.9867,-453.8002"/>
<text text-anchor="start" x="952.4484" y="-432.6002" font-family="Helvetica,sans-Serif" baseline-shift="sub" font-size="14.00" fill="#6e6d6a">3</text>
<text text-anchor="start" x="960.2346" y="-432.6002" font-family="Helvetica,sans-Serif" font-size="14.00" fill="#5e5d87"> &#160;&#160;ME El. 3</text>
</g>
<!-- ME El. 2 -->
<g id="node37" class="node">
<title>ME El. 2</title>
<polygon fill="#ffffff" stroke="#ffffff" points="1032.9867,-399.8002 944.2685,-399.8002 944.2685,-363.8002 1032.9867,-363.8002 1032.9867,-399.8002"/>
<text text-anchor="start" x="952.4484" y="-378.6002" font-family="Helvetica,sans-Serif" baseline-shift="sub" font-size="14.00" fill="#6e6d6a">3</text>
<text text-anchor="start" x="960.2346" y="-378.6002" font-family="Helvetica,sans-Serif" font-size="14.00" fill="#5e5d87"> &#160;&#160;ME El. 2</text>
</g>
</g>
</svg>
