<?xml version="1.0" encoding="UTF-8" standalone="no"?>
<!DOCTYPE svg PUBLIC "-//W3C//DTD SVG 1.1//EN"
 "http://www.w3.org/Graphics/SVG/1.1/DTD/svg11.dtd">
<!-- Generated by graphviz version 2.40.1 (20161225.0304)
 -->
<!-- Title: %3 Pages: 1 -->
<svg width="258pt" height="124pt"
 viewBox="0.00 0.00 258.00 124.00" xmlns="http://www.w3.org/2000/svg" xmlns:xlink="http://www.w3.org/1999/xlink">
<g id="graph0" class="graph" transform="scale(1 1) rotate(0) translate(4 120)">
<title>%3</title>
<polygon fill="#ffffff" stroke="transparent" points="-4,4 -4,-120 254,-120 254,4 -4,4"/>
<g id="clust1" class="cluster">
<title>cluster_01</title>
<polygon fill="none" stroke="#000000" points="8,-8 8,-108 242,-108 242,-8 8,-8"/>
<text text-anchor="middle" x="125" y="-92.8" font-family="Helvetica,sans-Serif" font-size="14.00" fill="#000000">Legend</text>
</g>
<!-- key -->
<g id="node1" class="node">
<title>key</title>
<text text-anchor="start" x="53.0693" y="-60.8" font-family="Helvetica,sans-Serif" font-size="14.00" fill="#000000">prerequisite &#160;</text>
<text text-anchor="start" x="58.5176" y="-42.8" font-family="Helvetica,sans-Serif" font-size="14.00" fill="#000000">corequisite &#160;</text>
<text text-anchor="start" x="25.9175" y="-24.8" font-family="Helvetica,sans-Serif" font-size="14.00" fill="#000000">con&#45;prerequisite &#160;</text>
</g>
<!-- key2 -->
<g id="node2" class="node">
<title>key2</title>
<text text-anchor="start" x="205.5552" y="-60.8" font-family="Helvetica,sans-Serif" font-size="14.00" fill="#000000"> </text>
<text text-anchor="start" x="205.5552" y="-42.8" font-family="Helvetica,sans-Serif" font-size="14.00" fill="#000000"> </text>
<text text-anchor="start" x="205.5552" y="-24.8" font-family="Helvetica,sans-Serif" font-size="14.00" fill="#000000"> </text>
</g>
<!-- key&#45;&gt;key2 -->
<g id="edge1" class="edge">
<title>key:e&#45;&gt;key2:w</title>
<path fill="none" stroke="#000000" stroke-width="3" d="M136,-65C162.5625,-65 171.6155,-65 193.9375,-65"/>
<polygon fill="#000000" stroke="#000000" stroke-width="3" points="194,-68.5001 204,-65 194,-61.5001 194,-68.5001"/>
</g>
<!-- key&#45;&gt;key2 -->
<g id="edge2" class="edge">
<title>key:e&#45;&gt;key2:w</title>
<path fill="none" stroke="#000000" stroke-width="3" d="M146.0625,-47C165.2454,-47 174.6289,-47 193.7471,-47"/>
<polygon fill="#000000" stroke="#000000" stroke-width="3" points="146,-43.5001 136,-47 146,-50.5001 146,-43.5001"/>
<polygon fill="#000000" stroke="#000000" stroke-width="3" points="194,-50.5001 204,-47 194,-43.5001 194,-50.5001"/>
</g>
<!-- key&#45;&gt;key2 -->
<g id="edge3" class="edge">
<title>key:e&#45;&gt;key2:w</title>
<path fill="none" stroke="#000000" stroke-width="3" stroke-dasharray="5,2" d="M136,-29C162.5625,-29 171.6155,-29 193.9375,-29"/>
<polygon fill="#000000" stroke="#000000" stroke-width="3" points="194,-32.5001 204,-29 194,-25.5001 194,-32.5001"/>
</g>
</g>
</svg>
