<?xml version="1.0" encoding="UTF-8" standalone="no"?>
<!DOCTYPE svg PUBLIC "-//W3C//DTD SVG 1.1//EN"
 "http://www.w3.org/Graphics/SVG/1.1/DTD/svg11.dtd">
<!-- Generated by graphviz version 2.40.1 (20161225.0304)
 -->
<!-- Title: %3 Pages: 1 -->
<svg width="1057pt" height="907pt"
 viewBox="0.00 0.00 1056.81 906.64" xmlns="http://www.w3.org/2000/svg" xmlns:xlink="http://www.w3.org/1999/xlink">
<g id="graph0" class="graph" transform="scale(1 1) rotate(0) translate(4 902.6362)">
<title>%3</title>
<polygon fill="#ffffff" stroke="transparent" points="-4,4 -4,-902.6362 1052.8068,-902.6362 1052.8068,4 -4,4"/>
<g id="clust1" class="cluster">
<title>cluster_0</title>
<polygon fill="#cecdc9" stroke="#cecdc9" points="24.3088,-149.6479 24.3088,-343.6479 139.3381,-343.6479 139.3381,-149.6479 24.3088,-149.6479"/>
<text text-anchor="start" x="52.0422" y="-327.8479" font-family="Helvetica,sans-Serif" font-weight="bold" font-size="16.00" fill="#000000">term: 1F</text>
<text text-anchor="start" x="73.4885" y="-316.6479" font-family="Helvetica,sans-Serif" font-size="10.00" fill="#6e6d6a">9 cr</text>
</g>
<g id="clust2" class="cluster">
<title>cluster_1</title>
<polygon fill="#cecdc9" stroke="#cecdc9" points="159.3381,-95.6479 159.3381,-343.6479 274.3674,-343.6479 274.3674,-95.6479 159.3381,-95.6479"/>
<text text-anchor="start" x="186.6222" y="-327.8479" font-family="Helvetica,sans-Serif" font-weight="bold" font-size="16.00" fill="#000000">term: 1S</text>
<text text-anchor="start" x="205.737" y="-316.6479" font-family="Helvetica,sans-Serif" font-size="10.00" fill="#6e6d6a">12 cr</text>
</g>
<g id="clust3" class="cluster">
<title>cluster_2</title>
<polygon fill="#cecdc9" stroke="#cecdc9" points="294.3674,-260.6479 294.3674,-562.6479 412.7394,-562.6479 412.7394,-260.6479 294.3674,-260.6479"/>
<text text-anchor="start" x="323.7722" y="-546.8479" font-family="Helvetica,sans-Serif" font-weight="bold" font-size="16.00" fill="#000000">term: 2F</text>
<text text-anchor="start" x="342.4377" y="-535.6479" font-family="Helvetica,sans-Serif" font-size="10.00" fill="#6e6d6a">14 cr</text>
</g>
<g id="clust4" class="cluster">
<title>cluster_3</title>
<polygon fill="#cecdc9" stroke="#cecdc9" points="432.7394,-476.6479 432.7394,-724.6479 541.7668,-724.6479 541.7668,-476.6479 432.7394,-476.6479"/>
<text text-anchor="start" x="457.0226" y="-708.8479" font-family="Helvetica,sans-Serif" font-weight="bold" font-size="16.00" fill="#000000">term: 2S</text>
<text text-anchor="start" x="476.1374" y="-697.6479" font-family="Helvetica,sans-Serif" font-size="10.00" fill="#6e6d6a">10 cr</text>
</g>
<g id="clust5" class="cluster">
<title>cluster_4</title>
<polygon fill="#cecdc9" stroke="#cecdc9" points="561.7668,-74.6479 561.7668,-484.6479 669.256,-484.6479 669.256,-74.6479 561.7668,-74.6479"/>
<text text-anchor="start" x="585.7302" y="-468.8479" font-family="Helvetica,sans-Serif" font-weight="bold" font-size="16.00" fill="#000000">term: 3F</text>
<text text-anchor="start" x="604.3957" y="-457.6479" font-family="Helvetica,sans-Serif" font-size="10.00" fill="#6e6d6a">17 cr</text>
</g>
<g id="clust6" class="cluster">
<title>cluster_5</title>
<polygon fill="#cecdc9" stroke="#cecdc9" points="689.256,-372.6479 689.256,-674.6479 788.9592,-674.6479 788.9592,-372.6479 689.256,-372.6479"/>
<text text-anchor="start" x="708.8771" y="-658.8479" font-family="Helvetica,sans-Serif" font-weight="bold" font-size="16.00" fill="#000000">term: 3S</text>
<text text-anchor="start" x="727.9919" y="-647.6479" font-family="Helvetica,sans-Serif" font-size="10.00" fill="#6e6d6a">13 cr</text>
</g>
<g id="clust7" class="cluster">
<title>cluster_6</title>
<polygon fill="#cecdc9" stroke="#cecdc9" points="808.9592,-519.6479 808.9592,-821.6479 916.4484,-821.6479 916.4484,-519.6479 808.9592,-519.6479"/>
<text text-anchor="start" x="832.9225" y="-805.8479" font-family="Helvetica,sans-Serif" font-weight="bold" font-size="16.00" fill="#000000">term: 4F</text>
<text text-anchor="start" x="851.5881" y="-794.6479" font-family="Helvetica,sans-Serif" font-size="10.00" fill="#6e6d6a">13 cr</text>
</g>
<g id="clust8" class="cluster">
<title>cluster_7</title>
<polygon fill="#cecdc9" stroke="#cecdc9" points="936.4484,-465.6479 936.4484,-713.6479 1040.8068,-713.6479 1040.8068,-465.6479 936.4484,-465.6479"/>
<text text-anchor="start" x="958.3972" y="-697.8479" font-family="Helvetica,sans-Serif" font-weight="bold" font-size="16.00" fill="#000000">term: 4S</text>
<text text-anchor="start" x="977.5119" y="-686.6479" font-family="Helvetica,sans-Serif" font-size="10.00" fill="#6e6d6a">12 cr</text>
</g>
<!-- MTH 171 -->
<g id="node1" class="node">
<title>MTH 171</title>
<polygon fill="#ffffff" stroke="#ffffff" points="128.3508,-301.6479 35.2961,-301.6479 35.2961,-265.6479 128.3508,-265.6479 128.3508,-301.6479"/>
<text text-anchor="start" x="43.3097" y="-280.4479" font-family="Helvetica,sans-Serif" baseline-shift="sub" font-size="14.00" fill="#6e6d6a">4</text>
<text text-anchor="start" x="51.0959" y="-280.4479" font-family="Helvetica,sans-Serif" font-size="14.00" fill="#5e5d87"> &#160;&#160;MTH 171</text>
</g>
<!-- PHY 171 -->
<g id="node2" class="node">
<title>PHY 171</title>
<polygon fill="#ffffff" stroke="#ffffff" points="127.5669,-193.6479 36.0799,-193.6479 36.0799,-157.6479 127.5669,-157.6479 127.5669,-193.6479"/>
<text text-anchor="start" x="44.2018" y="-172.4479" font-family="Helvetica,sans-Serif" baseline-shift="sub" font-size="14.00" fill="#6e6d6a">4</text>
<text text-anchor="start" x="51.988" y="-172.4479" font-family="Helvetica,sans-Serif" font-size="14.00" fill="#5e5d87"> &#160;&#160;PHY 171</text>
</g>
<!-- MTH 171&#45;&gt;PHY 171 -->
<g id="edge8" class="edge">
<title>MTH 171&#45;&gt;PHY 171</title>
<path fill="none" stroke="#803e75" stroke-width="3" stroke-dasharray="5,2" d="M35.2304,-271.3481C23.801,-265.9971 12.9517,-258.3965 6.3088,-247.6479 -2.1029,-234.0375 -2.1029,-225.2583 6.3088,-211.6479 11.3524,-203.4871 18.8209,-197.1409 27.127,-192.2162"/>
<polygon fill="#803e75" stroke="#803e75" stroke-width="3" points="28.7688,-195.3074 36.0196,-187.5823 25.5339,-189.0997 28.7688,-195.3074"/>
</g>
<!-- MTH 172 -->
<g id="node4" class="node">
<title>MTH 172</title>
<polygon fill="#ffffff" stroke="#ffffff" points="263.3801,-301.6479 170.3254,-301.6479 170.3254,-265.6479 263.3801,-265.6479 263.3801,-301.6479"/>
<text text-anchor="start" x="178.339" y="-280.4479" font-family="Helvetica,sans-Serif" baseline-shift="sub" font-size="14.00" fill="#6e6d6a">4</text>
<text text-anchor="start" x="186.1252" y="-280.4479" font-family="Helvetica,sans-Serif" font-size="14.00" fill="#5e5d87"> &#160;&#160;MTH 172</text>
</g>
<!-- MTH 171&#45;&gt;MTH 172 -->
<!-- MTH 171&#45;&gt;MTH 172 -->
<g id="edge10" class="edge">
<title>MTH 171&#45;&gt;MTH 172</title>
<path fill="none" stroke="#803e75" stroke-width="3" d="M128.6712,-290.1086C138.7258,-290.3985 149.4572,-290.4705 159.8481,-290.3247"/>
<polygon fill="#803e75" stroke="#803e75" stroke-width="3" points="160.1648,-293.8188 170.0878,-290.1062 160.0154,-286.8204 160.1648,-293.8188"/>
</g>
<!-- GE 104 -->
<g id="node7" class="node">
<title>GE 104</title>
<polygon fill="#ffffff" stroke="#ffffff" points="258.2834,-139.6479 175.422,-139.6479 175.422,-103.6479 258.2834,-103.6479 258.2834,-139.6479"/>
<text text-anchor="start" x="183.3874" y="-118.4479" font-family="Helvetica,sans-Serif" baseline-shift="sub" font-size="14.00" fill="#6e6d6a">3</text>
<text text-anchor="start" x="191.1735" y="-118.4479" font-family="Helvetica,sans-Serif" font-size="14.00" fill="#5e5d87"> &#160;&#160;GE 104</text>
</g>
<!-- MTH 171&#45;&gt;GE 104 -->
<g id="edge17" class="edge">
<title>MTH 171&#45;&gt;GE 104</title>
<path fill="none" stroke="#803e75" stroke-width="3" d="M128.4489,-266.8647C132.5602,-263.9589 136.3045,-260.5769 139.3381,-256.6479 169.1716,-218.0089 129.5046,-187.287 159.3381,-148.6479 161.5279,-145.8117 164.0881,-143.2605 166.8894,-140.9677"/>
<polygon fill="#803e75" stroke="#803e75" stroke-width="3" points="169.0623,-143.7211 175.315,-135.1681 165.0933,-137.955 169.0623,-143.7211"/>
</g>
<!-- GE 204 -->
<g id="node12" class="node">
<title>GE 204</title>
<polygon fill="#ffffff" stroke="#ffffff" points="394.9841,-520.6479 312.1227,-520.6479 312.1227,-484.6479 394.9841,-484.6479 394.9841,-520.6479"/>
<text text-anchor="start" x="320.0881" y="-499.4479" font-family="Helvetica,sans-Serif" baseline-shift="sub" font-size="14.00" fill="#6e6d6a">3</text>
<text text-anchor="start" x="327.8742" y="-499.4479" font-family="Helvetica,sans-Serif" font-size="14.00" fill="#5e5d87"> &#160;&#160;GE 204</text>
</g>
<!-- MTH 171&#45;&gt;GE 204 -->
<g id="edge19" class="edge">
<title>MTH 171&#45;&gt;GE 204</title>
<path fill="none" stroke="#803e75" stroke-width="3" d="M86.9504,-301.883C96.3816,-332.2624 119.2762,-393.3723 159.3381,-428.6479 199.9526,-464.4101 259.6371,-483.668 302.1079,-493.4854"/>
<polygon fill="#803e75" stroke="#803e75" stroke-width="3" points="301.4518,-496.9248 311.9718,-495.6681 302.9643,-490.0901 301.4518,-496.9248"/>
</g>
<!-- PHY 171L -->
<g id="node3" class="node">
<title>PHY 171L</title>
<polygon fill="#ffffff" stroke="#ffffff" points="131.3527,-247.6479 32.2941,-247.6479 32.2941,-211.6479 131.3527,-211.6479 131.3527,-247.6479"/>
<text text-anchor="start" x="40.3088" y="-226.4479" font-family="Helvetica,sans-Serif" baseline-shift="sub" font-size="14.00" fill="#6e6d6a">1</text>
<text text-anchor="start" x="48.0949" y="-226.4479" font-family="Helvetica,sans-Serif" font-size="14.00" fill="#5e5d87"> &#160;&#160;PHY 171L</text>
</g>
<!-- PHY 171&#45;&gt;PHY 171L -->
<g id="edge9" class="edge">
<title>PHY 171&#45;&gt;PHY 171L</title>
<path fill="none" stroke="#ff6800" stroke-width="3" d="M81.8234,-203.9922C81.8234,-204.1473 81.8234,-204.3024 81.8234,-204.4575"/>
<polygon fill="#ff6800" stroke="#ff6800" stroke-width="3" points="85.3235,-203.7885 81.8234,-193.7885 78.3235,-203.7886 85.3235,-203.7885"/>
<polygon fill="#ff6800" stroke="#ff6800" stroke-width="3" points="78.3236,-201.438 81.8234,-211.4381 85.3236,-201.4381 78.3236,-201.438"/>
</g>
<!-- PHY 171&#45;&gt;GE 104 -->
<g id="edge18" class="edge">
<title>PHY 171&#45;&gt;GE 104</title>
<path fill="none" stroke="#ff6800" stroke-width="3" d="M127.1619,-157.5165C139.4947,-152.5844 152.938,-147.2082 165.5747,-142.1547"/>
<polygon fill="#ff6800" stroke="#ff6800" stroke-width="3" points="167.0636,-145.3288 175.049,-138.3658 164.4643,-138.8293 167.0636,-145.3288"/>
</g>
<!-- PHY 171&#45;&gt;GE 204 -->
<g id="edge20" class="edge">
<title>PHY 171&#45;&gt;GE 204</title>
<path fill="none" stroke="#ff6800" stroke-width="3" d="M127.539,-191.5205C132.0497,-194.6189 136.1342,-198.2948 139.3381,-202.6479 177.8996,-255.0417 125.4918,-292.0914 159.3381,-347.6479 191.8695,-401.0463 235.0603,-380.0204 274.3674,-428.6479 288.6384,-446.3028 278.5223,-459.3908 294.3674,-475.6479 297.0057,-478.3548 299.9658,-480.8155 303.1184,-483.0479"/>
<polygon fill="#ff6800" stroke="#ff6800" stroke-width="3" points="301.4795,-486.1497 311.8245,-488.4369 305.1638,-480.1977 301.4795,-486.1497"/>
</g>
<!-- PHY 172 -->
<g id="node5" class="node">
<title>PHY 172</title>
<polygon fill="#ffffff" stroke="#ffffff" points="262.5962,-193.6479 171.1092,-193.6479 171.1092,-157.6479 262.5962,-157.6479 262.5962,-193.6479"/>
<text text-anchor="start" x="179.2311" y="-172.4479" font-family="Helvetica,sans-Serif" baseline-shift="sub" font-size="14.00" fill="#6e6d6a">4</text>
<text text-anchor="start" x="187.0173" y="-172.4479" font-family="Helvetica,sans-Serif" font-size="14.00" fill="#5e5d87"> &#160;&#160;PHY 172</text>
</g>
<!-- MTH 172&#45;&gt;PHY 172 -->
<g id="edge11" class="edge">
<title>MTH 172&#45;&gt;PHY 172</title>
<path fill="none" stroke="#a6bdd7" stroke-width="3" stroke-dasharray="5,2" d="M170.0912,-269.1637C161.2653,-263.9712 153.4993,-256.9915 149.3381,-247.6479 142.8287,-233.0319 142.8287,-226.2639 149.3381,-211.6479 152.2428,-205.1256 156.9041,-199.7552 162.4563,-195.3404"/>
<polygon fill="#a6bdd7" stroke="#a6bdd7" stroke-width="3" points="164.7662,-198.0059 171.1274,-189.5333 160.871,-192.1897 164.7662,-198.0059"/>
</g>
<!-- MTH 271 -->
<g id="node8" class="node">
<title>MTH 271</title>
<polygon fill="#ffffff" stroke="#ffffff" points="400.0808,-466.6479 307.0261,-466.6479 307.0261,-430.6479 400.0808,-430.6479 400.0808,-466.6479"/>
<text text-anchor="start" x="315.0397" y="-445.4479" font-family="Helvetica,sans-Serif" baseline-shift="sub" font-size="14.00" fill="#6e6d6a">3</text>
<text text-anchor="start" x="322.8259" y="-445.4479" font-family="Helvetica,sans-Serif" font-size="14.00" fill="#5e5d87"> &#160;&#160;MTH 271</text>
</g>
<!-- MTH 172&#45;&gt;MTH 271 -->
<!-- MTH 172&#45;&gt;MTH 271 -->
<g id="edge13" class="edge">
<title>MTH 172&#45;&gt;MTH 271</title>
<path fill="none" stroke="#a6bdd7" stroke-width="3" d="M221.0974,-301.7894C230.3457,-332.6663 254.7215,-394.1923 294.3674,-430.6479 295.6534,-431.8304 297.0001,-432.9686 298.3954,-434.0616"/>
<polygon fill="#a6bdd7" stroke="#a6bdd7" stroke-width="3" points="296.602,-437.075 306.8352,-439.8194 300.547,-431.2925 296.602,-437.075"/>
</g>
<!-- MTH 322 -->
<g id="node9" class="node">
<title>MTH 322</title>
<polygon fill="#ffffff" stroke="#ffffff" points="400.0808,-304.6479 307.0261,-304.6479 307.0261,-268.6479 400.0808,-268.6479 400.0808,-304.6479"/>
<text text-anchor="start" x="315.0397" y="-283.4479" font-family="Helvetica,sans-Serif" baseline-shift="sub" font-size="14.00" fill="#6e6d6a">3</text>
<text text-anchor="start" x="322.8259" y="-283.4479" font-family="Helvetica,sans-Serif" font-size="14.00" fill="#5e5d87"> &#160;&#160;MTH 322</text>
</g>
<!-- MTH 172&#45;&gt;MTH 322 -->
<g id="edge14" class="edge">
<title>MTH 172&#45;&gt;MTH 322</title>
<path fill="none" stroke="#a6bdd7" stroke-width="3" d="M263.515,-284.672C274.0655,-284.9035 285.3851,-285.1519 296.3151,-285.3918"/>
<polygon fill="#a6bdd7" stroke="#a6bdd7" stroke-width="3" points="296.5629,-288.898 306.6373,-285.6183 296.7165,-281.8996 296.5629,-288.898"/>
</g>
<!-- MTH 353 -->
<g id="node13" class="node">
<title>MTH 353</title>
<polygon fill="#ffffff" stroke="#ffffff" points="533.7805,-574.6479 440.7258,-574.6479 440.7258,-538.6479 533.7805,-538.6479 533.7805,-574.6479"/>
<text text-anchor="start" x="448.7394" y="-553.4479" font-family="Helvetica,sans-Serif" baseline-shift="sub" font-size="14.00" fill="#6e6d6a">3</text>
<text text-anchor="start" x="456.5256" y="-553.4479" font-family="Helvetica,sans-Serif" font-size="14.00" fill="#5e5d87"> &#160;&#160;MTH 353</text>
</g>
<!-- MTH 172&#45;&gt;MTH 353 -->
<g id="edge16" class="edge">
<title>MTH 172&#45;&gt;MTH 353</title>
<path fill="none" stroke="#a6bdd7" stroke-width="3" d="M260.4503,-265.6066C271.3417,-261.8994 283.1268,-258.5496 294.3674,-256.6479 346.2401,-247.8723 374.2036,-220.832 412.7394,-256.6479 457.2959,-298.0595 398.794,-479.1711 432.7394,-529.6479 433.0894,-530.1683 433.4524,-530.679 433.8277,-531.1803"/>
<polygon fill="#a6bdd7" stroke="#a6bdd7" stroke-width="3" points="431.4073,-533.7129 440.8585,-538.501 436.456,-528.8642 431.4073,-533.7129"/>
</g>
<!-- PHY 172L -->
<g id="node6" class="node">
<title>PHY 172L</title>
<polygon fill="#ffffff" stroke="#ffffff" points="266.382,-247.6479 167.3234,-247.6479 167.3234,-211.6479 266.382,-211.6479 266.382,-247.6479"/>
<text text-anchor="start" x="175.3381" y="-226.4479" font-family="Helvetica,sans-Serif" baseline-shift="sub" font-size="14.00" fill="#6e6d6a">1</text>
<text text-anchor="start" x="183.1242" y="-226.4479" font-family="Helvetica,sans-Serif" font-size="14.00" fill="#5e5d87"> &#160;&#160;PHY 172L</text>
</g>
<!-- PHY 172&#45;&gt;PHY 172L -->
<g id="edge12" class="edge">
<title>PHY 172&#45;&gt;PHY 172L</title>
<path fill="none" stroke="#c10020" stroke-width="3" d="M216.8527,-203.9922C216.8527,-204.1473 216.8527,-204.3024 216.8527,-204.4575"/>
<polygon fill="#c10020" stroke="#c10020" stroke-width="3" points="220.3528,-203.7885 216.8527,-193.7885 213.3528,-203.7886 220.3528,-203.7885"/>
<polygon fill="#c10020" stroke="#c10020" stroke-width="3" points="213.3529,-201.438 216.8527,-211.4381 220.3529,-201.4381 213.3529,-201.438"/>
</g>
<!-- ME 315 -->
<g id="node20" class="node">
<title>ME 315</title>
<polygon fill="#ffffff" stroke="#ffffff" points="657.2151,-118.6479 573.8078,-118.6479 573.8078,-82.6479 657.2151,-82.6479 657.2151,-118.6479"/>
<text text-anchor="start" x="581.6598" y="-97.4479" font-family="Helvetica,sans-Serif" baseline-shift="sub" font-size="14.00" fill="#6e6d6a">3</text>
<text text-anchor="start" x="589.446" y="-97.4479" font-family="Helvetica,sans-Serif" font-size="14.00" fill="#5e5d87"> &#160;&#160;ME 315</text>
</g>
<!-- PHY 172&#45;&gt;ME 315 -->
<g id="edge28" class="edge">
<title>PHY 172&#45;&gt;ME 315</title>
<path fill="none" stroke="#c10020" stroke-width="3" d="M262.2855,-157.5134C272.7038,-153.8394 283.8203,-150.2959 294.3674,-147.6479 387.6827,-124.2199 499.3819,-111.1355 563.4305,-105.019"/>
<polygon fill="#c10020" stroke="#c10020" stroke-width="3" points="564.042,-108.4771 573.6729,-104.0616 563.3905,-101.5075 564.042,-108.4771"/>
</g>
<!-- ME 340 -->
<g id="node22" class="node">
<title>ME 340</title>
<polygon fill="#ffffff" stroke="#ffffff" points="657.2151,-280.6479 573.8078,-280.6479 573.8078,-244.6479 657.2151,-244.6479 657.2151,-280.6479"/>
<text text-anchor="start" x="581.6598" y="-259.4479" font-family="Helvetica,sans-Serif" baseline-shift="sub" font-size="14.00" fill="#6e6d6a">3</text>
<text text-anchor="start" x="589.446" y="-259.4479" font-family="Helvetica,sans-Serif" font-size="14.00" fill="#5e5d87"> &#160;&#160;ME 340</text>
</g>
<!-- PHY 172&#45;&gt;ME 340 -->
<g id="edge32" class="edge">
<title>PHY 172&#45;&gt;ME 340</title>
<path fill="none" stroke="#c10020" stroke-width="3" d="M262.5839,-185.6279C337.2561,-201.9238 484.8987,-234.1441 563.4695,-251.2907"/>
<polygon fill="#c10020" stroke="#c10020" stroke-width="3" points="563.1056,-254.7936 573.622,-253.5063 564.5982,-247.9546 563.1056,-254.7936"/>
</g>
<!-- ME 345 -->
<g id="node23" class="node">
<title>ME 345</title>
<polygon fill="#ffffff" stroke="#ffffff" points="657.2151,-172.6479 573.8078,-172.6479 573.8078,-136.6479 657.2151,-136.6479 657.2151,-172.6479"/>
<text text-anchor="start" x="581.6598" y="-151.4479" font-family="Helvetica,sans-Serif" baseline-shift="sub" font-size="14.00" fill="#6e6d6a">3</text>
<text text-anchor="start" x="589.446" y="-151.4479" font-family="Helvetica,sans-Serif" font-size="14.00" fill="#5e5d87"> &#160;&#160;ME 345</text>
</g>
<!-- PHY 172&#45;&gt;ME 345 -->
<g id="edge35" class="edge">
<title>PHY 172&#45;&gt;ME 345</title>
<path fill="none" stroke="#c10020" stroke-width="3" d="M262.4999,-164.0224C272.9071,-161.8237 283.9648,-159.8408 294.3674,-158.6479 388.821,-147.8166 499.9188,-149.6391 563.5879,-152.0644"/>
<polygon fill="#c10020" stroke="#c10020" stroke-width="3" points="563.6369,-155.5691 573.7693,-152.4729 563.9177,-148.5747 563.6369,-155.5691"/>
</g>
<!-- ME 350 -->
<g id="node27" class="node">
<title>ME 350</title>
<polygon fill="#ffffff" stroke="#ffffff" points="780.8113,-416.6479 697.404,-416.6479 697.404,-380.6479 780.8113,-380.6479 780.8113,-416.6479"/>
<text text-anchor="start" x="705.256" y="-395.4479" font-family="Helvetica,sans-Serif" baseline-shift="sub" font-size="14.00" fill="#6e6d6a">3</text>
<text text-anchor="start" x="713.0422" y="-395.4479" font-family="Helvetica,sans-Serif" font-size="14.00" fill="#5e5d87"> &#160;&#160;ME 350</text>
</g>
<!-- GE 104&#45;&gt;ME 350 -->
<g id="edge42" class="edge">
<title>GE 104&#45;&gt;ME 350</title>
<path fill="none" stroke="#7f180d" stroke-width="3" d="M244.5403,-103.5883C321.5254,-55.8536 540.889,62.9796 669.256,-42.6479 719.7836,-84.2248 734.3062,-292.8319 737.9845,-369.941"/>
<polygon fill="#7f180d" stroke="#7f180d" stroke-width="3" points="734.5057,-370.4954 738.4514,-380.3281 741.4987,-370.1809 734.5057,-370.4954"/>
</g>
<!-- MTH 271&#45;&gt;MTH 353 -->
<!-- ME 430 -->
<g id="node30" class="node">
<title>ME 430</title>
<polygon fill="#ffffff" stroke="#ffffff" points="904.4074,-725.6479 821.0001,-725.6479 821.0001,-689.6479 904.4074,-689.6479 904.4074,-725.6479"/>
<text text-anchor="start" x="828.8522" y="-704.4479" font-family="Helvetica,sans-Serif" baseline-shift="sub" font-size="14.00" fill="#6e6d6a">3</text>
<text text-anchor="start" x="836.6384" y="-704.4479" font-family="Helvetica,sans-Serif" font-size="14.00" fill="#5e5d87"> &#160;&#160;ME 430</text>
</g>
<!-- MTH 271&#45;&gt;ME 430 -->
<g id="edge52" class="edge">
<title>MTH 271&#45;&gt;ME 430</title>
<path fill="none" stroke="#f13a13" stroke-width="3" d="M400.0849,-463.5268C405.0097,-466.8107 409.4216,-470.802 412.7394,-475.6479 434.4317,-507.3312 404.8135,-794.294 432.7394,-820.6479 547.8824,-929.3092 664.9777,-919.105 788.9592,-820.6479 819.69,-796.2437 784.6866,-765.4829 808.9592,-734.6479 810.1944,-733.0787 811.545,-731.5933 812.9869,-730.1879"/>
<polygon fill="#f13a13" stroke="#f13a13" stroke-width="3" points="815.2861,-732.8296 820.845,-723.8102 810.8748,-727.3944 815.2861,-732.8296"/>
</g>
<!-- MTH 322&#45;&gt;ME 340 -->
<g id="edge33" class="edge">
<title>MTH 322&#45;&gt;ME 340</title>
<path fill="none" stroke="#53377a" stroke-width="3" stroke-dasharray="5,2" d="M400.0844,-282.3849C445.9705,-278.1809 515.9624,-271.7684 563.6216,-267.4019"/>
<polygon fill="#53377a" stroke="#53377a" stroke-width="3" points="564.0946,-270.8734 573.7335,-266.4755 563.4559,-263.9026 564.0946,-270.8734"/>
</g>
<!-- MTH 322&#45;&gt;ME 345 -->
<g id="edge34" class="edge">
<title>MTH 322&#45;&gt;ME 345</title>
<path fill="none" stroke="#53377a" stroke-width="3" d="M400.2276,-273.3796C452.3594,-258.2329 530.9048,-234.3067 541.7668,-224.6479 557.5174,-210.642 547.0897,-196.775 561.7668,-181.6479 562.9665,-180.4114 564.2349,-179.2221 565.5581,-178.079"/>
<polygon fill="#53377a" stroke="#53377a" stroke-width="3" points="567.7294,-180.8257 573.6389,-172.0321 563.5354,-175.2212 567.7294,-180.8257"/>
</g>
<!-- ME 308 -->
<g id="node25" class="node">
<title>ME 308</title>
<polygon fill="#ffffff" stroke="#ffffff" points="780.8113,-524.6479 697.404,-524.6479 697.404,-488.6479 780.8113,-488.6479 780.8113,-524.6479"/>
<text text-anchor="start" x="705.256" y="-503.4479" font-family="Helvetica,sans-Serif" baseline-shift="sub" font-size="14.00" fill="#6e6d6a">3</text>
<text text-anchor="start" x="713.0422" y="-503.4479" font-family="Helvetica,sans-Serif" font-size="14.00" fill="#5e5d87"> &#160;&#160;ME 308</text>
</g>
<!-- MTH 322&#45;&gt;ME 308 -->
<g id="edge40" class="edge">
<title>MTH 322&#45;&gt;ME 308</title>
<path fill="none" stroke="#53377a" stroke-width="3" d="M364.5388,-268.5965C407.0584,-200.7793 563.6935,29.8788 669.256,-70.6479 702.2048,-102.0249 665.0245,-441.1386 689.256,-479.6479 689.5181,-480.0644 689.789,-480.475 690.0682,-480.8797"/>
<polygon fill="#53377a" stroke="#53377a" stroke-width="3" points="687.6971,-483.4755 697.0051,-488.5363 692.8847,-478.7755 687.6971,-483.4755"/>
</g>
<!-- ME 410 -->
<g id="node29" class="node">
<title>ME 410</title>
<polygon fill="#ffffff" stroke="#ffffff" points="904.4074,-671.6479 821.0001,-671.6479 821.0001,-635.6479 904.4074,-635.6479 904.4074,-671.6479"/>
<text text-anchor="start" x="828.8522" y="-650.4479" font-family="Helvetica,sans-Serif" baseline-shift="sub" font-size="14.00" fill="#6e6d6a">3</text>
<text text-anchor="start" x="836.6384" y="-650.4479" font-family="Helvetica,sans-Serif" font-size="14.00" fill="#5e5d87"> &#160;&#160;ME 410</text>
</g>
<!-- MTH 322&#45;&gt;ME 410 -->
<g id="edge47" class="edge">
<title>MTH 322&#45;&gt;ME 410</title>
<path fill="none" stroke="#53377a" stroke-width="3" d="M400.13,-301.4961C405.0474,-304.785 409.4453,-308.7859 412.7394,-313.6479 438.6335,-351.8666 400.7038,-695.408 432.7394,-728.6479 487.6936,-785.6678 724.6707,-784.889 788.9592,-738.6479 811.0951,-722.7261 791.0071,-701.1718 808.9592,-680.6479 810.1408,-679.2971 811.4059,-678.0059 812.7382,-676.7725"/>
<polygon fill="#53377a" stroke="#53377a" stroke-width="3" points="815.2622,-679.242 820.9862,-670.3265 810.9517,-673.7266 815.2622,-679.242"/>
</g>
<!-- MTH 322&#45;&gt;ME 430 -->
<g id="edge51" class="edge">
<title>MTH 322&#45;&gt;ME 430</title>
<path fill="none" stroke="#53377a" stroke-width="3" d="M400.1464,-301.485C405.0611,-304.7757 409.4539,-308.78 412.7394,-313.6479 440.6149,-354.9483 399.9027,-724.1711 432.7394,-761.6479 484.9118,-821.1926 722.7698,-810.0818 788.9592,-766.6479 802.9812,-757.4465 796.5612,-745.9428 808.9592,-734.6479 810.0929,-733.6151 811.2734,-732.6119 812.4917,-731.6383"/>
<polygon fill="#53377a" stroke="#53377a" stroke-width="3" points="814.8326,-734.27 820.9829,-725.6431 810.7951,-728.5517 814.8326,-734.27"/>
</g>
<!-- CHM 145 -->
<g id="node10" class="node">
<title>CHM 145</title>
<polygon fill="#ffffff" stroke="#ffffff" points="400.6402,-358.6479 306.4666,-358.6479 306.4666,-322.6479 400.6402,-322.6479 400.6402,-358.6479"/>
<text text-anchor="start" x="314.2604" y="-337.4479" font-family="Helvetica,sans-Serif" baseline-shift="sub" font-size="14.00" fill="#6e6d6a">4</text>
<text text-anchor="start" x="322.0466" y="-337.4479" font-family="Helvetica,sans-Serif" font-size="14.00" fill="#5e5d87"> &#160;&#160;CHM 145</text>
</g>
<!-- CHM 145L -->
<g id="node11" class="node">
<title>CHM 145L</title>
<polygon fill="#ffffff" stroke="#ffffff" points="404.9262,-412.6479 302.1807,-412.6479 302.1807,-376.6479 404.9262,-376.6479 404.9262,-412.6479"/>
<text text-anchor="start" x="310.3674" y="-391.4479" font-family="Helvetica,sans-Serif" baseline-shift="sub" font-size="14.00" fill="#6e6d6a">1</text>
<text text-anchor="start" x="318.1535" y="-391.4479" font-family="Helvetica,sans-Serif" font-size="14.00" fill="#5e5d87"> &#160;&#160;CHM 145L</text>
</g>
<!-- CHM 145&#45;&gt;CHM 145L -->
<g id="edge15" class="edge">
<title>CHM 145&#45;&gt;CHM 145L</title>
<path fill="none" stroke="#cea262" stroke-width="3" stroke-dasharray="5,2" d="M353.5534,-358.7885C353.5534,-361.2705 353.5534,-363.7525 353.5534,-366.2344"/>
<polygon fill="#cea262" stroke="#cea262" stroke-width="3" points="350.0535,-366.438 353.5534,-376.4381 357.0535,-366.4381 350.0535,-366.438"/>
</g>
<!-- ME 303 -->
<g id="node19" class="node">
<title>ME 303</title>
<polygon fill="#ffffff" stroke="#ffffff" points="657.2151,-334.6479 573.8078,-334.6479 573.8078,-298.6479 657.2151,-298.6479 657.2151,-334.6479"/>
<text text-anchor="start" x="581.6598" y="-313.4479" font-family="Helvetica,sans-Serif" baseline-shift="sub" font-size="14.00" fill="#6e6d6a">3</text>
<text text-anchor="start" x="589.446" y="-313.4479" font-family="Helvetica,sans-Serif" font-size="14.00" fill="#5e5d87"> &#160;&#160;ME 303</text>
</g>
<!-- CHM 145&#45;&gt;ME 303 -->
<g id="edge27" class="edge">
<title>CHM 145&#45;&gt;ME 303</title>
<path fill="none" stroke="#cea262" stroke-width="3" d="M401.0295,-343.7801C439.2628,-345.4313 494.2718,-345.8394 541.7668,-338.6479 548.9414,-337.5616 556.391,-335.9459 563.6761,-334.0745"/>
<polygon fill="#cea262" stroke="#cea262" stroke-width="3" points="564.7485,-337.4097 573.4669,-331.3897 562.8973,-330.6589 564.7485,-337.4097"/>
</g>
<!-- CHM 145&#45;&gt;ME 340 -->
<g id="edge31" class="edge">
<title>CHM 145&#45;&gt;ME 340</title>
<path fill="none" stroke="#cea262" stroke-width="3" d="M400.9381,-328.0427C439.1196,-317.7085 494.1037,-302.4267 541.7668,-287.6479 548.8684,-285.4459 556.3225,-283.0361 563.6497,-280.6095"/>
<polygon fill="#cea262" stroke="#cea262" stroke-width="3" points="565.145,-283.8 573.5178,-277.3079 562.924,-277.1617 565.145,-283.8"/>
</g>
<!-- GE 205 -->
<g id="node14" class="node">
<title>GE 205</title>
<polygon fill="#ffffff" stroke="#ffffff" points="528.6838,-628.6479 445.8224,-628.6479 445.8224,-592.6479 528.6838,-592.6479 528.6838,-628.6479"/>
<text text-anchor="start" x="453.7878" y="-607.4479" font-family="Helvetica,sans-Serif" baseline-shift="sub" font-size="14.00" fill="#6e6d6a">3</text>
<text text-anchor="start" x="461.5739" y="-607.4479" font-family="Helvetica,sans-Serif" font-size="14.00" fill="#5e5d87"> &#160;&#160;GE 205</text>
</g>
<!-- GE 204&#45;&gt;GE 205 -->
<g id="edge21" class="edge">
<title>GE 204&#45;&gt;GE 205</title>
<path fill="none" stroke="#817066" stroke-width="3" d="M368.1484,-520.8067C383.0221,-538.4739 407.442,-565.2691 432.7394,-583.6479 434.3736,-584.8351 436.0678,-585.9956 437.804,-587.1268"/>
<polygon fill="#817066" stroke="#817066" stroke-width="3" points="436.3809,-590.356 446.7512,-592.5261 439.9977,-584.3627 436.3809,-590.356"/>
</g>
<!-- GE 206 -->
<g id="node15" class="node">
<title>GE 206</title>
<polygon fill="#ffffff" stroke="#ffffff" points="528.6838,-520.6479 445.8224,-520.6479 445.8224,-484.6479 528.6838,-484.6479 528.6838,-520.6479"/>
<text text-anchor="start" x="453.7878" y="-499.4479" font-family="Helvetica,sans-Serif" baseline-shift="sub" font-size="14.00" fill="#6e6d6a">3</text>
<text text-anchor="start" x="461.5739" y="-499.4479" font-family="Helvetica,sans-Serif" font-size="14.00" fill="#5e5d87"> &#160;&#160;GE 206</text>
</g>
<!-- GE 204&#45;&gt;GE 206 -->
<g id="edge22" class="edge">
<title>GE 204&#45;&gt;GE 206</title>
<path fill="none" stroke="#817066" stroke-width="3" d="M395.1239,-502.6479C407.9518,-502.6479 422.2361,-502.6479 435.6545,-502.6479"/>
<polygon fill="#817066" stroke="#817066" stroke-width="3" points="435.7083,-506.148 445.7083,-502.6479 435.7082,-499.148 435.7083,-506.148"/>
</g>
<!-- ME 300 -->
<g id="node17" class="node">
<title>ME 300</title>
<polygon fill="#ffffff" stroke="#ffffff" points="657.2151,-388.6479 573.8078,-388.6479 573.8078,-352.6479 657.2151,-352.6479 657.2151,-388.6479"/>
<text text-anchor="start" x="581.6598" y="-367.4479" font-family="Helvetica,sans-Serif" baseline-shift="sub" font-size="14.00" fill="#6e6d6a">3</text>
<text text-anchor="start" x="589.446" y="-367.4479" font-family="Helvetica,sans-Serif" font-size="14.00" fill="#5e5d87"> &#160;&#160;ME 300</text>
</g>
<!-- MTH 353&#45;&gt;ME 300 -->
<!-- ME 370 -->
<g id="node28" class="node">
<title>ME 370</title>
<polygon fill="#ffffff" stroke="#ffffff" points="780.8113,-578.6479 697.404,-578.6479 697.404,-542.6479 780.8113,-542.6479 780.8113,-578.6479"/>
<text text-anchor="start" x="705.256" y="-557.4479" font-family="Helvetica,sans-Serif" baseline-shift="sub" font-size="14.00" fill="#6e6d6a">3</text>
<text text-anchor="start" x="713.0422" y="-557.4479" font-family="Helvetica,sans-Serif" font-size="14.00" fill="#5e5d87"> &#160;&#160;ME 370</text>
</g>
<!-- MTH 353&#45;&gt;ME 370 -->
<g id="edge45" class="edge">
<title>MTH 353&#45;&gt;ME 370</title>
<path fill="none" stroke="#93aa00" stroke-width="3" stroke-dasharray="5,2" d="M534.0348,-557.3909C577.4544,-558.0805 641.9854,-559.1054 687.0262,-559.8207"/>
<polygon fill="#93aa00" stroke="#93aa00" stroke-width="3" points="687.1233,-563.3226 697.1776,-559.982 687.2345,-556.3235 687.1233,-563.3226"/>
</g>
<!-- MTH 353&#45;&gt;ME 410 -->
<g id="edge48" class="edge">
<title>MTH 353&#45;&gt;ME 410</title>
<path fill="none" stroke="#93aa00" stroke-width="3" stroke-dasharray="5,2" d="M525.0785,-574.6936C530.727,-577.5863 536.4389,-580.6252 541.7668,-583.6479 609.5849,-622.123 614.4538,-656.6422 689.256,-678.6479 731.7671,-691.154 745.2371,-685.8575 788.9592,-678.6479 796.2036,-677.4533 803.6934,-675.6404 810.9985,-673.5252"/>
<polygon fill="#93aa00" stroke="#93aa00" stroke-width="3" points="812.2909,-676.7889 820.8049,-670.4831 810.2169,-670.1031 812.2909,-676.7889"/>
</g>
<!-- GE 205&#45;&gt;ME 308 -->
<g id="edge38" class="edge">
<title>GE 205&#45;&gt;ME 308</title>
<path fill="none" stroke="#b32851" stroke-width="3" d="M528.8418,-593.4744C572.368,-575.5009 640.7735,-547.2537 687.6666,-527.8898"/>
<polygon fill="#b32851" stroke="#b32851" stroke-width="3" points="689.13,-531.0723 697.037,-524.0204 686.4582,-524.6022 689.13,-531.0723"/>
</g>
<!-- GE 205&#45;&gt;ME 370 -->
<g id="edge44" class="edge">
<title>GE 205&#45;&gt;ME 370</title>
<path fill="none" stroke="#b32851" stroke-width="3" d="M527.1177,-628.6527C566.3767,-643.4379 626.5079,-657.9109 669.256,-630.6479 687.0268,-619.3145 674.8138,-602.9995 689.256,-587.6479 690.0316,-586.8235 690.8381,-586.0187 691.6712,-585.2333"/>
<polygon fill="#b32851" stroke="#b32851" stroke-width="3" points="694.1916,-587.6966 699.7692,-578.6887 689.7916,-582.2522 694.1916,-587.6966"/>
</g>
<!-- GE 205&#45;&gt;ME 410 -->
<g id="edge46" class="edge">
<title>GE 205&#45;&gt;ME 410</title>
<path fill="none" stroke="#b32851" stroke-width="3" d="M528.9503,-626.5556C533.7349,-629.681 538.1756,-633.3542 541.7668,-637.6479 562.251,-662.1399 536.2396,-687.4692 561.7668,-706.6479 642.4957,-767.3 698.3713,-751.2535 788.9592,-706.6479 802.0384,-700.2077 797.7183,-689.9315 808.9592,-680.6479 810.3153,-679.5279 811.7256,-678.4384 813.1771,-677.3803"/>
<polygon fill="#b32851" stroke="#b32851" stroke-width="3" points="815.424,-680.0915 821.8506,-671.6683 811.5739,-674.2453 815.424,-680.0915"/>
</g>
<!-- GE 207 -->
<g id="node16" class="node">
<title>GE 207</title>
<polygon fill="#ffffff" stroke="#ffffff" points="528.6838,-682.6479 445.8224,-682.6479 445.8224,-646.6479 528.6838,-646.6479 528.6838,-682.6479"/>
<text text-anchor="start" x="453.7878" y="-661.4479" font-family="Helvetica,sans-Serif" baseline-shift="sub" font-size="14.00" fill="#6e6d6a">1</text>
<text text-anchor="start" x="461.5739" y="-661.4479" font-family="Helvetica,sans-Serif" font-size="14.00" fill="#5e5d87"> &#160;&#160;GE 207</text>
</g>
<!-- GE 206&#45;&gt;GE 207 -->
<g id="edge23" class="edge">
<title>GE 206&#45;&gt;GE 207</title>
<path fill="none" stroke="#007d34" stroke-width="3" stroke-dasharray="5,2" d="M445.6265,-515.859C435.9802,-521.2026 427.2271,-528.5716 422.7394,-538.6479 414.6027,-556.9179 414.6027,-610.3779 422.7394,-628.6479 425.8247,-635.5754 430.926,-641.2232 436.9477,-645.813"/>
<polygon fill="#007d34" stroke="#007d34" stroke-width="3" points="435.331,-648.936 445.6265,-651.4368 439.1377,-643.0615 435.331,-648.936"/>
</g>
<!-- GE 206&#45;&gt;ME 300 -->
<g id="edge24" class="edge">
<title>GE 206&#45;&gt;ME 300</title>
<path fill="none" stroke="#007d34" stroke-width="3" d="M496.4208,-484.638C508.7148,-461.9364 532.43,-422.8425 561.7668,-397.6479 563.0738,-396.5254 564.4357,-395.4354 565.8398,-394.3785"/>
<polygon fill="#007d34" stroke="#007d34" stroke-width="3" points="567.9321,-397.1888 574.2571,-388.689 564.0121,-391.3893 567.9321,-397.1888"/>
</g>
<!-- GE 206&#45;&gt;ME 303 -->
<g id="edge26" class="edge">
<title>GE 206&#45;&gt;ME 303</title>
<path fill="none" stroke="#007d34" stroke-width="3" d="M494.9902,-484.4243C511.8339,-445.0192 551.1634,-354.5448 561.7668,-343.6479 562.9683,-342.4131 564.2383,-341.2253 565.5627,-340.0836"/>
<polygon fill="#007d34" stroke="#007d34" stroke-width="3" points="567.7329,-342.8312 573.6491,-334.0421 563.5432,-337.2235 567.7329,-342.8312"/>
</g>
<!-- ME 302 -->
<g id="node24" class="node">
<title>ME 302</title>
<polygon fill="#ffffff" stroke="#ffffff" points="780.8113,-470.6479 697.404,-470.6479 697.404,-434.6479 780.8113,-434.6479 780.8113,-470.6479"/>
<text text-anchor="start" x="705.256" y="-449.4479" font-family="Helvetica,sans-Serif" baseline-shift="sub" font-size="14.00" fill="#6e6d6a">3</text>
<text text-anchor="start" x="713.0422" y="-449.4479" font-family="Helvetica,sans-Serif" font-size="14.00" fill="#5e5d87"> &#160;&#160;ME 302</text>
</g>
<!-- GE 206&#45;&gt;ME 302 -->
<g id="edge36" class="edge">
<title>GE 206&#45;&gt;ME 302</title>
<path fill="none" stroke="#007d34" stroke-width="3" d="M528.9124,-504.0948C566.3434,-504.3089 622.4556,-501.9194 669.256,-488.6479 672.5353,-487.718 683.8994,-482.0278 696.5363,-475.4357"/>
<polygon fill="#007d34" stroke="#007d34" stroke-width="3" points="698.1807,-478.5255 705.4046,-470.7753 694.9243,-472.3291 698.1807,-478.5255"/>
</g>
<!-- GE 206&#45;&gt;ME 308 -->
<g id="edge39" class="edge">
<title>GE 206&#45;&gt;ME 308</title>
<path fill="none" stroke="#007d34" stroke-width="3" d="M528.8346,-511.8718C539.5125,-513.851 551.0198,-515.6471 561.7668,-516.6479 609.334,-521.0777 621.6037,-520.0416 669.256,-516.6479 675.0489,-516.2354 681.0917,-515.6327 687.0932,-514.9244"/>
<polygon fill="#007d34" stroke="#007d34" stroke-width="3" points="687.626,-518.3849 697.1028,-513.6478 686.7403,-511.4412 687.626,-518.3849"/>
</g>
<!-- ME 300L -->
<g id="node18" class="node">
<title>ME 300L</title>
<polygon fill="#ffffff" stroke="#ffffff" points="661.502,-442.6479 569.5208,-442.6479 569.5208,-406.6479 661.502,-406.6479 661.502,-442.6479"/>
<text text-anchor="start" x="577.7668" y="-421.4479" font-family="Helvetica,sans-Serif" baseline-shift="sub" font-size="14.00" fill="#6e6d6a">1</text>
<text text-anchor="start" x="585.5529" y="-421.4479" font-family="Helvetica,sans-Serif" font-size="14.00" fill="#5e5d87"> &#160;&#160;ME 300L</text>
</g>
<!-- ME 300&#45;&gt;ME 300L -->
<g id="edge25" class="edge">
<title>ME 300&#45;&gt;ME 300L</title>
<path fill="none" stroke="#f6768e" stroke-width="3" d="M615.5114,-398.9922C615.5114,-399.1473 615.5114,-399.3024 615.5114,-399.4575"/>
<polygon fill="#f6768e" stroke="#f6768e" stroke-width="3" points="619.0115,-398.7885 615.5114,-388.7885 612.0115,-398.7886 619.0115,-398.7885"/>
<polygon fill="#f6768e" stroke="#f6768e" stroke-width="3" points="612.0116,-396.438 615.5114,-406.4381 619.0116,-396.4381 612.0116,-396.438"/>
</g>
<!-- ME 300&#45;&gt;ME 302 -->
<!-- ME 303&#45;&gt;ME 302 -->
<g id="edge37" class="edge">
<title>ME 303&#45;&gt;ME 302</title>
<path fill="none" stroke="#ff8e00" stroke-width="3" d="M657.327,-332.8444C661.8117,-335.9031 665.9397,-339.4812 669.256,-343.6479 692.6168,-372.999 666.3505,-395.9402 689.256,-425.6479 689.7293,-426.2618 690.2207,-426.8634 690.7285,-427.4529"/>
<polygon fill="#ff8e00" stroke="#ff8e00" stroke-width="3" points="688.4616,-430.1264 698.1329,-434.4528 693.2705,-425.0396 688.4616,-430.1264"/>
</g>
<!-- ME 316 -->
<g id="node21" class="node">
<title>ME 316</title>
<polygon fill="#ffffff" stroke="#ffffff" points="657.2151,-226.6479 573.8078,-226.6479 573.8078,-190.6479 657.2151,-190.6479 657.2151,-226.6479"/>
<text text-anchor="start" x="581.6598" y="-205.4479" font-family="Helvetica,sans-Serif" baseline-shift="sub" font-size="14.00" fill="#6e6d6a">1</text>
<text text-anchor="start" x="589.446" y="-205.4479" font-family="Helvetica,sans-Serif" font-size="14.00" fill="#5e5d87"> &#160;&#160;ME 316</text>
</g>
<!-- ME 315&#45;&gt;ME 316 -->
<g id="edge29" class="edge">
<title>ME 315&#45;&gt;ME 316</title>
<path fill="none" stroke="#00538a" stroke-width="3" stroke-dasharray="5,2" d="M573.7344,-114.3561C564.4664,-119.6668 556.1102,-126.8953 551.7668,-136.6479 545.2574,-151.2639 545.2574,-158.0319 551.7668,-172.6479 554.7529,-179.3529 559.6357,-184.8647 565.4074,-189.3806"/>
<polygon fill="#00538a" stroke="#00538a" stroke-width="3" points="563.4741,-192.2982 573.7344,-194.9397 567.3608,-186.4764 563.4741,-192.2982"/>
</g>
<!-- ME 340&#45;&gt;ME 430 -->
<g id="edge49" class="edge">
<title>ME 340&#45;&gt;ME 430</title>
<path fill="none" stroke="#593315" stroke-width="3" d="M657.2743,-275.1638C698.8133,-290.0662 760.3569,-319.3503 788.9592,-368.6479 823.8252,-428.7414 770.6161,-622.7111 808.9592,-680.6479 810.2234,-682.5582 811.6656,-684.3393 813.246,-685.9994"/>
<polygon fill="#593315" stroke="#593315" stroke-width="3" points="811.0483,-688.7248 820.937,-692.5281 815.5784,-683.3883 811.0483,-688.7248"/>
</g>
<!-- ME 345&#45;&gt;ME 316 -->
<g id="edge30" class="edge">
<title>ME 345&#45;&gt;ME 316</title>
<path fill="none" stroke="#ff7a5c" stroke-width="3" stroke-dasharray="5,2" d="M615.5114,-172.7885C615.5114,-175.2705 615.5114,-177.7525 615.5114,-180.2344"/>
<polygon fill="#ff7a5c" stroke="#ff7a5c" stroke-width="3" points="612.0115,-180.438 615.5114,-190.4381 619.0115,-180.4381 612.0115,-180.438"/>
</g>
<!-- ME 345&#45;&gt;ME 370 -->
<g id="edge43" class="edge">
<title>ME 345&#45;&gt;ME 370</title>
<path fill="none" stroke="#ff7a5c" stroke-width="3" d="M657.3101,-169.7467C661.9806,-173.0082 666.1612,-176.9345 669.256,-181.6479 712.2586,-247.1403 647.2682,-467.5004 689.256,-533.6479 689.5198,-534.0634 689.7922,-534.473 690.073,-534.8767"/>
<polygon fill="#ff7a5c" stroke="#ff7a5c" stroke-width="3" points="687.7119,-537.4822 697.0332,-542.5186 692.8871,-532.7687 687.7119,-537.4822"/>
</g>
<!-- ME 302&#45;&gt;ME 410 -->
<!-- ME 498 -->
<g id="node32" class="node">
<title>ME 498</title>
<polygon fill="#ffffff" stroke="#ffffff" points="904.4074,-617.6479 821.0001,-617.6479 821.0001,-581.6479 904.4074,-581.6479 904.4074,-617.6479"/>
<text text-anchor="start" x="828.8522" y="-596.4479" font-family="Helvetica,sans-Serif" baseline-shift="sub" font-size="14.00" fill="#6e6d6a">3</text>
<text text-anchor="start" x="836.6384" y="-596.4479" font-family="Helvetica,sans-Serif" font-size="14.00" fill="#5e5d87"> &#160;&#160;ME 498</text>
</g>
<!-- ME 302&#45;&gt;ME 498 -->
<g id="edge54" class="edge">
<title>ME 302&#45;&gt;ME 498</title>
<path fill="none" stroke="#ffb300" stroke-width="3" d="M780.1768,-470.7712C783.4726,-473.3905 786.4801,-476.3398 788.9592,-479.6479 814.3134,-513.4802 783.0864,-539.2105 808.9592,-572.6479 810.1813,-574.2273 811.5207,-575.7215 812.9532,-577.1342"/>
<polygon fill="#ffb300" stroke="#ffb300" stroke-width="3" points="810.8223,-579.913 820.7777,-583.5381 815.2559,-574.496 810.8223,-579.913"/>
</g>
<!-- ME 309 -->
<g id="node26" class="node">
<title>ME 309</title>
<polygon fill="#ffffff" stroke="#ffffff" points="780.8113,-632.6479 697.404,-632.6479 697.404,-596.6479 780.8113,-596.6479 780.8113,-632.6479"/>
<text text-anchor="start" x="705.256" y="-611.4479" font-family="Helvetica,sans-Serif" baseline-shift="sub" font-size="14.00" fill="#6e6d6a">1</text>
<text text-anchor="start" x="713.0422" y="-611.4479" font-family="Helvetica,sans-Serif" font-size="14.00" fill="#5e5d87"> &#160;&#160;ME 309</text>
</g>
<!-- ME 308&#45;&gt;ME 309 -->
<g id="edge41" class="edge">
<title>ME 308&#45;&gt;ME 309</title>
<path fill="none" stroke="#f4c800" stroke-width="3" d="M689.1706,-529.0743C685.0408,-532.9578 681.5685,-537.4556 679.256,-542.6479 672.7466,-557.2639 672.7466,-564.0319 679.256,-578.6479 681.5685,-583.8402 685.0408,-588.338 689.1706,-592.2216"/>
<polygon fill="#f4c800" stroke="#f4c800" stroke-width="3" points="691.5264,-531.6738 697.206,-522.7299 687.1886,-526.1798 691.5264,-531.6738"/>
<polygon fill="#f4c800" stroke="#f4c800" stroke-width="3" points="687.1886,-595.1161 697.206,-598.5659 691.5264,-589.6221 687.1886,-595.1161"/>
</g>
<!-- ME 308&#45;&gt;ME 430 -->
<g id="edge50" class="edge">
<title>ME 308&#45;&gt;ME 430</title>
<path fill="none" stroke="#f4c800" stroke-width="3" d="M780.907,-524.9595C783.9643,-527.5235 786.7205,-530.4093 788.9592,-533.6479 826.451,-587.8865 770.6357,-626.9937 808.9592,-680.6479 810.1654,-682.3367 811.5083,-683.926 812.9593,-685.4211"/>
<polygon fill="#f4c800" stroke="#f4c800" stroke-width="3" points="811.0686,-688.4027 820.984,-692.1358 815.5608,-683.0342 811.0686,-688.4027"/>
</g>
<!-- ME 370&#45;&gt;ME 498 -->
<g id="edge55" class="edge">
<title>ME 370&#45;&gt;ME 498</title>
<path fill="none" stroke="#803e75" stroke-width="3" d="M780.9516,-573.8515C790.7167,-576.9328 801.2263,-580.2491 811.3508,-583.4438"/>
<polygon fill="#803e75" stroke="#803e75" stroke-width="3" points="810.3131,-586.7864 820.9029,-586.4579 812.4196,-580.1109 810.3131,-586.7864"/>
</g>
<!-- ME 410&#45;&gt;ME 498 -->
<g id="edge57" class="edge">
<title>ME 410&#45;&gt;ME 498</title>
<path fill="none" stroke="#ff6800" stroke-width="3" stroke-dasharray="5,2" d="M862.7038,-635.4381C862.7038,-632.9561 862.7038,-630.4741 862.7038,-627.9922"/>
<polygon fill="#ff6800" stroke="#ff6800" stroke-width="3" points="866.2039,-627.7885 862.7038,-617.7885 859.2039,-627.7886 866.2039,-627.7885"/>
</g>
<!-- GE 359 -->
<g id="node34" class="node">
<title>GE 359</title>
<polygon fill="#ffffff" stroke="#ffffff" points="1030.0583,-671.6479 947.1969,-671.6479 947.1969,-635.6479 1030.0583,-635.6479 1030.0583,-671.6479"/>
<text text-anchor="start" x="955.1623" y="-650.4479" font-family="Helvetica,sans-Serif" baseline-shift="sub" font-size="14.00" fill="#6e6d6a">3</text>
<text text-anchor="start" x="962.9484" y="-650.4479" font-family="Helvetica,sans-Serif" font-size="14.00" fill="#5e5d87"> &#160;&#160;GE 359</text>
</g>
<!-- ME 410&#45;&gt;GE 359 -->
<!-- ME 430L -->
<g id="node31" class="node">
<title>ME 430L</title>
<polygon fill="#ffffff" stroke="#ffffff" points="908.6944,-779.6479 816.7132,-779.6479 816.7132,-743.6479 908.6944,-743.6479 908.6944,-779.6479"/>
<text text-anchor="start" x="824.9592" y="-758.4479" font-family="Helvetica,sans-Serif" baseline-shift="sub" font-size="14.00" fill="#6e6d6a">1</text>
<text text-anchor="start" x="832.7453" y="-758.4479" font-family="Helvetica,sans-Serif" font-size="14.00" fill="#5e5d87"> &#160;&#160;ME 430L</text>
</g>
<!-- ME 430&#45;&gt;ME 430L -->
<g id="edge53" class="edge">
<title>ME 430&#45;&gt;ME 430L</title>
<path fill="none" stroke="#232c16" stroke-width="3" d="M862.7038,-735.9922C862.7038,-736.1473 862.7038,-736.3024 862.7038,-736.4575"/>
<polygon fill="#232c16" stroke="#232c16" stroke-width="3" points="866.2039,-735.7885 862.7038,-725.7885 859.2039,-735.7886 866.2039,-735.7885"/>
<polygon fill="#232c16" stroke="#232c16" stroke-width="3" points="859.2039,-733.438 862.7038,-743.4381 866.2039,-733.4381 859.2039,-733.438"/>
</g>
<!-- ME 430&#45;&gt;ME 498 -->
<g id="edge56" class="edge">
<title>ME 430&#45;&gt;ME 498</title>
<path fill="none" stroke="#232c16" stroke-width="3" stroke-dasharray="5,2" d="M820.9268,-693.9397C811.6588,-688.629 803.3026,-681.4006 798.9592,-671.6479 792.4497,-657.0319 792.4497,-650.2639 798.9592,-635.6479 801.9453,-628.943 806.8281,-623.4311 812.5998,-618.9152"/>
<polygon fill="#232c16" stroke="#232c16" stroke-width="3" points="814.5532,-621.8195 820.9268,-613.3561 810.6665,-615.9977 814.5532,-621.8195"/>
</g>
<!-- ME 499 -->
<g id="node35" class="node">
<title>ME 499</title>
<polygon fill="#ffffff" stroke="#ffffff" points="1030.3313,-617.6479 946.924,-617.6479 946.924,-581.6479 1030.3313,-581.6479 1030.3313,-617.6479"/>
<text text-anchor="start" x="954.7761" y="-596.4479" font-family="Helvetica,sans-Serif" baseline-shift="sub" font-size="14.00" fill="#6e6d6a">3</text>
<text text-anchor="start" x="962.5622" y="-596.4479" font-family="Helvetica,sans-Serif" font-size="14.00" fill="#5e5d87"> &#160;&#160;ME 499</text>
</g>
<!-- ME 498&#45;&gt;ME 499 -->
<g id="edge58" class="edge">
<title>ME 498&#45;&gt;ME 499</title>
<path fill="none" stroke="#a6bdd7" stroke-width="3" d="M904.6346,-599.6479C914.936,-599.6479 926.0861,-599.6479 936.7928,-599.6479"/>
<polygon fill="#a6bdd7" stroke="#a6bdd7" stroke-width="3" points="936.8799,-603.148 946.8799,-599.6479 936.8799,-596.148 936.8799,-603.148"/>
</g>
<!-- ME El. 1 -->
<g id="node33" class="node">
<title>ME El. 1</title>
<polygon fill="#ffffff" stroke="#ffffff" points="907.0629,-563.6479 818.3447,-563.6479 818.3447,-527.6479 907.0629,-527.6479 907.0629,-563.6479"/>
<text text-anchor="start" x="826.5246" y="-542.4479" font-family="Helvetica,sans-Serif" baseline-shift="sub" font-size="14.00" fill="#6e6d6a">3</text>
<text text-anchor="start" x="834.3107" y="-542.4479" font-family="Helvetica,sans-Serif" font-size="14.00" fill="#5e5d87"> &#160;&#160;ME El. 1</text>
</g>
<!-- ME El. 2 -->
<g id="node36" class="node">
<title>ME El. 2</title>
<polygon fill="#ffffff" stroke="#ffffff" points="1032.9867,-563.6479 944.2685,-563.6479 944.2685,-527.6479 1032.9867,-527.6479 1032.9867,-563.6479"/>
<text text-anchor="start" x="952.4484" y="-542.4479" font-family="Helvetica,sans-Serif" baseline-shift="sub" font-size="14.00" fill="#6e6d6a">3</text>
<text text-anchor="start" x="960.2346" y="-542.4479" font-family="Helvetica,sans-Serif" font-size="14.00" fill="#5e5d87"> &#160;&#160;ME El. 2</text>
</g>
<!-- ME El. 3 -->
<g id="node37" class="node">
<title>ME El. 3</title>
<polygon fill="#ffffff" stroke="#ffffff" points="1032.9867,-509.6479 944.2685,-509.6479 944.2685,-473.6479 1032.9867,-473.6479 1032.9867,-509.6479"/>
<text text-anchor="start" x="952.4484" y="-488.4479" font-family="Helvetica,sans-Serif" baseline-shift="sub" font-size="14.00" fill="#6e6d6a">3</text>
<text text-anchor="start" x="960.2346" y="-488.4479" font-family="Helvetica,sans-Serif" font-size="14.00" fill="#5e5d87"> &#160;&#160;ME El. 3</text>
</g>
</g>
</svg>
