<?xml version="1.0" encoding="UTF-8" standalone="no"?>
<!DOCTYPE svg PUBLIC "-//W3C//DTD SVG 1.1//EN"
 "http://www.w3.org/Graphics/SVG/1.1/DTD/svg11.dtd">
<!-- Generated by graphviz version 2.40.1 (20161225.0304)
 -->
<!-- Title: %3 Pages: 1 -->
<svg width="904pt" height="580pt"
 viewBox="0.00 0.00 904.36 580.00" xmlns="http://www.w3.org/2000/svg" xmlns:xlink="http://www.w3.org/1999/xlink">
<g id="graph0" class="graph" transform="scale(1 1) rotate(0) translate(4 576)">
<title>%3</title>
<polygon fill="#ffffff" stroke="transparent" points="-4,4 -4,-576 900.3597,-576 900.3597,4 -4,4"/>
<g id="clust1" class="cluster">
<title>cluster_0</title>
<polygon fill="#ffffff" stroke="#000000" points="469,-512 469,-564 779,-564 779,-512 469,-512"/>
</g>
<g id="clust2" class="cluster">
<title>cluster_1</title>
<polygon fill="#ffffff" stroke="#000000" points="445,-440 445,-492 729,-492 729,-440 445,-440"/>
</g>
<g id="clust3" class="cluster">
<title>cluster_2</title>
<polygon fill="#ffffff" stroke="#000000" points="257,-368 257,-420 432,-420 432,-368 257,-368"/>
</g>
<g id="clust4" class="cluster">
<title>cluster_3</title>
<polygon fill="#ffffff" stroke="#000000" points="164,-296 164,-348 533,-348 533,-296 164,-296"/>
</g>
<g id="clust5" class="cluster">
<title>cluster_4</title>
<polygon fill="#ffffff" stroke="#000000" points="354,-224 354,-276 874,-276 874,-224 354,-224"/>
</g>
<g id="clust6" class="cluster">
<title>cluster_5</title>
<polygon fill="#ffffff" stroke="#000000" points="151,-152 151,-204 503,-204 503,-152 151,-152"/>
</g>
<g id="clust7" class="cluster">
<title>cluster_6</title>
<polygon fill="#ffffff" stroke="#000000" points="8,-80 8,-132 419,-132 419,-80 8,-80"/>
</g>
<g id="clust8" class="cluster">
<title>cluster_7</title>
<polygon fill="#ffffff" stroke="#000000" points="31,-8 31,-60 527,-60 527,-8 31,-8"/>
</g>
<!-- CHM 145+L -->
<g id="node1" class="node">
<title>CHM 145+L</title>
<polygon fill="#006699" stroke="#ffffff" points="770.6131,-556 679.3869,-556 679.3869,-520 770.6131,-520 770.6131,-556"/>
<text text-anchor="middle" x="725" y="-533.8" font-family="Courier,monospace" font-size="14.00" fill="#ffffff">CHM 145+L</text>
</g>
<!-- PHY 172+L -->
<g id="node4" class="node">
<title>PHY 172+L</title>
<polygon fill="#006699" stroke="#ffffff" points="636.6131,-484 545.3869,-484 545.3869,-448 636.6131,-448 636.6131,-484"/>
<text text-anchor="middle" x="591" y="-461.8" font-family="Courier,monospace" font-size="14.00" fill="#ffffff">PHY 172+L</text>
</g>
<!-- CHM 145+L&#45;&gt;PHY 172+L -->
<!-- ME 303 -->
<g id="node15" class="node">
<title>ME 303</title>
<polygon fill="#006699" stroke="#ffffff" points="782.4095,-268 715.5905,-268 715.5905,-232 782.4095,-232 782.4095,-268"/>
<text text-anchor="middle" x="749" y="-245.8" font-family="Courier,monospace" font-size="14.00" fill="#ffffff">ME 303</text>
</g>
<!-- CHM 145+L&#45;&gt;ME 303 -->
<g id="edge17" class="edge">
<title>CHM 145+L&#45;&gt;ME 303</title>
<path fill="none" stroke="#000000" d="M728.6401,-519.7108C730.1954,-511.3009 731.902,-501.1754 733,-492 742.1979,-415.1407 746.4366,-323.8689 748.0953,-278.5222"/>
<polygon fill="#000000" stroke="#000000" points="748.4544,-268.2759 752.6013,-278.4273 748.2792,-273.2728 748.1041,-278.2697 748.1041,-278.2697 748.1041,-278.2697 748.2792,-273.2728 743.6069,-278.1121 748.4544,-268.2759 748.4544,-268.2759"/>
</g>
<!-- ME 340 -->
<g id="node17" class="node">
<title>ME 340</title>
<polygon fill="#006699" stroke="#ffffff" points="866.4095,-268 799.5905,-268 799.5905,-232 866.4095,-232 866.4095,-268"/>
<text text-anchor="middle" x="833" y="-245.8" font-family="Courier,monospace" font-size="14.00" fill="#ffffff">ME 340</text>
</g>
<!-- CHM 145+L&#45;&gt;ME 340 -->
<g id="edge35" class="edge">
<title>CHM 145+L&#45;&gt;ME 340</title>
<path fill="none" stroke="#000000" d="M735.2045,-519.944C739.726,-511.5811 744.9304,-501.428 749,-492 781.6208,-416.4281 810.9801,-323.6366 824.7429,-278.0259"/>
<polygon fill="#000000" stroke="#000000" points="827.6694,-268.2566 829.1105,-279.1274 826.2345,-273.0464 824.7997,-277.8361 824.7997,-277.8361 824.7997,-277.8361 826.2345,-273.0464 820.489,-276.5447 827.6694,-268.2566 827.6694,-268.2566"/>
</g>
<!-- PHY 171+L -->
<g id="node2" class="node">
<title>PHY 171+L</title>
<polygon fill="#006699" stroke="#ffffff" points="660.6131,-556 569.3869,-556 569.3869,-520 660.6131,-520 660.6131,-556"/>
<text text-anchor="middle" x="615" y="-533.8" font-family="Courier,monospace" font-size="14.00" fill="#ffffff">PHY 171+L</text>
</g>
<!-- GE 104 -->
<g id="node5" class="node">
<title>GE 104</title>
<polygon fill="#006699" stroke="#ffffff" points="721.4095,-484 654.5905,-484 654.5905,-448 721.4095,-448 721.4095,-484"/>
<text text-anchor="middle" x="688" y="-461.8" font-family="Courier,monospace" font-size="14.00" fill="#ffffff">GE 104</text>
</g>
<!-- PHY 171+L&#45;&gt;GE 104 -->
<g id="edge32" class="edge">
<title>PHY 171+L&#45;&gt;GE 104</title>
<path fill="none" stroke="#000000" d="M633.421,-519.8314C642.1529,-511.219 652.7317,-500.7851 662.2423,-491.4048"/>
<polygon fill="#000000" stroke="#000000" points="669.5849,-484.1628 665.6252,-494.3889 666.0251,-487.6739 662.4652,-491.185 662.4652,-491.185 662.4652,-491.185 666.0251,-487.6739 659.3052,-487.9811 669.5849,-484.1628 669.5849,-484.1628"/>
</g>
<!-- GE 204 -->
<g id="node7" class="node">
<title>GE 204</title>
<polygon fill="#006699" stroke="#ffffff" points="424.4095,-412 357.5905,-412 357.5905,-376 424.4095,-376 424.4095,-412"/>
<text text-anchor="middle" x="391" y="-389.8" font-family="Courier,monospace" font-size="14.00" fill="#ffffff">GE 204</text>
</g>
<!-- PHY 171+L&#45;&gt;GE 204 -->
<g id="edge20" class="edge">
<title>PHY 171+L&#45;&gt;GE 204</title>
<path fill="none" stroke="#000000" d="M580.3704,-519.8748C573.7368,-516.9091 566.7518,-514.1186 560,-512 508.8293,-495.9436 484.2475,-523.7159 441,-492 434.6966,-487.3773 416.0098,-448.5947 403.3542,-421.2296"/>
<polygon fill="#000000" stroke="#000000" points="399.1594,-412.101 407.4239,-419.3086 401.2472,-416.6443 403.3349,-421.1876 403.3349,-421.1876 403.3349,-421.1876 401.2472,-416.6443 399.246,-423.0666 399.1594,-412.101 399.1594,-412.101"/>
</g>
<!-- MTH 171 -->
<g id="node3" class="node">
<title>MTH 171</title>
<polygon fill="#006699" stroke="#ffffff" points="551.3098,-556 476.6902,-556 476.6902,-520 551.3098,-520 551.3098,-556"/>
<text text-anchor="middle" x="514" y="-533.8" font-family="Courier,monospace" font-size="14.00" fill="#ffffff">MTH 171</text>
</g>
<!-- MTH 171&#45;&gt;PHY 171+L -->
<g id="edge30" class="edge">
<title>MTH 171&#45;&gt;PHY 171+L</title>
<path fill="none" stroke="#000000" stroke-dasharray="5,2" d="M551.4805,-538C554.0858,-538 556.6911,-538 559.2963,-538"/>
<polygon fill="#000000" stroke="#000000" points="569.3453,-538 559.3454,-542.5001 564.3453,-538 559.3453,-538.0001 559.3453,-538.0001 559.3453,-538.0001 564.3453,-538 559.3453,-533.5001 569.3453,-538 569.3453,-538"/>
</g>
<!-- MTH 171&#45;&gt;GE 104 -->
<g id="edge31" class="edge">
<title>MTH 171&#45;&gt;GE 104</title>
<path fill="none" stroke="#000000" d="M543.0812,-519.9252C548.5683,-516.9904 554.3584,-514.1977 560,-512 596.5656,-497.7555 609.7255,-506.9703 646,-492 648.1255,-491.1228 650.2665,-490.1442 652.3964,-489.0949"/>
<polygon fill="#000000" stroke="#000000" points="661.5814,-484.1385 654.918,-492.8477 657.1812,-486.513 652.781,-488.8875 652.781,-488.8875 652.781,-488.8875 657.1812,-486.513 650.6439,-484.9273 661.5814,-484.1385 661.5814,-484.1385"/>
</g>
<!-- MTH 172 -->
<g id="node6" class="node">
<title>MTH 172</title>
<polygon fill="#006699" stroke="#ffffff" points="527.3098,-484 452.6902,-484 452.6902,-448 527.3098,-448 527.3098,-484"/>
<text text-anchor="middle" x="490" y="-461.8" font-family="Courier,monospace" font-size="14.00" fill="#ffffff">MTH 172</text>
</g>
<!-- MTH 171&#45;&gt;MTH 172 -->
<g id="edge42" class="edge">
<title>MTH 171&#45;&gt;MTH 172</title>
<path fill="none" stroke="#000000" d="M507.9438,-519.8314C505.3488,-512.0463 502.2576,-502.7729 499.3782,-494.1347"/>
<polygon fill="#000000" stroke="#000000" points="496.1378,-484.4133 503.5692,-492.477 497.7189,-489.1567 499.3001,-493.9001 499.3001,-493.9001 499.3001,-493.9001 497.7189,-489.1567 495.031,-495.3232 496.1378,-484.4133 496.1378,-484.4133"/>
</g>
<!-- MTH 171&#45;&gt;GE 204 -->
<g id="edge19" class="edge">
<title>MTH 171&#45;&gt;GE 204</title>
<path fill="none" stroke="#000000" d="M476.551,-530.345C454.2582,-523.8529 427.2367,-512.2417 411,-492 395.2917,-472.417 390.947,-443.6971 390.1408,-422.406"/>
<polygon fill="#000000" stroke="#000000" points="389.9975,-412.3307 394.6394,-422.2656 390.0686,-417.3302 390.1398,-422.3297 390.1398,-422.3297 390.1398,-422.3297 390.0686,-417.3302 385.6403,-422.3937 389.9975,-412.3307 389.9975,-412.3307"/>
</g>
<!-- PHY 172+L&#45;&gt;GE 204 -->
<!-- ME 315 -->
<g id="node13" class="node">
<title>ME 315</title>
<polygon fill="#006699" stroke="#ffffff" points="530.4095,-268 463.5905,-268 463.5905,-232 530.4095,-232 530.4095,-268"/>
<text text-anchor="middle" x="497" y="-245.8" font-family="Courier,monospace" font-size="14.00" fill="#ffffff">ME 315</text>
</g>
<!-- PHY 172+L&#45;&gt;ME 315 -->
<g id="edge8" class="edge">
<title>PHY 172+L&#45;&gt;ME 315</title>
<path fill="none" stroke="#000000" d="M587.778,-447.9039C581.5164,-415.7341 565.7323,-347.1674 537,-296 533.0651,-288.9926 527.9451,-282.0949 522.6892,-275.8584"/>
<polygon fill="#000000" stroke="#000000" points="516.038,-268.3539 526.0385,-272.853 519.3544,-272.0958 522.6708,-275.8377 522.6708,-275.8377 522.6708,-275.8377 519.3544,-272.0958 519.3031,-278.8225 516.038,-268.3539 516.038,-268.3539"/>
</g>
<!-- PHY 172+L&#45;&gt;ME 340 -->
<g id="edge36" class="edge">
<title>PHY 172+L&#45;&gt;ME 340</title>
<path fill="none" stroke="#000000" d="M611.2165,-447.9555C654.3672,-409.4409 755.5643,-319.1161 804.9275,-275.0564"/>
<polygon fill="#000000" stroke="#000000" points="812.6708,-268.1451 808.2068,-278.1613 808.9406,-271.4745 805.2103,-274.804 805.2103,-274.804 805.2103,-274.804 808.9406,-271.4745 802.2138,-271.4468 812.6708,-268.1451 812.6708,-268.1451"/>
</g>
<!-- ME 345 -->
<g id="node18" class="node">
<title>ME 345</title>
<polygon fill="#006699" stroke="#ffffff" points="614.4095,-268 547.5905,-268 547.5905,-232 614.4095,-232 614.4095,-268"/>
<text text-anchor="middle" x="581" y="-245.8" font-family="Courier,monospace" font-size="14.00" fill="#ffffff">ME 345</text>
</g>
<!-- PHY 172+L&#45;&gt;ME 345 -->
<g id="edge41" class="edge">
<title>PHY 172+L&#45;&gt;ME 345</title>
<path fill="none" stroke="#000000" d="M597.851,-447.93C600.6699,-439.5643 603.5993,-429.4128 605,-420 613.1115,-365.4891 618.1238,-349.5257 605,-296 603.4515,-289.6846 600.868,-283.2732 597.9563,-277.3222"/>
<polygon fill="#000000" stroke="#000000" points="593.2122,-268.4293 601.8895,-275.1342 595.5657,-272.8408 597.9191,-277.2523 597.9191,-277.2523 597.9191,-277.2523 595.5657,-272.8408 593.9488,-279.3704 593.2122,-268.4293 593.2122,-268.4293"/>
</g>
<!-- ME 350 -->
<g id="node22" class="node">
<title>ME 350</title>
<polygon fill="#006699" stroke="#ffffff" points="495.4095,-196 428.5905,-196 428.5905,-160 495.4095,-160 495.4095,-196"/>
<text text-anchor="middle" x="462" y="-173.8" font-family="Courier,monospace" font-size="14.00" fill="#ffffff">ME 350</text>
</g>
<!-- GE 104&#45;&gt;ME 350 -->
<g id="edge43" class="edge">
<title>GE 104&#45;&gt;ME 350</title>
<path fill="none" stroke="#000000" d="M721.2604,-447.9051C792.823,-406.7807 949.3584,-303.6839 878,-224 853.45,-196.5857 607.253,-183.7536 505.5748,-179.5919"/>
<polygon fill="#000000" stroke="#000000" points="495.339,-179.1824 505.511,-175.0858 500.335,-179.3823 505.331,-179.5822 505.331,-179.5822 505.331,-179.5822 500.335,-179.3823 505.1511,-184.0787 495.339,-179.1824 495.339,-179.1824"/>
</g>
<!-- MTH 172&#45;&gt;PHY 172+L -->
<g id="edge29" class="edge">
<title>MTH 172&#45;&gt;PHY 172+L</title>
<path fill="none" stroke="#000000" stroke-dasharray="5,2" d="M527.4805,-466C530.0858,-466 532.6911,-466 535.2963,-466"/>
<polygon fill="#000000" stroke="#000000" points="545.3453,-466 535.3454,-470.5001 540.3453,-466 535.3453,-466.0001 535.3453,-466.0001 535.3453,-466.0001 540.3453,-466 535.3453,-461.5001 545.3453,-466 545.3453,-466"/>
</g>
<!-- MTH 322 -->
<g id="node8" class="node">
<title>MTH 322</title>
<polygon fill="#006699" stroke="#ffffff" points="339.3098,-412 264.6902,-412 264.6902,-376 339.3098,-376 339.3098,-412"/>
<text text-anchor="middle" x="302" y="-389.8" font-family="Courier,monospace" font-size="14.00" fill="#ffffff">MTH 322</text>
</g>
<!-- MTH 172&#45;&gt;MTH 322 -->
<g id="edge34" class="edge">
<title>MTH 172&#45;&gt;MTH 322</title>
<path fill="none" stroke="#000000" d="M452.4734,-455.8693C423.6442,-447.5848 383.1187,-434.8421 349,-420 346.559,-418.9381 344.0779,-417.7897 341.5961,-416.5874"/>
<polygon fill="#000000" stroke="#000000" points="332.676,-412.0552 343.6297,-412.5731 337.1336,-414.3201 341.5913,-416.585 341.5913,-416.585 341.5913,-416.585 337.1336,-414.3201 339.5529,-420.5969 332.676,-412.0552 332.676,-412.0552"/>
</g>
<!-- MTH 271 -->
<g id="node10" class="node">
<title>MTH 271</title>
<polygon fill="#006699" stroke="#ffffff" points="525.3098,-340 450.6902,-340 450.6902,-304 525.3098,-304 525.3098,-340"/>
<text text-anchor="middle" x="488" y="-317.8" font-family="Courier,monospace" font-size="14.00" fill="#ffffff">MTH 271</text>
</g>
<!-- MTH 172&#45;&gt;MTH 271 -->
<g id="edge38" class="edge">
<title>MTH 172&#45;&gt;MTH 271</title>
<path fill="none" stroke="#000000" d="M489.7467,-447.7623C489.4056,-423.201 488.7951,-379.2474 488.3938,-350.3541"/>
<polygon fill="#000000" stroke="#000000" points="488.2512,-340.0896 492.8898,-350.0261 488.3207,-345.0891 488.3902,-350.0887 488.3902,-350.0887 488.3902,-350.0887 488.3207,-345.0891 483.8907,-350.1512 488.2512,-340.0896 488.2512,-340.0896"/>
</g>
<!-- MTH 353 -->
<g id="node11" class="node">
<title>MTH 353</title>
<polygon fill="#006699" stroke="#ffffff" points="331.3098,-340 256.6902,-340 256.6902,-304 331.3098,-304 331.3098,-340"/>
<text text-anchor="middle" x="294" y="-317.8" font-family="Courier,monospace" font-size="14.00" fill="#ffffff">MTH 353</text>
</g>
<!-- MTH 172&#45;&gt;MTH 353 -->
<g id="edge39" class="edge">
<title>MTH 172&#45;&gt;MTH 353</title>
<path fill="none" stroke="#000000" d="M485.0538,-447.6833C478.0125,-425.268 462.874,-387.854 436,-368 400.9459,-342.1027 380.7901,-363.35 340,-348 337.4323,-347.0337 334.8368,-345.9384 332.255,-344.7574"/>
<polygon fill="#000000" stroke="#000000" points="323.0399,-340.1828 333.9979,-340.5987 327.5184,-342.406 331.9969,-344.6293 331.9969,-344.6293 331.9969,-344.6293 327.5184,-342.406 329.996,-348.66 323.0399,-340.1828 323.0399,-340.1828"/>
</g>
<!-- GE 205 -->
<g id="node9" class="node">
<title>GE 205</title>
<polygon fill="#006699" stroke="#ffffff" points="238.4095,-340 171.5905,-340 171.5905,-304 238.4095,-304 238.4095,-340"/>
<text text-anchor="middle" x="205" y="-317.8" font-family="Courier,monospace" font-size="14.00" fill="#ffffff">GE 205</text>
</g>
<!-- GE 204&#45;&gt;GE 205 -->
<!-- GE 204&#45;&gt;GE 205 -->
<g id="edge21" class="edge">
<title>GE 204&#45;&gt;GE 205</title>
<path fill="none" stroke="#000000" d="M372.8152,-375.7395C367.8245,-372.8236 362.3668,-370.0854 357,-368 314.7527,-351.584 299.2473,-364.416 257,-348 253.8135,-346.7618 250.5949,-345.2934 247.3965,-343.6944"/>
<polygon fill="#000000" stroke="#000000" points="238.4795,-338.9245 249.4198,-339.6734 242.8883,-341.2829 247.2972,-343.6413 247.2972,-343.6413 247.2972,-343.6413 242.8883,-341.2829 245.1746,-347.6093 238.4795,-338.9245 238.4795,-338.9245"/>
</g>
<!-- GE 206+7 -->
<g id="node12" class="node">
<title>GE 206+7</title>
<polygon fill="#006699" stroke="#ffffff" points="432.7112,-340 349.2888,-340 349.2888,-304 432.7112,-304 432.7112,-340"/>
<text text-anchor="middle" x="391" y="-317.8" font-family="Courier,monospace" font-size="14.00" fill="#ffffff">GE 206+7</text>
</g>
<!-- GE 204&#45;&gt;GE 206+7 -->
<g id="edge44" class="edge">
<title>GE 204&#45;&gt;GE 206+7</title>
<path fill="none" stroke="#000000" d="M391,-375.8314C391,-368.131 391,-358.9743 391,-350.4166"/>
<polygon fill="#000000" stroke="#000000" points="391,-340.4133 395.5001,-350.4132 391,-345.4133 391.0001,-350.4133 391.0001,-350.4133 391.0001,-350.4133 391,-345.4133 386.5001,-350.4133 391,-340.4133 391,-340.4133"/>
</g>
<!-- MTH 322&#45;&gt;ME 340 -->
<g id="edge37" class="edge">
<title>MTH 322&#45;&gt;ME 340</title>
<path fill="none" stroke="#000000" stroke-dasharray="5,2" d="M330.2446,-375.9377C336.238,-372.8111 342.6714,-369.9451 349,-368 442.4254,-339.2862 472.2428,-367.5793 568,-348 670.0379,-327.1365 696.4762,-319.7294 791,-276 793.0236,-275.0638 795.0694,-274.0496 797.1121,-272.9829"/>
<polygon fill="#000000" stroke="#000000" points="805.9684,-268.0487 799.4228,-276.8468 801.6005,-270.4822 797.2326,-272.9157 797.2326,-272.9157 797.2326,-272.9157 801.6005,-270.4822 795.0425,-268.9846 805.9684,-268.0487 805.9684,-268.0487"/>
</g>
<!-- MTH 322&#45;&gt;ME 345 -->
<g id="edge40" class="edge">
<title>MTH 322&#45;&gt;ME 345</title>
<path fill="none" stroke="#000000" d="M330.5211,-375.8794C336.4402,-372.7981 342.775,-369.9641 349,-368 389.0664,-355.3581 502.9874,-372.6633 537,-348 559.6512,-331.5752 570.8648,-300.745 576.2672,-278.0342"/>
<polygon fill="#000000" stroke="#000000" points="578.3607,-268.2518 580.6683,-278.9721 577.3143,-273.1411 576.268,-278.0304 576.268,-278.0304 576.268,-278.0304 577.3143,-273.1411 571.8676,-277.0887 578.3607,-268.2518 578.3607,-268.2518"/>
</g>
<!-- ME 370 -->
<g id="node20" class="node">
<title>ME 370</title>
<polygon fill="#006699" stroke="#ffffff" points="225.4095,-196 158.5905,-196 158.5905,-160 225.4095,-160 225.4095,-196"/>
<text text-anchor="middle" x="192" y="-173.8" font-family="Courier,monospace" font-size="14.00" fill="#ffffff">ME 370</text>
</g>
<!-- MTH 322&#45;&gt;ME 370 -->
<g id="edge13" class="edge">
<title>MTH 322&#45;&gt;ME 370</title>
<path fill="none" stroke="#000000" d="M264.6599,-387.0337C226.9261,-379.145 172.4596,-365.1333 160,-348 128.9496,-305.3025 155.6319,-241.0835 175.4001,-205.0333"/>
<polygon fill="#000000" stroke="#000000" points="180.4878,-196.079 179.4601,-206.9966 178.0177,-200.4263 175.5476,-204.7735 175.5476,-204.7735 175.5476,-204.7735 178.0177,-200.4263 171.635,-202.5504 180.4878,-196.079 180.4878,-196.079"/>
</g>
<!-- ME 430+L -->
<g id="node23" class="node">
<title>ME 430+L</title>
<polygon fill="#006699" stroke="#ffffff" points="326.7112,-124 243.2888,-124 243.2888,-88 326.7112,-88 326.7112,-124"/>
<text text-anchor="middle" x="285" y="-101.8" font-family="Courier,monospace" font-size="14.00" fill="#ffffff">ME 430+L</text>
</g>
<!-- MTH 322&#45;&gt;ME 430+L -->
<g id="edge24" class="edge">
<title>MTH 322&#45;&gt;ME 430+L</title>
<path fill="none" stroke="#000000" d="M264.5898,-388.4958C222.0997,-381.3895 156.7348,-367.5679 142,-348 118.7439,-317.1158 90.0285,-220.8859 147,-152 172.5619,-121.0924 197.3438,-145.8095 235,-132 238.0313,-130.8883 241.112,-129.6312 244.1789,-128.2847"/>
<polygon fill="#000000" stroke="#000000" points="253.2752,-124.0325 246.1217,-132.3439 248.7456,-126.1499 244.2161,-128.2673 244.2161,-128.2673 244.2161,-128.2673 248.7456,-126.1499 242.3104,-124.1907 253.2752,-124.0325 253.2752,-124.0325"/>
</g>
<!-- ME 410 -->
<g id="node26" class="node">
<title>ME 410</title>
<polygon fill="#006699" stroke="#ffffff" points="82.4095,-124 15.5905,-124 15.5905,-88 82.4095,-88 82.4095,-124"/>
<text text-anchor="middle" x="49" y="-101.8" font-family="Courier,monospace" font-size="14.00" fill="#ffffff">ME 410</text>
</g>
<!-- MTH 322&#45;&gt;ME 410 -->
<g id="edge46" class="edge">
<title>MTH 322&#45;&gt;ME 410</title>
<path fill="none" stroke="#000000" d="M264.5981,-389.2526C216.5742,-382.4189 136.9235,-368.3529 116,-348 56.6097,-290.2294 48.4746,-184.8561 48.2243,-134.4016"/>
<polygon fill="#000000" stroke="#000000" points="48.2795,-124.2227 52.7252,-134.247 48.2524,-129.2227 48.2252,-134.2226 48.2252,-134.2226 48.2252,-134.2226 48.2524,-129.2227 43.7253,-134.1982 48.2795,-124.2227 48.2795,-124.2227"/>
</g>
<!-- GE 205&#45;&gt;ME 315 -->
<!-- ME 308+9 -->
<g id="node19" class="node">
<title>ME 308+9</title>
<polygon fill="#006699" stroke="#ffffff" points="326.7112,-196 243.2888,-196 243.2888,-160 326.7112,-160 326.7112,-196"/>
<text text-anchor="middle" x="285" y="-173.8" font-family="Courier,monospace" font-size="14.00" fill="#ffffff">ME 308+9</text>
</g>
<!-- GE 205&#45;&gt;ME 308+9 -->
<g id="edge11" class="edge">
<title>GE 205&#45;&gt;ME 308+9</title>
<path fill="none" stroke="#000000" d="M215.1321,-303.7623C229.0176,-278.7682 254.0598,-233.6924 270.0884,-204.8409"/>
<polygon fill="#000000" stroke="#000000" points="274.9502,-196.0896 274.0274,-207.0166 272.522,-200.4604 270.0937,-204.8312 270.0937,-204.8312 270.0937,-204.8312 272.522,-200.4604 266.16,-202.6458 274.9502,-196.0896 274.9502,-196.0896"/>
</g>
<!-- GE 205&#45;&gt;ME 370 -->
<g id="edge14" class="edge">
<title>GE 205&#45;&gt;ME 370</title>
<path fill="none" stroke="#000000" d="M203.3535,-303.7623C201.1362,-279.201 197.1682,-235.2474 194.5597,-206.3541"/>
<polygon fill="#000000" stroke="#000000" points="193.6331,-196.0896 199.0141,-205.6445 194.0827,-201.0694 194.5323,-206.0491 194.5323,-206.0491 194.5323,-206.0491 194.0827,-201.0694 190.0505,-206.4538 193.6331,-196.0896 193.6331,-196.0896"/>
</g>
<!-- GE 205&#45;&gt;ME 410 -->
<g id="edge45" class="edge">
<title>GE 205&#45;&gt;ME 410</title>
<path fill="none" stroke="#000000" d="M191.9678,-303.9555C164.4385,-265.8379 100.2583,-176.973 68.091,-132.4337"/>
<polygon fill="#000000" stroke="#000000" points="62.1048,-124.1451 71.6078,-129.6172 65.0322,-128.1985 67.9597,-132.2519 67.9597,-132.2519 67.9597,-132.2519 65.0322,-128.1985 64.3117,-134.8866 62.1048,-124.1451 62.1048,-124.1451"/>
</g>
<!-- MTH 353&#45;&gt;ME 370 -->
<g id="edge15" class="edge">
<title>MTH 353&#45;&gt;ME 370</title>
<path fill="none" stroke="#000000" stroke-dasharray="5,2" d="M281.0816,-303.7623C263.3009,-278.66 231.172,-233.3017 210.7475,-204.4671"/>
<polygon fill="#000000" stroke="#000000" points="204.8135,-196.0896 214.2658,-201.6488 207.7036,-200.1697 210.5937,-204.2499 210.5937,-204.2499 210.5937,-204.2499 207.7036,-200.1697 206.9216,-206.851 204.8135,-196.0896 204.8135,-196.0896"/>
</g>
<!-- GE 206+7&#45;&gt;ME 303 -->
<g id="edge16" class="edge">
<title>GE 206+7&#45;&gt;ME 303</title>
<path fill="none" stroke="#000000" d="M421.7629,-303.8753C428.2574,-300.7535 435.2058,-297.9052 442,-296 555.726,-264.1094 594.6922,-312.5729 707,-276 709.7521,-275.1038 712.5085,-273.992 715.2203,-272.737"/>
<polygon fill="#000000" stroke="#000000" points="724.1971,-268.0239 717.4351,-276.6568 719.7701,-270.3482 715.3432,-272.6725 715.3432,-272.6725 715.3432,-272.6725 719.7701,-270.3482 713.2513,-268.6883 724.1971,-268.0239 724.1971,-268.0239"/>
</g>
<!-- ME 300+L -->
<g id="node16" class="node">
<title>ME 300+L</title>
<polygon fill="#006699" stroke="#ffffff" points="445.7112,-268 362.2888,-268 362.2888,-232 445.7112,-232 445.7112,-268"/>
<text text-anchor="middle" x="404" y="-245.8" font-family="Courier,monospace" font-size="14.00" fill="#ffffff">ME 300+L</text>
</g>
<!-- GE 206+7&#45;&gt;ME 300+L -->
<g id="edge25" class="edge">
<title>GE 206+7&#45;&gt;ME 300+L</title>
<path fill="none" stroke="#000000" d="M394.2804,-303.8314C395.6708,-296.131 397.3241,-286.9743 398.8692,-278.4166"/>
<polygon fill="#000000" stroke="#000000" points="400.6754,-268.4133 403.3269,-279.0538 399.7869,-273.3337 398.8985,-278.2541 398.8985,-278.2541 398.8985,-278.2541 399.7869,-273.3337 394.4701,-277.4545 400.6754,-268.4133 400.6754,-268.4133"/>
</g>
<!-- GE 206+7&#45;&gt;ME 308+9 -->
<g id="edge12" class="edge">
<title>GE 206+7&#45;&gt;ME 308+9</title>
<path fill="none" stroke="#000000" d="M367.8893,-303.9602C358.5632,-296 348.1131,-286.1535 340,-276 322.4417,-254.0259 307.2165,-225.7213 297.2652,-205.1853"/>
<polygon fill="#000000" stroke="#000000" points="292.9457,-196.0689 301.2943,-203.179 295.0867,-200.5874 297.2276,-205.1059 297.2276,-205.1059 297.2276,-205.1059 295.0867,-200.5874 293.161,-207.0327 292.9457,-196.0689 292.9457,-196.0689"/>
</g>
<!-- ME 302 -->
<g id="node21" class="node">
<title>ME 302</title>
<polygon fill="#006699" stroke="#ffffff" points="411.4095,-196 344.5905,-196 344.5905,-160 411.4095,-160 411.4095,-196"/>
<text text-anchor="middle" x="378" y="-173.8" font-family="Courier,monospace" font-size="14.00" fill="#ffffff">ME 302</text>
</g>
<!-- GE 206+7&#45;&gt;ME 302 -->
<g id="edge18" class="edge">
<title>GE 206+7&#45;&gt;ME 302</title>
<path fill="none" stroke="#000000" d="M368.9911,-303.603C361.4702,-295.9381 353.9609,-286.3969 350,-276 341.7722,-254.4031 343.76,-246.2528 350,-224 351.8222,-217.5017 354.8432,-211.0105 358.2419,-205.0392"/>
<polygon fill="#000000" stroke="#000000" points="363.7758,-196.1573 362.307,-207.0244 361.1317,-200.401 358.4877,-204.6447 358.4877,-204.6447 358.4877,-204.6447 361.1317,-200.401 354.6683,-202.2651 363.7758,-196.1573 363.7758,-196.1573"/>
</g>
<!-- ME 316 -->
<g id="node14" class="node">
<title>ME 316</title>
<polygon fill="#006699" stroke="#ffffff" points="698.4095,-268 631.5905,-268 631.5905,-232 698.4095,-232 698.4095,-268"/>
<text text-anchor="middle" x="665" y="-245.8" font-family="Courier,monospace" font-size="14.00" fill="#ffffff">ME 316</text>
</g>
<!-- ME 315&#45;&gt;ME 316 -->
<g id="edge9" class="edge">
<title>ME 315&#45;&gt;ME 316</title>
<path fill="none" stroke="#000000" stroke-dasharray="5,2" d="M516.7558,-268.2528C525.6228,-275.2396 536.637,-282.3935 548,-286 575.9589,-294.8738 586.0411,-294.8738 614,-286 621.9896,-283.4642 629.8068,-279.1746 636.8264,-274.4224"/>
<polygon fill="#000000" stroke="#000000" points="645.2442,-268.2528 639.8388,-277.7938 641.2114,-271.2085 637.1786,-274.1643 637.1786,-274.1643 637.1786,-274.1643 641.2114,-271.2085 634.5184,-270.5347 645.2442,-268.2528 645.2442,-268.2528"/>
</g>
<!-- ME 315&#45;&gt;ME 308+9 -->
<!-- ME 340&#45;&gt;ME 430+L -->
<g id="edge22" class="edge">
<title>ME 340&#45;&gt;ME 430+L</title>
<path fill="none" stroke="#000000" d="M806.5457,-231.9469C801.5257,-229.0099 796.2103,-226.2109 791,-224 671.1296,-173.136 635.0562,-175.6147 507,-152 431.7507,-138.1234 409.2361,-154.1696 336,-132 332.4627,-130.9292 328.8769,-129.6209 325.3313,-128.1666"/>
<polygon fill="#000000" stroke="#000000" points="316.1009,-124.0391 327.0668,-124.0133 320.6654,-126.0802 325.2298,-128.1213 325.2298,-128.1213 325.2298,-128.1213 320.6654,-126.0802 323.3929,-132.2293 316.1009,-124.0391 316.1009,-124.0391"/>
</g>
<!-- ME 345&#45;&gt;ME 316 -->
<g id="edge10" class="edge">
<title>ME 345&#45;&gt;ME 316</title>
<path fill="none" stroke="#000000" stroke-dasharray="5,2" d="M614.4688,-250C616.7675,-250 619.0662,-250 621.365,-250"/>
<polygon fill="#000000" stroke="#000000" points="631.4441,-250 621.4441,-254.5001 626.4441,-250 621.4441,-250.0001 621.4441,-250.0001 621.4441,-250.0001 626.4441,-250 621.444,-245.5001 631.4441,-250 631.4441,-250"/>
</g>
<!-- ME 308+9&#45;&gt;ME 430+L -->
<!-- ME 308+9&#45;&gt;ME 430+L -->
<g id="edge23" class="edge">
<title>ME 308+9&#45;&gt;ME 430+L</title>
<path fill="none" stroke="#000000" d="M290.9524,-159.8314C291.7028,-152.131 291.9237,-142.9743 291.6151,-134.4166"/>
<polygon fill="#000000" stroke="#000000" points="290.976,-124.4133 296.1045,-134.106 291.2948,-129.4031 291.6137,-134.3929 291.6137,-134.3929 291.6137,-134.3929 291.2948,-129.4031 287.1228,-134.6799 290.976,-124.4133 290.976,-124.4133"/>
</g>
<!-- ME 498 -->
<g id="node25" class="node">
<title>ME 498</title>
<polygon fill="#006699" stroke="#ffffff" points="411.4095,-124 344.5905,-124 344.5905,-88 411.4095,-88 411.4095,-124"/>
<text text-anchor="middle" x="378" y="-101.8" font-family="Courier,monospace" font-size="14.00" fill="#ffffff">ME 498</text>
</g>
<!-- ME 370&#45;&gt;ME 498 -->
<g id="edge27" class="edge">
<title>ME 370&#45;&gt;ME 498</title>
<path fill="none" stroke="#000000" d="M217.9013,-159.9755C223.0635,-156.9634 228.5715,-154.1303 234,-152 277.0038,-135.124 292.9962,-148.876 336,-132 338.375,-131.068 340.7651,-130.0015 343.1349,-128.8443"/>
<polygon fill="#000000" stroke="#000000" points="352.0987,-124.0245 345.4223,-132.7237 347.6949,-126.3924 343.2912,-128.7603 343.2912,-128.7603 343.2912,-128.7603 347.6949,-126.3924 341.16,-124.7969 352.0987,-124.0245 352.0987,-124.0245"/>
</g>
<!-- ME 302&#45;&gt;ME 498 -->
<g id="edge26" class="edge">
<title>ME 302&#45;&gt;ME 498</title>
<path fill="none" stroke="#000000" d="M378,-159.8314C378,-152.131 378,-142.9743 378,-134.4166"/>
<polygon fill="#000000" stroke="#000000" points="378,-124.4133 382.5001,-134.4132 378,-129.4133 378.0001,-134.4133 378.0001,-134.4133 378.0001,-134.4133 378,-129.4133 373.5001,-134.4133 378,-124.4133 378,-124.4133"/>
</g>
<!-- ME 430+L&#45;&gt;ME 498 -->
<g id="edge28" class="edge">
<title>ME 430+L&#45;&gt;ME 498</title>
<path fill="none" stroke="#000000" stroke-dasharray="5,2" d="M326.7773,-106C329.4035,-106 332.0297,-106 334.6558,-106"/>
<polygon fill="#000000" stroke="#000000" points="344.7853,-106 334.7854,-110.5001 339.7853,-106 334.7853,-106.0001 334.7853,-106.0001 334.7853,-106.0001 339.7853,-106 334.7853,-101.5001 344.7853,-106 344.7853,-106"/>
</g>
<!-- GE 359 -->
<g id="node27" class="node">
<title>GE 359</title>
<polygon fill="#006699" stroke="#ffffff" points="257.4095,-52 190.5905,-52 190.5905,-16 257.4095,-16 257.4095,-52"/>
<text text-anchor="middle" x="224" y="-29.8" font-family="Courier,monospace" font-size="14.00" fill="#ffffff">GE 359</text>
</g>
<!-- ME 430+L&#45;&gt;GE 359 -->
<!-- ME Elective I -->
<g id="node24" class="node">
<title>ME Elective I</title>
<polygon fill="#006699" stroke="#ffffff" points="225.718,-124 100.282,-124 100.282,-88 225.718,-88 225.718,-124"/>
<text text-anchor="middle" x="163" y="-101.8" font-family="Courier,monospace" font-size="14.00" fill="#ffffff">ME Elective I</text>
</g>
<!-- ME 499+L -->
<g id="node29" class="node">
<title>ME 499+L</title>
<polygon fill="#006699" stroke="#ffffff" points="518.7112,-52 435.2888,-52 435.2888,-16 518.7112,-16 518.7112,-52"/>
<text text-anchor="middle" x="477" y="-29.8" font-family="Courier,monospace" font-size="14.00" fill="#ffffff">ME 499+L</text>
</g>
<!-- ME 498&#45;&gt;ME 499+L -->
<g id="edge33" class="edge">
<title>ME 498&#45;&gt;ME 499+L</title>
<path fill="none" stroke="#000000" d="M402.9819,-87.8314C415.2928,-78.8779 430.3107,-67.9558 443.5937,-58.2955"/>
<polygon fill="#000000" stroke="#000000" points="452.0261,-52.1628 446.5855,-61.6839 447.9824,-55.1037 443.9387,-58.0446 443.9387,-58.0446 443.9387,-58.0446 447.9824,-55.1037 441.2919,-54.4053 452.0261,-52.1628 452.0261,-52.1628"/>
</g>
<!-- ME Elective III -->
<g id="node28" class="node">
<title>ME Elective III</title>
<polygon fill="#006699" stroke="#ffffff" points="417.0205,-52 274.9795,-52 274.9795,-16 417.0205,-16 417.0205,-52"/>
<text text-anchor="middle" x="346" y="-29.8" font-family="Courier,monospace" font-size="14.00" fill="#ffffff">ME Elective III</text>
</g>
<!-- ME Elective II -->
<g id="node30" class="node">
<title>ME Elective II</title>
<polygon fill="#006699" stroke="#ffffff" points="172.6197,-52 39.3803,-52 39.3803,-16 172.6197,-16 172.6197,-52"/>
<text text-anchor="middle" x="106" y="-29.8" font-family="Courier,monospace" font-size="14.00" fill="#ffffff">ME Elective II</text>
</g>
</g>
</svg>
